<?xml version="1.0" encoding="UTF-8" standalone="no"?>
<!-- Created with Inkscape (http://www.inkscape.org/) -->

<svg
   version="1.1"
   id="svg182"
   width="316.27505"
   height="320.82242"
   viewBox="0 0 316.27505 320.82242"
   sodipodi:docname="recipe-book-icon.svg"
   inkscape:version="1.2.2 (732a01da63, 2022-12-09)"
   xmlns:inkscape="http://www.inkscape.org/namespaces/inkscape"
   xmlns:sodipodi="http://sodipodi.sourceforge.net/DTD/sodipodi-0.dtd"
   xmlns="http://www.w3.org/2000/svg"
   xmlns:svg="http://www.w3.org/2000/svg">
  <defs
     id="defs186" />
  <sodipodi:namedview
     id="namedview184"
     pagecolor="#ffffff"
     bordercolor="#000000"
     borderopacity="0.25"
     inkscape:showpageshadow="2"
     inkscape:pageopacity="0"
     inkscape:pagecheckerboard="0"
     inkscape:deskcolor="#d1d1d1"
     showgrid="false"
     inkscape:zoom="2.4841309"
     inkscape:cx="147.93906"
     inkscape:cy="159.81444"
     inkscape:window-width="1920"
     inkscape:window-height="1017"
     inkscape:window-x="1912"
     inkscape:window-y="699"
     inkscape:window-maximized="1"
     inkscape:current-layer="g188" />
  <g
     inkscape:groupmode="layer"
     inkscape:label="Image"
     id="g188"
     transform="translate(-6.2414438,-4.1380668)">
    <path
       style="fill:#fefefe;stroke-width:0.32"
       d="m 67.679998,324.79861 c -1.76,-0.0967 -3.514534,-0.35196 -3.898963,-0.56723 -0.384429,-0.21526 -1.064947,-0.39139 -1.512266,-0.39139 -0.447315,0 -1.284784,-0.28746 -1.861036,-0.63882 -0.576253,-0.35132 -1.371735,-0.63932 -1.767735,-0.64 -0.396,0 -0.72,-0.12953 -0.72,-0.28643 0,-0.15689 -0.54,-0.52413 -1.2,-0.81606 -1.590473,-0.70349 -2.510124,-1.24195 -3.222992,-1.8871 -0.323072,-0.29237 -0.732256,-0.53159 -0.909296,-0.53159 -0.353475,0 -5.700195,-5.34413 -6.885871,-6.88253 -0.867319,-1.12534 -1.46194,-2.04556 -1.755949,-2.71747 -0.11552,-0.264 -0.474602,-0.86223 -0.797965,-1.3294 -0.32336,-0.46717 -0.591129,-1.04317 -0.595043,-1.28 -0.0039,-0.23683 -0.28871,-0.7906 -0.632883,-1.2306 -0.344173,-0.44 -0.62897,-1.13824 -0.632883,-1.55164 -0.0039,-0.4134 -0.21328,-1.2054 -0.465255,-1.76 -0.251977,-0.5546 -0.5332,-1.65636 -0.624941,-2.44836 -0.09174,-0.792 -0.305427,-2.304 -0.474857,-3.36 -0.189648,-1.18199 -0.318439,-27.58104 -0.335063,-68.68 -0.01485,-36.718 -0.113718,-67.19359 -0.219708,-67.72353 -0.105991,-0.52995 -0.501991,-1.12071 -0.88,-1.31282 -0.37801,-0.1921 -1.263293,-0.71098 -1.967293,-1.15306 -0.704,-0.44207 -1.573917,-0.9343 -1.933152,-1.09384 -0.359232,-0.15954 -0.844864,-0.52107 -1.079181,-0.80341 C 33.073349,155.431 32.734098,155.2 32.553775,155.2 c -0.180323,0 -0.942927,-0.504 -1.694674,-1.12 -0.751746,-0.616 -1.464196,-1.12 -1.583221,-1.12 -1.005143,0 -12.315881,-11.96271 -12.315881,-13.0258 0,-0.17325 -0.288,-0.57565 -0.639999,-0.8942 -0.352,-0.31856 -0.64,-0.75525 -0.64,-0.97042 0,-0.21517 -0.21542,-0.57 -0.478711,-0.78852 -0.263291,-0.21851 -0.93369,-1.32148 -1.489776,-2.45105 -0.556086,-1.12958 -1.132666,-2.12892 -1.28129,-2.22078 C 12.2816,132.51738 12.16,132.22966 12.16,131.96985 c 0,-0.2598 -0.251923,-0.85686 -0.559829,-1.32678 -0.548478,-0.83708 -1.238069,-2.49144 -1.568576,-3.76307 -0.091488,-0.352 -0.4319028,-1.216 -0.7564782,-1.92 -0.3245756,-0.704 -0.6587161,-1.712 -0.7425347,-2.24 -0.083819,-0.528 -0.3738316,-1.608 -0.6444735,-2.4 -1.3630237,-3.98872 -1.9485328,-11.71346 -1.4957616,-19.73388 0.3400643,-6.023921 0.7515155,-8.806232 1.6427808,-11.108795 0.3326796,-0.859472 0.6048719,-1.908537 0.6048719,-2.33126 0,-0.42272 0.2304317,-1.120269 0.5120704,-1.550103 C 9.4337088,85.166125 9.7839306,84.343194 9.9303402,83.76722 10.344622,82.137444 10.98742,80.532097 11.600171,79.596922 11.908077,79.126999 12.16,78.579678 12.16,78.380654 c 0,-0.199021 0.26423,-0.74409 0.587179,-1.211258 0.322949,-0.467168 0.906153,-1.521747 1.296011,-2.343504 0.389857,-0.821757 0.917626,-1.667389 1.17282,-1.879181 0.255194,-0.211792 0.46399,-0.561126 0.46399,-0.7763 0,-0.215172 0.288,-0.651856 0.64,-0.970413 0.351999,-0.318557 0.639999,-0.777392 0.639999,-1.019639 0,-0.242246 0.216,-0.523334 0.48,-0.62464 0.264,-0.101308 0.48,-0.352998 0.48,-0.559315 0,-0.206316 0.288,-0.582697 0.64,-0.836406 0.352,-0.253709 0.643153,-0.609498 0.647006,-0.790643 0.0039,-0.181146 0.795853,-1.170595 1.76,-2.198778 0.964147,-1.028179 1.752994,-1.921635 1.752994,-1.985453 0,-0.14518 1.590658,-1.745126 1.734995,-1.745126 0.05825,0 0.735701,-0.594768 1.505454,-1.321705 0.769753,-0.726941 1.903551,-1.698941 2.519551,-2.16 0.616,-0.461063 1.310795,-1.018804 1.543989,-1.239428 0.731282,-0.691859 3.197182,-2.318867 3.514485,-2.318867 0.166739,0 0.48463,-0.218656 0.706428,-0.485904 0.221796,-0.267248 0.887428,-0.715657 1.479181,-0.996464 0.591754,-0.280803 1.075917,-0.638147 1.075917,-0.794092 0,-0.155946 0.270368,-0.28354 0.600819,-0.28354 0.330448,0 0.78008,-0.216 0.999181,-0.48 0.219101,-0.264 0.632733,-0.483203 0.919181,-0.487116 0.286451,-0.0039 0.880819,-0.288711 1.320819,-0.632884 0.44,-0.344172 1.016,-0.62951 1.28,-0.63408 0.264,-0.0046 0.951481,-0.295772 1.527734,-0.647116 0.576253,-0.351341 1.37673,-0.638803 1.778838,-0.638803 0.402109,0 1.010628,-0.211421 1.352266,-0.469824 0.341638,-0.2584 1.019117,-0.4744 1.505504,-0.48 0.486387,-0.0056 1.170387,-0.154176 1.52,-0.330176 0.349613,-0.176 0.921702,-0.464 1.271315,-0.64 0.349613,-0.176 0.996006,-0.32 1.436429,-0.32 0.440425,0 1.918381,-0.312138 3.284342,-0.693636 2.273453,-0.634953 3.201005,-0.691705 10.963571,-0.670816 7.546105,0.02032 8.758758,0.09669 11.011187,0.693636 1.392153,0.368947 2.87511,0.670816 3.295459,0.670816 0.420349,0 1.360361,0.288 2.088918,0.64 0.728554,0.352 1.64593,0.64 2.038608,0.64 0.392679,0 1.121632,0.196889 1.619895,0.437536 3.084214,1.489571 3.847324,1.80415 4.374639,1.803353 0.662356,-9.6e-4 1.780692,-1.189321 1.807764,-1.920889 0.0098,-0.264 0.299356,-0.84 0.643529,-1.28 0.344173,-0.44 0.62897,-1.052 0.632883,-1.36 0.0039,-0.308 0.134711,-0.56 0.290656,-0.56 0.155946,0 0.526458,-0.468 0.823357,-1.04 0.925898,-1.783805 1.333318,-2.456535 1.839757,-3.037795 0.269411,-0.309213 0.546909,-0.706205 0.616669,-0.882205 0.332537,-0.838995 1.652204,-2.72 1.908288,-2.72 0.158614,0 0.28839,-0.160016 0.28839,-0.355591 0,-0.300387 0.871363,-1.44447 3.134363,-4.115356 0.22791,-0.268979 1.48759,-1.641053 2.7993,-3.049053 1.31171,-1.408 2.38525,-2.668 2.38563,-2.8 3.2e-4,-0.132 0.1333,-0.24 0.29536,-0.24 0.16206,0 0.84606,-0.542072 1.52,-1.204606 0.67394,-0.662533 2.41335,-2.120525 3.86535,-3.239983 1.452,-1.119457 2.64,-2.161385 2.64,-2.315394 0,-0.154009 0.23716,-0.280017 0.52704,-0.280017 0.28987,0 1.14211,-0.504 1.89385,-1.12 0.75175,-0.616 1.47524,-1.12 1.60777,-1.12 0.13252,0 0.49285,-0.227969 0.80073,-0.506598 0.69502,-0.628986 2.40424,-1.62895 3.57061,-2.088949 0.484,-0.190883 0.88,-0.476974 0.88,-0.635756 0,-0.158783 0.252,-0.291898 0.56,-0.295812 0.308,-0.0039 0.92,-0.288711 1.36,-0.632884 0.44,-0.344174 0.96953,-0.628971 1.17674,-0.632885 0.20721,-0.0039 1.34368,-0.511115 2.52549,-1.127115 1.18181,-0.616 2.35804,-1.1200003 2.61386,-1.1200003 0.25581,0 0.84734,-0.269703 1.31451,-0.5993398 0.46717,-0.3296371 1.3534,-0.6759011 1.9694,-0.7694758 1.24171,-0.1886256 4.64987,-1.3161568 5.51565,-1.8247625 0.30562,-0.1795319 1.04968,-0.3264218 1.65348,-0.3264218 0.60379,0 1.76968,-0.288 2.59087,-0.64 0.82118,-0.352 2.16512,-0.6451296 2.98653,-0.651399 0.8214,-0.00627 2.35747,-0.2200198 3.41347,-0.4750013 2.73632,-0.6607103 19.02367,-0.6607103 21.75999,0 1.056,0.2549815 2.59207,0.4687322 3.41347,0.4750013 0.82141,0.00627 2.16535,0.299399 2.98653,0.651399 0.82119,0.352 1.963,0.64 2.53737,0.64 0.57437,0 1.52624,0.2404211 2.11527,0.5342694 0.58904,0.2938483 1.58316,0.6397267 2.20917,0.7686186 1.45573,0.2997276 3.04094,0.8488476 4.65819,1.6136092 0.704,0.332904 1.42956,0.6048803 1.61234,0.6043917 0.18279,-4.89e-4 0.89724,0.2871113 1.58766,0.6391113 0.69043,0.352 1.42325,0.64 1.62848,0.64 0.20524,0 0.55242,0.216 0.77152,0.48 0.2191,0.264 0.67476,0.48 1.01257,0.48 0.33781,0 0.92333,0.288 1.30115,0.64 0.37783,0.352 0.90047,0.64 1.16143,0.64 0.26095,0 0.7018,0.194606 0.97966,0.432458 0.27786,0.237852 1.15239,0.777852 1.94341,1.2 0.79102,0.422148 1.71817,1.019542 2.06034,1.327541 0.34217,0.308 0.73864,0.56 0.88104,0.56 0.35599,0 3.05429,1.931566 6.5227,4.669247 3.50696,2.768111 9.41889,8.563069 11.31462,11.090753 0.75899,1.012 1.50668,1.84 1.66153,1.84 0.15486,0 0.28155,0.200595 0.28155,0.445763 0,0.245171 0.216,0.52865 0.48,0.629959 0.264,0.101305 0.48,0.348726 0.48,0.549823 0,0.201101 0.54,1.034237 1.2,1.851418 1.3267,1.642659 1.85926,2.438006 2.28743,3.416189 0.15724,0.359232 0.5169,0.844864 0.79924,1.079181 0.28233,0.234316 0.51333,0.669247 0.51333,0.966508 0,0.297264 0.288,0.84961 0.64,1.22744 0.352,0.377827 0.64,0.817053 0.64,0.976058 0,0.159005 0.41363,1.065027 0.91917,2.013382 1.06173,1.991728 1.7636,2.256141 3.36374,1.267207 0.58995,-0.364612 1.35211,-0.662928 1.6937,-0.662928 0.34159,0 0.90059,-0.211421 1.24223,-0.469824 0.34164,-0.2584 1.02412,-0.4744 1.51662,-0.48 0.4925,-0.0056 1.49155,-0.298176 2.22011,-0.650176 0.72855,-0.352 1.63456,-0.64 2.01335,-0.64 0.37879,0 1.82774,-0.30329 3.2199,-0.673975 2.27596,-0.606016 3.38624,-0.673094 11.01118,-0.665251 6.94079,0.0071 8.8285,0.106163 10.4,0.545542 1.056,0.295248 2.568,0.604608 3.36,0.687469 0.792,0.08286 2.05043,0.428656 2.79651,0.768435 0.74609,0.33978 1.68209,0.622359 2.08,0.627956 0.39792,0.0056 1.00301,0.2216 1.34465,0.48 0.34164,0.258403 0.91764,0.470361 1.28,0.47102 0.36236,6.4e-4 1.13032,0.288656 1.70658,0.64 0.57625,0.351341 1.33225,0.638803 1.68,0.638803 0.34774,0 0.63226,0.126532 0.63226,0.281178 0,0.154646 0.396,0.429149 0.88,0.610003 1.54924,0.578903 1.81611,0.707098 3.12,1.498749 0.704,0.42743 1.57392,0.913552 1.93315,1.080272 0.35924,0.16672 0.84487,0.534128 1.07918,0.816461 0.23432,0.282336 0.53948,0.513337 0.67813,0.513337 0.41359,0 2.86954,1.69192 2.86954,1.976842 0,0.144736 0.18,0.263824 0.4,0.26464 0.22,9.6e-4 0.83391,0.396813 1.36425,0.88 0.53034,0.483184 1.90698,1.694672 3.05919,2.692189 1.15222,0.99752 3.1663,3.074579 4.47575,4.615686 1.30945,1.54111 2.63281,3.064957 2.94081,3.386329 0.308,0.321373 0.56,0.705997 0.56,0.854717 0,0.148723 0.288,0.53104 0.64,0.849597 0.352,0.318557 0.64,0.755241 0.64,0.970413 0,0.215174 0.231,0.582937 0.51334,0.817254 0.28233,0.234317 0.64851,0.719949 0.81374,1.079181 0.50217,1.091853 1.10203,2.058121 1.66133,2.676144 0.29237,0.323072 0.53479,0.792064 0.53871,1.042204 0.004,0.250141 0.28871,0.814804 0.63288,1.254804 0.34417,0.44 0.62897,0.993782 0.63288,1.230627 0.004,0.236845 0.19976,0.812845 0.4352,1.28 1.34534,2.669356 1.81373,3.797555 1.81401,4.369372 1.6e-4,0.352 0.28776,1.111482 0.63911,1.687735 0.35134,0.576253 0.6397,1.512253 0.64078,2.08 0,0.567747 0.21706,1.444726 0.48,1.948844 0.26292,0.504119 0.47802,1.469092 0.47802,2.144388 0,0.675292 0.24838,2.062835 0.552,3.08342 0.43494,1.462147 0.57302,3.391571 0.6513,9.099326 0.0887,6.47176 0.0298,7.50272 -0.552,9.67412 -0.35821,1.33672 -0.6513,2.91946 -0.6513,3.5172 0,0.59775 -0.216,1.60377 -0.48,2.23561 -0.264,0.63184 -0.48,1.44838 -0.48,1.81454 0,0.36615 -0.288,1.26182 -0.64,1.99038 -0.352,0.72855 -0.6396,1.5496 -0.63911,1.82454 6.4e-4,0.27494 -0.31339,1.1479 -0.69751,1.9399 -0.38412,0.792 -0.9097,1.944 -1.16797,2.56 -0.25827,0.616 -0.61968,1.408 -0.80312,1.76 -1.18425,2.2723 -1.58121,2.98538 -2.13769,3.84 -0.3438,0.528 -0.75918,1.26165 -0.92305,1.63034 -0.16387,0.36869 -0.49001,0.87877 -0.72475,1.13351 -0.23474,0.25475 -0.5708,0.68477 -0.7468,0.9556 -1.86777,2.87417 -2.79027,4.12055 -3.04983,4.12055 -0.1706,0 -0.31017,0.13937 -0.31017,0.30971 0,0.33207 -7.19537,7.69029 -7.52009,7.69029 -0.10674,0 -1.1867,0.792 -2.39991,1.76 -1.21321,0.968 -2.33989,1.76 -2.50373,1.76 -0.16385,0 -0.48962,0.231 -0.72394,0.51333 -0.23431,0.28234 -0.71994,0.64974 -1.07918,0.81646 -0.35923,0.16672 -1.22915,0.65612 -1.93315,1.08754 -0.704,0.43142 -1.52204,0.87021 -1.81786,0.97507 -0.29583,0.10487 -0.65583,0.42847 -0.8,0.71913 -0.14418,0.29065 -0.35256,31.20046 -0.46308,68.68846 -0.12016,40.76088 -0.32492,69.06044 -0.50936,70.4 -0.2876,2.08868 -0.83059,3.95276 -1.89076,6.49086 -0.24142,0.57797 -0.44214,1.22597 -0.44606,1.44 -0.004,0.21403 -0.28871,0.74914 -0.63288,1.18914 -0.34417,0.44 -0.62897,1.02968 -0.63288,1.3104 -0.004,0.28073 -0.29512,0.77104 -0.64712,1.0896 -0.352,0.31856 -0.64,0.69923 -0.64,0.84594 0,0.27419 -0.69242,1.1983 -1.68,2.24215 -0.308,0.32555 -0.56,0.67661 -0.56,0.78013 0,0.31163 -5.23351,5.25178 -5.56364,5.25178 -0.16828,0 -0.57029,0.23922 -0.89337,0.53159 -0.65693,0.59452 -1.53931,1.1246 -3.02392,1.81657 -0.55052,0.25661 -1.09902,0.62522 -1.21889,0.8192 -0.11987,0.19395 -0.53345,0.35318 -0.91906,0.35382 -0.38562,0 -1.1726,0.28868 -1.74885,0.64 -0.57626,0.35136 -1.38667,0.63882 -1.80092,0.63882 -0.41425,0 -1.31078,0.2487 -1.99227,0.55267 -1.16467,0.51949 -7.01362,0.55357 -97.39908,0.56723 -52.88799,0.008 -97.599992,-0.0646 -99.359992,-0.16128 z M 260.87556,306.55999 c 0.72855,-0.352 1.51507,-0.64 1.74782,-0.64 1.10862,0 5.81116,-4.01526 5.8446,-4.9904 0.007,-0.19273 0.30001,-0.61104 0.65201,-0.9296 0.352,-0.31856 0.64,-0.82841 0.64,-1.13302 0,-0.3046 0.21512,-0.96628 0.47803,-1.4704 0.41453,-0.79484 0.47829,-5.09256 0.48,-32.35658 l 0.002,-31.44 h -106.4 c -84.900204,0 -106.402437,0.0808 -106.412094,0.4 -0.0067,0.22 -0.0016,14.44 0.01107,31.6 0.02253,30.33695 0.04058,31.23599 0.652102,32.50103 0.345904,0.71557 0.628919,1.44925 0.628919,1.63041 0,0.18115 0.288,0.59 0.64,0.90856 0.352,0.31856 0.64,0.738 0.64,0.93211 0,0.7848 4.611449,4.32488 5.694211,4.37128 0.300182,0.0129 0.977788,0.29034 1.505788,0.61661 0.928925,0.57402 4.049751,0.59398 96.415454,0.61661 94.82483,0.0232 95.46421,0.0192 96.78011,-0.61661 z M 160,289.94847 c -1.496,-0.11305 -3.27759,-0.4537 -3.95908,-0.75701 -0.6815,-0.30331 -1.50602,-0.55147 -1.83227,-0.55147 -0.32625,0 -1.06467,-0.28746 -1.64092,-0.6388 -0.57625,-0.35135 -1.2821,-0.63935 -1.56855,-0.64 -0.28645,-6.4e-4 -0.70008,-0.2172 -0.91918,-0.4812 -0.21911,-0.264 -0.64642,-0.48 -0.94959,-0.48 -0.30317,0 -0.81186,-0.288 -1.13041,-0.64 -0.31856,-0.352 -0.72205,-0.64 -0.89664,-0.64 -0.1746,0 -0.93252,-0.504 -1.68426,-1.12 -0.75175,-0.616 -1.43921,-1.12 -1.5277,-1.12 -0.23783,0 -2.97819,-2.78268 -3.21578,-3.26544 -0.11221,-0.228 -0.63413,-1.20371 -1.15982,-2.16823 -1.27464,-2.33865 -1.3027,-4.50387 -0.0909,-7.01443 0.4757,-0.98555 0.95421,-1.8639 1.06334,-1.9519 0.10913,-0.088 0.2914,-0.412 0.40503,-0.72 0.11364,-0.308 0.41173,-0.56 0.66243,-0.56 0.25069,0 0.53869,-0.216 0.64,-0.48 0.1013,-0.264 0.36871,-0.4832 0.59423,-0.48711 0.22553,-0.004 0.77005,-0.28872 1.21005,-0.63289 1.11001,-0.86826 6.03259,-0.92212 7.31197,-0.08 0.46792,0.308 1.08353,0.704 1.36802,0.88 0.28449,0.176 1.57987,1.21782 2.87863,2.31516 1.29875,1.09734 2.53699,1.99734 2.75164,2 0.21465,0.003 0.90303,0.29284 1.52974,0.64484 0.9324,0.5237 1.73373,0.64016 4.40973,0.64089 3.23139,9.6e-4 4.08489,-0.21193 6.63026,-1.65318 0.264,-0.14948 0.65456,-0.35618 0.86791,-0.45934 0.21334,-0.10316 1.22134,-0.96519 2.24,-1.91563 1.01865,-0.95044 1.99609,-1.73232 2.17209,-1.73752 0.176,-0.005 0.68,-0.29105 1.12,-0.63522 1.17974,-0.9228 5.95417,-0.9228 7.12732,0 0.4475,0.352 1.00169,0.64 1.23154,0.64 0.64577,0 3.48114,3.26676 3.48114,4.01078 0,0.36367 0.18,0.84122 0.4,1.06122 0.24271,0.24271 0.4,1.26827 0.4,2.608 0,1.33974 -0.15729,2.3653 -0.4,2.608 -0.22,0.22 -0.4,0.72607 -0.4,1.1246 0,0.81596 -5.25474,6.30391 -6.37713,6.66014 -0.36457,0.11572 -0.66287,0.34469 -0.66287,0.50883 0,0.16413 -0.19368,0.29843 -0.4304,0.29843 -0.23672,0 -0.69104,0.288 -1.0096,0.64 -0.31855,0.352 -0.82724,0.64 -1.13041,0.64 -0.30317,0 -0.73048,0.216 -0.94959,0.48 -0.2191,0.264 -0.63273,0.48054 -0.91918,0.4812 -0.28645,6.4e-4 -0.9923,0.28865 -1.56855,0.64 -0.57625,0.35134 -1.37721,0.6388 -1.77989,0.6388 -0.40269,0 -1.29921,0.27042 -1.99227,0.60093 -1.4566,0.69463 -7.71045,1.05438 -12.3001,0.70755 z m -64.800003,-6.29603 c -0.704,-0.27751 -1.595689,-0.58003 -1.981536,-0.67228 -1.012489,-0.24206 -3.456816,-2.76418 -4.233155,-4.36789 -0.623369,-1.28771 -0.665309,-1.91883 -0.665309,-10.01215 0,-7.0995 0.08367,-8.74843 0.469824,-9.25897 0.2584,-0.34163 0.4744,-0.80885 0.48,-1.03826 0.01168,-0.47918 1.651619,-2.62288 2.006519,-2.62289 0.129987,0 0.513814,-0.23759 0.852947,-0.52796 1.675942,-1.43499 5.708054,-2.11943 7.428777,-1.26102 0.561146,0.27994 1.263816,0.50897 1.561496,0.50897 0.29769,0 0.80188,0.288 1.12044,0.64 0.31855,0.352 0.77287,0.64 1.00959,0.64 0.23672,0 0.43041,0.2006 0.43041,0.44577 0,0.24517 0.18754,0.51773 0.41677,0.60569 0.22922,0.088 0.80522,0.90866 1.28,1.82377 l 0.86323,1.66383 v 8.43354 c 0,8.29434 -0.0127,8.45745 -0.77025,9.88217 -0.93531,1.75907 -1.93508,3.06523 -2.34621,3.06523 -0.16739,0 -0.56499,0.288 -0.88354,0.64 -0.31856,0.352 -0.77794,0.64 -1.02086,0.64 -0.24291,0 -0.76059,0.20478 -1.1504,0.45506 -1.15026,0.73855 -3.424237,0.88679 -4.868743,0.31739 z m 134.719993,0.19301 c -3.24859,-0.93572 -4.47157,-1.79933 -6.35195,-4.48546 l -1.00805,-1.44 v -9.33422 c 0,-9.23951 0.007,-9.34199 0.72,-10.10062 0.396,-0.42153 0.72,-0.92748 0.72,-1.12436 0,-0.52137 2.76587,-2.70445 4.11933,-3.25134 1.46829,-0.5933 4.94415,-0.59472 6.54975,-0.003 1.78073,0.65662 4.11693,3.04089 5.11439,5.21963 0.85247,1.86204 0.85653,1.90713 0.85653,9.50251 0,7.03844 -0.0497,7.72016 -0.64,8.77106 -0.352,0.62671 -0.64,1.31657 -0.64,1.53303 0,0.76551 -2.72613,3.18852 -4.44036,3.94663 -2.03814,0.90136 -3.66426,1.15044 -4.99964,0.7658 z m 40.8,-96.96997 c 0,-28.16753 0.0176,-29.0127 0.64,-30.71548 0.352,-0.96304 0.64,-2.05937 0.64,-2.43631 0,-0.37693 0.216,-0.86459 0.48,-1.08369 0.264,-0.21911 0.48,-0.6332 0.48,-0.92021 0,-1.17549 5.07045,-7.13781 6.43968,-7.57239 0.33018,-0.10479 0.60032,-0.30803 0.60032,-0.45165 0,-0.14361 0.252,-0.34376 0.56,-0.44478 0.308,-0.10102 1.136,-0.54639 1.84,-0.98971 0.704,-0.44332 1.80406,-1.09226 2.44457,-1.44208 1.24117,-0.67788 6.43264,-4.8078 7.43639,-5.9158 1.57711,-1.74091 5.31904,-6.53199 5.31904,-6.81036 0,-0.17261 0.288,-0.57447 0.64,-0.89302 0.352,-0.31856 0.64,-0.82256 0.64,-1.12 0,-0.29745 0.288,-0.80145 0.64,-1.12 0.352,-0.31856 0.64,-0.89925 0.64,-1.29042 0,-0.39117 0.216,-0.89048 0.48,-1.10958 0.264,-0.2191 0.48095,-0.70474 0.48211,-1.07918 0.001,-0.37446 0.28821,-1.11282 0.63789,-1.64082 0.34968,-0.528 0.63673,-1.33388 0.63789,-1.79084 0.001,-0.45696 0.25063,-1.32096 0.55437,-1.92 0.30374,-0.59904 0.64605,-1.95316 0.76069,-3.00916 0.11464,-1.056 0.38784,-3.16858 0.60712,-4.69462 0.31257,-2.17525 0.31675,-3.4541 0.0194,-5.92 -0.20862,-1.72996 -0.49077,-4.091271 -0.627,-5.247357 -0.13623,-1.156087 -0.48726,-2.582208 -0.78007,-3.169165 C 302.63958,93.501904 302.4,92.687274 302.4,92.278567 c 0,-0.408704 -0.28746,-1.214583 -0.6388,-1.790835 -0.35134,-0.576253 -0.63934,-1.36145 -0.64,-1.744877 -6.4e-4,-0.38343 -0.2172,-0.913142 -0.4812,-1.177142 -0.264,-0.264 -0.48,-0.686868 -0.48,-0.939703 0,-0.252838 -0.252,-0.804144 -0.56,-1.225129 -0.308,-0.420986 -0.74,-1.088404 -0.96,-1.483156 -0.22,-0.394748 -0.58,-1.041728 -0.8,-1.437728 -0.22,-0.396 -0.868,-1.320233 -1.44,-2.053855 -0.572,-0.73362 -1.04,-1.41648 -1.04,-1.517469 0,-0.323431 -5.87278,-6.100029 -7.19974,-7.081818 -0.70385,-0.520771 -1.559,-1.198857 -1.90034,-1.506857 -0.34134,-0.308 -0.80946,-0.56 -1.04027,-0.56 -0.23081,0 -0.41966,-0.141258 -0.41966,-0.313904 0,-0.172647 -0.3494,-0.401597 -0.77645,-0.508778 -0.42705,-0.107184 -1.02536,-0.469926 -1.32959,-0.806099 -0.30423,-0.336169 -0.78283,-0.614422 -1.06356,-0.618336 -0.28072,-0.0039 -0.8704,-0.28871 -1.3104,-0.632883 -0.44,-0.344173 -1.04033,-0.62897 -1.33407,-0.632883 -0.29373,-0.0039 -0.94173,-0.207472 -1.44,-0.452352 -1.4281,-0.701866 -3.97444,-1.536208 -5.54593,-1.817197 -0.792,-0.141613 -2.088,-0.436966 -2.88,-0.656342 -1.98679,-0.55032 -11.82325,-0.561325 -13.92,-0.01558 -0.88,0.229049 -2.248,0.531865 -3.04,0.672924 -1.57009,0.279639 -4.1157,1.113274 -5.54593,1.816186 -0.49826,0.24488 -1.116,0.445235 -1.37275,0.445235 -0.25675,0 -1.06668,0.306029 -1.79986,0.680067 -1.18608,0.605098 -1.85648,0.678688 -6.08127,0.667549 -2.61152,-0.0069 -4.92191,-0.144781 -5.1342,-0.306435 -0.21229,-0.161654 -0.88999,-0.480896 -1.50599,-0.709427 -2.03826,-0.756173 -3.78282,-1.63728 -4.17328,-2.107763 -0.2118,-0.255181 -0.50332,-0.463978 -0.64784,-0.463978 -0.37167,0 -3.89159,-3.560713 -4.40897,-4.460064 -0.77677,-1.350249 -1.5829,-2.799203 -1.98955,-3.576093 -0.21991,-0.420115 -0.5193,-0.979843 -0.66532,-1.243843 -0.14602,-0.264 -0.47629,-0.948 -0.73394,-1.52 -0.25764,-0.572 -0.61979,-1.04 -0.80477,-1.04 -0.18498,0 -0.33633,-0.265683 -0.33633,-0.590403 0,-0.324723 -0.288,-0.85104 -0.64,-1.169597 -0.352,-0.318556 -0.64,-0.777392 -0.64,-1.019638 0,-0.242246 -0.216,-0.523334 -0.48,-0.62464 -0.264,-0.101309 -0.48,-0.36247 -0.48,-0.580361 0,-0.217892 -0.288,-0.656804 -0.64,-0.97536 -0.352,-0.318557 -0.64,-0.696026 -0.64,-0.838826 0,-0.613882 -8.31536,-9.241174 -8.90705,-9.241174 -0.20512,0 -0.37295,-0.120893 -0.37295,-0.268653 0,-0.314512 -3.71318,-3.251347 -4.11083,-3.251347 -0.14848,0 -0.53061,-0.288 -0.84917,-0.64 -0.31855,-0.352 -0.77287,-0.64 -1.00959,-0.64 -0.23672,0 -0.43041,-0.141258 -0.43041,-0.313904 0,-0.172646 -0.3494,-0.401597 -0.77644,-0.508779 -0.42705,-0.107182 -1.02537,-0.469926 -1.3296,-0.806097 -0.30423,-0.336171 -0.79651,-0.61122 -1.09396,-0.61122 -0.29744,0 -0.80144,-0.288 -1.12,-0.64 -0.31855,-0.352 -0.74513,-0.64 -0.94794,-0.64 -0.20281,0 -1.36849,-0.503556 -2.5904,-1.119014 -1.22191,-0.615458 -2.39727,-1.119457 -2.61192,-1.12 -0.21465,-5.42e-4 -0.90303,-0.288986 -1.52974,-0.640986 -0.6267,-0.352 -1.45908,-0.645102 -1.84973,-0.651339 -0.39065,-0.0062 -1.07027,-0.217134 -1.51027,-0.468661 -0.44,-0.251526 -1.17789,-0.462424 -1.63976,-0.468661 -0.46187,-0.0062 -1.46987,-0.249531 -2.24,-0.540655 -0.77013,-0.291123 -2.48024,-0.647461 -3.80024,-0.79186 -1.32,-0.144399 -3.192,-0.413142 -4.16,-0.597205 -3.46177,-0.658251 -8.29683,-0.726079 -11.51999,-0.161608 -1.672,0.292816 -4.12,0.64785 -5.44,0.788966 -1.32,0.141115 -2.93538,0.489325 -3.58973,0.773799 -0.65434,0.284473 -1.59034,0.522327 -2.08,0.528563 -0.48965,0.0062 -1.25027,0.217135 -1.69027,0.468661 -0.44,0.251527 -1.16,0.462962 -1.6,0.469857 -0.44,0.0069 -1.27149,0.299997 -1.84774,0.651339 -0.57625,0.351342 -1.21351,0.638804 -1.41613,0.638804 -0.20262,0 -1.38714,0.488496 -2.63227,1.085545 -1.24512,0.59705 -2.47986,1.17 -2.74386,1.273223 -0.264,0.103223 -1.0066,0.514728 -1.65021,0.914455 -0.64361,0.399727 -1.94436,1.178375 -2.89057,1.730327 -0.94619,0.551954 -1.91323,1.235954 -2.14897,1.519999 -0.23574,0.284048 -0.57506,0.516451 -0.75405,0.516451 -1.37725,0 -13.53094,11.891548 -14.36041,14.050668 -0.11231,0.292352 -0.43631,0.724183 -0.72,0.959623 -0.28368,0.23544 -0.51579,0.611033 -0.51579,0.834656 0,0.223619 -0.216,0.489465 -0.48,0.590774 -0.264,0.101306 -0.48,0.47671 -0.48,0.834237 0,0.357523 -0.11729,0.650041 -0.26064,0.650041 -0.14334,0 -0.55343,0.54 -0.91131,1.2 -0.35787,0.66 -1.03258,1.875712 -1.49937,2.701581 -0.46677,0.825872 -0.84868,1.703552 -0.84868,1.950406 0,0.246852 -0.288,0.709456 -0.64,1.028013 -0.352,0.318557 -0.64,0.699229 -0.64,0.845939 0,0.285524 -0.63187,1.107533 -1.92,2.497767 -1.56461,1.688627 -5.582105,4.496294 -6.433753,4.496294 -0.174442,0 -0.922208,0.297651 -1.661709,0.66145 -1.169827,0.575497 -1.968263,0.66439 -6.144541,0.684089 -4.36014,0.02058 -4.902633,-0.03994 -5.92,-0.660253 -0.616,-0.37559 -1.360329,-0.683433 -1.654067,-0.684089 -0.293737,-6.4e-4 -0.941737,-0.201552 -1.44,-0.446432 -1.428105,-0.701866 -3.974448,-1.536208 -5.545932,-1.817197 -0.792,-0.141613 -2.088,-0.437066 -2.88,-0.656563 -1.941856,-0.53817 -12.146925,-0.536515 -14.08,0.0022 -0.792,0.220749 -2.16,0.507411 -3.04,0.637021 -0.88,0.129612 -2.060848,0.479564 -2.624108,0.777676 -0.563261,0.298109 -1.291738,0.542016 -1.618839,0.542016 -0.327101,0 -0.874253,0.211421 -1.215891,0.469824 -0.341638,0.2584 -0.909162,0.477604 -1.261162,0.487114 -0.352,0.0095 -0.999999,0.29889 -1.439999,0.643062 -0.44,0.344173 -0.981479,0.62897 -1.203284,0.632884 -0.221804,0.0039 -1.120326,0.511116 -1.996716,1.127116 -0.876391,0.616 -1.716596,1.12 -1.867124,1.12 -0.150524,0 -0.53432,0.288 -0.852876,0.64 -0.318557,0.352 -0.751811,0.64 -0.962787,0.64 -0.459876,4.2e-5 -7.837213,7.095261 -7.837213,7.537552 0,0.169696 -0.288,0.4884 -0.64,0.708227 -0.352,0.219827 -0.64,0.567127 -0.64,0.771776 0,0.204653 -0.239216,0.636423 -0.53159,0.959495 -0.559303,0.618022 -1.159156,1.584291 -1.661333,2.676143 -0.165223,0.359232 -0.531406,0.844864 -0.813741,1.079181 -0.282335,0.234317 -0.513336,0.7564 -0.513336,1.160183 0,0.403782 -0.143332,0.78215 -0.318517,0.840819 -0.32672,0.109411 -1.46638,2.866435 -1.899084,4.594195 -0.13327,0.532137 -0.438658,1.324137 -0.678639,1.76 -0.239981,0.435859 -0.539529,1.58447 -0.665662,2.55247 -0.126133,0.968 -0.402259,2.408 -0.613614,3.2 -0.666055,2.495879 -0.742247,9.450719 -0.129709,11.839999 0.293288,1.144 0.633047,2.872 0.755021,3.84 0.121975,0.968 0.466669,2.22084 0.765988,2.78411 0.299319,0.56326 0.544216,1.38276 0.544216,1.82111 0,0.43835 0.140087,0.88358 0.311304,0.9894 0.171217,0.10582 0.463023,0.75584 0.648456,1.44449 0.185434,0.68865 0.549348,1.46428 0.808696,1.72363 0.25935,0.25935 0.471544,0.7522 0.471544,1.09522 0,0.34302 0.213786,0.8011 0.47508,1.01795 0.261294,0.21686 0.791532,1.02792 1.178304,1.80235 0.386773,0.77444 0.964987,1.64496 1.28492,1.9345 0.319933,0.28954 0.581696,0.70149 0.581696,0.91545 0,1.01136 9.162691,9.75179 10.222918,9.75179 0.185395,0 0.337082,0.12088 0.337082,0.26863 0,0.14775 0.324,0.43228 0.72,0.63229 0.396,0.20001 1.44,0.80241 2.32,1.33865 0.88,0.53625 1.809756,1.07055 2.066124,1.18732 1.253197,0.57085 6.257821,5.46604 6.753466,6.60581 0.164384,0.37801 0.420611,0.9033 0.569395,1.1673 0.822854,1.46007 1.622265,3.49797 1.757373,4.48 0.08475,0.616 0.310291,1.696 0.501203,2.4 0.237773,0.87679 0.341593,10.1246 0.32959,29.35789 -0.0096,15.44284 0.04981,28.18684 0.132106,28.32 0.0823,0.13316 47.971384,0.2421 106.420184,0.2421 h 106.27055 z"
       id="path300" />
  </g>
</svg>
