<?xml version="1.0" encoding="UTF-8" standalone="no"?>
<svg
   viewBox="0 0 430.63626 319.99384"
   version="1.1"
   id="svg576"
   sodipodi:docname="Devices-amico.svg"
   width="430.63626"
   height="319.99384"
   inkscape:version="1.2.2 (732a01da63, 2022-12-09)"
   xmlns:inkscape="http://www.inkscape.org/namespaces/inkscape"
   xmlns:sodipodi="http://sodipodi.sourceforge.net/DTD/sodipodi-0.dtd"
   xmlns="http://www.w3.org/2000/svg"
   xmlns:svg="http://www.w3.org/2000/svg">
  <defs
     id="defs580" />
  <sodipodi:namedview
     id="namedview578"
     pagecolor="#ffffff"
     bordercolor="#000000"
     borderopacity="0.25"
     inkscape:showpageshadow="2"
     inkscape:pageopacity="0.0"
     inkscape:pagecheckerboard="0"
     inkscape:deskcolor="#d1d1d1"
     showgrid="false"
     inkscape:zoom="1.674"
     inkscape:cx="177.41935"
     inkscape:cy="142.7718"
     inkscape:window-width="1920"
     inkscape:window-height="1017"
     inkscape:window-x="1912"
     inkscape:window-y="699"
     inkscape:window-maximized="1"
     inkscape:current-layer="svg576" />
  <g
     id="freepik--Floor--inject-58"
     transform="translate(-34.6775,-92.413657)">
    <path
       d="m 97.75,379.46 c 84.08,43.93 220.42,43.93 304.5,0 84.08,-43.93 84.09,-115.15 0,-159.08 -84.09,-43.93 -220.42,-43.93 -304.51,0 -84.09,43.93 -84.08,115.15 0.01,159.08 z"
       style="fill:#f5f5f5"
       id="path2" />
  </g>
  <g
     id="freepik--Plants--inject-58"
     transform="translate(-34.6775,-92.413657)">
    <path
       d="m 76,232.34 c 0,0 -0.5,-11.28 -6.68,-17.84 -6.18,-6.56 -13.17,-4.91 -15.62,-3.5 -2.45,1.41 -3.93,5.15 0.52,7.54 4.45,2.39 13.91,7.15 15.68,11.74 z"
       style="fill:#37474f"
       id="path5" />
    <path
       d="m 56.41,212.12 c 3.81,0.91 14.9,6.36 16.72,17.63"
       style="fill:none;stroke:#ffffff;stroke-width:0.996699px;stroke-linecap:round;stroke-miterlimit:10"
       id="path7" />
    <path
       d="m 73.13,229.75 c -0.53,-2.83 -3.37,-4.65 -8.07,-3.61 -4.7,1.04 -4,0.88 -9.92,-0.3 -5.92,-1.18 -9.82,1.43 -10.12,3.69 -0.34,2.46 4.47,3.28 8.1,4.68 3.63,1.4 6.18,3.29 5.5,6.53 -0.58,2.77 0,5.06 4.27,5.84 3.79,0.69 7.68,-1.69 9.41,1.82 a 5.56,5.56 0 0 0 7.74,2 C 88,241.28 73.13,229.75 73.13,229.75 Z"
       style="fill:#455a64"
       id="path9" />
    <path
       d="m 62.89,240.92 a 16.72,16.72 0 0 1 8.6,-4.21"
       style="fill:none;stroke:#ffffff;stroke-width:0.996699px;stroke-linecap:round;stroke-miterlimit:10"
       id="path11" />
    <path
       d="m 49.24,228.07 c 6.12,0.12 24.32,6.47 29.38,16.18"
       style="fill:none;stroke:#ffffff;stroke-width:0.996699px;stroke-linecap:round;stroke-miterlimit:10"
       id="path13" />
  </g>
  <g
     id="freepik--Watch--inject-58"
     transform="translate(-34.6775,-92.413657)">
    <path
       d="m 85.25,291.77 a 23.07,23.07 0 0 1 -6.66,-2.87 c -1.73,-1 -20.12,-11.59 -29,-16.76 A 10.32,10.32 0 0 0 40.2,272 a 3.8,3.8 0 0 0 -1.46,1.4 h -0.33 v 1.14 0 a 3.51,3.51 0 0 0 2.09,2.85 l 29.12,16.82 c 1.53,0.87 4.2,2.49 4.85,3.81 l -0.45,0.26 v 1.15 l 13.67,-7.89 v -1.15 z"
       style="fill:#37474f"
       id="path16" />
    <path
       d="m 40.2,270.82 c -2.5,1.44 -2.36,3.85 0.3,5.39 L 69.62,293 c 2.16,1.24 6.6,4 4.4,5.22 l 13.67,-7.89 c -2.17,1.27 -6.79,-1.27 -9.1,-2.61 -1.73,-1 -20.12,-11.59 -29,-16.77 a 10.35,10.35 0 0 0 -9.39,-0.13 z"
       style="fill:#455a64"
       id="path18" />
    <path
       d="m 88.63,288.59 -13.26,7.66 a 4.53,4.53 0 0 0 0,8 l 17.78,10.27 a 5.32,5.32 0 0 0 4.82,0 l 13.26,-7.66 a 4.52,4.52 0 0 0 0,-8 L 93.45,288.59 a 5.32,5.32 0 0 0 -4.82,0 z"
       style="fill:#37474f"
       id="path20" />
    <path
       d="m 75.37,296.25 13.26,-7.66 a 5.32,5.32 0 0 1 4.82,0 l 17.78,10.26 c 1.33,0.77 1.33,2 0,2.79 L 98,309.29 a 5.32,5.32 0 0 1 -4.82,0 L 75.37,299 c -1.37,-0.74 -1.37,-2 0,-2.75 z"
       style="fill:#7a634d"
       id="path22" />
    <path
       d="m 152,332 h -0.32 a 4.34,4.34 0 0 0 -1.76,-1.72 l -35.85,-20.7 c -1.55,-0.89 -3,-1.78 -2,-4.05 v -1.14 l -13.8,8 v 1.14 a 8,8 0 0 1 6.78,1.31 c 1.38,0.87 24.92,14.42 35.85,20.7 a 10.33,10.33 0 0 0 9.34,0.17 3,3 0 0 0 1.78,-2.53 v 0 z"
       style="fill:#37474f"
       id="path24" />
    <path
       d="m 105.07,313.66 c 1.38,0.86 24.92,14.42 35.85,20.7 a 10.36,10.36 0 0 0 9.34,0.17 c 2.49,-1.44 2.36,-3.86 -0.3,-5.39 l -35.85,-20.7 c -1.55,-0.89 -3,-1.79 -2,-4.05 l -13.8,8 a 8,8 0 0 1 6.76,1.27 z"
       style="fill:#455a64"
       id="path26" />
    <path
       d="m 140.25,328.73 a 0.59,0.59 0 0 0 0,1.12 2.14,2.14 0 0 0 1.94,0 0.59,0.59 0 0 0 0,-1.12 2.14,2.14 0 0 0 -1.94,0 z"
       style="fill:#37474f"
       id="path28" />
    <path
       d="m 133.47,324.82 a 0.6,0.6 0 0 0 0,1.13 2.14,2.14 0 0 0 1.94,0 0.6,0.6 0 0 0 0,-1.13 2.14,2.14 0 0 0 -1.94,0 z"
       style="fill:#37474f"
       id="path30" />
    <path
       d="m 126.69,320.92 a 0.59,0.59 0 0 0 0,1.12 2.16,2.16 0 0 0 1.95,0 0.59,0.59 0 0 0 0,-1.12 2.16,2.16 0 0 0 -1.95,0 z"
       style="fill:#37474f"
       id="path32" />
    <path
       d="m 119.92,317 a 0.59,0.59 0 0 0 0,1.12 2.14,2.14 0 0 0 1.94,0 0.59,0.59 0 0 0 0,-1.12 2.14,2.14 0 0 0 -1.94,0 z"
       style="fill:#37474f"
       id="path34" />
    <path
       d="m 113.14,313.12 a 0.59,0.59 0 0 0 0,1.12 2.14,2.14 0 0 0 1.94,0 0.59,0.59 0 0 0 0,-1.12 2.14,2.14 0 0 0 -1.94,0 z"
       style="fill:#37474f"
       id="path36" />
    <path
       d="m 95.56,309.31 a 4.38,4.38 0 0 1 -2.13,-0.5 L 75.65,298.54 c -0.45,-0.26 -0.72,-0.59 -0.72,-0.9 0,-0.31 0.27,-0.65 0.72,-0.91 l 13.26,-7.66 a 4.79,4.79 0 0 1 4.26,0 L 111,299.34 c 0.46,0.26 0.72,0.59 0.72,0.9 0,0.31 -0.26,0.65 -0.72,0.91 l -13.26,7.66 a 4.38,4.38 0 0 1 -2.18,0.5 z"
       style="fill:#f0f0f0"
       id="path38" />
    <path
       d="m 91,289.13 a 3.83,3.83 0 0 1 1.85,0.42 l 17.78,10.27 c 0.36,0.21 0.44,0.39 0.44,0.43 0,0.04 -0.08,0.21 -0.44,0.42 l -13.26,7.66 a 4.28,4.28 0 0 1 -3.7,0 L 75.93,298.06 c -0.36,-0.21 -0.44,-0.39 -0.44,-0.42 0,-0.03 0.08,-0.22 0.44,-0.43 l 13.26,-7.66 a 3.83,3.83 0 0 1 1.85,-0.42 M 91,288 a 5,5 0 0 0 -2.41,0.58 l -13.26,7.66 c -1.33,0.76 -1.33,2 0,2.78 l 17.78,10.26 a 5.3,5.3 0 0 0 4.82,0 l 13.26,-7.65 c 1.33,-0.77 1.33,-2 0,-2.79 L 93.45,288.59 A 5,5 0 0 0 91,288 Z"
       style="fill:#ffffff"
       id="path40" />
    <path
       d="m 78.48,289.23 13.26,-7.65 a 5.32,5.32 0 0 1 4.82,0 l 17.77,10.26 c 1.33,0.77 1.33,2 0,2.78 l -13.25,7.66 a 5.32,5.32 0 0 1 -4.82,0 L 78.48,292 c -1.33,-0.75 -1.33,-2 0,-2.77 z"
       style="fill:#37474f"
       id="path42" />
    <text
       transform="matrix(1,-0.58,0.87,0.5,91.09,297.49)"
       style="font-weight:500;font-size:6.87916px;font-family:AsapCondensed-Medium, 'AsapCondensed Medium';fill:#ffffff"
       id="text44">12:00</text>
  </g>
  <g
     id="freepik--Mobile--inject-58"
     transform="translate(-34.6775,-92.413657)">
    <path
       d="m 201.6,286 -31.33,18.09 a 4.52,4.52 0 0 0 0,8 l 58.44,33.75 a 5.38,5.38 0 0 0 4.82,0 l 31.33,-18.09 a 4.52,4.52 0 0 0 0,-8 L 206.42,286 a 5.32,5.32 0 0 0 -4.82,0 z"
       style="fill:#7a634d"
       id="path47" />
    <path
       d="m 201.6,286 -31.33,18.09 a 4.52,4.52 0 0 0 0,8 l 58.44,33.75 a 5.38,5.38 0 0 0 4.82,0 l 31.33,-18.09 a 4.52,4.52 0 0 0 0,-8 L 206.42,286 a 5.32,5.32 0 0 0 -4.82,0 z"
       style="fill:#7a634d"
       id="path49" />
    <path
       d="m 201.6,286 -31.33,18.09 a 4.52,4.52 0 0 0 0,8 l 58.44,33.75 a 5.38,5.38 0 0 0 4.82,0 l 31.33,-18.09 a 4.52,4.52 0 0 0 0,-8 L 206.42,286 a 5.32,5.32 0 0 0 -4.82,0 z"
       style="fill:#7a634d"
       id="path51" />
    <path
       d="m 201.6,286 -31.33,18.09 a 4.52,4.52 0 0 0 0,8 l 58.44,33.75 a 5.38,5.38 0 0 0 4.82,0 l 31.33,-18.09 a 4.52,4.52 0 0 0 0,-8 L 206.42,286 a 5.32,5.32 0 0 0 -4.82,0 z"
       style="opacity:0.1"
       id="path53" />
    <path
       d="M 231.12,300.25 206.42,286 a 5.32,5.32 0 0 0 -4.82,0 l -31.33,18.09 a 4.52,4.52 0 0 0 0,8 l 58.44,33.75 a 5,5 0 0 0 2.41,0.57 z"
       style="fill:#7a634d"
       id="path55" />
    <path
       d="m 228.72,340.6 -58.45,-33.75 c -1.33,-0.76 -1.33,-2 0,-2.78 L 201.6,286 a 5.32,5.32 0 0 1 4.82,0 l 58.44,33.75 c 1.33,0.76 1.33,2 0,2.78 l -31.33,18.07 a 5.3,5.3 0 0 1 -4.81,0 z"
       style="fill:#7a634d"
       id="path57" />
    <path
       d="m 228.72,340.6 -58.45,-33.75 c -1.33,-0.76 -1.33,-2 0,-2.78 L 201.6,286 a 5.32,5.32 0 0 1 4.82,0 l 58.44,33.75 c 1.33,0.76 1.33,2 0,2.78 l -31.33,18.07 a 5.3,5.3 0 0 1 -4.81,0 z"
       style="fill:#7a634d"
       id="path59" />
    <path
       d="m 228.72,340.6 -58.45,-33.75 c -1.33,-0.76 -1.33,-2 0,-2.78 L 201.6,286 a 5.32,5.32 0 0 1 4.82,0 l 58.44,33.75 c 1.33,0.76 1.33,2 0,2.78 l -31.33,18.07 a 5.3,5.3 0 0 1 -4.81,0 z"
       style="fill:#7a634d"
       id="path61" />
    <path
       d="m 228.72,340.6 -58.45,-33.75 c -1.33,-0.76 -1.33,-2 0,-2.78 L 201.6,286 a 5.32,5.32 0 0 1 4.82,0 l 58.44,33.75 c 1.33,0.76 1.33,2 0,2.78 l -31.33,18.07 a 5.3,5.3 0 0 1 -4.81,0 z"
       style="opacity:0.2;fill:#ffffff"
       id="path63" />
    <path
       d="m 177.86,307.52 29.71,-17.15 a 2.1,2.1 0 0 1 1.92,0 L 257.27,318 a 0.59,0.59 0 0 1 0,1.11 l -29.7,17.15 a 2.12,2.12 0 0 1 -1.93,0 l -47.78,-27.58 a 0.59,0.59 0 0 1 0,-1.16 z"
       style="fill:#ffffff"
       id="path65" />
    <path
       d="m 247.26,330.41 a 3.39,3.39 0 0 1 -3.1,0 c -0.86,-0.49 -0.86,-1.29 0,-1.79 a 3.45,3.45 0 0 1 3.1,0 c 0.86,0.5 0.86,1.3 0,1.79 z"
       style="fill:#7a634d"
       id="path67" />
    <path
       d="m 247.26,330.41 a 3.39,3.39 0 0 1 -3.1,0 c -0.86,-0.49 -0.86,-1.29 0,-1.79 a 3.45,3.45 0 0 1 3.1,0 c 0.86,0.5 0.86,1.3 0,1.79 z"
       style="opacity:0.1"
       id="path69" />
    <path
       d="m 188.38,296.42 a 0.83,0.83 0 0 1 -0.78,0 0.24,0.24 0 0 1 0,-0.45 0.83,0.83 0 0 1 0.78,0 0.24,0.24 0 0 1 0,0.45 z"
       style="fill:#7a634d"
       id="path71" />
    <path
       d="m 187.13,300 a 1.76,1.76 0 0 1 -1.58,0 0.48,0.48 0 0 1 0,-0.91 1.76,1.76 0 0 1 1.58,0 0.48,0.48 0 0 1 0,0.91 z"
       style="fill:#7a634d"
       id="path73" />
    <path
       d="m 188.24,298.41 c -0.29,-0.17 -0.28,-0.45 0,-0.63 l 5.18,-3 a 1.24,1.24 0 0 1 1.08,0 c 0.29,0.17 0.27,0.45 0,0.63 l -5.17,3 a 1.21,1.21 0 0 1 -1.09,0 z"
       style="fill:#7a634d"
       id="path75" />
    <path
       d="m 188.38,296 a 0.24,0.24 0 0 1 0,0.45 0.83,0.83 0 0 1 -0.78,0"
       style="fill:#7a634d"
       id="path77" />
    <path
       d="m 187.13,300 a 1.76,1.76 0 0 1 -1.58,0 0.48,0.48 0 0 1 0,-0.91 1.76,1.76 0 0 1 1.58,0 0.48,0.48 0 0 1 0,0.91 z"
       style="fill:#7a634d"
       id="path79" />
    <path
       d="m 188.24,298.41 c -0.29,-0.17 -0.28,-0.45 0,-0.63 l 5.18,-3 a 1.24,1.24 0 0 1 1.08,0 c 0.29,0.17 0.27,0.45 0,0.63 l -5.17,3 a 1.21,1.21 0 0 1 -1.09,0 z"
       style="fill:#7a634d"
       id="path81" />
    <path
       d="m 188.38,296 a 0.24,0.24 0 0 1 0,0.45 0.83,0.83 0 0 1 -0.78,0"
       style="fill:#7a634d"
       id="path83" />
    <path
       d="m 187.13,300 a 1.76,1.76 0 0 1 -1.58,0 0.48,0.48 0 0 1 0,-0.91 1.76,1.76 0 0 1 1.58,0 0.48,0.48 0 0 1 0,0.91 z"
       style="fill:#7a634d"
       id="path85" />
    <path
       d="m 188.24,298.41 c -0.29,-0.17 -0.28,-0.45 0,-0.63 l 5.18,-3 a 1.24,1.24 0 0 1 1.08,0 c 0.29,0.17 0.27,0.45 0,0.63 l -5.17,3 a 1.21,1.21 0 0 1 -1.09,0 z"
       style="fill:#7a634d"
       id="path87" />
    <path
       d="m 188.38,296.42 a 0.83,0.83 0 0 1 -0.78,0 0.24,0.24 0 0 1 0,-0.45 0.83,0.83 0 0 1 0.78,0 0.24,0.24 0 0 1 0,0.45 z"
       style="opacity:0.1"
       id="path89" />
    <path
       d="m 188.38,296 a 0.24,0.24 0 0 1 0,0.45 0.83,0.83 0 0 1 -0.78,0"
       style="opacity:0.1"
       id="path91" />
    <path
       d="m 187.13,300 a 1.76,1.76 0 0 1 -1.58,0 0.48,0.48 0 0 1 0,-0.91 1.76,1.76 0 0 1 1.58,0 0.48,0.48 0 0 1 0,0.91 z"
       style="opacity:0.1"
       id="path93" />
    <path
       d="m 188.24,298.41 c -0.29,-0.17 -0.28,-0.45 0,-0.63 l 5.18,-3 a 1.24,1.24 0 0 1 1.08,0 c 0.29,0.17 0.27,0.45 0,0.63 l -5.17,3 a 1.21,1.21 0 0 1 -1.09,0 z"
       style="opacity:0.1"
       id="path95" />
  </g>
  <g
     id="freepik--Tablet--inject-58"
     transform="translate(-34.6775,-92.413657)">
    <path
       d="m 409.77,278.15 49.41,28.52 a 4.52,4.52 0 0 1 0,8 l -76.53,44.19 a 5.32,5.32 0 0 1 -4.82,0 l -49.4,-28.53 a 4.52,4.52 0 0 1 0,-8 L 405,278.15 a 5.3,5.3 0 0 1 4.77,0 z"
       style="fill:#7a634d"
       id="path98" />
    <path
       d="m 409.77,278.15 49.41,28.52 a 4.52,4.52 0 0 1 0,8 l -76.53,44.19 a 5.32,5.32 0 0 1 -4.82,0 l -49.4,-28.53 a 4.52,4.52 0 0 1 0,-8 L 405,278.15 a 5.3,5.3 0 0 1 4.77,0 z"
       style="fill:#7a634d"
       id="path100" />
    <path
       d="m 409.77,278.15 49.41,28.52 a 4.52,4.52 0 0 1 0,8 l -76.53,44.19 a 5.32,5.32 0 0 1 -4.82,0 l -49.4,-28.53 a 4.52,4.52 0 0 1 0,-8 L 405,278.15 a 5.3,5.3 0 0 1 4.77,0 z"
       style="opacity:0.2"
       id="path102" />
    <path
       d="M 362.17,302.85 405,278.15 a 5.3,5.3 0 0 1 4.81,0 l 49.41,28.52 a 4.52,4.52 0 0 1 0,8 l -76.53,44.19 a 5,5 0 0 1 -2.41,0.57 v -9.62 z"
       style="fill:#7a634d"
       id="path104" />
    <path
       d="m 382.65,353.64 76.53,-44.19 c 1.33,-0.76 1.33,-2 0,-2.78 l -49.41,-28.52 a 5.3,5.3 0 0 0 -4.81,0 l -76.53,44.19 c -1.33,0.76 -1.33,2 0,2.78 l 49.4,28.52 a 5.32,5.32 0 0 0 4.82,0 z"
       style="fill:#7a634d"
       id="path106" />
    <path
       d="m 382.65,353.64 76.53,-44.19 c 1.33,-0.76 1.33,-2 0,-2.78 l -49.41,-28.52 a 5.3,5.3 0 0 0 -4.81,0 l -76.53,44.19 c -1.33,0.76 -1.33,2 0,2.78 l 49.4,28.52 a 5.32,5.32 0 0 0 4.82,0 z"
       style="opacity:0.1"
       id="path108" />
    <path
       d="m 451.59,310.12 -47.78,-27.59 a 2.18,2.18 0 0 0 -1.93,0 l -65.86,38 a 0.59,0.59 0 0 0 0,1.11 l 47.78,27.59 a 2.18,2.18 0 0 0 1.93,0 l 65.86,-38 a 0.59,0.59 0 0 0 0,-1.11 z"
       style="fill:#fafafa"
       id="path110" />
    <path
       d="m 355.22,338.2 a 3.39,3.39 0 0 0 3.1,0 0.94,0.94 0 0 0 0,-1.79 3.39,3.39 0 0 0 -3.1,0 0.94,0.94 0 0 0 0,1.79 z"
       style="fill:#7a634d"
       id="path112" />
    <g
       style="opacity:0.3"
       id="g116">
      <path
         d="m 355.22,338.2 a 3.39,3.39 0 0 0 3.1,0 0.94,0.94 0 0 0 0,-1.79 3.39,3.39 0 0 0 -3.1,0 0.94,0.94 0 0 0 0,1.79 z"
         id="path114" />
    </g>
    <path
       d="m 431.78,294 a 0.85,0.85 0 0 0 0.79,0 0.24,0.24 0 0 0 0,-0.45 0.85,0.85 0 0 0 -0.79,0 0.24,0.24 0 0 0 0,0.45 z"
       style="fill:#7a634d"
       id="path118" />
    <path
       d="m 433,297.6 a 1.74,1.74 0 0 0 1.57,0 0.48,0.48 0 0 0 0,-0.91 1.74,1.74 0 0 0 -1.57,0 0.48,0.48 0 0 0 0,0.91 z"
       style="fill:#7a634d"
       id="path120" />
    <path
       d="m 431.93,296 c 0.29,-0.17 0.27,-0.45 0,-0.63 l -5.18,-3 a 1.18,1.18 0 0 0 -1.08,0 c -0.29,0.16 -0.28,0.44 0,0.62 l 5.18,3 a 1.18,1.18 0 0 0 1.08,0.01 z"
       style="fill:#7a634d"
       id="path122" />
    <g
       style="opacity:0.3"
       id="g130">
      <path
         d="m 431.78,294 a 0.85,0.85 0 0 0 0.79,0 0.24,0.24 0 0 0 0,-0.45 0.85,0.85 0 0 0 -0.79,0 0.24,0.24 0 0 0 0,0.45 z"
         id="path124" />
      <path
         d="m 433,297.6 a 1.74,1.74 0 0 0 1.57,0 0.48,0.48 0 0 0 0,-0.91 1.74,1.74 0 0 0 -1.57,0 0.48,0.48 0 0 0 0,0.91 z"
         id="path126" />
      <path
         d="m 431.93,296 c 0.29,-0.17 0.27,-0.45 0,-0.63 l -5.18,-3 a 1.18,1.18 0 0 0 -1.08,0 c -0.29,0.16 -0.28,0.44 0,0.62 l 5.18,3 a 1.18,1.18 0 0 0 1.08,0.01 z"
         id="path128" />
    </g>
  </g>
  <g
     id="freepik--Laptop--inject-58"
     transform="translate(-34.6775,-92.413657)">
    <path
       d="m 160.93,199.89 -81,46.79 a 4.52,4.52 0 0 0 0,8 l 58.45,33.74 a 5.32,5.32 0 0 0 4.82,0 l 81,-46.79 a 4.53,4.53 0 0 0 0,-8 l -58.45,-33.74 a 5.32,5.32 0 0 0 -4.82,0 z"
       style="fill:#7a634d"
       id="path133" />
    <path
       d="m 160.93,199.89 -81,46.79 a 4.52,4.52 0 0 0 0,8 l 58.45,33.74 a 5.32,5.32 0 0 0 4.82,0 l 81,-46.79 a 4.53,4.53 0 0 0 0,-8 l -58.45,-33.74 a 5.32,5.32 0 0 0 -4.82,0 z"
       style="opacity:0.2"
       id="path135" />
    <path
       d="m 140.75,211.54 -60.86,35.14 a 4.52,4.52 0 0 0 0,8 l 58.45,33.74 a 5,5 0 0 0 2.41,0.58 z"
       style="fill:#7a634d"
       id="path137" />
    <path
       d="m 140.75,211.54 -60.86,35.14 a 4.52,4.52 0 0 0 0,8 l 58.45,33.74 a 5,5 0 0 0 2.41,0.58 z"
       style="opacity:0.1"
       id="path139" />
    <path
       d="m 79.89,246.68 81,-46.79 a 5.32,5.32 0 0 1 4.82,0 l 58.45,33.74 c 1.33,0.77 1.33,2 0,2.78 l -81,46.79 a 5.32,5.32 0 0 1 -4.82,0 L 79.89,249.46 c -1.33,-0.77 -1.33,-2.02 0,-2.78 z"
       style="fill:#7a634d"
       id="path141" />
    <path
       d="m 118.15,198.5 -49,-28.27 a 4.62,4.62 0 0 0 -0.58,2.35 l 4.19,70.1 a 5.57,5.57 0 0 0 2.43,4.08 5.17,5.17 0 0 0 4.66,-0.08 L 119,224.11 Z"
       style="fill:#7a634d"
       id="path143" />
    <path
       d="m 118.15,198.5 -49,-28.27 a 4.62,4.62 0 0 0 -0.58,2.35 l 4.19,70.1 a 5.57,5.57 0 0 0 2.43,4.08 5.17,5.17 0 0 0 4.66,-0.08 L 119,224.11 Z"
       style="opacity:0.2"
       id="path145" />
    <path
       d="m 88.93,246.68 72,-41.57 a 5.32,5.32 0 0 1 4.82,0 l 2,1.13 c 1.33,0.77 1.33,2 0,2.78 l -72,41.57 a 5.32,5.32 0 0 1 -4.82,0 l -2,-1.13 c -1.33,-0.77 -1.33,-2.02 0,-2.78 z"
       style="fill:#7a634d"
       id="path147" />
    <path
       d="m 88.93,246.68 72,-41.57 a 5.32,5.32 0 0 1 4.82,0 l 2,1.13 c 1.33,0.77 1.33,2 0,2.78 l -72,41.57 a 5.32,5.32 0 0 1 -4.82,0 l -2,-1.13 c -1.33,-0.77 -1.33,-2.02 0,-2.78 z"
       style="opacity:0.1"
       id="path149" />
    <path
       d="m 98,251.89 72,-41.57 a 5.38,5.38 0 0 1 4.82,0 l 22.29,12.88 c 1.33,0.76 1.33,2 0,2.78 l -72,41.57 a 5.32,5.32 0 0 1 -4.82,0 L 98,254.67 c -1.36,-0.76 -1.36,-2.01 0,-2.78 z"
       style="fill:#7a634d"
       id="path151" />
    <path
       d="m 98,251.89 72,-41.57 a 5.38,5.38 0 0 1 4.82,0 l 22.29,12.88 c 1.33,0.76 1.33,2 0,2.78 l -72,41.57 a 5.32,5.32 0 0 1 -4.82,0 L 98,254.67 c -1.36,-0.76 -1.36,-2.01 0,-2.78 z"
       style="opacity:0.1"
       id="path153" />
    <path
       d="M 156.71,254.5 179,241.63 a 5.32,5.32 0 0 1 4.82,0 l 8.73,5.05 c 1.33,0.76 1.33,2 0,2.78 l -22.29,12.87 a 5.32,5.32 0 0 1 -4.82,0 l -8.74,-5.05 c -1.32,-0.76 -1.32,-2.01 0.01,-2.78 z"
       style="fill:#7a634d"
       id="path155" />
    <path
       d="M 156.71,254.5 179,241.63 a 5.32,5.32 0 0 1 4.82,0 l 8.73,5.05 c 1.33,0.76 1.33,2 0,2.78 l -22.29,12.87 a 5.32,5.32 0 0 1 -4.82,0 l -8.74,-5.05 c -1.32,-0.76 -1.32,-2.01 0.01,-2.78 z"
       style="opacity:0.1"
       id="path157" />
    <path
       d="m 163.61,229.39 2.24,-1.3 c 0.1,-0.06 0.09,-0.15 0,-0.21 L 163,226.26 a 0.42,0.42 0 0 0 -0.38,0 l -2.24,1.29 c -0.1,0.06 -0.08,0.16 0,0.22 l 2.79,1.61 a 0.44,0.44 0 0 0 0.44,0.01 z m -4.93,-5.39 -2.25,1.29 c -0.09,0.06 -0.08,0.15 0,0.22 l 2.79,1.61 a 0.4,0.4 0 0 0 0.37,0 l 2.25,-1.29 c 0.09,-0.06 0.08,-0.15 0,-0.22 L 159.05,224 a 0.4,0.4 0 0 0 -0.37,0 z m -7.25,4.18 -3.8,2.2 c -0.1,0 -0.09,0.15 0,0.21 l 2.79,1.61 a 0.43,0.43 0 0 0 0.38,0 l 3.8,-2.2 c 0.09,-0.05 0.08,-0.15 0,-0.21 l -2.79,-1.61 a 0.41,0.41 0 0 0 -0.38,-0.05 z m 4,-2.29 -2.25,1.3 c -0.09,0.05 -0.08,0.15 0,0.21 L 156,229 a 0.41,0.41 0 0 0 0.37,0 l 2.25,-1.3 c 0.09,-0.05 0.08,-0.15 0,-0.21 l -2.79,-1.61 a 0.41,0.41 0 0 0 -0.43,-0.04 z m -8.81,5.08 -2.24,1.3 c -0.1,0.05 -0.09,0.15 0,0.21 l 2.79,1.62 a 0.42,0.42 0 0 0 0.38,0 l 2.24,-1.29 c 0.1,-0.06 0.08,-0.16 0,-0.22 L 147,230.94 a 0.44,0.44 0 0 0 -0.41,-0.02 z m -3.28,1.9 -2.24,1.29 c -0.1,0.06 -0.09,0.16 0,0.22 l 2.79,1.61 a 0.46,0.46 0 0 0 0.38,0 l 2.24,-1.3 c 0.1,-0.06 0.08,-0.15 0,-0.22 l -2.79,-1.61 a 0.4,0.4 0 0 0 -0.41,-0.04 z m 11,6.54 2.25,-1.29 c 0.09,-0.06 0.08,-0.15 0,-0.22 l -2.79,-1.61 a 0.4,0.4 0 0 0 -0.37,0 l -2.25,1.29 c -0.09,0.06 -0.08,0.15 0,0.22 l 2.79,1.61 a 0.4,0.4 0 0 0 0.33,-0.05 z m -3.28,1.9 2.25,-1.3 c 0.09,-0.05 0.08,-0.15 0,-0.21 l -2.79,-1.61 a 0.38,0.38 0 0 0 -0.37,0 l -2.25,1.3 c -0.09,0.05 -0.08,0.15 0,0.21 l 2.79,1.61 a 0.41,0.41 0 0 0 0.31,-0.05 z m -3.28,1.89 2.25,-1.29 c 0.09,-0.06 0.08,-0.16 0,-0.22 L 147.17,240 a 0.44,0.44 0 0 0 -0.37,0 l -2.25,1.3 c -0.09,0.05 -0.08,0.15 0,0.21 l 2.79,1.62 a 0.4,0.4 0 0 0 0.4,0.02 z m -3.28,1.9 2.25,-1.3 c 0.09,-0.06 0.08,-0.15 0,-0.22 l -2.79,-1.61 a 0.4,0.4 0 0 0 -0.37,0 l -2.25,1.29 c -0.09,0.06 -0.08,0.15 0,0.22 l 2.79,1.61 a 0.44,0.44 0 0 0 0.33,-0.04 z m 15.87,-13.77 2.24,-1.3 c 0.1,0 0.09,-0.15 0,-0.21 l -2.79,-1.61 a 0.43,0.43 0 0 0 -0.38,0 l -2.24,1.3 c -0.1,0.05 -0.08,0.15 0,0.21 l 2.79,1.61 a 0.41,0.41 0 0 0 0.34,-0.05 z m -2.75,6.19 5,-2.89 c 0.1,-0.06 0.08,-0.15 0,-0.22 l -6.78,-3.91 a 0.4,0.4 0 0 0 -0.37,0 l -2.59,1.49 c -0.09,0.06 -0.08,0.15 0,0.22 l 3.59,2.07 c 0.11,0.06 0.12,0.16 0,0.21 l -2.07,1.2 c -0.09,0.05 -0.08,0.15 0,0.21 l 2.79,1.61 a 0.41,0.41 0 0 0 0.39,-0.04 z m -17.62,-2.81 -2.24,1.3 c -0.1,0.05 -0.09,0.15 0,0.21 l 2.79,1.61 a 0.43,0.43 0 0 0 0.38,0 l 2.24,-1.3 c 0.1,-0.05 0.08,-0.15 0,-0.21 l -2.79,-1.61 a 0.41,0.41 0 0 0 -0.38,0 z m -3.28,1.9 -2.24,1.29 c -0.1,0.06 -0.09,0.15 0,0.22 l 2.79,1.61 a 0.42,0.42 0 0 0 0.38,0 l 2.24,-1.29 c 0.1,-0.06 0.08,-0.15 0,-0.22 l -2.79,-1.61 a 0.4,0.4 0 0 0 -0.35,0 z m -15.62,21.68 a 0.4,0.4 0 0 0 0.37,0 l 2.24,-1.29 c 0.1,-0.06 0.09,-0.15 0,-0.22 l -2.79,-1.61 a 0.42,0.42 0 0 0 -0.38,0 l -2.24,1.29 c -0.1,0.06 -0.08,0.15 0,0.22 z m -10.62,-6.53 -2.25,1.29 c -0.09,0.06 -0.08,0.15 0,0.22 l 2.79,1.61 a 0.4,0.4 0 0 0 0.37,0 l 2.25,-1.29 c 0.09,-0.06 0.08,-0.15 0,-0.22 l -2.79,-1.61 a 0.4,0.4 0 0 0 -0.34,0 z m 5.77,4.72 a 0.41,0.41 0 0 0 0.37,0 l 2.24,-1.3 c 0.1,0 0.09,-0.15 0,-0.21 l -2.8,-1.61 a 0.41,0.41 0 0 0 -0.37,0 l -2.24,1.3 c -0.1,0.05 -0.09,0.15 0,0.21 z m 10.93,3.13 2.25,-1.3 c 0.09,-0.05 0.08,-0.15 0,-0.21 l -2.79,-1.61 a 0.41,0.41 0 0 0 -0.37,0 l -2.25,1.3 c -0.09,0.05 -0.08,0.15 0,0.21 l 2.79,1.61 a 0.41,0.41 0 0 0 0.4,0 z m -3.65,1.88 a 0.4,0.4 0 0 0 0.37,0 l 2.25,-1.29 c 0.09,-0.06 0.08,-0.16 0,-0.22 l -2.79,-1.61 a 0.44,0.44 0 0 0 -0.37,0 l -2.25,1.3 c -0.09,0.06 -0.08,0.15 0,0.21 z m -9.77,-11.63 -2.25,1.3 c -0.09,0.05 -0.08,0.15 0,0.21 l 2.79,1.62 a 0.4,0.4 0 0 0 0.37,0 l 2.25,-1.3 c 0.09,0 0.08,-0.15 0,-0.21 l -2.79,-1.61 a 0.44,0.44 0 0 0 -0.34,-0.01 z m 16.4,-9.47 -2.25,1.3 c -0.09,0.05 -0.08,0.15 0,0.21 l 2.79,1.62 a 0.4,0.4 0 0 0 0.37,0 l 2.25,-1.29 c 0.09,-0.06 0.08,-0.16 0,-0.22 l -2.79,-1.61 a 0.44,0.44 0 0 0 -0.34,-0.01 z m -13.09,7.61 -2.25,1.3 c -0.09,0 -0.08,0.15 0,0.21 l 2.79,1.61 a 0.41,0.41 0 0 0 0.37,0 l 2.25,-1.3 c 0.09,-0.05 0.08,-0.15 0,-0.21 L 117.44,248 a 0.4,0.4 0 0 0 -0.37,0 z m 16.4,-9.47 -2.24,1.3 c -0.1,0 -0.09,0.15 0,0.21 l 2.79,1.61 a 0.41,0.41 0 0 0 0.37,0 l 2.25,-1.3 c 0.09,-0.05 0.08,-0.15 0,-0.21 l -2.79,-1.61 a 0.38,0.38 0 0 0 -0.38,-0.03 z m -6.56,3.79 -2.25,1.29 c -0.09,0.06 -0.08,0.15 0,0.22 l 2.79,1.61 a 0.44,0.44 0 0 0 0.37,0 l 2.25,-1.3 c 0.09,-0.06 0.08,-0.15 0,-0.22 l -2.79,-1.61 a 0.4,0.4 0 0 0 -0.37,-0.02 z m -3.28,1.89 -2.25,1.3 c -0.09,0.05 -0.08,0.15 0,0.21 l 2.79,1.61 a 0.41,0.41 0 0 0 0.37,0 l 2.25,-1.3 c 0.09,-0.05 0.08,-0.15 0,-0.21 L 124,244.2 a 0.41,0.41 0 0 0 -0.37,-0.02 z m -3.28,1.9 -2.25,1.29 c -0.09,0.06 -0.08,0.15 0,0.22 l 2.79,1.61 a 0.4,0.4 0 0 0 0.37,0 l 2.25,-1.29 c 0.09,-0.06 0.08,-0.15 0,-0.22 l -2.79,-1.61 a 0.4,0.4 0 0 0 -0.37,-0.03 z m 17.55,2.75 2.24,-1.29 c 0.1,-0.06 0.09,-0.15 0,-0.22 l -2.79,-1.61 a 0.4,0.4 0 0 0 -0.37,0 l -2.27,1.26 c -0.09,0.06 -0.08,0.15 0,0.22 l 2.79,1.61 a 0.4,0.4 0 0 0 0.4,0 z m 28,-29.07 -2.25,1.3 c -0.09,0.05 -0.08,0.15 0,0.21 l 2.79,1.61 a 0.41,0.41 0 0 0 0.37,0 l 2.25,-1.3 c 0.09,0 0.08,-0.15 0,-0.21 l -2.79,-1.61 a 0.38,0.38 0 0 0 -0.34,-0.03 z m -4,2.29 -2.25,1.3 c -0.09,0.05 -0.08,0.15 0,0.21 l 2.79,1.61 a 0.41,0.41 0 0 0 0.37,0 l 2.25,-1.3 c 0.09,0 0.08,-0.15 0,-0.21 l -2.79,-1.61 A 0.41,0.41 0 0 0 162,222.05 Z m 7.25,-4.18 -2.15,1.26 c -0.09,0.06 -0.08,0.15 0,0.22 l 2.79,1.61 a 0.4,0.4 0 0 0 0.37,0 l 2.25,-1.29 c 0.09,-0.06 0.08,-0.15 0,-0.22 l -2.79,-1.61 a 0.4,0.4 0 0 0 -0.41,0 z m -16.48,17.8 2.25,-1.3 c 0.09,-0.06 0.08,-0.15 0,-0.22 l -2.79,-1.61 a 0.4,0.4 0 0 0 -0.37,0 l -2.25,1.29 c -0.09,0.06 -0.08,0.16 0,0.22 l 2.79,1.61 a 0.44,0.44 0 0 0 0.43,-0.02 z M 172.86,216 a 0.41,0.41 0 0 0 -0.37,0 l -2.25,1.3 c -0.09,0 -0.08,0.15 0,0.21 l 2.79,1.61 a 0.41,0.41 0 0 0 0.37,0 l 2.25,-1.3 c 0.09,-0.05 0.08,-0.15 0,-0.21 z m -31.68,30.95 2.25,-1.3 c 0.09,0 0.08,-0.15 0,-0.21 l -2.79,-1.61 a 0.41,0.41 0 0 0 -0.37,0 L 138,245.1 c -0.09,0.05 -0.08,0.15 0,0.21 l 2.79,1.61 a 0.41,0.41 0 0 0 0.39,0.02 z m 40.23,-23.23 2.24,-1.29 c 0.1,-0.06 0.09,-0.15 0,-0.22 l -2.79,-1.61 a 0.42,0.42 0 0 0 -0.38,0 l -2.24,1.29 c -0.1,0.06 -0.08,0.15 0,0.22 l 2.76,1.59 a 0.4,0.4 0 0 0 0.41,0.01 z m -7.27,-0.4 2.25,-1.3 c 0.09,-0.06 0.08,-0.15 0,-0.22 l -2.79,-1.61 a 0.4,0.4 0 0 0 -0.37,0 l -2.23,1.27 c -0.09,0.06 -0.08,0.15 0,0.22 l 2.79,1.61 a 0.44,0.44 0 0 0 0.35,0.02 z m 2.71,-5 a 0.44,0.44 0 0 0 -0.37,0 l -2.25,1.3 c -0.09,0.05 -0.08,0.15 0,0.21 l 2.79,1.62 a 0.4,0.4 0 0 0 0.37,0 l 2.25,-1.29 c 0.09,-0.06 0.08,-0.16 0,-0.22 z m 0.69,-0.4 6.78,3.91 a 0.41,0.41 0 0 0 0.37,0 l 2.24,-1.3 c 0.1,-0.05 0.09,-0.15 0,-0.21 l -6.78,-3.91 a 0.38,0.38 0 0 0 -0.37,0 l -2.25,1.3 c -0.11,0.02 -0.1,0.12 0.01,0.18 z m -7.62,4.17 -2.25,1.3 c -0.09,0 -0.08,0.15 0,0.21 l 2.79,1.61 a 0.41,0.41 0 0 0 0.37,0 l 2.25,-1.3 c 0.09,-0.05 0.08,-0.15 0,-0.21 l -2.79,-1.61 a 0.41,0.41 0 0 0 -0.37,-0.03 z m -24.69,14.26 -2.23,1.26 c -0.09,0.06 -0.08,0.15 0,0.22 l 2.79,1.61 a 0.4,0.4 0 0 0 0.37,0 l 2.25,-1.29 c 0.09,-0.06 0.08,-0.15 0,-0.22 l -2.79,-1.61 a 0.4,0.4 0 0 0 -0.39,0 z m 32.53,-10.73 a 0.41,0.41 0 0 0 0.37,0 l 2.24,-1.3 c 0.1,-0.05 0.09,-0.15 0,-0.21 l -2.79,-1.61 a 0.4,0.4 0 0 0 -0.38,0 l -2.24,1.3 c -0.1,0 -0.08,0.15 0,0.21 z m -29.25,8.83 -2.25,1.3 c -0.09,0.05 -0.08,0.15 0,0.21 l 2.79,1.61 a 0.41,0.41 0 0 0 0.37,0 l 2.25,-1.3 c 0.09,0 0.08,-0.15 0,-0.21 l -2.79,-1.61 a 0.41,0.41 0 0 0 -0.37,-0.03 z m -24.1,22 a 0.41,0.41 0 0 0 0.37,0 l 2.24,-1.3 c 0.1,-0.05 0.09,-0.15 0,-0.21 l -2.79,-1.61 a 0.43,0.43 0 0 0 -0.38,0 l -2.24,1.3 c -0.1,0.05 -0.08,0.15 0,0.21 z m -5.41,-4.98 -2.24,1.29 c -0.1,0.06 -0.08,0.15 0,0.22 l 2.79,1.61 a 0.4,0.4 0 0 0 0.37,0 l 2.24,-1.29 c 0.1,-0.06 0.09,-0.15 0,-0.22 l -2.79,-1.61 a 0.42,0.42 0 0 0 -0.37,0 z m 9.08,3 2.24,-1.29 c 0.1,-0.06 0.09,-0.15 0,-0.22 l -2.79,-1.61 a 0.42,0.42 0 0 0 -0.38,0 l -2.24,1.29 c -0.1,0.06 -0.08,0.15 0,0.22 l 2.79,1.61 a 0.4,0.4 0 0 0 0.36,0.04 z m 3.28,-1.89 2.24,-1.29 c 0.1,-0.06 0.09,-0.16 0,-0.22 l -2.79,-1.61 a 0.46,0.46 0 0 0 -0.38,0 l -2.24,1.3 c -0.1,0.05 -0.08,0.15 0,0.21 l 2.79,1.62 a 0.4,0.4 0 0 0 0.36,0.03 z m 3.28,-1.89 2.24,-1.3 c 0.1,-0.05 0.09,-0.15 0,-0.21 l -2.79,-1.62 a 0.42,0.42 0 0 0 -0.38,0 l -2.24,1.3 c -0.1,0.05 -0.08,0.15 0,0.21 l 2.79,1.61 a 0.44,0.44 0 0 0 0.36,0.05 z m -12.36,-1.16 -2.24,1.3 c -0.1,0 -0.08,0.15 0,0.21 l 2.79,1.62 a 0.4,0.4 0 0 0 0.37,0 l 2.24,-1.29 c 0.1,-0.06 0.09,-0.16 0,-0.22 l -2.79,-1.61 a 0.46,0.46 0 0 0 -0.39,0.03 z m 3.28,-1.89 -2.26,1.36 c -0.1,0.05 -0.08,0.15 0,0.21 l 2.79,1.61 a 0.41,0.41 0 0 0 0.37,0 l 2.24,-1.3 c 0.1,-0.05 0.09,-0.15 0,-0.21 l -2.79,-1.61 a 0.4,0.4 0 0 0 -0.37,-0.02 z m 13.13,-7.58 -2.25,1.3 c -0.09,0 -0.08,0.15 0,0.21 l 2.79,1.62 a 0.4,0.4 0 0 0 0.37,0 l 2.25,-1.29 c 0.09,-0.06 0.08,-0.16 0,-0.22 L 139,240.12 a 0.44,0.44 0 0 0 -0.33,-0.02 z m -3.28,1.9 -2.25,1.29 c -0.09,0.06 -0.08,0.16 0,0.22 l 2.79,1.61 a 0.44,0.44 0 0 0 0.37,0 l 2.24,-1.3 c 0.1,-0.06 0.09,-0.15 0,-0.22 l -2.8,-1.56 a 0.4,0.4 0 0 0 -0.37,0 z m 6.56,-3.79 -2.25,1.3 c -0.09,0.05 -0.08,0.15 0,0.21 l 2.79,1.61 a 0.41,0.41 0 0 0 0.37,0 l 2.25,-1.3 c 0.09,-0.05 0.08,-0.15 0,-0.21 l -2.79,-1.61 a 0.41,0.41 0 0 0 -0.34,0.04 z m -13.13,7.58 -2.24,1.29 c -0.1,0.06 -0.08,0.15 0,0.22 l 2.79,1.61 a 0.4,0.4 0 0 0 0.37,0 l 2.24,-1.29 c 0.1,-0.06 0.09,-0.15 0,-0.22 l -2.79,-1.61 a 0.42,0.42 0 0 0 -0.39,0.04 z m 3.28,-1.9 -2.24,1.3 c -0.1,0.05 -0.08,0.15 0,0.21 l 2.79,1.61 a 0.41,0.41 0 0 0 0.37,0 l 2.24,-1.3 c 0.1,0 0.09,-0.15 0,-0.21 l -2.79,-1.61 a 0.43,0.43 0 0 0 -0.39,0.04 z m -1.61,13.82 2.25,-1.29 c 0.09,-0.06 0.08,-0.15 0,-0.22 l -2.79,-1.61 a 0.4,0.4 0 0 0 -0.37,0 l -2.25,1.29 c -0.09,0.06 -0.08,0.15 0,0.22 l 2.79,1.61 a 0.4,0.4 0 0 0 0.35,0.04 z m -20.1,-2.43 -2.79,-1.61 a 0.41,0.41 0 0 0 -0.37,0 L 105,255 c -0.09,0.05 -0.08,0.15 0,0.21 l 2.79,1.61 a 0.41,0.41 0 0 0 0.37,0 l 2.25,-1.3 c 0.1,-0.08 0.09,-0.18 -0.02,-0.24 z m 5.2,1.6 -2.8,-1.61 a 0.4,0.4 0 0 0 -0.37,0 l -3.45,2 c -0.1,0.05 -0.08,0.15 0,0.21 l 2.79,1.62 a 0.4,0.4 0 0 0 0.37,0 l 3.45,-2 c 0.11,-0.06 0.1,-0.06 -0.01,-0.18 z m -9.52,-4.7 -2.79,-1.61 a 0.4,0.4 0 0 0 -0.37,0 l -2.77,1.59 c -0.09,0.06 -0.08,0.15 0,0.22 L 103,254 a 0.4,0.4 0 0 0 0.37,0 l 2.77,-1.59 c 0.05,-0.07 0.04,-0.16 -0.07,-0.23 z m 2.12,-1.22 a 0.41,0.41 0 0 0 0.37,0 l 2.24,-1.3 c 0.1,-0.05 0.09,-0.15 0,-0.21 l -2.8,-1.61 a 0.41,0.41 0 0 0 -0.37,0 l -2.24,1.3 c -0.1,0.05 -0.09,0.15 0,0.21 z m 12.25,7.73 -2.8,-1.62 a 0.4,0.4 0 0 0 -0.37,0 l -4.29,2.52 c -0.1,0.06 -0.09,0.15 0,0.22 l 2.79,1.61 a 0.42,0.42 0 0 0 0.38,0 l 4.31,-2.49 c 0.08,-0.04 0.07,-0.14 -0.04,-0.2 z m 2.43,3.2 -2.79,-1.62 a 0.4,0.4 0 0 0 -0.37,0 l -2.77,1.59 c -0.09,0.06 -0.08,0.15 0,0.22 l 2.79,1.61 a 0.4,0.4 0 0 0 0.37,0 l 2.77,-1.59 C 123,262 123,262 122.87,261.89 Z m 9.71,-25 a 0.44,0.44 0 0 0 0.37,0 l 2.24,-1.3 c 0.1,0 0.09,-0.15 0,-0.21 l -2.79,-1.62 a 0.42,0.42 0 0 0 -0.38,0 l -2.24,1.29 c -0.1,0.06 -0.08,0.16 0,0.22 z m -6.6,3.82 a 0.4,0.4 0 0 0 0.37,0 l 2.24,-1.29 c 0.1,-0.06 0.09,-0.15 0,-0.22 l -2.8,-1.61 a 0.4,0.4 0 0 0 -0.37,0 l -2.24,1.29 c -0.1,0.06 -0.09,0.15 0,0.22 z m -14.55,8.4 a 0.4,0.4 0 0 0 0.37,0 l 2.24,-1.29 c 0.1,-0.06 0.09,-0.15 0,-0.22 L 111.27,246 a 0.42,0.42 0 0 0 -0.38,0 l -2.24,1.29 c -0.1,0.06 -0.08,0.15 0,0.22 z m 17.83,-10.3 a 0.38,0.38 0 0 0 0.37,0 l 2.24,-1.3 c 0.1,-0.05 0.09,-0.15 0,-0.21 l -2.8,-1.61 a 0.41,0.41 0 0 0 -0.37,0 l -2.24,1.3 c -0.1,0.05 -0.09,0.15 0,0.21 z m -6.57,3.79 a 0.43,0.43 0 0 0 0.38,0 l 2.24,-1.3 c 0.1,-0.05 0.08,-0.15 0,-0.21 l -2.79,-1.61 a 0.41,0.41 0 0 0 -0.37,0 l -2.24,1.3 c -0.1,0 -0.09,0.15 0,0.21 z m 2,19.62 a 0.43,0.43 0 0 0 -0.38,0 l -3.45,2 c -0.09,0 -0.08,0.15 0,0.21 l 2.79,1.61 a 0.44,0.44 0 0 0 0.37,0 l 3.45,-2 c 0.1,-0.05 0.09,-0.15 0,-0.21 z M 118,245.28 a 0.44,0.44 0 0 0 0.37,0 l 2.24,-1.3 c 0.1,-0.06 0.09,-0.15 0,-0.21 l -2.79,-1.62 a 0.42,0.42 0 0 0 -0.38,0 l -2.24,1.29 c -0.1,0.06 -0.08,0.16 0,0.22 z m -3.28,1.89 a 0.41,0.41 0 0 0 0.37,0 l 2.24,-1.3 c 0.1,0 0.09,-0.15 0,-0.21 l -2.79,-1.61 a 0.43,0.43 0 0 0 -0.38,0 l -2.24,1.3 c -0.1,0.05 -0.08,0.15 0,0.21 z m 70.78,-20.08 a 0.44,0.44 0 0 0 -0.37,0 l -5.53,3.19 c -0.09,0.06 -0.08,0.15 0,0.22 l 2.79,1.61 a 0.44,0.44 0 0 0 0.37,0 l 5.53,-3.19 c 0.09,-0.06 0.08,-0.16 0,-0.22 z m -7.25,4.19 a 0.41,0.41 0 0 0 -0.37,0 l -2.25,1.3 c -0.09,0.05 -0.08,0.15 0,0.21 l 2.79,1.61 a 0.41,0.41 0 0 0 0.37,0 l 2.25,-1.3 c 0.09,0 0.08,-0.15 0,-0.21 z m -44.51,24.54 2.25,-1.3 c 0.09,-0.05 0.08,-0.15 0,-0.21 l -2.79,-1.61 a 0.41,0.41 0 0 0 -0.37,0 l -2.25,1.3 c -0.09,0.05 -0.08,0.15 0,0.21 l 2.79,1.61 a 0.38,0.38 0 0 0 0.4,0 z m 37.95,-20.76 a 0.4,0.4 0 0 0 -0.37,0 l -2.25,1.29 c -0.09,0.06 -0.08,0.16 0,0.22 l 2.79,1.61 a 0.44,0.44 0 0 0 0.37,0 l 2.25,-1.3 c 0.09,0 0.08,-0.15 0,-0.21 z m 17.09,-9.86 a 0.38,0.38 0 0 0 -0.37,0 l -2.25,1.3 c -0.09,0.05 -0.08,0.15 0,0.21 l 2.84,1.59 a 0.41,0.41 0 0 0 0.37,0 l 2.25,-1.3 c 0.09,-0.05 0.08,-0.15 0,-0.21 z m 6.07,-0.29 -6.75,-3.91 a 0.44,0.44 0 0 0 -0.37,0 l -2.24,1.3 c -0.1,0.05 -0.09,0.15 0,0.21 l 6.78,3.92 a 0.4,0.4 0 0 0 0.37,0 l 2.25,-1.29 C 195,225.07 195,225 194.88,224.91 Z m -35.42,17.23 a 0.4,0.4 0 0 0 -0.37,0 l -2.77,1.59 c -0.09,0.06 -0.08,0.15 0,0.22 l 2.79,1.61 a 0.4,0.4 0 0 0 0.37,0 l 2.77,-1.59 c 0.09,-0.06 0.08,-0.15 0,-0.22 z m 8.29,-4.78 a 0.43,0.43 0 0 0 -0.38,0 l -3.45,2 c -0.09,0.06 -0.08,0.16 0,0.22 l 2.79,1.61 a 0.44,0.44 0 0 0 0.37,0 l 3.45,-2 c 0.1,-0.05 0.09,-0.15 0,-0.21 z m -15.89,9.17 a 0.41,0.41 0 0 0 -0.37,0 L 133,257.18 c -0.1,0.05 -0.09,0.15 0,0.21 l 2.79,1.61 a 0.43,0.43 0 0 0 0.38,0 l 18.47,-10.67 c 0.1,0 0.08,-0.15 0,-0.21 z m -19.51,11.26 a 0.4,0.4 0 0 0 -0.37,0 l -2.76,1.59 c -0.1,0.06 -0.09,0.15 0,0.22 l 2.8,1.61 a 0.4,0.4 0 0 0 0.37,0 l 2.76,-1.59 c 0.1,-0.06 0.08,-0.15 0,-0.22 z m 23.31,-13.46 a 0.4,0.4 0 0 0 -0.37,0 l -2.76,1.59 c -0.1,0.06 -0.09,0.15 0,0.22 l 2.79,1.61 a 0.46,0.46 0 0 0 0.38,0 l 2.76,-1.6 c 0.09,0 0.08,-0.15 0,-0.21 z M 128.55,260 a 0.4,0.4 0 0 0 -0.37,0 l -2.76,1.59 c -0.1,0.06 -0.08,0.15 0,0.22 l 2.79,1.61 a 0.44,0.44 0 0 0 0.37,0 l 2.76,-1.6 c 0.1,-0.05 0.09,-0.15 0,-0.21 z m 34.71,-20 a 0.41,0.41 0 0 0 -0.37,0 l -2.77,1.6 c -0.09,0.05 -0.08,0.15 0,0.21 l 2.79,1.61 a 0.41,0.41 0 0 0 0.37,0 l 2.77,-1.6 c 0.09,-0.05 0.08,-0.15 0,-0.21 z M 175,233.17 a 0.44,0.44 0 0 0 -0.37,0 l -2.25,1.3 c -0.09,0.06 -0.08,0.15 0,0.21 l 2.79,1.62 a 0.4,0.4 0 0 0 0.37,0 l 2.25,-1.29 c 0.09,-0.06 0.08,-0.16 0,-0.22 z m 7.12,-5.26 2.24,-1.3 c 0.1,-0.05 0.08,-0.15 0,-0.21 l -2.79,-1.61 a 0.41,0.41 0 0 0 -0.37,0 l -2.24,1.3 c -0.1,0.05 -0.09,0.15 0,0.21 l 2.79,1.61 a 0.43,0.43 0 0 0 0.37,0 z m -15.23,-0.42 2.24,-1.29 c 0.1,-0.06 0.09,-0.16 0,-0.22 l -2.79,-1.61 a 0.46,0.46 0 0 0 -0.38,0 l -2.24,1.3 c -0.1,0.06 -0.08,0.15 0,0.21 l 2.79,1.62 a 0.4,0.4 0 0 0 0.38,-0.01 z m -6.89,13.18 6.56,-3.79 c 0.09,0 0.08,-0.15 0,-0.21 l -2.79,-1.62 a 0.4,0.4 0 0 0 -0.37,0 l -6.56,3.79 c -0.1,0 -0.09,0.15 0,0.21 l 2.79,1.61 a 0.43,0.43 0 0 0 0.37,0.01 z m 18.44,-10.88 a 0.42,0.42 0 0 0 0.38,0 l 2.24,-1.29 c 0.1,-0.06 0.08,-0.15 0,-0.22 l -2.79,-1.61 a 0.4,0.4 0 0 0 -0.37,0 l -2.25,1.33 c -0.1,0.06 -0.09,0.15 0,0.22 z m -3.61,-2.29 2.24,-1.29 c 0.1,-0.06 0.09,-0.16 0,-0.22 l -2.8,-1.61 a 0.44,0.44 0 0 0 -0.37,0 l -2.24,1.3 c -0.1,0.05 -0.09,0.15 0,0.21 l 2.79,1.62 a 0.4,0.4 0 0 0 0.4,-0.01 z m -18.11,15.06 2.24,-1.29 c 0.1,-0.06 0.08,-0.15 0,-0.22 l -2.79,-1.61 a 0.44,0.44 0 0 0 -0.37,0 l -2.24,1.3 c -0.1,0.06 -0.09,0.15 0,0.22 l 2.79,1.61 a 0.42,0.42 0 0 0 0.39,-0.01 z M 171.21,234 a 0.38,0.38 0 0 0 0.37,0 l 2.25,-1.3 c 0.09,-0.05 0.08,-0.15 0,-0.21 L 171,230.87 a 0.41,0.41 0 0 0 -0.37,0 l -2.25,1.3 c -0.09,0 -0.08,0.15 0,0.21 z m -30.88,18 2.25,-1.29 c 0.09,-0.06 0.08,-0.15 0,-0.22 l -2.79,-1.61 a 0.44,0.44 0 0 0 -0.37,0 l -2.25,1.3 c -0.09,0.06 -0.08,0.15 0,0.22 L 140,252 a 0.4,0.4 0 0 0 0.33,0 z m 3.28,-1.89 2.25,-1.3 c 0.09,-0.05 0.08,-0.15 0,-0.21 L 143,247 a 0.41,0.41 0 0 0 -0.37,0 l -2.25,1.3 c -0.09,0 -0.08,0.15 0,0.21 l 2.79,1.61 a 0.41,0.41 0 0 0 0.44,0.02 z m -6.56,3.79 2.25,-1.3 c 0.09,0 0.08,-0.15 0,-0.21 l -2.79,-1.62 a 0.4,0.4 0 0 0 -0.37,0 l -2.25,1.29 c -0.09,0.06 -0.08,0.16 0,0.22 l 2.79,1.61 a 0.44,0.44 0 0 0 0.37,0.04 z m 13.13,-7.58 2.24,-1.3 c 0.09,-0.05 0.08,-0.15 0,-0.21 l -2.79,-1.61 a 0.41,0.41 0 0 0 -0.37,0 l -2.24,1.3 c -0.1,0.05 -0.09,0.15 0,0.21 l 2.79,1.61 a 0.4,0.4 0 0 0 0.37,0.03 z m -3.29,1.89 2.25,-1.29 c 0.09,-0.06 0.08,-0.15 0,-0.22 l -2.79,-1.61 a 0.4,0.4 0 0 0 -0.37,0 l -2.25,1.29 c -0.09,0.06 -0.08,0.15 0,0.22 l 2.79,1.61 a 0.4,0.4 0 0 0 0.37,0.03 z m 6.57,-3.78 2.24,-1.3 c 0.1,0 0.08,-0.15 0,-0.21 l -2.79,-1.62 a 0.4,0.4 0 0 0 -0.37,0 l -2.24,1.29 c -0.1,0.06 -0.09,0.16 0,0.22 l 2.79,1.61 a 0.46,0.46 0 0 0 0.37,0.04 z m 13.74,-28.75 a 0.4,0.4 0 0 0 0.37,0 l 2.25,-1.29 c 0.09,-0.06 0.08,-0.15 0,-0.22 l -0.74,-0.43 a 0.42,0.42 0 0 0 -0.38,0 l -2.24,1.3 c -0.1,0.05 -0.08,0.15 0,0.21 z m -16.07,10.46 a 0.4,0.4 0 0 0 0.37,0 l 2.25,-1.29 c 0.09,-0.06 0.08,-0.15 0,-0.22 l -2.79,-1.61 a 0.4,0.4 0 0 0 -0.37,0 l -2.25,1.29 c -0.09,0.06 -0.08,0.15 0,0.22 z m 6.56,-3.79 a 0.44,0.44 0 0 0 0.37,0 l 2.25,-1.3 c 0.09,0 0.08,-0.15 0,-0.21 l -2.79,-1.62 a 0.4,0.4 0 0 0 -0.37,0 l -2.25,1.29 c -0.09,0.06 -0.08,0.16 0,0.22 z m -10.56,6.1 a 0.44,0.44 0 0 0 0.37,0 l 2.24,-1.3 c 0.1,0 0.08,-0.15 0,-0.21 l -2.79,-1.62 a 0.4,0.4 0 0 0 -0.37,0 l -2.24,1.29 c -0.1,0.06 -0.09,0.16 0,0.22 z m 7.28,-4.21 a 0.38,0.38 0 0 0 0.37,0 L 157,223 c 0.09,-0.05 0.08,-0.15 0,-0.21 l -2.79,-1.61 a 0.41,0.41 0 0 0 -0.37,0 l -2.25,1.3 c -0.09,0.05 -0.08,0.15 0,0.21 z m -13.85,8 a 0.42,0.42 0 0 0 0.38,0 l 2.24,-1.29 c 0.1,-0.06 0.08,-0.15 0,-0.22 l -2.79,-1.61 a 0.4,0.4 0 0 0 -0.37,0 l -2.24,1.29 c -0.1,0.06 -0.09,0.15 0,0.22 z m 3.28,-1.89 a 0.42,0.42 0 0 0 0.38,0 l 2.24,-1.3 c 0.1,-0.05 0.08,-0.15 0,-0.21 l -2.79,-1.61 a 0.41,0.41 0 0 0 -0.37,0 l -2.24,1.3 c -0.1,0 -0.09,0.15 0,0.21 z m 16.8,-10.88 a 0.4,0.4 0 0 0 0.37,0 l 2.24,-1.29 c 0.1,-0.06 0.09,-0.16 0,-0.22 l -0.74,-0.43 a 0.42,0.42 0 0 0 -0.38,0 l -2.24,1.29 c -0.1,0.06 -0.08,0.15 0,0.22 z m 9.84,-5.69 a 0.38,0.38 0 0 0 0.37,0 l 2.25,-1.3 c 0.09,-0.05 0.08,-0.15 0,-0.21 l -0.74,-0.43 a 0.42,0.42 0 0 0 -0.38,0 l -2.24,1.29 c -0.1,0.06 -0.08,0.15 0,0.22 z m 5.86,3.39 a 0.44,0.44 0 0 0 0.37,0 l 2.25,-1.3 c 0.09,-0.06 0.08,-0.15 0,-0.22 l -2.79,-1.61 a 0.4,0.4 0 0 0 -0.37,0 l -2.25,1.29 c -0.09,0.06 -0.08,0.15 0,0.22 z m 9.06,8.83 2.24,-1.3 c 0.1,-0.06 0.08,-0.15 0,-0.22 l -2.79,-1.61 a 0.4,0.4 0 0 0 -0.37,0 l -2.24,1.29 c -0.1,0.06 -0.09,0.15 0,0.22 L 185,226 a 0.46,0.46 0 0 0 0.4,0 z m -21.48,-8.42 a 0.41,0.41 0 0 0 0.37,0 l 2.25,-1.3 c 0.09,0 0.08,-0.15 0,-0.21 l -0.74,-0.43 a 0.43,0.43 0 0 0 -0.38,0 l -2.24,1.3 c -0.1,0 -0.08,0.15 0,0.21 z m -26.64,16.56 a 0.43,0.43 0 0 0 0.38,0 l 2.24,-1.3 c 0.1,0 0.08,-0.15 0,-0.21 l -2.79,-1.61 a 0.41,0.41 0 0 0 -0.37,0 l -2.24,1.3 c -0.1,0 -0.09,0.15 0,0.21 z"
       style="fill:#7a634d"
       id="path159" />
    <path
       d="m 75.23,246.76 a 5.57,5.57 0 0 1 -2.43,-4.08 l -4.19,-70.1 A 5,5 0 0 1 71,168.3 l 81,-46.79 a 5.11,5.11 0 0 1 4.48,0 5.61,5.61 0 0 1 2.43,4.09 l 4.19,70.1 a 5,5 0 0 1 -2.25,4.17 l -81,46.79 a 5.17,5.17 0 0 1 -4.62,0.1 z"
       style="fill:#7a634d"
       id="path161" />
    <path
       d="m 75.23,246.76 a 5.57,5.57 0 0 1 -2.43,-4.08 l -4.19,-70.1 A 5,5 0 0 1 71,168.3 l 81,-46.79 a 5.11,5.11 0 0 1 4.48,0 5.61,5.61 0 0 1 2.43,4.09 l 4.19,70.1 a 5,5 0 0 1 -2.25,4.17 l -81,46.79 a 5.17,5.17 0 0 1 -4.62,0.1 z"
       style="opacity:0.4;fill:#ffffff"
       id="path163" />
    <path
       d="m 75.37,171 81,-46.79 a 1.58,1.58 0 0 1 2.58,1.39 l 4.19,70.1 a 5,5 0 0 1 -2.25,4.17 l -81,46.79 a 1.58,1.58 0 0 1 -2.57,-1.39 L 73.13,175.16 A 4.92,4.92 0 0 1 75.37,171 Z"
       style="fill:#7a634d"
       id="path165" />
    <path
       d="m 77.29,172.69 77.79,-44.91 a 1.26,1.26 0 0 1 2.06,1.11 L 160.79,190 A 4,4 0 0 1 159,193.33 L 81.81,237.91 A 1.28,1.28 0 0 1 79.73,236.8 L 75.52,176 a 3.9,3.9 0 0 1 1.77,-3.31 z"
       style="fill:#ffffff"
       id="path167" />
  </g>
  <g
     id="freepik--Computer--inject-58"
     transform="translate(-34.6775,-92.413657)">
    <path
       d="m 294.4,242.85 10.37,-6 a 5.57,5.57 0 0 0 2.49,-5.47 l -3.82,-19.86 4.52,-2.61 22.58,18.27 c 0.3,1.59 7.39,15.43 5.22,23.1 -1.92,6.76 -13,7.49 -14.26,8.2 l -27.1,-10.43 z"
       style="fill:#7a634d"
       id="path170" />
    <path
       d="m 321.5,258.5 10.36,-6 a 5.56,5.56 0 0 0 2.5,-5.47 l -3.82,-19.85 4.51,-2.61 4.37,22.71 a 8.39,8.39 0 0 1 -3.77,8.25 l -14.15,8.17 z"
       style="fill:#7a634d"
       id="path172" />
    <path
       d="m 321.5,258.5 10.36,-6 a 5.56,5.56 0 0 0 2.5,-5.47 l -3.82,-19.85 4.51,-2.61 4.37,22.71 a 8.39,8.39 0 0 1 -3.77,8.25 l -14.15,8.17 z"
       style="opacity:0.3"
       id="path174" />
    <polygon
       points="321.5,263.72 294.4,248.07 294.4,242.85 321.5,258.5 "
       style="fill:#7a634d"
       id="polygon176" />
    <polygon
       points="321.5,263.72 294.4,248.07 294.4,242.85 321.5,258.5 "
       style="opacity:0.4;fill:#ffffff"
       id="polygon178" />
    <path
       d="m 269.53,111.1 a 5.16,5.16 0 0 0 -2.26,4.09 v 83.14 a 5.34,5.34 0 0 0 2.41,4.17 l 103.63,59.83 a 4.52,4.52 0 0 0 6.93,-4 v -83.14 a 5.32,5.32 0 0 0 -2.41,-4.17 L 274.2,111.19 a 5.16,5.16 0 0 0 -4.67,-0.09 z"
       style="fill:#7a634d"
       id="path180" />
    <path
       d="m 373.31,262.33 a 4.52,4.52 0 0 0 6.93,-4 v -83.14 a 4.94,4.94 0 0 0 -0.7,-2.37 l -80.64,46.55 z"
       style="fill:#7a634d"
       id="path182" />
    <path
       d="m 373.55,262.15 a 4.52,4.52 0 0 0 6.9,-4 L 380,175 a 5,5 0 0 0 -0.72,-2.37 l -80.39,47 z"
       style="opacity:0.2"
       id="path184" />
    <path
       d="m 267.27,198.33 v -83.14 c 0,-1.54 1.08,-2.16 2.41,-1.4 l 103.63,59.84 a 5.32,5.32 0 0 1 2.41,4.17 v 83.14 c 0,1.54 -1.08,2.16 -2.41,1.39 L 269.68,202.5 a 5.34,5.34 0 0 1 -2.41,-4.17 z"
       style="fill:#7a634d"
       id="path186" />
    <path
       d="m 267.27,198.33 v -83.14 c 0,-1.54 1.08,-2.16 2.41,-1.4 l 103.63,59.84 a 5.32,5.32 0 0 1 2.41,4.17 v 83.14 c 0,1.54 -1.08,2.16 -2.41,1.39 L 269.68,202.5 a 5.34,5.34 0 0 1 -2.41,-4.17 z"
       style="opacity:0.4;fill:#ffffff"
       id="path188" />
    <path
       d="m 271.46,117.43 100.08,57.78 a 4.26,4.26 0 0 1 1.92,3.34 v 73.81 c 0,1.23 -0.86,1.73 -1.92,1.12 L 271.46,195.7 a 4.26,4.26 0 0 1 -1.93,-3.34 v -73.82 c 0,-1.23 0.86,-1.73 1.93,-1.11 z"
       style="fill:#ffffff"
       id="path190" />
    <path
       d="m 255.83,239 -22.3,12.87 a 4.52,4.52 0 0 0 0,8 l 72,41.57 a 5.32,5.32 0 0 0 4.82,0 l 22.3,-12.87 a 4.53,4.53 0 0 0 0,-8 l -72,-41.57 a 5.3,5.3 0 0 0 -4.82,0 z"
       style="fill:#37474f"
       id="path192" />
    <path
       d="m 307.94,302 a 4.86,4.86 0 0 0 2.41,-0.58 l 22.3,-12.87 a 4.53,4.53 0 0 0 0,-8 l -2.32,-1.34 h -22.39 z"
       style="fill:#263238"
       id="path194" />
    <path
       d="m 332.66,280.59 -72,-41.57 a 5.32,5.32 0 0 0 -4.82,0 l -22.3,12.88 c -1.33,0.76 -1.33,2 0,2.78 l 72,41.57 a 5.36,5.36 0 0 0 4.81,0 l 22.3,-12.88 c 1.35,-0.76 1.35,-2.01 0.01,-2.78 z"
       style="fill:#455a64"
       id="path196" />
    <path
       d="m 322.39,278.53 a 0.44,0.44 0 0 1 -0.37,0 l -2.21,-1.28 c -0.09,0 -0.08,-0.15 0,-0.21 l 0.73,-0.42 a 0.41,0.41 0 0 1 0.37,0 l 2.21,1.28 c 0.09,0.05 0.08,0.15 0,0.21 z"
       style="fill:#37474f"
       id="path198" />
    <path
       d="m 319.16,276.67 a 0.44,0.44 0 0 1 -0.37,0 l -2.21,-1.28 c -0.09,0 -0.08,-0.15 0,-0.21 l 0.73,-0.42 a 0.42,0.42 0 0 1 0.36,0 l 2.22,1.28 c 0.09,0.05 0.08,0.15 0,0.21 z"
       style="fill:#37474f"
       id="path200" />
    <path
       d="m 325.62,280.4 a 0.38,0.38 0 0 1 -0.36,0 l -2.21,-1.27 c -0.1,-0.06 -0.09,-0.15 0,-0.22 l 0.73,-0.42 a 0.4,0.4 0 0 1 0.37,0 l 2.21,1.27 c 0.1,0.06 0.09,0.15 0,0.22 z"
       style="fill:#37474f"
       id="path202" />
    <path
       d="m 328.86,282.27 a 0.44,0.44 0 0 1 -0.37,0 L 326.28,281 c -0.1,-0.05 -0.08,-0.15 0,-0.21 l 0.73,-0.42 a 0.42,0.42 0 0 1 0.36,0 l 2.22,1.28 c 0.09,0.06 0.08,0.15 0,0.21 z"
       style="fill:#37474f"
       id="path204" />
    <path
       d="m 297.12,267.54 -2.76,1.58 c -0.1,0.07 -0.12,0.16 0,0.22 l 3.74,2.16 a 0.44,0.44 0 0 0 0.37,0 l 2.75,-1.59 c 0.11,-0.06 0.12,-0.15 0,-0.21 l -3.75,-2.16 a 0.39,0.39 0 0 0 -0.35,0 z"
       style="fill:#37474f"
       id="path206" />
    <path
       d="m 255.08,243.27 -2.75,1.59 c -0.11,0.06 -0.12,0.16 0,0.21 l 2.21,1.28 a 0.41,0.41 0 0 0 0.37,0 l 2.75,-1.59 c 0.11,-0.06 0.12,-0.15 0,-0.21 l -2.21,-1.27 a 0.4,0.4 0 0 0 -0.37,-0.01 z"
       style="fill:#37474f"
       id="path208" />
    <path
       d="m 258.32,245.14 -2.75,1.59 c -0.11,0.06 -0.12,0.15 0,0.21 l 2.21,1.28 a 0.44,0.44 0 0 0 0.37,0 l 2.75,-1.59 c 0.11,-0.06 0.12,-0.16 0,-0.21 l -2.22,-1.28 a 0.42,0.42 0 0 0 -0.36,0 z"
       style="fill:#37474f"
       id="path210" />
    <path
       d="m 252.39,254 2.75,-1.59 c 0.11,-0.07 0.12,-0.16 0,-0.21 L 253,250.88 a 0.38,0.38 0 0 0 -0.36,0 l -2.75,1.59 c -0.11,0.06 -0.12,0.16 0,0.21 L 252,254 a 0.4,0.4 0 0 0 0.39,0 z"
       style="fill:#37474f"
       id="path212" />
    <path
       d="m 255.62,255.82 2.75,-1.59 c 0.11,-0.06 0.12,-0.15 0,-0.21 l -2.21,-1.27 a 0.4,0.4 0 0 0 -0.37,0 l -2.75,1.59 c -0.11,0.06 -0.12,0.16 0,0.21 l 2.22,1.28 a 0.39,0.39 0 0 0 0.36,-0.01 z"
       style="fill:#37474f"
       id="path214" />
    <path
       d="m 258.86,257.69 2.75,-1.59 c 0.1,-0.06 0.12,-0.16 0,-0.21 l -2.21,-1.28 a 0.41,0.41 0 0 0 -0.37,0 l -2.75,1.59 c -0.11,0.06 -0.12,0.15 0,0.21 l 2.21,1.27 a 0.4,0.4 0 0 0 0.37,0.01 z"
       style="fill:#37474f"
       id="path216" />
    <path
       d="m 262.09,259.56 2.75,-1.59 c 0.11,-0.07 0.12,-0.16 0,-0.21 l -2.22,-1.28 a 0.38,0.38 0 0 0 -0.36,0 l -2.75,1.59 c -0.11,0.06 -0.12,0.16 0,0.21 l 2.21,1.28 a 0.4,0.4 0 0 0 0.37,0 z"
       style="fill:#37474f"
       id="path218" />
    <path
       d="m 261.55,247 -2.75,1.59 c -0.11,0.07 -0.12,0.16 0,0.21 l 2.22,1.28 a 0.38,0.38 0 0 0 0.36,0 l 2.75,-1.59 c 0.11,-0.06 0.12,-0.16 0,-0.21 L 261.92,247 a 0.44,0.44 0 0 0 -0.37,0 z"
       style="fill:#37474f"
       id="path220" />
    <path
       d="m 264.78,248.87 -2.78,1.59 c -0.11,0.06 -0.12,0.16 0,0.21 l 2.21,1.28 a 0.41,0.41 0 0 0 0.37,0 l 2.75,-1.59 c 0.1,-0.06 0.12,-0.15 0,-0.21 l -2.21,-1.27 a 0.4,0.4 0 0 0 -0.34,-0.01 z"
       style="fill:#37474f"
       id="path222" />
    <path
       d="m 287.47,271 c 0.11,-0.06 0.12,-0.15 0,-0.21 l -2.21,-1.27 a 0.4,0.4 0 0 0 -0.37,0 l -2.75,1.59 c -0.11,0.06 -0.12,0.16 0,0.21 l 2.21,1.28 a 0.41,0.41 0 0 0 0.37,0 z"
       style="fill:#37474f"
       id="path224" />
    <path
       d="m 290.65,263.8 -2.75,1.59 c -0.11,0.07 -0.12,0.16 0,0.21 l 2.21,1.28 a 0.4,0.4 0 0 0 0.37,0 l 2.75,-1.59 c 0.11,-0.06 0.12,-0.16 0,-0.21 L 291,263.79 a 0.4,0.4 0 0 0 -0.35,0.01 z"
       style="fill:#37474f"
       id="path226" />
    <path
       d="m 275.9,272.07 2.75,-1.59 c 0.11,-0.06 0.12,-0.16 0,-0.21 L 276.47,269 a 0.41,0.41 0 0 0 -0.37,0 l -2.75,1.58 c -0.11,0.07 -0.12,0.16 0,0.22 l 2.22,1.27 a 0.38,0.38 0 0 0 0.33,0 z"
       style="fill:#37474f"
       id="path228" />
    <path
       d="m 281.89,272.35 c 0.1,-0.07 0.12,-0.16 0,-0.22 l -2.21,-1.27 a 0.4,0.4 0 0 0 -0.37,0 l -2.75,1.59 c -0.11,0.06 -0.12,0.16 0,0.21 l 2.21,1.28 a 0.41,0.41 0 0 0 0.37,0 z"
       style="fill:#37474f"
       id="path230" />
    <path
       d="m 287.42,261.94 -2.75,1.59 c -0.11,0.06 -0.13,0.15 0,0.21 l 2.21,1.27 a 0.4,0.4 0 0 0 0.37,0 l 2.75,-1.59 c 0.11,-0.06 0.12,-0.16 0,-0.21 l -2.21,-1.28 a 0.42,0.42 0 0 0 -0.37,0.01 z"
       style="fill:#37474f"
       id="path232" />
    <path
       d="m 271.25,252.6 -2.75,1.59 c -0.11,0.07 -0.12,0.16 0,0.21 l 2.22,1.28 a 0.38,0.38 0 0 0 0.36,0 l 2.75,-1.59 c 0.11,-0.06 0.12,-0.16 0,-0.21 l -2.21,-1.28 a 0.44,0.44 0 0 0 -0.37,0 z"
       style="fill:#37474f"
       id="path234" />
    <path
       d="m 284.18,260.07 -2.75,1.59 c -0.11,0.06 -0.12,0.16 0,0.21 l 2.21,1.28 a 0.39,0.39 0 0 0 0.36,0 l 2.76,-1.58 c 0.1,-0.07 0.12,-0.16 0,-0.22 l -2.21,-1.27 a 0.4,0.4 0 0 0 -0.37,-0.01 z"
       style="fill:#37474f"
       id="path236" />
    <path
       d="m 268,250.74 -2.75,1.59 c -0.11,0.06 -0.12,0.15 0,0.21 l 2.21,1.27 a 0.4,0.4 0 0 0 0.37,0 l 2.75,-1.59 c 0.11,-0.06 0.12,-0.16 0,-0.21 l -2.22,-1.28 a 0.42,0.42 0 0 0 -0.36,0.01 z"
       style="fill:#37474f"
       id="path238" />
    <path
       d="m 274.48,254.47 -2.75,1.59 c -0.11,0.06 -0.12,0.16 0,0.21 l 2.21,1.28 a 0.39,0.39 0 0 0 0.36,0 l 2.76,-1.59 c 0.1,-0.06 0.12,-0.15 0,-0.21 l -2.21,-1.27 a 0.4,0.4 0 0 0 -0.37,-0.01 z"
       style="fill:#37474f"
       id="path240" />
    <path
       d="m 277.72,256.34 -2.72,1.59 c -0.11,0.06 -0.12,0.15 0,0.21 l 2.21,1.27 a 0.4,0.4 0 0 0 0.37,0 l 2.75,-1.59 c 0.11,-0.06 0.12,-0.16 0,-0.21 l -2.22,-1.28 a 0.42,0.42 0 0 0 -0.39,0.01 z"
       style="fill:#37474f"
       id="path242" />
    <path
       d="m 281,258.2 -2.75,1.59 c -0.11,0.07 -0.12,0.16 0,0.21 l 2.21,1.28 a 0.4,0.4 0 0 0 0.37,0 l 2.75,-1.59 c 0.11,-0.06 0.12,-0.16 0,-0.21 l -2.21,-1.28 a 0.44,0.44 0 0 0 -0.37,0 z"
       style="fill:#37474f"
       id="path244" />
    <path
       d="m 268.56,263.29 2.75,-1.59 c 0.1,-0.06 0.12,-0.16 0,-0.21 l -2.21,-1.28 a 0.41,0.41 0 0 0 -0.37,0 l -2.73,1.61 c -0.11,0.06 -0.12,0.15 0,0.21 l 2.21,1.27 a 0.4,0.4 0 0 0 0.35,-0.01 z"
       style="fill:#37474f"
       id="path246" />
    <path
       d="m 265.32,261.42 2.75,-1.59 c 0.11,-0.06 0.12,-0.15 0,-0.21 l -2.21,-1.27 a 0.4,0.4 0 0 0 -0.37,0 l -2.72,1.65 c -0.11,0.06 -0.12,0.16 0,0.21 l 2.22,1.28 a 0.39,0.39 0 0 0 0.33,-0.07 z"
       style="fill:#37474f"
       id="path248" />
    <path
       d="m 259.05,250.11 -2.75,1.58 c -0.11,0.07 -0.12,0.16 0,0.22 l 2.21,1.27 a 0.4,0.4 0 0 0 0.37,0 l 2.75,-1.59 c 0.1,-0.06 0.12,-0.16 0,-0.21 l -2.21,-1.28 a 0.41,0.41 0 0 0 -0.37,0.01 z"
       style="fill:#37474f"
       id="path250" />
    <path
       d="m 255.82,248.24 -2.75,1.59 c -0.11,0.06 -0.12,0.15 0,0.21 l 2.22,1.28 a 0.42,0.42 0 0 0 0.36,0 l 2.75,-1.59 c 0.11,-0.06 0.12,-0.16 0,-0.21 l -2.21,-1.28 a 0.44,0.44 0 0 0 -0.37,0 z"
       style="fill:#37474f"
       id="path252" />
    <path
       d="m 284.24,269.17 c 0.11,-0.06 0.12,-0.16 0,-0.21 l -2.21,-1.28 a 0.38,0.38 0 0 0 -0.36,0 l -2.75,1.59 c -0.11,0.06 -0.13,0.16 0,0.21 l 2.21,1.28 a 0.4,0.4 0 0 0 0.37,0 z"
       style="fill:#37474f"
       id="path254" />
    <path
       d="M 278.25,268.89 281,267.3 c 0.1,-0.06 0.12,-0.16 0,-0.21 l -2.21,-1.28 a 0.41,0.41 0 0 0 -0.37,0 l -2.75,1.59 c -0.11,0.06 -0.12,0.15 0,0.21 l 2.21,1.27 a 0.38,0.38 0 0 0 0.37,0.01 z"
       style="fill:#37474f"
       id="path256" />
    <path
       d="m 275,267 2.75,-1.59 c 0.11,-0.06 0.12,-0.15 0,-0.21 l -2.16,-1.2 a 0.4,0.4 0 0 0 -0.37,0 l -2.75,1.59 c -0.11,0.06 -0.12,0.16 0,0.21 l 2.21,1.28 A 0.41,0.41 0 0 0 275,267 Z"
       style="fill:#37474f"
       id="path258" />
    <path
       d="m 271.79,265.16 2.75,-1.59 c 0.11,-0.07 0.12,-0.16 0,-0.21 l -2.22,-1.28 a 0.38,0.38 0 0 0 -0.36,0 l -2.75,1.59 c -0.11,0.07 -0.12,0.16 0,0.21 l 2.21,1.28 a 0.4,0.4 0 0 0 0.37,0 z"
       style="fill:#37474f"
       id="path260" />
    <path
       d="m 278.45,261.31 -2.75,1.58 c -0.11,0.07 -0.12,0.16 0,0.22 l 2.21,1.27 a 0.38,0.38 0 0 0 0.36,0 l 2.76,-1.59 c 0.1,-0.06 0.12,-0.16 0,-0.21 l -2.21,-1.28 a 0.41,0.41 0 0 0 -0.37,0.01 z"
       style="fill:#37474f"
       id="path262" />
    <path
       d="m 265.52,253.84 -2.75,1.59 c -0.11,0.06 -0.12,0.15 0,0.21 l 2.22,1.28 a 0.42,0.42 0 0 0 0.36,0 l 2.75,-1.59 c 0.11,-0.06 0.12,-0.16 0,-0.21 l -2.21,-1.28 a 0.44,0.44 0 0 0 -0.37,0 z"
       style="fill:#37474f"
       id="path264" />
    <path
       d="m 268.75,255.71 -2.75,1.58 c -0.11,0.07 -0.12,0.16 0,0.22 l 2.21,1.27 a 0.4,0.4 0 0 0 0.37,0 l 2.75,-1.59 c 0.1,-0.06 0.12,-0.16 0,-0.21 l -2.21,-1.28 a 0.41,0.41 0 0 0 -0.37,0.01 z"
       style="fill:#37474f"
       id="path266" />
    <path
       d="m 262.29,252 -2.75,1.59 c -0.11,0.06 -0.12,0.16 0,0.21 l 2.21,1.28 a 0.41,0.41 0 0 0 0.37,0 l 2.75,-1.58 c 0.11,-0.07 0.12,-0.16 0,-0.22 L 262.65,252 a 0.38,0.38 0 0 0 -0.36,0 z"
       style="fill:#37474f"
       id="path268" />
    <path
       d="m 275.22,259.44 -2.75,1.56 c -0.11,0.06 -0.12,0.15 0,0.21 l 2.21,1.28 a 0.44,0.44 0 0 0 0.37,0 l 2.75,-1.59 c 0.11,-0.06 0.12,-0.16 0,-0.21 l -2.21,-1.28 a 0.44,0.44 0 0 0 -0.37,0.03 z"
       style="fill:#37474f"
       id="path270" />
    <path
       d="m 272,257.57 -2.75,1.59 c -0.11,0.06 -0.12,0.16 0,0.21 l 2.21,1.28 a 0.41,0.41 0 0 0 0.37,0 l 2.75,-1.58 c 0.11,-0.07 0.12,-0.16 0,-0.22 l -2.22,-1.27 A 0.38,0.38 0 0 0 272,257.57 Z"
       style="fill:#37474f"
       id="path272" />
    <path
       d="m 291.39,268.72 -2.76,1.59 c -0.1,0.06 -0.12,0.16 0,0.21 l 2.21,1.28 a 0.41,0.41 0 0 0 0.37,0 l 2.75,-1.58 c 0.11,-0.07 0.12,-0.16 0,-0.22 l -2.21,-1.27 a 0.38,0.38 0 0 0 -0.36,-0.01 z"
       style="fill:#37474f"
       id="path274" />
    <path
       d="m 294.79,270.6 -4.48,2.59 c -0.11,0.06 -0.12,0.16 0,0.21 l 2.21,1.28 a 0.44,0.44 0 0 0 0.37,0 l 4.48,-2.59 c 0.11,-0.06 0.13,-0.15 0,-0.21 l -2.21,-1.28 a 0.44,0.44 0 0 0 -0.37,0 z"
       style="fill:#37474f"
       id="path276" />
    <path
       d="M 288.15,271.42 285.4,273 c -0.11,0.06 -0.12,0.16 0,0.21 l 4.81,2.79 a 0.44,0.44 0 0 0 0.37,0 l 2.75,-1.59 c 0.11,-0.06 0.12,-0.16 0,-0.21 l -4.82,-2.78 a 0.4,0.4 0 0 0 -0.36,0 z"
       style="fill:#37474f"
       id="path278" />
    <path
       d="m 281.69,263.12 -2.75,1.59 c -0.11,0.06 -0.13,0.16 0,0.21 l 2.21,1.28 a 0.41,0.41 0 0 0 0.37,0 l 2.75,-1.58 c 0.11,-0.07 0.12,-0.16 0,-0.22 l -2.21,-1.27 a 0.38,0.38 0 0 0 -0.37,-0.01 z"
       style="fill:#37474f"
       id="path280" />
    <path
       d="m 288.15,266.86 -2.75,1.58 c -0.11,0.07 -0.12,0.16 0,0.21 l 2.21,1.28 a 0.38,0.38 0 0 0 0.36,0 l 2.75,-1.59 c 0.11,-0.06 0.13,-0.16 0,-0.21 l -2.21,-1.28 a 0.41,0.41 0 0 0 -0.36,0.01 z"
       style="fill:#37474f"
       id="path282" />
    <path
       d="m 284.92,265 -2.75,1.59 c -0.11,0.06 -0.12,0.15 0,0.21 l 2.21,1.28 a 0.44,0.44 0 0 0 0.37,0 l 2.75,-1.59 c 0.11,-0.06 0.12,-0.16 0,-0.21 L 285.29,265 a 0.44,0.44 0 0 0 -0.37,0 z"
       style="fill:#37474f"
       id="path284" />
    <path
       d="m 272.67,270.2 2.75,-1.59 c 0.11,-0.06 0.12,-0.16 0,-0.21 l -2.22,-1.28 a 0.42,0.42 0 0 0 -0.36,0 l -2.75,1.59 c -0.11,0.06 -0.12,0.15 0,0.21 l 2.21,1.28 a 0.44,0.44 0 0 0 0.37,0 z"
       style="fill:#37474f"
       id="path286" />
    <path
       d="m 291.11,267.47 2.21,1.28 a 0.39,0.39 0 0 0 0.36,0 l 2.75,-1.59 c 0.11,-0.06 0.13,-0.15 0,-0.21 l -2.21,-1.27 a 0.4,0.4 0 0 0 -0.37,0 l -2.75,1.59 c -0.1,0.05 -0.1,0.15 0.01,0.2 z"
       style="fill:#37474f"
       id="path288" />
    <path
       d="m 248.64,247.4 3.4,2 a 0.4,0.4 0 0 0 0.37,0 l 2.75,-1.59 c 0.1,-0.06 0.12,-0.16 0,-0.21 l -3.4,-2 a 0.44,0.44 0 0 0 -0.37,0 l -2.75,1.59 c -0.09,0.06 -0.1,0.15 0,0.21 z"
       style="fill:#37474f"
       id="path290" />
    <path
       d="m 257.11,242.33 2.72,1.57 a 0.41,0.41 0 0 0 0.37,0 l 2.8,-1.6 c 0.11,-0.07 0.12,-0.16 0,-0.22 l -2.73,-1.57 a 0.42,0.42 0 0 0 -0.36,0 l -2.75,1.59 c -0.16,0.08 -0.16,0.17 -0.05,0.23 z"
       style="fill:#37474f"
       id="path292" />
    <path
       d="m 244.45,249.59 4.25,2.46 a 0.44,0.44 0 0 0 0.37,0 l 2.75,-1.59 c 0.11,-0.07 0.12,-0.16 0,-0.21 l -4.26,-2.46 a 0.44,0.44 0 0 0 -0.37,0 l -2.75,1.59 c -0.07,0.07 -0.09,0.16 0.01,0.21 z"
       style="fill:#37474f"
       id="path294" />
    <path
       d="m 283.57,276.72 2.72,1.58 a 0.44,0.44 0 0 0 0.37,0 l 2.75,-1.59 c 0.11,-0.06 0.12,-0.15 0,-0.21 l -2.73,-1.57 a 0.41,0.41 0 0 0 -0.36,0 l -2.75,1.59 c -0.08,0.06 -0.09,0.15 0,0.2 z"
       style="fill:#37474f"
       id="path296" />
    <path
       d="m 240.52,251.87 2.72,1.57 a 0.44,0.44 0 0 0 0.37,0 l 2.75,-1.59 c 0.11,-0.07 0.12,-0.16 0,-0.21 l -2.72,-1.58 a 0.44,0.44 0 0 0 -0.37,0 l -2.75,1.59 c -0.08,0.07 -0.1,0.16 0,0.22 z"
       style="fill:#37474f"
       id="path298" />
    <path
       d="m 281.63,253.08 c 0.11,-0.06 0.12,-0.16 0,-0.21 l -2.22,-1.28 a 0.39,0.39 0 0 0 -0.36,0 l -2.75,1.58 c -0.11,0.07 -0.12,0.16 0,0.22 l 2.21,1.27 a 0.4,0.4 0 0 0 0.37,0 z"
       style="fill:#37474f"
       id="path300" />
    <path
       d="m 288.1,256.81 c 0.1,-0.06 0.12,-0.15 0,-0.21 l -2.21,-1.28 a 0.44,0.44 0 0 0 -0.37,0 l -2.75,1.59 c -0.11,0.06 -0.12,0.16 0,0.21 l 2.21,1.28 a 0.44,0.44 0 0 0 0.37,0 z"
       style="fill:#37474f"
       id="path302" />
    <path
       d="m 284.86,255 c 0.11,-0.07 0.12,-0.16 0,-0.21 l -2.21,-1.28 a 0.4,0.4 0 0 0 -0.37,0 l -2.75,1.59 c -0.11,0.06 -0.12,0.16 0,0.21 l 2.22,1.28 a 0.41,0.41 0 0 0 0.36,0 z"
       style="fill:#37474f"
       id="path304" />
    <path
       d="m 291.33,258.68 c 0.11,-0.06 0.12,-0.16 0,-0.21 l -2.22,-1.28 a 0.39,0.39 0 0 0 -0.36,0 L 286,258.8 c -0.11,0.06 -0.12,0.15 0,0.21 l 2.21,1.27 a 0.4,0.4 0 0 0 0.37,0 z"
       style="fill:#37474f"
       id="path306" />
    <path
       d="m 279,278.39 c -0.11,0.06 -0.12,0.16 0,0.21 l 3.4,2 a 0.44,0.44 0 0 0 0.37,0 l 2.75,-1.59 c 0.11,-0.06 0.12,-0.16 0,-0.21 l -3.41,-2 a 0.38,0.38 0 0 0 -0.36,0 z"
       style="fill:#37474f"
       id="path308" />
    <path
       d="m 277,250.44 c 0.1,-0.06 0.12,-0.15 0,-0.21 L 274.85,249 a 0.44,0.44 0 0 0 -0.37,0 l -2.75,1.59 c -0.11,0.06 -0.12,0.15 0,0.21 l 2.21,1.28 a 0.42,0.42 0 0 0 0.36,0 z"
       style="fill:#37474f"
       id="path310" />
    <path
       d="m 273.8,248.58 c 0.11,-0.07 0.12,-0.16 0,-0.22 l -2.21,-1.27 a 0.4,0.4 0 0 0 -0.37,0 l -2.75,1.59 c -0.11,0.06 -0.12,0.16 0,0.21 l 2.22,1.28 a 0.39,0.39 0 0 0 0.36,0 z"
       style="fill:#37474f"
       id="path312" />
    <path
       d="m 267.34,244.84 c 0.1,-0.06 0.12,-0.15 0,-0.21 l -2.21,-1.28 a 0.44,0.44 0 0 0 -0.37,0 L 262,245 c -0.11,0.06 -0.12,0.15 0,0.21 l 2.21,1.28 a 0.44,0.44 0 0 0 0.37,0 z"
       style="fill:#37474f"
       id="path314" />
    <path
       d="m 270.57,246.71 c 0.11,-0.06 0.12,-0.16 0,-0.21 l -2.22,-1.28 a 0.39,0.39 0 0 0 -0.36,0 l -2.75,1.58 c -0.11,0.07 -0.12,0.16 0,0.22 l 2.21,1.27 a 0.4,0.4 0 0 0 0.37,0 z"
       style="fill:#37474f"
       id="path316" />
    <path
       d="m 269.44,268.33 2.75,-1.58 c 0.11,-0.07 0.12,-0.16 0,-0.22 L 270,265.26 a 0.4,0.4 0 0 0 -0.37,0 l -2.75,1.59 c -0.11,0.06 -0.12,0.16 0,0.21 l 2.21,1.28 a 0.41,0.41 0 0 0 0.35,-0.01 z"
       style="fill:#37474f"
       id="path318" />
    <path
       d="m 244.78,258.64 c -0.11,0.06 -0.12,0.16 0,0.21 l 2.72,1.58 a 0.44,0.44 0 0 0 0.37,0 l 2.75,-1.59 c 0.1,-0.06 0.12,-0.16 0,-0.21 L 247.9,257 a 0.4,0.4 0 0 0 -0.37,0 z"
       style="fill:#37474f"
       id="path320" />
    <path
       d="m 236.61,253.93 c -0.1,0.06 -0.12,0.15 0,0.21 l 3.4,2 a 0.4,0.4 0 0 0 0.37,0 l 2.75,-1.59 c 0.11,-0.06 0.12,-0.16 0,-0.21 l -3.4,-2 a 0.41,0.41 0 0 0 -0.37,0 z"
       style="fill:#37474f"
       id="path322" />
    <path
       d="m 248.53,260.8 c -0.11,0.07 -0.12,0.16 0,0.21 l 18.21,10.52 a 0.42,0.42 0 0 0 0.36,0 l 2.75,-1.59 c 0.11,-0.06 0.13,-0.15 0,-0.21 L 251.64,259.2 a 0.41,0.41 0 0 0 -0.36,0 z"
       style="fill:#37474f"
       id="path324" />
    <path
       d="m 271.5,274.07 c -0.11,0.06 -0.12,0.15 0,0.21 l 2.72,1.57 a 0.41,0.41 0 0 0 0.37,0 l 2.75,-1.58 c 0.11,-0.07 0.12,-0.16 0,-0.22 l -2.72,-1.57 a 0.44,0.44 0 0 0 -0.37,0 z"
       style="fill:#37474f"
       id="path326" />
    <path
       d="m 267.75,271.9 c -0.1,0.07 -0.12,0.16 0,0.22 l 2.72,1.57 a 0.41,0.41 0 0 0 0.37,0 l 2.75,-1.59 c 0.11,-0.06 0.12,-0.15 0,-0.21 l -2.72,-1.57 a 0.39,0.39 0 0 0 -0.36,0 z"
       style="fill:#37474f"
       id="path328" />
    <path
       d="m 275.24,276.23 c -0.11,0.06 -0.12,0.15 0,0.21 l 2.72,1.57 a 0.38,0.38 0 0 0 0.36,0 l 2.76,-1.59 c 0.1,-0.07 0.12,-0.16 0,-0.21 l -2.72,-1.58 a 0.44,0.44 0 0 0 -0.37,0 z"
       style="fill:#37474f"
       id="path330" />
    <path
       d="m 241,256.48 c -0.11,0.06 -0.12,0.16 0,0.21 l 2.72,1.57 a 0.4,0.4 0 0 0 0.37,0 l 2.75,-1.59 c 0.11,-0.06 0.12,-0.16 0,-0.21 l -2.72,-1.57 a 0.4,0.4 0 0 0 -0.37,0 z"
       style="fill:#37474f"
       id="path332" />
    <path
       d="m 286.68,278.29 2.75,-1.59 c 0.11,-0.06 0.12,-0.15 0,-0.21 L 283,272.76 a 0.4,0.4 0 0 0 -0.37,0 l -2.75,1.59 c -0.11,0.07 -0.12,0.16 0,0.21 l 6.47,3.74 a 0.44,0.44 0 0 0 0.33,-0.01 z"
       style="fill:#37474f"
       id="path334" />
    <path
       d="m 246.8,255.27 2.75,-1.59 c 0.11,-0.06 0.12,-0.16 0,-0.21 l -2.21,-1.28 a 0.41,0.41 0 0 0 -0.37,0 l -2.75,1.58 c -0.11,0.07 -0.12,0.16 0,0.22 l 2.22,1.27 a 0.38,0.38 0 0 0 0.36,0.01 z"
       style="fill:#37474f"
       id="path336" />
    <path
       d="m 263,264.6 2.75,-1.59 c 0.11,-0.06 0.12,-0.15 0,-0.21 l -2.22,-1.28 a 0.42,0.42 0 0 0 -0.36,0 l -2.75,1.59 c -0.11,0.06 -0.12,0.15 0,0.21 l 2.21,1.28 a 0.44,0.44 0 0 0 0.37,0 z"
       style="fill:#37474f"
       id="path338" />
    <path
       d="m 259.74,262.73 2.75,-1.58 c 0.11,-0.07 0.12,-0.16 0,-0.22 l -2.21,-1.27 a 0.4,0.4 0 0 0 -0.37,0 l -2.75,1.59 c -0.1,0.06 -0.12,0.16 0,0.21 l 2.21,1.28 a 0.41,0.41 0 0 0 0.37,-0.01 z"
       style="fill:#37474f"
       id="path340" />
    <path
       d="m 266.2,266.47 2.75,-1.59 c 0.11,-0.06 0.12,-0.16 0,-0.21 l -2.21,-1.28 a 0.41,0.41 0 0 0 -0.37,0 l -2.72,1.61 c -0.11,0.07 -0.12,0.16 0,0.22 l 2.22,1.27 a 0.38,0.38 0 0 0 0.33,-0.02 z"
       style="fill:#37474f"
       id="path342" />
    <path
       d="m 253.27,259 2.75,-1.59 c 0.11,-0.06 0.12,-0.15 0,-0.21 l -2.22,-1.28 a 0.42,0.42 0 0 0 -0.36,0 l -2.75,1.59 c -0.11,0.06 -0.12,0.15 0,0.21 l 2.21,1.28 a 0.44,0.44 0 0 0 0.37,0 z"
       style="fill:#37474f"
       id="path344" />
    <path
       d="m 256.5,260.87 2.75,-1.59 c 0.11,-0.06 0.12,-0.16 0,-0.21 l -2.21,-1.28 a 0.41,0.41 0 0 0 -0.37,0 l -2.67,1.6 c -0.11,0.07 -0.12,0.16 0,0.22 l 2.22,1.27 a 0.38,0.38 0 0 0 0.28,-0.01 z"
       style="fill:#37474f"
       id="path346" />
    <path
       d="m 250,257.13 2.75,-1.58 c 0.11,-0.07 0.12,-0.16 0,-0.22 l -2.21,-1.27 a 0.4,0.4 0 0 0 -0.37,0 l -2.75,1.59 c -0.1,0.06 -0.12,0.16 0,0.21 l 2.21,1.28 a 0.41,0.41 0 0 0 0.37,-0.01 z"
       style="fill:#37474f"
       id="path348" />
    <path
       d="m 301.6,277.83 2.75,-1.59 c 0.11,-0.06 0.12,-0.16 0,-0.21 l -2.22,-1.28 a 0.42,0.42 0 0 0 -0.36,0 l -2.75,1.59 c -0.11,0.06 -0.12,0.15 0,0.21 l 2.21,1.28 a 0.44,0.44 0 0 0 0.37,0 z"
       style="fill:#37474f"
       id="path350" />
    <path
       d="m 305.73,272.5 -2.73,1.59 c -0.11,0.06 -0.12,0.16 0,0.21 l 2.21,1.28 a 0.44,0.44 0 0 0 0.37,0 l 2.75,-1.59 c 0.11,-0.06 0.12,-0.15 0,-0.21 l -2.22,-1.28 a 0.42,0.42 0 0 0 -0.38,0 z"
       style="fill:#37474f"
       id="path352" />
    <path
       d="m 309,274.37 -2.79,1.63 c -0.11,0.07 -0.12,0.16 0,0.22 l 2.22,1.27 a 0.38,0.38 0 0 0 0.36,0 l 2.75,-1.59 c 0.11,-0.06 0.12,-0.16 0,-0.21 l -2.21,-1.28 A 0.41,0.41 0 0 0 309,274.37 Z"
       style="fill:#37474f"
       id="path354" />
    <path
       d="m 304.83,279.7 2.75,-1.59 c 0.11,-0.06 0.12,-0.16 0,-0.21 l -2.21,-1.28 a 0.41,0.41 0 0 0 -0.37,0 l -2.75,1.58 c -0.11,0.07 -0.12,0.16 0,0.22 l 2.22,1.27 a 0.38,0.38 0 0 0 0.36,0.01 z"
       style="fill:#37474f"
       id="path356" />
    <path
       d="m 302.49,270.63 -2.75,1.59 c -0.11,0.06 -0.12,0.16 0,0.21 l 2.21,1.28 a 0.44,0.44 0 0 0 0.37,0 l 2.75,-1.59 c 0.11,-0.07 0.12,-0.16 0,-0.21 l -2.21,-1.28 a 0.4,0.4 0 0 0 -0.37,0 z"
       style="fill:#37474f"
       id="path358" />
    <path
       d="m 284,281.3 c -0.1,0.06 -0.12,0.15 0,0.21 l 2.21,1.28 a 0.44,0.44 0 0 0 0.37,0 l 2.75,-1.59 c 0.11,-0.06 0.12,-0.15 0,-0.21 l -2.21,-1.28 a 0.44,0.44 0 0 0 -0.37,0 z"
       style="fill:#37474f"
       id="path360" />
    <path
       d="m 290.49,285 c -0.11,0.06 -0.12,0.16 0,0.21 l 2.22,1.28 a 0.39,0.39 0 0 0 0.36,0 l 2.75,-1.58 c 0.11,-0.07 0.12,-0.16 0,-0.22 l -2.21,-1.27 a 0.4,0.4 0 0 0 -0.37,0 z"
       style="fill:#37474f"
       id="path362" />
    <path
       d="m 287.26,283.16 c -0.11,0.07 -0.12,0.16 0,0.22 l 2.21,1.27 a 0.4,0.4 0 0 0 0.37,0 l 2.75,-1.59 c 0.11,-0.06 0.12,-0.16 0,-0.21 l -2.22,-1.28 a 0.39,0.39 0 0 0 -0.36,0 z"
       style="fill:#37474f"
       id="path364" />
    <path
       d="m 298.37,276 2.75,-1.58 c 0.11,-0.07 0.12,-0.16 0,-0.22 l -2.21,-1.27 a 0.4,0.4 0 0 0 -0.37,0 l -2.75,1.59 c -0.11,0.06 -0.12,0.16 0,0.21 L 298,276 a 0.41,0.41 0 0 0 0.37,0 z"
       style="fill:#37474f"
       id="path366" />
    <path
       d="m 296.49,280.78 c 0.11,-0.06 0.12,-0.16 0,-0.21 l -2.22,-1.28 a 0.39,0.39 0 0 0 -0.36,0 l -2.75,1.58 c -0.11,0.07 -0.12,0.16 0,0.22 l 2.21,1.27 a 0.4,0.4 0 0 0 0.37,0 z"
       style="fill:#37474f"
       id="path368" />
    <path
       d="m 316.28,273.09 c 0.11,-0.07 0.12,-0.16 0,-0.22 l -2.21,-1.27 a 0.4,0.4 0 0 0 -0.37,0 l -2.7,1.6 c -0.11,0.06 -0.12,0.16 0,0.21 l 2.21,1.28 a 0.41,0.41 0 0 0 0.37,0 z"
       style="fill:#37474f"
       id="path370" />
    <path
       d="m 309.82,269.35 c 0.1,-0.06 0.12,-0.15 0,-0.21 l -2.21,-1.28 a 0.44,0.44 0 0 0 -0.37,0 l -2.75,1.59 c -0.11,0.06 -0.12,0.16 0,0.21 l 2.21,1.34 a 0.44,0.44 0 0 0 0.37,0 z"
       style="fill:#37474f"
       id="path372" />
    <path
       d="m 313.05,271.22 c 0.11,-0.06 0.12,-0.16 0,-0.21 l -2.22,-1.28 a 0.39,0.39 0 0 0 -0.36,0 l -2.75,1.58 c -0.11,0.07 -0.12,0.16 0,0.22 l 2.21,1.27 a 0.4,0.4 0 0 0 0.37,0 z"
       style="fill:#37474f"
       id="path374" />
    <path
       d="m 319.15,280.23 -2.75,1.58 c -0.11,0.07 -0.12,0.16 0,0.22 l 2.21,1.27 a 0.4,0.4 0 0 0 0.37,0 l 2.75,-1.59 c 0.11,-0.06 0.12,-0.16 0,-0.21 l -2.21,-1.28 a 0.41,0.41 0 0 0 -0.37,0.01 z"
       style="fill:#37474f"
       id="path376" />
    <path
       d="m 313.17,280 c -0.11,0.06 -0.12,0.15 0,0.21 l 2.21,1.28 a 0.44,0.44 0 0 0 0.37,0 l 2.75,-1.59 c 0.11,-0.06 0.12,-0.15 0,-0.21 l -2.22,-1.28 a 0.42,0.42 0 0 0 -0.36,0 z"
       style="fill:#37474f"
       id="path378" />
    <path
       d="m 307.86,286 2.75,-1.59 c 0.11,-0.06 0.12,-0.16 0,-0.21 l -2.22,-1.28 a 0.39,0.39 0 0 0 -0.36,0 l -2.75,1.59 c -0.11,0.06 -0.12,0.15 0,0.21 l 2.21,1.27 a 0.4,0.4 0 0 0 0.37,0.01 z"
       style="fill:#37474f"
       id="path380" />
    <path
       d="m 315,285.56 2.75,-1.59 c 0.11,-0.06 0.12,-0.16 0,-0.21 l -2.21,-1.28 a 0.44,0.44 0 0 0 -0.37,0 l -2.75,1.59 c -0.11,0.07 -0.12,0.16 0,0.21 l 2.21,1.28 a 0.4,0.4 0 0 0 0.37,0 z"
       style="fill:#37474f"
       id="path382" />
    <path
       d="m 309.24,282.22 c -0.11,0.06 -0.12,0.15 0,0.21 l 2.21,1.28 a 0.44,0.44 0 0 0 0.37,0 l 2.75,-1.59 c 0.11,-0.06 0.12,-0.16 0,-0.21 l -2.22,-1.28 a 0.42,0.42 0 0 0 -0.36,0 z"
       style="fill:#37474f"
       id="path384" />
    <path
       d="m 313.84,286.24 c 0.11,-0.07 0.12,-0.16 0,-0.21 l -2.21,-1.28 a 0.4,0.4 0 0 0 -0.37,0 l -2.75,1.59 c -0.11,0.06 -0.12,0.16 0,0.21 l 2.21,1.28 a 0.44,0.44 0 0 0 0.37,0 z"
       style="fill:#37474f"
       id="path386" />
    <path
       d="m 294.21,287.16 c -0.11,0.06 -0.12,0.15 0,0.21 l 5.44,3.14 a 0.4,0.4 0 0 0 0.37,0 l 2.75,-1.59 c 0.11,-0.06 0.12,-0.16 0,-0.21 l -5.45,-3.15 a 0.44,0.44 0 0 0 -0.37,0 z"
       style="fill:#37474f"
       id="path388" />
    <path
       d="m 300.68,290.89 c -0.11,0.06 -0.12,0.16 0,0.21 l 2.22,1.28 a 0.39,0.39 0 0 0 0.36,0 l 2.75,-1.58 c 0.11,-0.07 0.12,-0.16 0,-0.22 l -2.21,-1.27 a 0.4,0.4 0 0 0 -0.37,0 z"
       style="fill:#37474f"
       id="path390" />
    <path
       d="m 307.16,290.09 2.75,-1.58 c 0.11,-0.07 0.12,-0.16 0,-0.22 L 307.73,287 a 0.4,0.4 0 0 0 -0.37,0 l -2.75,1.59 c -0.11,0.06 -0.12,0.16 0,0.21 l 2.22,1.28 a 0.39,0.39 0 0 0 0.33,0.01 z"
       style="fill:#37474f"
       id="path392" />
    <path
       d="m 312.68,276.49 -2.75,1.59 c -0.11,0.06 -0.12,0.16 0,0.21 l 2.21,1.28 a 0.39,0.39 0 0 0 0.36,0 l 2.76,-1.58 c 0.1,-0.07 0.12,-0.16 0,-0.22 l -2.21,-1.27 a 0.4,0.4 0 0 0 -0.37,-0.01 z"
       style="fill:#37474f"
       id="path394" />
    <path
       d="m 308.75,278.76 -2.75,1.59 c -0.11,0.06 -0.12,0.16 0,0.21 l 2.21,1.28 a 0.41,0.41 0 0 0 0.37,0 l 2.75,-1.58 c 0.1,-0.07 0.12,-0.16 0,-0.22 l -2.21,-1.27 a 0.4,0.4 0 0 0 -0.37,-0.01 z"
       style="fill:#37474f"
       id="path396" />
    <path
       d="m 303.45,284.77 c 0.1,-0.06 0.12,-0.15 0,-0.21 l -2.21,-1.28 a 0.44,0.44 0 0 0 -0.37,0 l -2.75,1.59 c -0.11,0.06 -0.12,0.15 0,0.21 l 2.21,1.28 a 0.44,0.44 0 0 0 0.37,0 z"
       style="fill:#37474f"
       id="path398" />
    <path
       d="m 304.63,284.09 2.75,-1.59 c 0.1,-0.06 0.12,-0.15 0,-0.21 L 305.19,281 a 0.44,0.44 0 0 0 -0.37,0 l -2.75,1.59 c -0.11,0.06 -0.12,0.16 0,0.21 l 2.21,1.28 a 0.41,0.41 0 0 0 0.35,0.01 z"
       style="fill:#37474f"
       id="path400" />
    <path
       d="m 321,285.62 -2.21,-1.27 a 0.4,0.4 0 0 0 -0.37,0 l -6.68,3.86 c -0.11,0.06 -0.12,0.16 0,0.21 l 2.21,1.28 a 0.44,0.44 0 0 0 0.37,0 l 6.68,-3.86 c 0.11,-0.07 0.13,-0.16 0,-0.22 z"
       style="fill:#37474f"
       id="path402" />
    <path
       d="m 303.89,293 2.21,1.28 a 0.44,0.44 0 0 0 0.37,0 l 6.68,-3.86 c 0.11,-0.06 0.12,-0.15 0,-0.21 L 311,288.88 a 0.44,0.44 0 0 0 -0.37,0 l -6.68,3.86 c -0.15,0.08 -0.16,0.17 -0.06,0.26 z"
       style="fill:#37474f"
       id="path404" />
    <path
       d="m 324.94,283.57 c 0.1,-0.07 0.12,-0.16 0,-0.22 l -2.21,-1.27 a 0.4,0.4 0 0 0 -0.37,0 l -2.75,1.59 c -0.11,0.06 -0.12,0.16 0,0.21 l 2.21,1.28 a 0.41,0.41 0 0 0 0.37,0 z"
       style="fill:#37474f"
       id="path406" />
    <path
       d="m 303.93,288.23 2.75,-1.59 c 0.11,-0.06 0.12,-0.16 0,-0.21 l -2.22,-1.28 a 0.39,0.39 0 0 0 -0.36,0 l -2.75,1.58 c -0.11,0.07 -0.12,0.16 0,0.22 l 2.21,1.27 a 0.4,0.4 0 0 0 0.37,0.01 z"
       style="fill:#37474f"
       id="path408" />
    <path
       d="m 296.27,261.53 c 0.11,-0.06 0.12,-0.15 0,-0.21 L 294.08,260 a 0.42,0.42 0 0 0 -0.36,0 l -2.72,1.65 c -0.11,0.06 -0.12,0.15 0,0.21 l 2.21,1.28 a 0.44,0.44 0 0 0 0.37,0 z"
       style="fill:#37474f"
       id="path410" />
    <path
       d="m 302.74,265.27 c 0.1,-0.07 0.12,-0.16 0,-0.22 l -2.21,-1.27 a 0.4,0.4 0 0 0 -0.37,0 l -2.75,1.59 c -0.11,0.06 -0.12,0.16 0,0.21 l 2.21,1.28 a 0.41,0.41 0 0 0 0.37,0 z"
       style="fill:#37474f"
       id="path412" />
    <path
       d="m 299.5,263.4 c 0.11,-0.06 0.12,-0.16 0,-0.21 l -2.21,-1.28 a 0.41,0.41 0 0 0 -0.37,0 l -2.75,1.58 c -0.11,0.07 -0.12,0.16 0,0.22 l 2.22,1.27 a 0.38,0.38 0 0 0 0.36,0 z"
       style="fill:#37474f"
       id="path414" />
    <path
       d="m 306,267.13 c 0.11,-0.06 0.12,-0.15 0,-0.21 l -2.22,-1.28 a 0.42,0.42 0 0 0 -0.36,0 l -2.75,1.59 c -0.11,0.06 -0.12,0.15 0,0.21 l 2.21,1.28 a 0.44,0.44 0 0 0 0.37,0 z"
       style="fill:#37474f"
       id="path416" />
  </g>
  <g
     id="freepik--Windows--inject-58"
     transform="translate(-34.6775,-92.413657)">
    <path
       d="m 366.68,130.84 v 62.27 a 5.34,5.34 0 0 0 2.41,4.17 l 72,41.57 c 1.33,0.77 2.4,0.15 2.4,-1.39 v -62.27 a 5.31,5.31 0 0 0 -2.4,-4.17 l -72,-41.57 c -1.33,-0.77 -2.41,-0.15 -2.41,1.39 z"
       style="fill:#37474f"
       id="path419" />
    <path
       d="m 369.09,197.28 72,41.57 c 1.33,0.77 2.4,0.15 2.4,-1.39 v -59.83 l -76.81,-44.35 v 59.83 a 5.32,5.32 0 0 0 2.41,4.17 z"
       style="fill:#455a64"
       id="path421" />
    <path
       d="m 372.65,141.94 24.22,14 a 3.19,3.19 0 0 1 1.45,2.5 v 4.49 c 0,0.93 -0.65,1.3 -1.45,0.84 l -24.22,-14 a 3.19,3.19 0 0 1 -1.45,-2.5 v -4.49 c 0,-0.93 0.65,-1.3 1.45,-0.84 z"
       style="fill:#ebebeb"
       id="path423" />
    <path
       d="m 439.39,171.87 a 2.06,2.06 0 0 1 0.92,1.61 c 0,0.59 -0.41,0.83 -0.92,0.53 a 2,2 0 0 1 -0.93,-1.6 c 0,-0.59 0.41,-0.83 0.93,-0.54 z"
       style="fill:#fafafa"
       id="path425" />
    <path
       d="m 435.71,169.75 a 2.07,2.07 0 0 1 0.93,1.61 c 0,0.59 -0.42,0.83 -0.93,0.53 a 2,2 0 0 1 -0.92,-1.6 c 0,-0.59 0.41,-0.83 0.92,-0.54 z"
       style="fill:#fafafa"
       id="path427" />
    <path
       d="m 432,167.63 a 2.06,2.06 0 0 1 0.92,1.61 c 0,0.59 -0.41,0.83 -0.92,0.53 a 2,2 0 0 1 -0.93,-1.6 c 0.04,-0.59 0.46,-0.83 0.93,-0.54 z"
       style="fill:#fafafa"
       id="path429" />
    <path
       d="m 372.65,152.37 33.26,19.2 a 3.17,3.17 0 0 1 1.44,2.46 c 0,0.9 -0.64,1.25 -1.44,0.79 l -33.26,-19.2 a 3.15,3.15 0 0 1 -1.45,-2.46 c 0,-0.9 0.65,-1.25 1.45,-0.79 z"
       style="fill:#ebebeb"
       id="path431" />
    <path
       d="m 372.65,159.6 33.26,19.2 a 3.14,3.14 0 0 1 1.44,2.46 c 0,0.9 -0.64,1.25 -1.44,0.79 l -33.26,-19.2 a 3.18,3.18 0 0 1 -1.45,-2.46 c 0,-0.9 0.65,-1.25 1.45,-0.79 z"
       style="fill:#ebebeb"
       id="path433" />
    <path
       d="M 372.65,166.82 405.91,186 a 3.17,3.17 0 0 1 1.44,2.46 c 0,0.9 -0.64,1.25 -1.44,0.79 l -33.26,-19.2 a 3.15,3.15 0 0 1 -1.45,-2.46 c 0,-0.88 0.65,-1.23 1.45,-0.77 z"
       style="fill:#ebebeb"
       id="path435" />
    <path
       d="m 372.65,174.05 33.26,19.2 a 3.14,3.14 0 0 1 1.44,2.46 c 0,0.89 -0.64,1.25 -1.44,0.79 l -33.26,-19.2 a 3.18,3.18 0 0 1 -1.45,-2.46 c 0,-0.9 0.65,-1.25 1.45,-0.79 z"
       style="fill:#ebebeb"
       id="path437" />
    <path
       d="m 373.13,184 63.93,36.91 a 4.2,4.2 0 0 1 1.94,3.29 v 6 c 0,1.23 -0.88,1.73 -1.95,1.11 L 373.2,194.38 a 4.27,4.27 0 0 1 -1.93,-3.33 v -6 c -0.07,-1.21 0.8,-1.71 1.86,-1.05 z"
       style="fill:#ebebeb"
       id="path439" />
    <path
       d="m 413.31,165.42 24.12,14 a 3.25,3.25 0 0 1 1.45,2.51 l 0.1,33.12 c 0,0.92 -0.64,1.3 -1.44,0.84 l -24.22,-14 a 3.19,3.19 0 0 1 -1.45,-2.5 v -33.14 c 0,-0.92 0.65,-1.25 1.44,-0.83 z"
       style="fill:#fafafa"
       id="path441" />
    <path
       d="m 416.39,179.39 c 3.43,2 6.21,0.37 6.21,-3.59 a 12.65,12.65 0 0 0 -1.74,-6 l -7.55,-4.39 c -0.79,-0.46 -1.44,-0.09 -1.44,0.83 v 8.27 a 12.93,12.93 0 0 0 4.52,4.88 z"
       style="fill:#263238"
       id="path443" />
    <path
       d="m 438.93,199.66 v 0 l -4.54,-15.49 c -0.34,-1.18 -1.08,-1.25 -1.65,-0.16 l -6.65,12.69 -2.71,-7.24 c -0.43,-1.15 -1.19,-1.18 -1.7,-0.06 l -6.3,13.73 v 0 l 22.16,12.8 c 0.67,0.39 1.23,0.17 1.39,-0.45 z"
       style="fill:#263238"
       id="path445" />
    <path
       d="m 192.38,108.68 27.78,-16 c 1.06,-0.62 1.92,-0.12 1.92,1.11 v 58.16 a 4.27,4.27 0 0 1 -1.92,3.34 l -27.78,16 c -1.06,0.61 -1.93,0.11 -1.93,-1.12 V 112 a 4.29,4.29 0 0 1 1.93,-3.32 z"
       style="fill:#263238"
       id="path447" />
    <polygon
       points="222.08,143.71 190.45,161.97 190.45,120.23 222.08,101.97 "
       style="fill:#fafafa"
       id="polygon449" />
    <path
       d="m 204.14,132.41 c 0.34,-1.18 1.16,-1.3 1.83,-0.27 l 3.38,5.22 6.34,-19 c 0.39,-1.17 1.16,-1.23 1.73,-0.14 l 4.66,9 v 16.43 l -25.46,14.7 z"
       style="fill:#455a64"
       id="path451" />
    <path
       d="m 190.45,130.72 a 5,5 0 0 0 4.52,-0.6 15,15 0 0 0 6.8,-11.76 5.29,5.29 0 0 0 -1.34,-3.89 l -10,5.76 z"
       style="fill:#455a64"
       id="path453" />
    <path
       d="m 195,110.51 c 0.91,-0.53 1.65,-0.1 1.65,0.95 A 3.61,3.61 0 0 1 195,114.3 c -0.91,0.52 -1.64,0.1 -1.64,-1 a 3.62,3.62 0 0 1 1.64,-2.79 z"
       style="fill:#fafafa"
       id="path455" />
    <path
       d="m 199.79,108.14 9.27,-5.35 c 0.38,-0.21 0.69,-0.06 0.69,0.35 a 1.48,1.48 0 0 1 -0.69,1.14 l -9.27,5.35 c -0.38,0.22 -0.69,0.06 -0.69,-0.35 a 1.48,1.48 0 0 1 0.69,-1.14 z"
       style="fill:#fafafa"
       id="path457" />
    <path
       d="m 199.79,110.69 5.1,-3 c 0.38,-0.22 0.69,-0.06 0.69,0.35 a 1.48,1.48 0 0 1 -0.69,1.14 l -5.1,3 c -0.38,0.22 -0.69,0.07 -0.69,-0.34 a 1.48,1.48 0 0 1 0.69,-1.15 z"
       style="fill:#fafafa"
       id="path459" />
    <path
       d="m 197.05,165.52 h -0.54 c -0.7,0 -1.54,-0.33 -1.54,-1.34 a 2.36,2.36 0 0 1 1.07,-1.85 c 0.46,-0.26 0.85,-0.15 1,0.23 a 2.35,2.35 0 0 1 1,-1.38 c 0.59,-0.34 1.07,-0.07 1.07,0.61 a 6,6 0 0 1 -1.53,3.11 z"
       style="fill:#fafafa"
       id="path461" />
    <path
       d="m 205.15,156.81 3.88,-2.23 c 0.18,-0.11 0.32,0 0.32,0.18 v 2.74 a 0.73,0.73 0 0 1 -0.32,0.56 l -3.88,2.23 c -0.17,0.11 -0.32,0 -0.32,-0.18 v -2.74 a 0.76,0.76 0 0 1 0.32,-0.56 z"
       style="fill:#fafafa"
       id="path463" />
    <path
       d="m 205.74,160.7 c 0,0.36 0.14,0.39 0.3,0.07 l 0.86,-1.68 -1.16,0.63 z"
       style="fill:#fafafa"
       id="path465" />
    <path
       d="m 218.73,150.65 -2.23,-0.72 V 151 a 4.56,4.56 0 0 0 -2.18,2.47 1.75,1.75 0 0 0 1.35,2.14 1.66,1.66 0 0 1 -0.59,-1.36 c 0.13,-0.94 0.66,-1.27 1.42,-1.6 v 1.25 z"
       style="fill:#fafafa"
       id="path467" />
    <path
       d="m 178.5,94.84 v 62.27 a 5.32,5.32 0 0 1 -2.4,4.17 l -72,41.57 c -1.33,0.77 -2.4,0.15 -2.4,-1.39 v -62.27 a 5.31,5.31 0 0 1 2.4,-4.17 l 72,-41.57 c 1.33,-0.77 2.4,-0.15 2.4,1.39 z"
       style="fill:#37474f"
       id="path469" />
    <path
       d="m 176.1,161.28 -72,41.57 c -1.33,0.77 -2.4,0.15 -2.4,-1.39 v -59.83 l 76.8,-44.35 v 59.83 a 5.32,5.32 0 0 1 -2.4,4.17 z"
       style="fill:#455a64"
       id="path471" />
    <path
       d="m 172.54,105.94 -24.22,14 a 3.19,3.19 0 0 0 -1.45,2.5 v 4.49 c 0,0.93 0.65,1.3 1.45,0.84 l 24.22,-14 a 3.19,3.19 0 0 0 1.45,-2.5 v -4.49 c 0.01,-0.93 -0.65,-1.3 -1.45,-0.84 z"
       style="fill:#ebebeb"
       id="path473" />
    <path
       d="m 105.8,135.87 a 2.06,2.06 0 0 0 -0.92,1.61 c 0,0.59 0.41,0.83 0.92,0.53 a 2,2 0 0 0 0.93,-1.6 c 0,-0.59 -0.41,-0.83 -0.93,-0.54 z"
       style="fill:#fafafa"
       id="path475" />
    <path
       d="m 109.48,133.75 a 2.07,2.07 0 0 0 -0.93,1.61 c 0,0.59 0.42,0.83 0.93,0.53 a 2,2 0 0 0 0.92,-1.6 c 0,-0.59 -0.4,-0.83 -0.92,-0.54 z"
       style="fill:#fafafa"
       id="path477" />
    <path
       d="m 113.15,131.63 a 2.06,2.06 0 0 0 -0.92,1.61 c 0,0.59 0.41,0.83 0.92,0.53 a 2,2 0 0 0 0.93,-1.6 c 0,-0.59 -0.42,-0.83 -0.93,-0.54 z"
       style="fill:#fafafa"
       id="path479" />
    <path
       d="m 172.54,116.37 -33.26,19.2 a 3.17,3.17 0 0 0 -1.44,2.46 c 0,0.9 0.64,1.25 1.44,0.79 l 33.26,-19.2 a 3.15,3.15 0 0 0 1.45,-2.46 c 0.01,-0.9 -0.65,-1.25 -1.45,-0.79 z"
       style="fill:#ebebeb"
       id="path481" />
    <path
       d="m 172.54,123.6 -33.26,19.2 a 3.14,3.14 0 0 0 -1.44,2.46 c 0,0.9 0.64,1.25 1.44,0.79 l 33.26,-19.2 a 3.18,3.18 0 0 0 1.45,-2.46 c 0.01,-0.9 -0.65,-1.25 -1.45,-0.79 z"
       style="fill:#ebebeb"
       id="path483" />
    <path
       d="M 172.54,130.82 139.28,150 a 3.17,3.17 0 0 0 -1.44,2.46 c 0,0.9 0.64,1.25 1.44,0.79 l 33.26,-19.2 a 3.15,3.15 0 0 0 1.45,-2.46 c 0.01,-0.88 -0.65,-1.23 -1.45,-0.77 z"
       style="fill:#ebebeb"
       id="path485" />
    <path
       d="m 172.54,138.05 -33.26,19.2 a 3.14,3.14 0 0 0 -1.44,2.46 c 0,0.89 0.64,1.25 1.44,0.79 l 33.26,-19.2 a 3.18,3.18 0 0 0 1.45,-2.46 c 0.01,-0.9 -0.65,-1.25 -1.45,-0.79 z"
       style="fill:#ebebeb"
       id="path487" />
    <path
       d="m 172.06,148 -63.93,36.91 a 4.2,4.2 0 0 0 -1.91,3.33 v 6 c 0,1.23 0.88,1.73 1.94,1.11 l 63.86,-36.93 a 4.27,4.27 0 0 0 1.93,-3.33 v -6 c 0.05,-1.25 -0.83,-1.75 -1.89,-1.09 z"
       style="fill:#ebebeb"
       id="path489" />
    <path
       d="m 131.88,129.42 -24.12,14 a 3.25,3.25 0 0 0 -1.45,2.51 l -0.1,33.12 c 0,0.92 0.64,1.3 1.44,0.84 l 24.22,-14 a 3.19,3.19 0 0 0 1.45,-2.5 v -33.14 c 0,-0.92 -0.65,-1.25 -1.44,-0.83 z"
       style="fill:#fafafa"
       id="path491" />
    <path
       d="m 128.8,143.39 c -3.43,2 -6.21,0.37 -6.21,-3.59 a 12.65,12.65 0 0 1 1.74,-6 l 7.55,-4.39 c 0.79,-0.46 1.44,-0.09 1.44,0.83 v 8.27 a 12.93,12.93 0 0 1 -4.52,4.88 z"
       style="fill:#263238"
       id="path493" />
    <path
       d="m 106.26,163.66 v 0 l 4.54,-15.49 c 0.34,-1.18 1.08,-1.25 1.65,-0.16 l 6.65,12.69 2.71,-7.24 c 0.43,-1.15 1.19,-1.18 1.7,-0.06 l 6.3,13.73 v 0 l -22.16,12.8 c -0.68,0.39 -1.23,0.17 -1.39,-0.45 z"
       style="fill:#263238"
       id="path495" />
    <path
       d="m 325.75,157.67 v 57.91 c 0,0.6 -0.42,0.84 -0.93,0.54 l -78.94,-45.57 a 2.08,2.08 0 0 1 -0.94,-1.63 V 111 c 0,-0.6 0.42,-0.84 0.94,-0.54 L 324.82,156 a 2.1,2.1 0 0 1 0.93,1.67 z"
       style="fill:#455a64"
       id="path497" />
    <path
       d="M 245.88,110.47 324.82,156 a 2.1,2.1 0 0 1 0.93,1.63 v 4.11 L 244.94,115 v -4 c 0,-0.59 0.42,-0.83 0.94,-0.53 z"
       style="fill:#37474f"
       id="path499" />
    <path
       d="m 322.35,156.17 a 2,2 0 0 1 0.93,1.61 c 0,0.59 -0.41,0.83 -0.93,0.53 a 2,2 0 0 1 -0.92,-1.6 c 0,-0.59 0.41,-0.83 0.92,-0.54 z"
       style="fill:#fafafa"
       id="path501" />
    <path
       d="m 318.68,154.05 a 2.07,2.07 0 0 1 0.93,1.61 c 0,0.59 -0.42,0.83 -0.93,0.53 a 2,2 0 0 1 -0.92,-1.6 c 0,-0.59 0.41,-0.83 0.92,-0.54 z"
       style="fill:#fafafa"
       id="path503" />
    <path
       d="m 315,151.93 a 2.06,2.06 0 0 1 0.92,1.61 c 0,0.59 -0.41,0.83 -0.92,0.53 a 2,2 0 0 1 -0.93,-1.6 c 0.01,-0.59 0.43,-0.83 0.93,-0.54 z"
       style="fill:#fafafa"
       id="path505" />
    <path
       d="m 260.46,129.32 c -3.77,-2.18 -6.82,-0.41 -6.82,3.93 a 15.05,15.05 0 0 0 6.82,11.81 c 3.76,2.17 6.81,0.41 6.81,-3.94 a 15.07,15.07 0 0 0 -6.81,-11.8 z"
       style="fill:#ffffff"
       id="path507" />
    <path
       d="m 260,132.45 c -1.22,-0.71 -2.21,-0.14 -2.21,1.28 a 4.9,4.9 0 0 0 2.21,3.83 c 1.22,0.7 2.21,0.13 2.21,-1.28 A 4.88,4.88 0 0 0 260,132.45 Z"
       style="fill:#263238"
       id="path509" />
    <path
       d="m 256.15,140.26 c 0,-2.32 1.62,-3.26 3.63,-2.1 l 1.25,0.73 a 8,8 0 0 1 3.64,6.29 v 0.62 a 5.18,5.18 0 0 1 -4.21,-0.74 13.35,13.35 0 0 1 -4.31,-4.26 z"
       style="fill:#263238"
       id="path511" />
    <path
       d="m 272.94,137.34 10.61,6.13 a 2.44,2.44 0 0 1 1.15,1.9 c 0,0.69 -0.51,0.95 -1.15,0.58 l -10.61,-6.13 a 2.42,2.42 0 0 1 -1.15,-1.9 c 0,-0.69 0.51,-0.92 1.15,-0.58 z"
       style="fill:#ffffff"
       id="path513" />
    <path
       d="m 272.94,143.42 17.29,10 a 2.44,2.44 0 0 1 1.14,1.9 c 0,0.69 -0.51,1 -1.14,0.58 l -17.29,-10 a 2.42,2.42 0 0 1 -1.15,-1.9 c 0,-0.69 0.51,-0.95 1.15,-0.58 z"
       style="fill:#ffffff"
       id="path515" />
    <path
       d="m 272.94,148 17.29,10 a 2.47,2.47 0 0 1 1.14,1.9 c 0,0.69 -0.51,1 -1.14,0.58 l -17.29,-10 a 2.46,2.46 0 0 1 -1.15,-1.91 c 0,-0.68 0.51,-0.94 1.15,-0.57 z"
       style="fill:#ffffff"
       id="path517" />
    <path
       d="m 321.49,201.11 v 6.71 c 0,0.61 -0.42,0.87 -0.95,0.56 l -19,-10.95 -1.69,-1 a 2.13,2.13 0 0 1 -1,-1.67 v -6.72 c 0,-0.61 0.43,-0.86 1,-0.56 l 20.67,11.94 a 2.12,2.12 0 0 1 0.97,1.69 z"
       style="fill:#ffffff"
       id="path519" />
    <path
       d="m 321.49,165.69 v 29.08 c 0,0.62 -0.42,0.87 -0.95,0.56 l -19,-11 -1.69,-1 a 2.11,2.11 0 0 1 -1,-1.66 v -29.02 c 0,-0.62 0.43,-0.86 1,-0.56 L 320.54,164 a 2.12,2.12 0 0 1 0.95,1.69 z"
       style="fill:#ffffff"
       id="path521" />
    <path
       d="M 298.9,152.65 V 160 a 10.42,10.42 0 0 0 3.44,3.51 c 2.9,1.67 5.24,0.32 5.24,-3 a 10.46,10.46 0 0 0 -1.27,-4.65 l -6.44,-3.72 c -0.54,-0.35 -0.97,-0.14 -0.97,0.51 z"
       style="fill:#263238"
       id="path523" />
    <path
       d="m 321.49,184.38 v 10.39 c 0,0.62 -0.42,0.87 -0.95,0.56 l -19,-11 5.69,-12 3.6,7.82 5.74,-11.62 z"
       style="fill:#263238"
       id="path525" />
    <path
       d="M 250.64,144.55 293,169 a 2.88,2.88 0 0 1 1.44,2.14 c 0,0.72 -0.64,0.93 -1.44,0.47 L 250.68,147.17 A 2.87,2.87 0 0 1 249.2,145 c 0,-0.7 0.64,-0.92 1.44,-0.45 z"
       style="fill:#ffffff"
       id="path527" />
    <path
       d="M 250.64,151.09 293,175.52 a 2.88,2.88 0 0 1 1.44,2.14 c 0,0.72 -0.64,0.93 -1.44,0.47 L 250.64,153.7 a 2.88,2.88 0 0 1 -1.44,-2.14 c 0,-0.72 0.64,-0.93 1.44,-0.47 z"
       style="fill:#ffffff"
       id="path529" />
    <path
       d="M 250.64,157.63 293,182.07 a 2.87,2.87 0 0 1 1.44,2.13 c 0,0.73 -0.64,0.94 -1.44,0.48 l -42.32,-24.44 a 2.88,2.88 0 0 1 -1.44,-2.14 c -0.04,-0.72 0.6,-0.93 1.4,-0.47 z"
       style="fill:#ffffff"
       id="path531" />
    <path
       d="M 250.64,164.18 293,188.61 a 2.88,2.88 0 0 1 1.44,2.14 c 0,0.72 -0.64,0.93 -1.44,0.47 l -42.32,-24.43 a 2.88,2.88 0 0 1 -1.44,-2.14 c -0.04,-0.72 0.6,-0.93 1.4,-0.47 z"
       style="fill:#ffffff"
       id="path533" />
    <path
       d="m 217.56,318.57 -7.11,-4.16 a 1.17,1.17 0 0 1 0,-2.22 l 27.78,-16 a 4.22,4.22 0 0 1 3.85,0 l 7.11,4.16 a 1.17,1.17 0 0 1 0,2.22 l -27.78,16 a 4.28,4.28 0 0 1 -3.85,0 z"
       style="fill:#37474f"
       id="path535" />
    <path
       d="m 213.22,312.24 5.41,-3.12 a 2.84,2.84 0 0 1 2.54,0 l 5.41,3.12 a 0.78,0.78 0 0 1 0,1.47 l -5.41,3.13 a 2.84,2.84 0 0 1 -2.54,0 l -5.41,-3.13 a 0.78,0.78 0 0 1 0,-1.47 z"
       style="fill:#ffffff"
       id="path537" />
    <path
       d="m 217.25,312.87 2.94,1.7 a 0.46,0.46 0 0 0 0.62,-0.17 l 1.41,-2.44 c 0.12,-0.22 0,-0.36 -0.22,-0.31 l -4.7,0.91 c -0.24,0.04 -0.3,0.19 -0.05,0.31 z"
       style="fill:#37474f"
       id="path539" />
    <path
       d="m 225.77,307.62 a 2.22,2.22 0 0 0 2,0 l 13.29,-7.67 c 0.56,-0.33 0.59,-0.84 0.06,-1.15 a 2.2,2.2 0 0 0 -2,0 l -13.3,7.67 c -0.55,0.33 -0.58,0.84 -0.05,1.15 z"
       style="fill:#ffffff"
       id="path541" />
    <path
       d="m 229.33,309.65 a 2.22,2.22 0 0 0 2,0 l 6,-3.5 c 0.56,-0.33 0.59,-0.84 0.06,-1.14 a 2.19,2.19 0 0 0 -2,0 l -6,3.5 c -0.56,0.33 -0.59,0.84 -0.06,1.14 z"
       style="fill:#ffffff"
       id="path543" />
    <path
       d="m 204,310.74 -7.11,-4.15 a 1.18,1.18 0 0 1 0,-2.23 l 27.78,-16 a 4.28,4.28 0 0 1 3.85,0 l 7.11,4.16 a 1.18,1.18 0 0 1 0,2.23 l -27.78,16 A 4.22,4.22 0 0 1 204,310.74 Z"
       style="fill:#37474f"
       id="path545" />
    <path
       d="m 199.69,304.42 5.41,-3.12 a 2.78,2.78 0 0 1 2.54,0 l 5.41,3.12 a 0.78,0.78 0 0 1 0,1.47 l -5.41,3.11 a 2.78,2.78 0 0 1 -2.54,0 l -5.41,-3.12 a 0.78,0.78 0 0 1 0,-1.46 z"
       style="fill:#ffffff"
       id="path547" />
    <path
       d="m 203.72,305.05 2.93,1.69 a 0.46,0.46 0 0 0 0.63,-0.17 l 1.41,-2.43 c 0.12,-0.22 0,-0.36 -0.22,-0.31 l -4.7,0.9 c -0.24,0.05 -0.27,0.19 -0.05,0.32 z"
       style="fill:#37474f"
       id="path549" />
    <path
       d="m 212.24,299.79 a 2.22,2.22 0 0 0 2,0 l 13.29,-7.68 c 0.56,-0.32 0.59,-0.84 0.06,-1.14 a 2.19,2.19 0 0 0 -2,0 l -13.3,7.68 c -0.55,0.35 -0.58,0.84 -0.05,1.14 z"
       style="fill:#ffffff"
       id="path551" />
    <path
       d="m 215.8,301.83 a 2.19,2.19 0 0 0 2,0 l 6,-3.49 c 0.56,-0.33 0.59,-0.84 0.06,-1.15 a 2.2,2.2 0 0 0 -2,0 l -6,3.5 c -0.56,0.31 -0.59,0.83 -0.06,1.14 z"
       style="fill:#ffffff"
       id="path553" />
    <path
       d="m 408.45,311.34 8.87,-5.18 c 1.33,-0.77 1.33,-2 0,-2.78 l -34.66,-20 a 5.28,5.28 0 0 0 -4.8,0 l -8.86,5.18 c -1.33,0.77 -1.33,2 0,2.78 l 34.65,20 a 5.3,5.3 0 0 0 4.8,0 z"
       style="fill:#37474f"
       id="path555" />
    <path
       d="m 389.32,289.4 -6.75,-3.9 a 3.48,3.48 0 0 0 -3.17,0 l -6.75,3.9 a 1,1 0 0 0 0,1.83 l 6.75,3.89 a 3.48,3.48 0 0 0 3.17,0 l 6.75,-3.89 a 1,1 0 0 0 0,-1.83 z"
       style="fill:#ffffff"
       id="path557" />
    <path
       d="m 380.64,288.52 -2.72,1.57 c -0.54,0.31 -0.48,0.66 0.12,0.78 l 5,1 c 0.61,0.12 0.83,-0.21 0.51,-0.73 l -1.38,-2.23 a 1.16,1.16 0 0 0 -1.53,-0.39 z"
       style="fill:#37474f"
       id="path559" />
    <path
       d="m 411.77,305.52 a 2.78,2.78 0 0 1 -2.48,0 l -16.58,-9.58 c -0.71,-0.4 -0.74,-1 -0.08,-1.42 a 2.76,2.76 0 0 1 2.47,0 l 16.59,9.58 c 0.71,0.4 0.74,1.04 0.08,1.42 z"
       style="fill:#ffffff"
       id="path561" />
    <path
       d="m 398.34,302.84 a 2.75,2.75 0 0 1 -2.48,0 l -7.5,-4.37 c -0.7,-0.4 -0.73,-1 -0.07,-1.42 a 2.76,2.76 0 0 1 2.47,0 l 7.51,4.37 c 0.73,0.4 0.73,1.04 0.07,1.42 z"
       style="fill:#ffffff"
       id="path563" />
    <path
       d="m 385,324.67 8.87,-5.19 c 1.33,-0.77 1.33,-2 0,-2.78 l -34.66,-20 a 5.28,5.28 0 0 0 -4.8,0 l -8.88,5.18 c -1.32,0.77 -1.32,2 0,2.78 l 34.66,20 a 5.36,5.36 0 0 0 4.81,0.01 z"
       style="fill:#37474f"
       id="path565" />
    <path
       d="m 362.53,300.77 a 11,11 0 0 0 -9.92,0 c -2.74,1.58 -2.74,4.15 0,5.73 a 11,11 0 0 0 9.92,0 c 2.74,-1.58 2.74,-4.15 0,-5.73 z"
       style="fill:#ffffff"
       id="path567" />
    <path
       d="m 388.35,318.84 a 2.69,2.69 0 0 1 -2.47,0 l -16.59,-9.58 c -0.7,-0.4 -0.73,-1 -0.07,-1.42 a 2.76,2.76 0 0 1 2.47,0 l 16.59,9.58 c 0.72,0.4 0.72,1.04 0.07,1.42 z"
       style="fill:#ffffff"
       id="path569" />
    <path
       d="m 374.93,316.16 a 2.72,2.72 0 0 1 -2.48,0 l -7.5,-4.37 c -0.7,-0.4 -0.74,-1 -0.07,-1.42 a 2.76,2.76 0 0 1 2.47,0 l 7.51,4.37 c 0.7,0.41 0.73,1.04 0.07,1.42 z"
       style="fill:#ffffff"
       id="path571" />
    <path
       d="m 354.61,305.06 -0.32,-0.67 c -0.42,-0.88 -0.67,-2.08 0.54,-2.78 a 3.24,3.24 0 0 1 3,0 c 0.64,0.37 0.78,0.91 0.42,1.36 a 3.33,3.33 0 0 1 2.36,0.24 0.91,0.91 0 0 1 0,1.72 c -1.18,0.68 -3.26,0.55 -4.8,0.31 z"
       style="fill:#37474f"
       id="path573" />
  </g>
</svg>
