<svg viewBox="0 0 341.333 341.333" preserveAspectRatio="xMidYMid slice" xmlns="http://www.w3.org/2000/svg">
    <path style="fill:#acacac;stroke-width:1.33333" d="M148.667 340.457c-1.467-.311-7.439-1.484-13.27-2.607C80.065 327.201 30.478 284.721 10.28 230.667 2.728 210.455.774 198.47.719 172c-.057-26.65 1.538-37.777 8.215-57.333C24.714 68.454 62.123 29.475 108.22 11.21c25.567-10.13 62.433-13.974 89.6-9.343C267.385 13.725 320.106 62.885 337.382 132c3.627 14.512 5.007 46.84 2.683 62.858-10.615 73.172-67.298 131.882-139.398 144.386-11.057 1.917-44.963 2.709-52 1.213zm124.084-72.025c8.811-3.003 19.345-13.537 22.347-22.348 1.978-5.804 2.235-14.49 2.235-75.417 0-79.282.258-77.25-11.246-88.754-11.796-11.796-6.154-11.246-115.42-11.246-109.267 0-103.624-.55-115.42 11.246C43.742 93.417 44 91.385 44 170.667c0 79.305-.261 77.245 11.271 88.778 11.582 11.582 5.54 10.997 114.825 11.116 86.588.095 96.745-.115 102.655-2.13zM80.733 245.449c6.023-5.792 61.665-53.83 63.002-54.39.953-.402 3.053.509 4.666 2.023 4.873 4.574 14.432 8.19 21.733 8.222 8.61.037 14.519-1.916 20.933-6.919 2.787-2.174 5.787-3.646 6.667-3.27 1.274.542 57.99 49.541 62.866 54.312.78.764-33.725 1.24-89.933 1.24-55.086 0-90.699-.483-89.934-1.218zM68 175.504c0-39.317.375-51.43 1.571-50.69 2.679 1.655 56.406 48.816 56.822 49.878.217.551-11.183 11.078-25.333 23.393C86.91 210.4 73.683 221.98 71.667 223.82L68 227.166zm175.598 25.605c-15.988-13.95-28.888-25.835-28.667-26.41.221-.574 13.302-12.274 29.069-26l28.667-24.955.361 26.216c.2 14.42.2 37.534 0 51.365l-.361 25.15zM166 178.382c-2.58-1.488-81.247-69.555-89.333-77.297-3.353-3.21-3.677-4.036-2-5.104 2.19-1.394 187.63-1.884 191.224-.505 1.16.445 2.109 1.284 2.109 1.865 0 1.226-88.378 78.527-92.543 80.945-3.499 2.03-6.055 2.057-9.457.096z"/>
    <path style="fill:#717171;stroke-width:1.33333" d="M141.333 339.305c-68.18-12.858-119.91-61.607-136.787-128.91-4.708-18.772-5.865-48.152-2.646-67.156C14.28 70.162 70.954 13.707 143.81 1.881c15.192-2.466 40.63-2.379 55.32.191 69.818 12.212 124.142 64.533 139.104 133.973 3.753 17.416 3.398 56.4-.66 72.589-7.058 28.156-15.156 44.842-33.017 68.033-23.556 30.584-58.461 52.46-97.89 61.348-13.742 3.098-51.766 3.849-65.334 1.29zm131.418-70.873c8.811-3.003 19.345-13.537 22.347-22.348 1.978-5.804 2.235-14.49 2.235-75.417 0-79.282.258-77.25-11.246-88.754-11.796-11.796-6.154-11.246-115.42-11.246-109.267 0-103.624-.55-115.42 11.246C43.742 93.417 44 91.385 44 170.667c0 79.305-.261 77.245 11.271 88.778 11.582 11.582 5.54 10.997 114.825 11.116 86.588.095 96.745-.115 102.655-2.13zM80.733 245.449c5.637-5.422 61.623-53.812 62.866-54.339.88-.372 3.88 1.101 6.667 3.275 12.151 9.477 28.65 9.477 40.801 0 2.787-2.174 5.787-3.647 6.667-3.275 1.244.527 57.229 48.917 62.866 54.339.765.735-34.848 1.218-89.933 1.218-55.086 0-90.699-.483-89.934-1.218zM68 175.504c0-39.317.375-51.43 1.571-50.69 2.679 1.655 56.406 48.816 56.822 49.878.217.551-11.183 11.078-25.333 23.393C86.91 210.4 73.683 221.98 71.667 223.82L68 227.166zm175.598 25.605c-15.988-13.95-28.888-25.832-28.667-26.403.221-.57 13.302-12.26 29.069-25.977l28.667-24.939.361 26.193c.2 14.407.2 37.51 0 51.342l-.361 25.15zM166 178.382c-2.58-1.488-81.247-69.555-89.333-77.297-3.353-3.21-3.677-4.036-2-5.104 2.19-1.394 187.63-1.884 191.224-.505 1.16.445 2.109 1.284 2.109 1.865 0 1.226-88.378 78.527-92.543 80.945-3.499 2.03-6.055 2.057-9.457.096z"/>
    <path style="fill:#484848;stroke-width:1.33333" d="M141.462 339.258C60.096 325.086-.012 253.447.007 170.667c.008-34.642 9.475-65.948 28.655-94.758C60.422 28.201 113.167.01 170.667.01c34.51 0 65.163 9.317 94.899 28.844 26.646 17.499 48.15 43.051 61.214 72.738 23.239 52.807 18.652 112.682-12.394 161.804-10.942 17.31-31.581 38.122-49.699 50.111-16.394 10.85-38.108 20.02-58.02 24.503-13.953 3.141-50.336 3.838-65.205 1.248zm131.29-70.826c8.81-3.003 19.344-13.537 22.346-22.348 1.978-5.804 2.235-14.489 2.235-75.417 0-79.282.258-77.25-11.246-88.754-11.796-11.796-6.154-11.246-115.42-11.246-109.267 0-103.624-.55-115.42 11.246C43.742 93.417 44 91.385 44 170.667c0 79.305-.261 77.245 11.271 88.778 11.582 11.582 5.54 10.997 114.825 11.116 86.588.095 96.745-.115 102.655-2.13zM80.732 245.449c5.637-5.422 61.623-53.812 62.866-54.339.88-.372 3.88 1.101 6.667 3.275 12.151 9.477 28.65 9.477 40.801 0 2.787-2.174 5.787-3.647 6.667-3.275 1.244.527 57.229 48.917 62.866 54.339.765.735-34.848 1.218-89.933 1.218-55.086 0-90.699-.483-89.934-1.218zM68 175.504c0-35.805.43-51.395 1.403-50.794 2.62 1.619 56.595 48.954 56.994 49.982.218.563-11.182 11.083-25.333 23.378-14.152 12.295-27.38 23.871-29.397 25.725L68 227.165zm175.598 25.605c-15.988-13.95-28.888-25.832-28.667-26.403.221-.57 13.302-12.26 29.069-25.977l28.667-24.939.361 26.193c.2 14.407.2 37.51 0 51.342l-.361 25.15zM166 178.382c-2.58-1.488-81.247-69.555-89.333-77.297-3.353-3.21-3.677-4.036-2-5.104 2.19-1.394 187.63-1.884 191.224-.505 1.16.445 2.109 1.275 2.109 1.844 0 1.213-88.425 78.577-92.543 80.966-3.5 2.03-6.055 2.057-9.457.096z"/>
    <path style="fill:#2d2d2d;stroke-width:1.33333" d="M142.561 339.433C72.743 327.152 18.101 274.09 3.093 204c-3.394-15.852-3.389-50.857.01-66.667C13.128 90.708 38.667 53.375 78.572 27.017c19.365-12.791 43.47-21.703 69.7-25.77 12.999-2.016 43.514-.9 57.061 2.087C272.464 18.132 323.243 68.914 337.994 136c3.07 13.964 4.078 42.688 2.026 57.757-9.727 71.43-62.676 128.141-134.687 144.258-13.414 3.002-49.172 3.81-62.772 1.418zm130.19-71.001c8.811-3.003 19.345-13.537 22.347-22.348 1.978-5.804 2.235-14.489 2.235-75.417 0-79.282.258-77.25-11.246-88.754-11.796-11.796-6.154-11.246-115.42-11.246-109.267 0-103.624-.55-115.42 11.246C43.742 93.417 44 91.385 44 170.667c0 79.305-.261 77.245 11.271 88.778 11.582 11.582 5.54 10.997 114.825 11.116 86.588.095 96.745-.115 102.655-2.13zM80.733 245.449c5.637-5.422 61.623-53.812 62.866-54.339.88-.372 3.88 1.101 6.667 3.275 12.151 9.477 28.65 9.477 40.801 0 2.787-2.174 5.787-3.647 6.667-3.275 1.244.527 57.229 48.917 62.866 54.339.765.735-34.848 1.218-89.933 1.218-55.086 0-90.699-.483-89.934-1.218zM68 175.504c0-35.805.43-51.395 1.403-50.794 2.62 1.619 56.595 48.954 56.994 49.982.218.563-11.182 11.083-25.333 23.378-14.152 12.295-27.38 23.871-29.397 25.725L68 227.165zm175.598 25.605c-15.988-13.95-28.888-25.832-28.667-26.403.221-.57 13.302-12.26 29.069-25.977l28.667-24.939.361 26.193c.2 14.407.2 37.51 0 51.342l-.361 25.15zM166 178.382c-2.58-1.488-81.247-69.555-89.333-77.297-3.353-3.21-3.677-4.036-2-5.104 2.19-1.394 187.63-1.884 191.224-.505 1.16.445 2.109 1.275 2.109 1.844 0 1.213-88.425 78.577-92.543 80.966-3.5 2.03-6.055 2.057-9.457.096z"/>
    <path style="fill:#1a1a1a;stroke-width:1.33333" d="M142.667 339.374C71.783 326.248 18.125 274.204 3.093 204c-3.385-15.81-3.383-50.833.003-66.667C17.703 69.038 68.906 17.853 137.379 3.1 153.134-.296 188.157-.299 204 3.093 271.834 17.617 323.345 68.72 337.97 136c3.018 13.882 4.11 43.618 2.112 57.485-10.388 72.08-63.164 128.676-134.749 144.503-13.766 3.043-49.453 3.833-62.666 1.386zm130.084-70.942c8.811-3.003 19.345-13.537 22.347-22.348 1.978-5.804 2.235-14.489 2.235-75.417 0-79.282.258-77.25-11.246-88.754-11.796-11.796-6.154-11.246-115.42-11.246-109.267 0-103.624-.55-115.42 11.246C43.742 93.417 44 91.385 44 170.667c0 79.305-.261 77.245 11.271 88.778 11.582 11.582 5.54 10.997 114.825 11.116 86.588.095 96.745-.115 102.655-2.13zM83.333 243.095c41.021-35.765 59.72-51.841 60.705-52.192.666-.237 3.48 1.34 6.253 3.502 12.127 9.456 28.636 9.448 40.776-.02 2.787-2.174 5.787-3.647 6.667-3.275 1.244.527 57.229 48.917 62.866 54.339.765.735-34.876 1.201-90 1.176l-91.267-.043 4-3.487zM68 175.505c0-35.806.43-51.396 1.403-50.795 2.62 1.619 56.595 48.954 56.994 49.982.218.563-11.182 11.083-25.333 23.378-14.152 12.295-27.38 23.871-29.397 25.725L68 227.165zm175.598 25.604c-15.988-13.95-28.888-25.832-28.667-26.403.221-.57 13.302-12.26 29.069-25.977l28.667-24.939.361 26.193c.2 14.407.2 37.51 0 51.342l-.361 25.15zm-77.708-22.823c-4.084-2.382-92.557-79.795-92.557-80.986 0-.558.95-1.379 2.11-1.824 2.755-1.058 187.692-1.058 190.448 0 1.16.445 2.109 1.275 2.109 1.844 0 1.213-88.425 78.577-92.543 80.966-1.535.89-3.69 1.62-4.79 1.62s-3.25-.73-4.777-1.62z"/>
    <path style="fill:#0a0a0a;stroke-width:1.33333" d="M150.667 340.526c-28.363-5.203-38.699-8.46-57.834-18.225-74.289-37.912-110.432-125.732-84.17-204.515C26.238 65.064 65.507 25.832 117.872 8.678c61.415-20.118 127.605-4.293 173.34 41.443 23.56 23.56 39.879 53.823 47.028 87.212 3.392 15.843 3.39 50.866-.005 66.622-14.615 67.827-65.614 119.262-132.901 134.038-9.672 2.124-47.375 3.87-54.667 2.533zm122.084-72.094c8.811-3.003 19.345-13.537 22.347-22.348 1.978-5.804 2.235-14.49 2.235-75.417 0-79.282.258-77.25-11.246-88.754-11.796-11.796-6.154-11.246-115.42-11.246-109.267 0-103.624-.55-115.42 11.246C43.741 93.418 44 91.376 44 170.737c0 74.686.04 75.154 7.398 84.8 4.387 5.751 11.382 11.009 17.6 13.227 3.997 1.427 24.312 1.797 101.098 1.844 86.51.053 96.75-.164 102.655-2.176zM83.333 243.095c41.021-35.765 59.72-51.841 60.705-52.192.666-.237 3.48 1.34 6.253 3.502 12.127 9.456 28.636 9.448 40.776-.02 2.787-2.174 5.787-3.647 6.667-3.275 1.244.527 57.229 48.917 62.866 54.339.765.735-34.876 1.201-90 1.176l-91.267-.043 4-3.487zM68 175.505c0-35.806.43-51.396 1.403-50.795 2.62 1.619 56.595 48.954 56.994 49.982.218.563-11.182 11.083-25.333 23.378-14.152 12.295-27.38 23.871-29.397 25.725L68 227.165zm175.597 25.573c-15.988-13.93-28.888-25.797-28.666-26.37.221-.572 13.302-12.262 29.069-25.979l28.667-24.939.361 26.193c.2 14.407.2 37.495 0 51.309l-.361 25.115zM166 178.375c-2.465-1.428-82.493-70.717-90-77.924-2.828-2.715-3.03-3.393-1.333-4.472 2.19-1.393 187.634-1.88 191.224-.503 1.16.445 2.109 1.275 2.109 1.844 0 1.213-88.425 78.577-92.543 80.966-3.502 2.033-6.058 2.057-9.457.089z"/>
    <path style="fill:#000;stroke-width:1.33333" d="M145.333 339.318C54.062 325.44-11.064 238.951 1.775 148.667 7.197 110.535 22.19 79.568 48.35 52.473c67.274-69.682 177.405-69.637 244.732.102 72.748 75.353 61.664 195.541-23.686 256.837-36.015 25.865-80.351 36.552-124.063 29.906zm132.222-72.975c3.421-2.012 8.339-6.132 10.927-9.156 8.894-10.39 8.851-9.974 8.851-86.52 0-79.282.258-77.25-11.246-88.754-11.796-11.796-6.154-11.246-115.42-11.246-109.267 0-103.624-.55-115.42 11.246C43.741 93.418 44 91.376 44 170.737c0 74.686.04 75.154 7.398 84.8 4.377 5.738 11.368 11 17.6 13.245 4.061 1.463 23.558 1.747 103.669 1.51l98.666-.292zM83.333 243.095c41.021-35.765 59.72-51.841 60.705-52.192.666-.237 3.48 1.34 6.253 3.502 12.127 9.456 28.636 9.448 40.776-.02 2.787-2.174 5.787-3.647 6.667-3.275 1.244.527 57.229 48.917 62.866 54.339.765.735-34.876 1.201-90 1.176l-91.267-.043 4-3.487zM68 175.505c0-35.806.43-51.396 1.403-50.795 2.62 1.619 56.595 48.954 56.994 49.982.218.563-11.182 11.083-25.333 23.378-14.152 12.295-27.38 23.871-29.397 25.725L68 227.165zm175.597 25.573c-15.988-13.93-28.888-25.787-28.666-26.348.221-.56 13.302-12.248 29.069-25.973l28.667-24.956.361 26.188c.2 14.403.2 37.49 0 51.303l-.361 25.115zM166 178.375c-2.465-1.428-82.493-70.717-90-77.924-2.828-2.715-3.03-3.393-1.333-4.472 2.19-1.393 187.634-1.88 191.224-.503 1.16.445 2.109 1.278 2.109 1.851 0 1.206-88.408 78.53-92.563 80.96-3.478 2.032-6.038 2.056-9.437.088z"/>
</svg>
