<?xml version="1.0" encoding="UTF-8" standalone="no"?>
<svg
   viewBox="0 0 463.94672 451.18448"
   version="1.1"
   id="svg235"
   sodipodi:docname="Gaming-amico.svg"
   width="463.94672"
   height="451.18448"
   inkscape:version="1.2.2 (732a01da63, 2022-12-09)"
   xmlns:inkscape="http://www.inkscape.org/namespaces/inkscape"
   xmlns:sodipodi="http://sodipodi.sourceforge.net/DTD/sodipodi-0.dtd"
   xmlns="http://www.w3.org/2000/svg"
   xmlns:svg="http://www.w3.org/2000/svg">
  <defs
     id="defs239" />
  <sodipodi:namedview
     id="namedview237"
     pagecolor="#ffffff"
     bordercolor="#000000"
     borderopacity="0.25"
     inkscape:showpageshadow="2"
     inkscape:pageopacity="0.0"
     inkscape:pagecheckerboard="0"
     inkscape:deskcolor="#d1d1d1"
     showgrid="false"
     inkscape:zoom="1.674"
     inkscape:cx="195.3405"
     inkscape:cy="30.46595"
     inkscape:window-width="1920"
     inkscape:window-height="1017"
     inkscape:window-x="1912"
     inkscape:window-y="699"
     inkscape:window-maximized="1"
     inkscape:current-layer="svg235" />
  <g
     id="freepik--Floor--inject-35"
     transform="translate(-16.733274,-28.115524)">
    <ellipse
       id="freepik--floor--inject-35"
       cx="249.53"
       cy="345.84"
       rx="231.14999"
       ry="133.46001"
       style="fill:#f5f5f5" />
  </g>
  <g
     id="freepik--Shadows--inject-35"
     transform="translate(-16.733274,-28.115524)">
    <path
       id="freepik--Shadow--inject-35"
       d="m 428.59,369.86 -60.67,-35 a 1.32,1.32 0 0 1 0,-2.5 l 39,-22.48 a 4.79,4.79 0 0 1 4.33,0 l 60.66,35 a 1.32,1.32 0 0 1 0,2.5 l -39,22.49 a 4.79,4.79 0 0 1 -4.32,-0.01 z"
       style="fill:#e0e0e0" />
    <ellipse
       id="freepik--shadow--inject-35"
       cx="165.86"
       cy="377.60001"
       rx="101.93"
       ry="58.849998"
       style="fill:#e0e0e0" />
    <ellipse
       id="ellipse6"
       cx="262.07999"
       cy="365.69"
       rx="66.389999"
       ry="38.330002"
       style="fill:#e0e0e0" />
  </g>
  <g
     id="freepik--Plants--inject-35"
     transform="translate(-16.733274,-28.115524)">
    <g
       id="freepik--plants--inject-35">
      <path
         d="m 64.51,327.72 0.82,-13 c 0,0 -0.77,-16.61 -17.23,-31.93 -10,-9.31 -18.27,-4.3 -20.34,0.77 -2.07,5.07 -0.35,12.76 9.37,19.95 15.22,11.25 28,29.06 29.66,41.69 z"
         style="fill:#37474f"
         id="path9" />
      <path
         d="m 64,324.05 a 0.59,0.59 0 0 1 -0.62,-0.41 c -7.49,-24.8 -29,-39.68 -29.27,-39.83 A 0.56,0.56 0 0 1 34,283 a 0.58,0.58 0 0 1 0.8,-0.16 c 0.22,0.15 22.11,15.25 29.72,40.45 a 0.59,0.59 0 0 1 -0.38,0.72 z"
         style="fill:#ffffff"
         id="path11" />
      <path
         d="m 65.17,328.15 a 7,7 0 0 0 -1.51,-3.89 c -1.6,-1.85 -4.4,-2.45 -5.75,-4.5 a 16.83,16.83 0 0 1 -1.28,-3.2 10.24,10.24 0 0 0 -5.23,-5.37 13.79,13.79 0 0 0 -7.51,-1 c -1.93,0.24 -3.8,0.83 -5.73,1.1 -6.33,0.91 -12.19,-4.9 -18.49,-1 -3.78,2.36 -3.52,6.48 -1.42,9.93 a 19,19 0 0 0 4.08,4.63 c 1.7,1.44 3.49,2.31 3.67,4.81 0.12,1.82 -0.45,3.63 -0.43,5.46 a 10.47,10.47 0 0 0 4,7.74 18,18 0 0 0 8.18,3.51 c 2.19,0.42 4.71,0.75 5.92,2.62 a 10.64,10.64 0 0 1 1,3.25 13.28,13.28 0 0 0 7.09,8.31 20.21,20.21 0 0 0 11,1.68 16.75,16.75 0 0 0 8.92,-3.32 c 4.28,-3.5 1.82,-10.11 -1,-13.79 -1.23,-1.62 -2.75,-3 -3.88,-4.69 -2.26,-3.35 -1.89,-6.25 -1.68,-10.08 a 13.36,13.36 0 0 0 0.05,-2.2 z"
         style="fill:#455a64"
         id="path13" />
      <path
         d="m 68.51,352.79 a 0.47,0.47 0 0 1 -0.5,-0.23 C 52.7,325 28.14,317.3 27.89,317.22 a 0.48,0.48 0 0 1 -0.32,-0.59 0.49,0.49 0 0 1 0.6,-0.32 c 0.25,0.08 25.17,7.9 40.67,35.79 a 0.47,0.47 0 0 1 -0.18,0.64 0.3,0.3 0 0 1 -0.15,0.05 z"
         style="fill:#ffffff"
         id="path15" />
      <path
         d="M 53.91,333.84 H 53.8 c -6.73,-0.28 -16.91,2.42 -17,2.45 a 0.46,0.46 0 0 1 -0.58,-0.34 0.47,0.47 0 0 1 0.33,-0.58 c 0.42,-0.11 10.43,-2.77 17.3,-2.48 a 0.47130139,0.47130139 0 0 1 0.07,0.94 z"
         style="fill:#ffffff"
         id="path17" />
      <path
         d="m 49,329.27 v 0 a 0.49,0.49 0 0 1 -0.53,-0.41 36.43,36.43 0 0 1 0.27,-10.22 0.47,0.47 0 0 1 0.55,-0.37 0.47,0.47 0 0 1 0.38,0.55 35.94,35.94 0 0 0 -0.25,9.92 0.48,0.48 0 0 1 -0.42,0.53 z"
         style="fill:#ffffff"
         id="path19" />
    </g>
  </g>
  <g
     id="freepik--Screen--inject-35"
     transform="translate(-16.733274,-28.115524)">
    <g
       id="freepik--screen--inject-35">
      <path
         d="M 460.24,135.55 275.33,28.8 c -2.78,-1.6 -5,-0.3 -5,2.91 v 146.44 a 11.15,11.15 0 0 0 5,8.73 l 184.91,106.75 c 2.78,1.6 5,0.3 5,-2.91 V 144.28 a 11.15,11.15 0 0 0 -5,-8.73 z"
         style="opacity:0.3;fill:#7a634d"
         id="path23" />
      <path
         d="M 460.24,135.55 275.33,28.8 c -2.78,-1.6 -5,-0.3 -5,2.91 v 146.44 a 11.15,11.15 0 0 0 5,8.73 l 184.91,106.75 c 2.78,1.6 5,0.3 5,-2.91 V 144.28 a 11.15,11.15 0 0 0 -5,-8.73 z"
         style="opacity:0.5;fill:#ffffff"
         id="path25" />
      <path
         d="M 461.22,266.06 V 247.3 l -12.19,-7 v 14.08 L 445,252 v -23.46 l -8.13,-4.69 v 9.38 l -4.06,-2.35 v 18.76 L 424.66,245 v -14.12 l -4.06,-2.34 v -4.69 l -4.07,-2.35 v -4.69 l -4.06,-2.34 v 4.69 l -4.06,-2.35 v 4.69 l -4.06,-2.34 v 4.69 l -8.13,-4.69 v -14.07 l -12.18,-7 V 221.5 L 380,219.16 v -14.07 l -8.13,-4.7 v 14.08 l -4.06,-2.35 v -4.69 l -8.12,-4.69 v -9.38 l -8.13,-4.69 v 4.69 L 347.48,191 v 14.1 l -4.06,-2.35 V 184 l -4.06,-2.35 v -4.69 l -4.07,-2.34 v -4.69 l -4.06,-2.35 v 4.69 l -4.06,-2.34 v 4.69 l -4.06,-2.35 v 23.43 l -4.06,-2.34 V 184 L 307,177 v 4.77 L 298.73,177 v -9.38 l -4.07,-2.34 v -4.69 l -4.06,-2.35 v -4.69 l -4.06,-2.34 v 4.68 l -4.06,-2.34 v 4.69 l -4.06,-2.35 v 9.39 l -8.13,-4.7 v 17.63 a 11.15,11.15 0 0 0 5,8.73 l 184.95,106.69 c 2.78,1.6 5,0.3 5,-2.91 v -22.31 z"
         style="opacity:0.3;fill:#7a634d"
         id="path27" />
      <g
         style="opacity:0.3"
         id="g31">
        <path
           d="m 273.08,29.12 a 3.64,3.64 0 0 1 1.75,0.55 l 184.91,106.74 a 10.24,10.24 0 0 1 4.54,7.87 v 146.44 c 0,0.78 -0.18,2.59 -1.79,2.59 a 3.64,3.64 0 0 1 -1.75,-0.55 L 275.83,186 a 10.2,10.2 0 0 1 -4.54,-7.87 V 31.71 c 0,-0.78 0.18,-2.59 1.79,-2.59 m 0,-1 c -1.65,0 -2.79,1.31 -2.79,3.59 v 146.44 a 11.15,11.15 0 0 0 5,8.73 l 184.95,106.75 a 4.62,4.62 0 0 0 2.25,0.68 c 1.65,0 2.79,-1.31 2.79,-3.59 V 144.28 a 11.15,11.15 0 0 0 -5,-8.73 L 275.33,28.8 a 4.62,4.62 0 0 0 -2.25,-0.68 z"
           style="fill:#7a634d"
           id="path29" />
      </g>
      <path
         d="m 323.64,104.55 80.17,46.29 c 4.79,2.76 8.66,9.47 8.66,15 v 22.21 c 0,5.52 -3.87,7.76 -8.66,5 l -80.17,-46.29 c -4.78,-2.76 -8.66,-9.47 -8.66,-15 v -22.21 c 0.02,-5.55 3.88,-7.76 8.66,-5 z"
         style="opacity:0.5;fill:#ffffff"
         id="path33" />
      <g
         style="opacity:0.5"
         id="g37">
        <path
           d="m 407.68,194.74 a 8.34,8.34 0 0 1 -4.12,-1.26 L 323.39,147.2 c -4.91,-2.84 -8.91,-9.76 -8.91,-15.44 v -22.21 c 0,-2.86 1,-5 2.79,-6 1.79,-1 4.15,-0.82 6.62,0.61 l 80.17,46.28 c 4.92,2.84 8.91,9.76 8.91,15.44 v 22.21 c 0,2.86 -1,5 -2.78,6 a 5,5 0 0 1 -2.51,0.65 z m -87.9,-90.88 a 3.89,3.89 0 0 0 -2,0.52 c -1.47,0.85 -2.29,2.68 -2.29,5.17 v 22.21 c 0,5.36 3.77,11.89 8.41,14.57 l 80.17,46.29 c 2.15,1.24 4.15,1.45 5.63,0.6 1.48,-0.85 2.28,-2.69 2.28,-5.17 v -22.21 c 0,-5.36 -3.77,-11.89 -8.41,-14.57 L 323.39,105 a 7.37,7.37 0 0 0 -3.61,-1.14 z"
           style="fill:#7a634d"
           id="path35" />
      </g>
      <g
         style="opacity:0.5"
         id="g49">
        <path
           d="m 336.41,122.74 a 9.39,9.39 0 0 1 2.21,1.81 14.66,14.66 0 0 1 1.73,2.37 12.94,12.94 0 0 1 1.14,2.51 7.77,7.77 0 0 1 0.44,2.19 0.46,0.46 0 0 1 -0.13,0.37 0.2,0.2 0 0 1 -0.27,0 l -2.46,-1.41 a 1.89,1.89 0 0 1 -0.42,-0.36 5.37,5.37 0 0 1 -0.33,-0.54 c 0,-0.08 -0.09,-0.21 -0.17,-0.39 a 4.62,4.62 0 0 0 -0.35,-0.62 5.53,5.53 0 0 0 -0.56,-0.7 3.65,3.65 0 0 0 -0.83,-0.64 5.13,5.13 0 0 0 -0.68,-0.32 1.45,1.45 0 0 0 -0.58,-0.1 0.57,0.57 0 0 0 -0.42,0.21 1,1 0 0 0 -0.16,0.63 2,2 0 0 0 0.18,0.82 3.82,3.82 0 0 0 0.6,0.88 13,13 0 0 0 1.12,1.12 l 1.72,1.55 a 16.29,16.29 0 0 1 1.81,1.88 10.59,10.59 0 0 1 1.29,2 9.74,9.74 0 0 1 0.77,2.18 11.45,11.45 0 0 1 0.25,2.5 5.57,5.57 0 0 1 -0.43,2.38 2.61,2.61 0 0 1 -1.21,1.28 3,3 0 0 1 -1.84,0.19 7.12,7.12 0 0 1 -2.31,-0.9 10,10 0 0 1 -2.33,-1.86 14.4,14.4 0 0 1 -1.81,-2.42 13.19,13.19 0 0 1 -1.19,-2.61 8.17,8.17 0 0 1 -0.45,-2.42 0.51,0.51 0 0 1 0.12,-0.38 0.2,0.2 0 0 1 0.27,0 l 2.46,1.42 a 1.28,1.28 0 0 1 0.41,0.34 2.74,2.74 0 0 1 0.3,0.47 l 0.23,0.51 a 6.34,6.34 0 0 0 0.4,0.76 4.85,4.85 0 0 0 0.64,0.85 4,4 0 0 0 0.95,0.75 4.09,4.09 0 0 0 1.66,0.62 q 0.66,0.06 0.66,-0.81 a 1.72,1.72 0 0 0 -0.24,-0.86 5.3,5.3 0 0 0 -0.73,-1 c -0.33,-0.35 -0.74,-0.75 -1.25,-1.2 -0.51,-0.45 -1.1,-1 -1.79,-1.61 a 11.1,11.1 0 0 1 -2.83,-3.78 10.8,10.8 0 0 1 -0.89,-4.48 5.89,5.89 0 0 1 0.36,-2.16 2.89,2.89 0 0 1 1.06,-1.38 2.64,2.64 0 0 1 1.68,-0.4 5.26,5.26 0 0 1 2.2,0.76 z"
           style="fill:#7a634d"
           id="path39" />
        <path
           d="m 355.09,133.82 a 0.93,0.93 0 0 1 0.36,0.43 1.53,1.53 0 0 1 0.15,0.64 V 138 a 0.61,0.61 0 0 1 -0.15,0.46 0.27,0.27 0 0 1 -0.36,0 l -3.3,-1.91 v 14.81 a 0.63,0.63 0 0 1 -0.15,0.47 0.28,0.28 0 0 1 -0.36,0 l -2.45,-1.42 a 0.93,0.93 0 0 1 -0.36,-0.43 1.53,1.53 0 0 1 -0.15,-0.64 v -14.81 l -3.3,-1.91 a 0.93,0.93 0 0 1 -0.36,-0.43 1.53,1.53 0 0 1 -0.15,-0.64 v -3.06 a 0.61,0.61 0 0 1 0.15,-0.46 0.27,0.27 0 0 1 0.36,0 z"
           style="fill:#7a634d"
           id="path41" />
        <path
           d="m 364.32,139.14 a 1.45,1.45 0 0 1 0.57,0.65 3.9,3.9 0 0 1 0.27,0.79 l 4.09,20.56 a 2.38,2.38 0 0 1 0.07,0.47 0.52,0.52 0 0 1 -0.12,0.38 0.22,0.22 0 0 1 -0.29,0 l -2.36,-1.37 a 1.17,1.17 0 0 1 -0.53,-0.55 1.87,1.87 0 0 1 -0.2,-0.59 l -0.53,-2.7 -5,-2.88 -0.52,2.09 a 0.71,0.71 0 0 1 -0.2,0.37 c -0.1,0.1 -0.28,0.08 -0.53,-0.07 L 356.69,155 a 0.79,0.79 0 0 1 -0.3,-0.36 1.19,1.19 0 0 1 -0.12,-0.51 1.41,1.41 0 0 1 0.08,-0.39 l 4.09,-15.83 a 1,1 0 0 1 0.27,-0.48 c 0.13,-0.14 0.32,-0.13 0.57,0 z m -3,10.87 3,1.75 -1.52,-7.76 z"
           style="fill:#7a634d"
           id="path43" />
        <path
           d="m 377.84,147 a 11.2,11.2 0 0 1 2.21,1.68 10,10 0 0 1 1.66,2.17 10.47,10.47 0 0 1 1.05,2.67 12.71,12.71 0 0 1 0.37,3.15 7.28,7.28 0 0 1 -0.58,3.26 2.14,2.14 0 0 1 -1.65,1.22 l 2.32,8.22 a 1.22,1.22 0 0 1 0.06,0.35 0.48,0.48 0 0 1 -0.12,0.37 0.23,0.23 0 0 1 -0.3,0 l -2.55,-1.47 a 1.22,1.22 0 0 1 -0.53,-0.57 4.19,4.19 0 0 1 -0.25,-0.66 l -2.08,-7.39 -1.73,-1 v 6.18 a 0.61,0.61 0 0 1 -0.15,0.46 0.27,0.27 0 0 1 -0.36,0 l -2.45,-1.42 a 1,1 0 0 1 -0.36,-0.44 1.45,1.45 0 0 1 -0.15,-0.63 V 144.5 a 0.62,0.62 0 0 1 0.15,-0.46 0.28,0.28 0 0 1 0.36,0 z m -2.12,7.53 2.12,1.22 a 1.67,1.67 0 0 0 1.3,0.29 c 0.35,-0.11 0.52,-0.57 0.52,-1.38 a 3.42,3.42 0 0 0 -0.52,-2 3.86,3.86 0 0 0 -1.3,-1.21 l -2.12,-1.23 z"
           style="fill:#7a634d"
           id="path45" />
        <path
           d="m 396.22,157.56 a 1,1 0 0 1 0.35,0.44 1.47,1.47 0 0 1 0.16,0.63 v 3.07 a 0.62,0.62 0 0 1 -0.16,0.46 0.27,0.27 0 0 1 -0.35,0 l -3.3,-1.9 v 14.81 a 0.62,0.62 0 0 1 -0.15,0.46 0.27,0.27 0 0 1 -0.36,0 L 390,174.16 a 1,1 0 0 1 -0.35,-0.44 1.45,1.45 0 0 1 -0.15,-0.63 v -14.82 l -3.3,-1.9 a 1,1 0 0 1 -0.36,-0.44 1.45,1.45 0 0 1 -0.15,-0.63 v -3.06 a 0.63,0.63 0 0 1 0.15,-0.47 0.28,0.28 0 0 1 0.36,0 z"
           style="fill:#7a634d"
           id="path47" />
      </g>
      <path
         d="m 288.58,45.33 a 13.49,13.49 0 0 1 6.09,10.56 c 0,3.88 -2.73,5.46 -6.09,3.51 a 13.43,13.43 0 0 1 -6.09,-10.55 c 0,-3.85 2.72,-5.46 6.09,-3.52 z"
         style="opacity:0.3;fill:#7a634d"
         id="path51" />
      <path
         d="m 292.1,53.26 a 5,5 0 0 0 -0.42,-2 v 0 0 a 3.48,3.48 0 0 0 -1.28,-1.64 c -0.88,-0.52 -1.61,0.53 -1.73,1.77 -0.1,-1.37 -0.82,-3.27 -1.7,-3.79 a 1,1 0 0 0 -1.29,0.13 v 0 a 2.29,2.29 0 0 0 -0.44,1.5 c 0,2.1 1.25,4 2.3,6 l 1.12,2.1 1.12,-0.79 c 1.05,-0.77 2.32,-1.18 2.32,-3.28 z"
         style="fill:#fafafa"
         id="path53" />
      <path
         d="M 306.86,55.89 A 13.46,13.46 0 0 1 313,66.44 c 0,3.89 -2.73,5.46 -6.09,3.52 A 13.47,13.47 0 0 1 300.82,59.4 c -0.05,-3.88 2.67,-5.46 6.04,-3.51 z"
         style="opacity:0.3;fill:#7a634d"
         id="path55" />
      <path
         d="m 310.3,63.84 a 5.23,5.23 0 0 0 -0.43,-2 v 0 a 3.51,3.51 0 0 0 -1.29,-1.65 c -0.87,-0.51 -1.61,0.54 -1.72,1.78 -0.11,-1.37 -0.83,-3.28 -1.7,-3.79 a 1,1 0 0 0 -1.3,0.13 v 0 a 2.27,2.27 0 0 0 -0.44,1.5 c 0,2.1 1.25,4 2.3,6 l 1.11,2.1 1.17,-0.81 c 1,-0.75 2.29,-1.17 2.3,-3.26 z"
         style="fill:#fafafa"
         id="path57" />
      <path
         d="M 325.14,66.44 A 13.48,13.48 0 0 1 331.23,77 c 0,3.89 -2.73,5.46 -6.09,3.52 A 13.46,13.46 0 0 1 319,70 c 0,-3.93 2.77,-5.5 6.14,-3.56 z"
         style="opacity:0.3;fill:#7a634d"
         id="path59" />
      <path
         d="m 328.58,74.39 a 5.14,5.14 0 0 0 -0.43,-2 v 0 a 3.55,3.55 0 0 0 -1.29,-1.64 c -0.88,-0.52 -1.61,0.53 -1.72,1.77 -0.11,-1.37 -0.83,-3.27 -1.71,-3.79 a 1,1 0 0 0 -1.29,0.13 v 0 a 2.29,2.29 0 0 0 -0.45,1.5 c 0,2.1 1.25,4 2.31,6 l 1.11,2.1 1.12,-0.79 c 1.07,-0.77 2.34,-1.18 2.35,-3.28 z"
         style="fill:#fafafa"
         id="path61" />
      <path
         d="m 343,78.15 85.22,49.2 a 9.29,9.29 0 0 1 4.33,7.19 c 0,2.59 -1.94,3.57 -4.33,2.19 L 343,87.53 a 9.29,9.29 0 0 1 -4.33,-7.19 c 0.03,-2.59 1.97,-3.57 4.33,-2.19 z"
         style="fill:#fafafa"
         id="path63" />
      <path
         d="m 341.1,81.71 a 4.65,4.65 0 0 0 2.16,3.6 l 85.61,49.49 c 1.19,0.69 2.16,0.2 2.16,-1.1 a 4.65,4.65 0 0 0 -2.16,-3.59 L 343.26,80.62 c -1.19,-0.69 -2.16,-0.2 -2.16,1.09 z"
         style="opacity:0.5;fill:#7a634d"
         id="path65" />
      <g
         style="opacity:0.3"
         id="g75">
        <path
           d="m 437,135.29 a 0.66,0.66 0 0 1 0,-0.3 0.21,0.21 0 0 1 0.1,-0.19 l 1.93,-1.17 0.18,-0.1 a 0.27,0.27 0 0 1 0.24,0 l 1.09,0.63 a 0.41,0.41 0 0 1 0.17,0.21 0.75,0.75 0 0 1 0.08,0.31 v 8.95 a 0.28,0.28 0 0 1 -0.08,0.22 c 0,0.05 -0.1,0.05 -0.17,0 l -1.18,-0.68 a 0.47,0.47 0 0 1 -0.17,-0.21 0.82,0.82 0 0 1 -0.07,-0.3 v -6.06 l -1.07,0.63 q -0.07,0.06 -0.18,0 A 0.5,0.5 0 0 1 437.71,137 Z"
           style="fill:#7a634d"
           id="path67" />
        <path
           d="m 445.14,136.72 a 4.2,4.2 0 0 1 1.16,1 5.53,5.53 0 0 1 0.81,1.28 7.32,7.32 0 0 1 0.48,1.48 10.25,10.25 0 0 1 0.18,1.54 c 0,0.4 0,0.82 0,1.26 0,0.44 0,0.83 0,1.21 a 6.48,6.48 0 0 1 -0.18,1.32 2.15,2.15 0 0 1 -0.48,0.93 1.17,1.17 0 0 1 -0.81,0.35 2.28,2.28 0 0 1 -1.16,-0.37 4.35,4.35 0 0 1 -1.16,-1 5.85,5.85 0 0 1 -0.8,-1.28 6.25,6.25 0 0 1 -0.48,-1.48 9.13,9.13 0 0 1 -0.19,-1.54 c 0,-0.38 0,-0.79 0,-1.23 0,-0.44 0,-0.85 0,-1.24 a 5.83,5.83 0 0 1 0.19,-1.32 2,2 0 0 1 0.48,-0.93 1.16,1.16 0 0 1 0.8,-0.35 2.16,2.16 0 0 1 1.16,0.37 z m 1,6.71 c 0,-0.78 0,-1.55 0,-2.33 0,-0.24 0,-0.47 -0.06,-0.68 a 3.77,3.77 0 0 0 -0.16,-0.6 1.92,1.92 0 0 0 -0.29,-0.5 1.71,1.71 0 0 0 -0.45,-0.39 0.75,0.75 0 0 0 -0.45,-0.13 0.4,0.4 0 0 0 -0.29,0.17 1.21,1.21 0 0 0 -0.16,0.41 5.07,5.07 0 0 0 -0.06,0.6 c 0,0.75 0,1.53 0,2.33 a 4.63,4.63 0 0 0 0.06,0.67 2.2,2.2 0 0 0 0.16,0.6 1.83,1.83 0 0 0 0.29,0.51 1.71,1.71 0 0 0 0.45,0.39 0.75,0.75 0 0 0 0.45,0.13 0.39,0.39 0 0 0 0.29,-0.17 1,1 0 0 0 0.17,-0.41 3.64,3.64 0 0 0 0.01,-0.6 z"
           style="fill:#7a634d"
           id="path69" />
        <path
           d="m 454.37,145.3 a 4.27,4.27 0 0 1 -0.06,0.74 2.25,2.25 0 0 1 -0.18,0.62 2,2 0 0 1 -0.34,0.51 2.08,2.08 0 0 1 -0.52,0.39 l -1.26,0.74 2.26,1.31 a 0.47,0.47 0 0 1 0.17,0.21 0.66,0.66 0 0 1 0.07,0.3 v 1.47 a 0.28,0.28 0 0 1 -0.07,0.22 0.12,0.12 0 0 1 -0.17,0 l -4.75,-2.74 a 0.41,0.41 0 0 1 -0.17,-0.21 0.67,0.67 0 0 1 -0.08,-0.3 v -1.2 a 1.4,1.4 0 0 1 0.06,-0.41 0.4,0.4 0 0 1 0.2,-0.25 l 2.69,-1.41 a 0.78,0.78 0 0 0 0.4,-0.43 1.89,1.89 0 0 0 0.08,-0.53 c 0,-0.07 0,-0.16 0,-0.29 a 2.34,2.34 0 0 0 -0.1,-0.4 2.55,2.55 0 0 0 -0.23,-0.43 1.31,1.31 0 0 0 -0.41,-0.36 0.52,0.52 0 0 0 -0.4,-0.1 0.43,0.43 0 0 0 -0.25,0.15 0.83,0.83 0 0 0 -0.12,0.27 c 0,0.1 -0.05,0.17 -0.06,0.22 -0.01,0.05 -0.08,0.17 -0.14,0.18 a 0.43,0.43 0 0 1 -0.22,-0.07 l -1.11,-0.63 a 0.45,0.45 0 0 1 -0.14,-0.18 0.53,0.53 0 0 1 -0.06,-0.24 4,4 0 0 1 0.16,-1.07 1.9,1.9 0 0 1 0.47,-0.78 1.16,1.16 0 0 1 0.77,-0.31 2.06,2.06 0 0 1 1.1,0.34 4.17,4.17 0 0 1 1.05,0.88 5.88,5.88 0 0 1 0.76,1.15 6.79,6.79 0 0 1 0.46,1.31 6.18,6.18 0 0 1 0.14,1.33 z"
           style="fill:#7a634d"
           id="path71" />
        <path
           d="m 457.56,150.84 0.14,0.35 a 2.09,2.09 0 0 0 0.19,0.36 1.67,1.67 0 0 0 0.26,0.35 1.28,1.28 0 0 0 0.36,0.29 0.75,0.75 0 0 0 0.36,0.13 0.44,0.44 0 0 0 0.3,0 0.48,0.48 0 0 0 0.21,-0.25 1.09,1.09 0 0 0 0.08,-0.48 1.85,1.85 0 0 0 -0.24,-0.91 1.68,1.68 0 0 0 -0.65,-0.67 0.59,0.59 0 0 0 -0.24,-0.09 h -0.21 -0.17 a 0.21,0.21 0 0 1 -0.14,0 l -1.4,-0.81 a 0.58,0.58 0 0 1 -0.18,-0.22 0.54,0.54 0 0 1 -0.06,-0.3 l 0.27,-4.79 a 0.34,0.34 0 0 1 0.07,-0.22 0.12,0.12 0 0 1 0.17,0 l 3.85,2.22 a 0.46,0.46 0 0 1 0.17,0.21 0.66,0.66 0 0 1 0.07,0.3 v 1.47 a 0.28,0.28 0 0 1 -0.07,0.22 0.12,0.12 0 0 1 -0.17,0 l -2.62,-1.52 -0.06,1.2 a 0.91,0.91 0 0 1 0.37,0 1.32,1.32 0 0 1 0.47,0.18 4.11,4.11 0 0 1 1,0.78 5.32,5.32 0 0 1 0.78,1.08 5.65,5.65 0 0 1 0.51,1.32 6.18,6.18 0 0 1 0.19,1.51 3.68,3.68 0 0 1 -0.21,1.35 1.44,1.44 0 0 1 -0.56,0.75 1.16,1.16 0 0 1 -0.83,0.18 2.7,2.7 0 0 1 -1,-0.37 4.91,4.91 0 0 1 -1.1,-0.87 5.57,5.57 0 0 1 -0.81,-1.13 5.93,5.93 0 0 1 -0.51,-1.23 4.53,4.53 0 0 1 -0.19,-1.21 0.31,0.31 0 0 1 0.05,-0.19 0.13,0.13 0 0 1 0.15,0 l 1.14,0.66 a 0.66,0.66 0 0 1 0.22,0.22 1.88,1.88 0 0 1 0.04,0.13 z"
           style="fill:#7a634d"
           id="path73" />
      </g>
    </g>
  </g>
  <g
     id="freepik--Character--inject-35"
     transform="translate(-16.733274,-28.115524)">
    <g
       id="freepik--character--inject-35">
      <path
         d="m 243.75,354.61 c -0.08,-0.17 -5.57,-9.7 -5.57,-9.7 0,0 1.18,0.7 6.7,-2.41 a 34.39,34.39 0 0 0 5.74,-4.39 l 3.66,7.05 c 2.33,2.48 7.22,-0.22 12.79,-2.37 0.93,-0.36 1.88,-0.78 2.83,-1.21 h 0.06 c 3.05,-1 6.65,0.06 4.12,3.55 -2.53,3.49 -7.58,5.87 -12.25,8 -5.62,2.62 -15.5,7.05 -18.08,1.48 z"
         style="fill:#b16668"
         id="path79" />
      <path
         d="m 284.71,342.94 a 6.19,6.19 0 0 1 1.25,3 c 0.18,1.17 -1.63,5.79 -6,9.46 -4.37,3.67 -10.51,5.45 -13.18,7 -2.67,1.55 -4.89,3.94 -8.08,5.66 -3.19,1.72 -6.44,3 -10.44,1.68 -0.88,-0.81 -2.17,-2.86 -2,-3.13 0.37,-0.61 38.45,-23.67 38.45,-23.67 z"
         style="fill:#263238"
         id="path81" />
      <path
         d="m 255.44,345.93 c 2.59,0.94 6.86,-1.3 11.63,-3.14 4.49,-1.74 9.28,-4.73 12.72,-4.46 3.44,0.27 7,3.29 4,9.15 -0.88,1.7 -2.85,4.8 -4.74,6.09 -4.79,3.27 -9.5,4.66 -12.68,6.39 -4.14,2.25 -6.05,4.84 -10,6.39 -5.14,2 -8.85,1.51 -10.13,0.34 -1.28,-1.17 -5.12,-12.37 -2.79,-12.72 0,0 1.92,3.44 9.64,-2.41 3.37,-2.56 2.71,-4.84 2.35,-5.63 z"
         style="fill:#7a634d"
         id="path83" />
      <path
         d="m 255.44,345.93 c 2.59,0.94 6.86,-1.3 11.63,-3.14 4.49,-1.74 9.28,-4.73 12.72,-4.46 3.44,0.27 7,3.29 4,9.15 -0.88,1.7 -2.85,4.8 -4.74,6.09 -4.79,3.27 -9.5,4.66 -12.68,6.39 -4.14,2.25 -6.05,4.84 -10,6.39 -5.14,2 -8.85,1.51 -10.13,0.34 -1.28,-1.17 -5.12,-12.37 -2.79,-12.72 0,0 1.92,3.44 9.64,-2.41 3.37,-2.56 2.71,-4.84 2.35,-5.63 z"
         style="opacity:0.4"
         id="path85" />
      <path
         d="m 271.73,348.21 c 0,0 -1.76,-4.68 -5.65,-5 a 1.93,1.93 0 0 0 -1.9,0.77 c 0,0 3.43,-0.38 6,5 0,0 0.27,0.32 0.95,0 0.23,-0.14 0.73,-0.38 0.6,-0.77 z"
         style="fill:#fafafa"
         id="path87" />
      <path
         d="m 261.25,345.12 c 0,0 -0.05,-0.16 0.75,-0.54 a 1.5,1.5 0 0 1 1,-0.14 c 0,0 3,0.45 4.77,5.36 a 0.93,0.93 0 0 1 -0.61,1 0.76,0.76 0 0 1 -1.08,-0.25 c 0,0 -1.93,-5.16 -4.83,-5.43 z"
         style="fill:#fafafa"
         id="path89" />
      <path
         d="m 258.42,346 c 0,0 0.07,-0.35 0.7,-0.5 0.79,-0.21 1.05,0 1.05,0 0,0 2.4,1.44 3.52,5.65 0,0 0.26,0.69 -0.71,1 -0.97,0.31 -1,-0.51 -1,-0.51 0,0 -1.79,-5.23 -3.56,-5.64 z"
         style="fill:#fafafa"
         id="path91" />
      <path
         d="m 221.86,285.8 c 7.75,11.91 31,53.79 31,53.79 0,0 -5.73,8.68 -14.66,7.74 l -34,-50.84 z"
         style="fill:#37474f"
         id="path93" />
      <path
         d="m 276.29,372.08 c -1.16,-1.15 -6.39,-9.72 -6.39,-9.72 0,0 3.92,1.3 9.68,-1.35 2.93,-1.35 5.13,-5.27 5.13,-5.27 l 4.37,8.37 c 2.13,2.66 6.87,0.68 12.59,-1 1,-0.28 1.94,-0.62 2.92,-1 h 0.06 c 3.13,-0.73 6.62,0.61 3.82,3.87 -2.8,3.26 -8,5.24 -12.87,7 -5.8,2.15 -14.94,3.42 -19.31,-0.9 z"
         style="fill:#b16668"
         id="path95" />
      <path
         d="m 321.45,362.71 a 6.64,6.64 0 0 1 1.07,3.37 c 0.1,1.27 -2.24,6.05 -7.25,9.6 -5.01,3.55 -11.72,4.91 -14.72,6.38 -3,1.47 -5.57,3.79 -9.14,5.35 -3.57,1.56 -7.16,2.69 -11.33,0.88 -0.87,-0.94 -2.06,-3.25 -1.88,-3.53 0.48,-0.76 43.25,-22.05 43.25,-22.05 z"
         style="fill:#263238"
         id="path97" />
      <path
         d="m 289.9,363.26 a 11.59,11.59 0 0 0 1.24,0.46 3.61,3.61 0 0 0 1.27,0 17.65,17.65 0 0 0 3,-0.52 c 2.43,-0.62 4.8,-1.48 7.21,-2.19 5,-1.47 10.35,-4.25 14,-3.66 3.65,0.59 7.58,4 3.84,10.06 a 23.79,23.79 0 0 1 -5.4,6.12 c -5.17,3.49 -11.11,4.23 -14.67,5.8 -4.62,2.05 -6.89,4.65 -11.28,6 -5.67,1.69 -9.6,0.84 -10.87,-0.53 -0.71,-0.76 -1,-5.41 -2.46,-8.79 -1.24,-2.9 -1.49,-5 -0.37,-5.08 a 5.38,5.38 0 0 0 1.06,0.9 4.21,4.21 0 0 0 1.49,0.76 10.51,10.51 0 0 0 2.31,0.29 12.77,12.77 0 0 0 4.14,-0.26 1.94,1.94 0 0 0 1,-0.56 2.29,2.29 0 0 0 0.36,-1.5 c 0,-0.46 0,-0.93 0,-1.39 a 2.06,2.06 0 0 1 0.1,-0.75 1.9,1.9 0 0 1 0.58,-0.68 5.93,5.93 0 0 0 1.86,-2.13 5.1,5.1 0 0 0 0.23,-2.2 0.58,0.58 0 0 1 0.08,-0.37 c 0.14,-0.16 0.4,-0.1 0.6,0 0.2,0.1 0.45,0.12 0.68,0.22 z"
         style="fill:#7a634d"
         id="path99" />
      <path
         d="m 289.9,363.26 a 11.59,11.59 0 0 0 1.24,0.46 3.61,3.61 0 0 0 1.27,0 17.65,17.65 0 0 0 3,-0.52 c 2.43,-0.62 4.8,-1.48 7.21,-2.19 5,-1.47 10.35,-4.25 14,-3.66 3.65,0.59 7.58,4 3.84,10.06 a 23.79,23.79 0 0 1 -5.4,6.12 c -5.17,3.49 -11.11,4.23 -14.67,5.8 -4.62,2.05 -6.89,4.65 -11.28,6 -5.67,1.69 -9.6,0.84 -10.87,-0.53 -0.71,-0.76 -1,-5.41 -2.46,-8.79 -1.24,-2.9 -1.49,-5 -0.37,-5.08 a 5.38,5.38 0 0 0 1.06,0.9 4.21,4.21 0 0 0 1.49,0.76 10.51,10.51 0 0 0 2.31,0.29 12.77,12.77 0 0 0 4.14,-0.26 1.94,1.94 0 0 0 1,-0.56 2.29,2.29 0 0 0 0.36,-1.5 c 0,-0.46 0,-0.93 0,-1.39 a 2.06,2.06 0 0 1 0.1,-0.75 1.9,1.9 0 0 1 0.58,-0.68 5.93,5.93 0 0 0 1.86,-2.13 5.1,5.1 0 0 0 0.23,-2.2 0.58,0.58 0 0 1 0.08,-0.37 c 0.14,-0.16 0.4,-0.1 0.6,0 0.2,0.1 0.45,0.12 0.68,0.22 z"
         style="opacity:0.4"
         id="path101" />
      <path
         d="m 307.09,367.22 c 0,0 -1.46,-5.17 -5.6,-5.88 a 2.09,2.09 0 0 0 -2.1,0.66 c 0,0 3.71,-0.11 6,5.86 0,0 0.25,0.37 1,0.09 0.25,-0.09 0.82,-0.3 0.7,-0.73 z"
         style="fill:#fafafa"
         id="path103" />
      <path
         d="m 296.15,363 c 0,0 0,-0.17 0.85,-0.5 a 1.65,1.65 0 0 1 1.09,-0.07 c 0,0 3.12,0.74 4.63,6.15 a 1,1 0 0 1 -0.74,1 0.83,0.83 0 0 1 -1.14,-0.36 c 0,0 -1.61,-5.69 -4.69,-6.22 z"
         style="fill:#fafafa"
         id="path105" />
      <path
         d="m 293.05,363.65 c 0,0 0.11,-0.36 0.79,-0.47 0.86,-0.15 1.12,0.15 1.12,0.15 0,0 2.44,1.75 3.27,6.35 0,0 0.22,0.76 -0.85,1 -1.07,0.24 -1.07,-0.63 -1.07,-0.63 0,0 -1.4,-5.77 -3.26,-6.4 z"
         style="fill:#fafafa"
         id="path107" />
      <path
         d="m 259.31,302.91 c 5.6,9.94 19.5,39.7 26.67,54.47 a 22.61,22.61 0 0 1 -14.36,8.06 L 234,313.71 l 11.2,-9.43 z"
         style="fill:#455a64"
         id="path109" />
      <path
         d="m 131.12,292.68 c 0,0 45.42,-13.71 53.32,-15.87 7.9,-2.16 22.38,-5.06 26.81,-3.07 4.43,1.99 6.93,5.48 9.63,9.74 2.8,4.42 4.86,8.45 4.86,8.45 0,0 -29.74,8.13 -47.74,8.13 -18,0 -46.88,-7.38 -46.88,-7.38 z"
         style="fill:#37474f"
         id="path111" />
      <path
         d="m 134.3,274.82 c -2.85,9.73 -6.56,27.07 6.55,39.73 5.11,4.94 34.42,20.65 52.42,15.13 20.11,-6.17 44.12,-18.06 44.12,-18.06 0,0 12.14,0.71 16.09,-1.57 3.95,-2.28 6.35,-6.05 5.83,-7.14 -6.27,-13 -11.49,-19.76 -25.06,-18.4 -16.6,1.66 -44.26,6.7 -44.26,6.7 z"
         style="fill:#455a64"
         id="path113" />
      <path
         d="m 201.87,204.36 c -8.6,-7.53 -20.67,-4.1 -27.38,2.43 -10.28,10 -16.38,22.7 -14.12,29 2.63,7.21 41.5,-31.43 41.5,-31.43 z"
         style="fill:#455a64"
         id="path115" />
      <path
         d="m 303.47,248.41 c 0.18,-1.25 -0.83,-2.67 -2.87,-3.71 l -23.8,-12.17 a 17,17 0 0 0 -11.57,-0.8 l -21.76,7.5 c -1.9,0.66 -2.94,1.58 -3,2.48 -0.05,0.66 -0.4,3.22 -0.42,3.95 -0.02,0.73 0.45,1.27 1.46,1.78 2.44,1.25 7.91,1.66 12.21,0.92 l 5.52,-0.94 c 4.3,-0.74 9.76,-0.33 12.19,0.9 a 7.08,7.08 0 0 1 3.34,3.41 l -1.28,4.43 a 3.53,3.53 0 0 0 0,2.5 l -0.4,1.4 c -0.49,1.67 -0.65,3.42 3.51,5.26 a 8.66,8.66 0 0 0 8.36,-0.33 l 16.87,-11 a 2.49,2.49 0 0 0 1.24,-1.74 c 0.08,-0.65 0.31,-3.2 0.4,-3.84 z"
         style="fill:#455a64"
         id="path117" />
      <path
         d="m 275.87,254.71 0.08,-11.54 -7.18,-1.88 -0.65,6.08 a 12.07,12.07 0 0 1 3.31,0.95 7.08,7.08 0 0 1 3.34,3.41 l -0.52,1.79 z"
         style="fill:#263238"
         id="path119" />
      <path
         d="m 302.15,245.73 c 2.17,2 2.33,2.59 1.73,10.47 -0.6,7.88 -2.39,8.09 -4.41,6.74 -2.02,-1.35 -3.39,-5.1 -5.87,-3.57 z"
         style="fill:#455a64"
         id="path121" />
      <path
         d="m 241.93,243.54 c 2.44,1.25 7.91,1.66 12.21,0.92 l 5.52,-0.94 c 4.3,-0.74 9.76,-0.33 12.19,0.9 2.43,1.23 4,3.6 3.51,5.27 l -1.87,6.47 c -0.49,1.67 -0.65,3.42 3.51,5.26 a 8.67,8.67 0 0 0 8.36,-0.33 l 16.87,-10.95 c 2.19,-1.42 1.46,-3.86 -1.63,-5.44 l -23.8,-12.17 a 17,17 0 0 0 -11.57,-0.8 l -21.76,7.5 c -3.3,1.14 -3.99,3.07 -1.54,4.31 z"
         style="fill:#7a634d"
         id="path123" />
      <path
         d="m 241.93,243.54 c 2.44,1.25 7.91,1.66 12.21,0.92 l 5.52,-0.94 c 4.3,-0.74 9.76,-0.33 12.19,0.9 2.43,1.23 4,3.6 3.51,5.27 l -1.87,6.47 c -0.49,1.67 -0.65,3.42 3.51,5.26 a 8.67,8.67 0 0 0 8.36,-0.33 l 16.87,-10.95 c 2.19,-1.42 1.46,-3.86 -1.63,-5.44 l -23.8,-12.17 a 17,17 0 0 0 -11.57,-0.8 l -21.76,7.5 c -3.3,1.14 -3.99,3.07 -1.54,4.31 z"
         style="opacity:0.2"
         id="path125" />
      <path
         d="m 294.81,244.64 a 0.76,0.76 0 0 0 -0.47,-0.59 3.5,3.5 0 0 0 -2.7,-0.11 c -0.42,0.17 -0.63,0.4 -0.65,0.65 -0.02,0.25 -0.09,0.77 -0.1,0.94 -0.01,0.17 0.15,0.45 0.47,0.63 a 3.55,3.55 0 0 0 2.7,0.12 c 0.4,-0.16 0.62,-0.39 0.65,-0.63 0.03,-0.24 0.11,-0.82 0.1,-1.01 z"
         style="fill:#263238"
         id="path127" />
      <path
         d="m 289.06,247 a 0.76,0.76 0 0 0 -0.47,-0.62 3.5,3.5 0 0 0 -2.7,-0.11 c -0.4,0.16 -0.62,0.39 -0.64,0.62 -0.02,0.23 -0.1,0.81 -0.11,1 a 0.76,0.76 0 0 0 0.47,0.62 3.55,3.55 0 0 0 2.7,0.12 c 0.4,-0.16 0.62,-0.39 0.65,-0.62 0.03,-0.23 0.1,-0.82 0.1,-1.01 z"
         style="fill:#37474f"
         id="path129" />
      <path
         d="m 289.41,244.45 c 0,-0.22 -0.15,-0.45 -0.47,-0.63 a 3.55,3.55 0 0 0 -2.7,-0.12 c -0.4,0.16 -0.62,0.39 -0.65,0.63 -0.03,0.24 -0.08,0.79 -0.1,0.95 -0.02,0.16 0.14,0.46 0.47,0.65 a 3.5,3.5 0 0 0 2.7,0.11 c 0.41,-0.16 0.63,-0.4 0.65,-0.64 0.02,-0.24 0.09,-0.78 0.1,-0.95 z"
         style="fill:#263238"
         id="path131" />
      <path
         d="m 294.45,247.27 c 0,-0.22 -0.14,-0.45 -0.47,-0.63 a 3.47,3.47 0 0 0 -2.69,-0.12 c -0.4,0.16 -0.62,0.39 -0.65,0.62 -0.03,0.23 -0.08,0.79 -0.1,1 -0.02,0.21 0.13,0.46 0.47,0.66 a 3.54,3.54 0 0 0 2.7,0.11 c 0.4,-0.16 0.61,-0.39 0.64,-0.62 0.03,-0.23 0.1,-0.85 0.1,-1.02 z"
         style="fill:#37474f"
         id="path133" />
      <path
         d="m 291.64,243.94 c -0.8,0.32 -0.87,0.9 -0.18,1.29 a 3.55,3.55 0 0 0 2.7,0.12 c 0.8,-0.33 0.87,-0.91 0.18,-1.3 a 3.5,3.5 0 0 0 -2.7,-0.11 z"
         style="fill:#455a64"
         id="path135" />
      <path
         d="m 285.89,246.29 c -0.79,0.32 -0.87,0.9 -0.18,1.29 a 3.55,3.55 0 0 0 2.7,0.12 c 0.8,-0.33 0.88,-0.91 0.18,-1.3 a 3.5,3.5 0 0 0 -2.7,-0.11 z"
         style="fill:#455a64"
         id="path137" />
      <path
         d="m 286.24,243.7 c -0.8,0.33 -0.88,0.9 -0.18,1.29 a 3.5,3.5 0 0 0 2.7,0.12 c 0.79,-0.32 0.87,-0.9 0.18,-1.29 a 3.55,3.55 0 0 0 -2.7,-0.12 z"
         style="fill:#455a64"
         id="path139" />
      <path
         d="m 291.29,246.52 c -0.8,0.32 -0.88,0.9 -0.18,1.29 a 3.55,3.55 0 0 0 2.7,0.12 c 0.79,-0.33 0.87,-0.9 0.17,-1.29 a 3.47,3.47 0 0 0 -2.69,-0.12 z"
         style="fill:#455a64"
         id="path141" />
      <polygon
         points="267.75,233.88 265.22,232.47 262.34,233.65 262.23,234.72 263.7,235.54 262,236.23 261.88,237.3 264.41,238.71 267.28,237.53 269.81,238.94 272.68,237.77 272.8,236.7 271.33,235.88 273.03,235.18 273.15,234.12 270.62,232.71 "
         style="fill:#37474f"
         id="polygon143" />
      <polygon
         points="265.22,232.47 262.34,233.65 264.87,235.06 262,236.23 264.52,237.64 267.4,236.47 269.92,237.88 272.8,236.7 270.27,235.29 273.15,234.12 270.62,232.71 267.75,233.88 "
         style="fill:#455a64"
         id="polygon145" />
      <polygon
         points="264.41,238.71 264.52,237.64 267.4,236.47 267.28,237.53 "
         style="fill:#263238"
         id="polygon147" />
      <polygon
         points="273.03,235.18 273.15,234.12 270.27,235.29 271.33,235.88 "
         style="fill:#263238"
         id="polygon149" />
      <polygon
         points="269.81,238.94 269.92,237.88 272.8,236.7 272.68,237.77 "
         style="fill:#263238"
         id="polygon151" />
      <polygon
         points="262.22,234.77 263.7,235.54 264.87,235.06 262.34,233.65 "
         style="fill:#263238"
         id="polygon153" />
      <path
         d="m 243.25,231.83 c 6,-1.36 9.57,-0.31 14.68,-0.52 1.65,-0.06 3.05,-0.95 3.86,-0.8 1.55,0.3 1.43,1.91 0.43,3 -1,1.09 -2.15,2.12 -6.58,2.81 -3.78,0.6 -3.93,0.17 -8.36,1.54 l -4.85,2.28 -1.7,-4.17 z"
         style="fill:#b16668"
         id="path155" />
      <path
         d="m 254,231.31 a 17.72,17.72 0 0 0 -10.12,-1.16 c -4.89,1.16 -3.14,6.17 -3.14,6.17 z"
         style="fill:#b16668"
         id="path157" />
      <polygon
         points="196.24,212.16 209.92,193.15 229.89,205.91 215.39,218.88 "
         style="fill:#b16668"
         id="polygon159" />
      <path
         d="m 244.3,181 c 0,0 4.86,7.38 4.31,8.11 -0.55,0.73 -4.14,1.38 -4.14,1.38 z"
         style="fill:#9a4a4d"
         id="path161" />
      <path
         d="m 230.79,160.62 c 9.84,2.07 12.68,6.4 13.61,22 1,16.34 -0.7,21.48 -2.84,23.68 -1.45,1.48 -9.5,1.75 -13.56,0.63 -5.09,-1.4 -16.58,-5.47 -22,-13.69 -6.32,-9.67 -8,-22.77 -1.21,-28.15 9.57,-7.53 22,-5.32 26,-4.47 z"
         style="fill:#b16668"
         id="path163" />
      <path
         d="m 228.45,207.07 c 4.23,1.06 10.71,0.63 12.66,-0.43 a 14.61,14.61 0 0 1 -7.15,-0.43 23.43,23.43 0 0 1 -6.49,-3 z"
         style="fill:#9a4a4d"
         id="path165" />
      <path
         d="m 246.58,167.37 v 0 c -2.81,1.84 -6.19,2.55 -9.51,3 0.2,2.65 -0.7,5.25 -1.58,7.76 -0.61,1.74 -2.79,7.19 -5,4.12 -1.57,-2.22 -3,-4.24 -6.1,-3.77 -5.12,0.76 -5.81,7.29 -2.59,11.26 3.22,3.97 6.24,2.45 6.24,2.45 0,0 0.31,7 -3.51,11.93 a 16.75,16.75 0 0 1 -13.33,0.53 c -4.86,-1.72 -11.8,-8.07 -14.3,-12.95 -6.87,-13.45 -6.62,-26.17 2.18,-29.89 1,-6.35 6,-9.19 11.64,-10.5 7.9,-1.82 15.95,3.3 23.61,0.22 1.62,-0.65 3.11,-1.59 4.76,-2.14 a 3.23,3.23 0 0 1 2.82,0.07 3.4,3.4 0 0 1 1.16,2.19 6.1,6.1 0 0 1 -0.4,4.53 13.36,13.36 0 0 1 3.6,-1.24 4.5,4.5 0 0 1 3.59,0.9 4.62,4.62 0 0 1 1.37,3.18 c 0.26,3.34 -1.86,6.51 -4.65,8.35 z"
         style="fill:#263238"
         id="path167" />
      <path
         d="m 199,163.94 -5.89,-3.47 a 3.42,3.42 0 0 1 5.89,3.47 z"
         style="fill:#263238"
         id="path169" />
      <path
         d="m 201.87,204.36 c -10.84,-3.24 -19.77,-1.6 -33.93,11.89 C 152.42,231 141,256.06 137,283.09 c 0,0 0.53,12.49 15,20.8 15.35,8.81 39.07,6.66 48.6,-9.2 0,0 2,-14.13 8.33,-21.69 4.1,-4.9 13.58,-15.72 20.58,-23.45 6.09,-6.73 12.45,-23.14 2.88,-30.87 -2.81,-2.26 -5.57,-4 -9.46,-6.56 -9.93,1.76 -22.84,-4.12 -21.06,-7.76 z"
         style="fill:#7a634d"
         id="path171" />
      <path
         d="m 201.87,204.36 c -10.84,-3.24 -19.77,-1.6 -33.93,11.89 C 152.42,231 141,256.06 137,283.09 c 0,0 0.53,12.49 15,20.8 15.35,8.81 39.07,6.66 48.6,-9.2 0,0 2,-14.13 8.33,-21.69 4.1,-4.9 13.58,-15.72 20.58,-23.45 6.09,-6.73 12.45,-23.14 2.88,-30.87 -2.81,-2.26 -5.57,-4 -9.46,-6.56 -9.93,1.76 -22.84,-4.12 -21.06,-7.76 z"
         style="opacity:0.75;fill:#ffffff"
         id="path173" />
      <path
         d="m 230.39,248.53 0.48,-0.62 0.21,-0.28 0.52,-0.74 c 0,-0.06 0.09,-0.12 0.13,-0.19 q 0.33,-0.49 0.66,-1 a 0.31,0.31 0 0 0 0.05,-0.1 c 0.2,-0.31 0.39,-0.64 0.58,-1 l 0.13,-0.24 c 0.17,-0.31 0.35,-0.63 0.51,-1 a 1.62,1.62 0 0 0 0.1,-0.18 37.29,37.29 0 0 0 1.67,-3.8 v -0.07 a 27.38,27.38 0 0 0 1.85,-9.77 53.23,53.23 0 0 1 -12.45,14.09 c -6.33,5 -13.77,8.51 -19.76,13.9 -6.34,5.72 -11.36,13 -16.91,19.47 -2.23,2.58 -5.5,7.72 -8.9,7.45 -4.15,-0.33 -7.35,-5.91 -9.09,-9.69 -2.78,-6 -4.85,-13.35 -8.59,-18.83 -3.27,-4.79 -8.49,-11.08 -14.14,-9.39 A 141.26,141.26 0 0 0 137,283.09 c 0,0 0.53,12.49 15,20.8 a 35.48,35.48 0 0 0 4,2 c 0.42,0.07 0.84,0.16 1.25,0.26 2.07,0.54 4,1.55 6.13,2 l 0.76,0.15 0.86,0.15 0.92,0.14 0.78,0.11 1,0.12 0.69,0.06 1.08,0.08 h 0.65 1.1 1.78 0.7 l 1,-0.05 0.79,-0.06 0.91,-0.08 0.87,-0.1 0.83,-0.11 1,-0.16 0.65,-0.12 c 0.43,-0.08 0.85,-0.16 1.27,-0.26 l 0.27,-0.06 c 7.87,-1.85 15.13,-6.25 19.37,-13.31 0,0 0.1,-0.68 0.31,-1.81 0.07,-0.33 0.14,-0.69 0.22,-1.09 0.16,-0.78 0.37,-1.7 0.62,-2.71 a 55.55,55.55 0 0 1 3.62,-10.39 32,32 0 0 1 1.89,-3.41 c 0.35,-0.54 0.71,-1.06 1.09,-1.56 L 209,273 l 0.83,-1 c 3.85,-4.55 10.93,-12.64 17,-19.43 l 2.73,-3 0.66,-0.78 z"
         style="opacity:0.1;fill:#7a634d"
         id="path175" />
      <path
         d="m 294.16,264.43 c -3.35,5.34 -4,8.69 -18.49,9.82 0,0 -27.19,17.06 -35.92,20.19 -8.73,3.13 -11.88,-1.78 -13.7,-9.69 -1.82,-7.91 -6.59,-37.75 -6.59,-37.75 0,0 -3.79,-18.41 11.67,-28.87 6.55,5 10,10.11 11.1,18.91 1.29,10.53 3.17,35.26 3.17,35.26 0,0 22.93,-10 26.39,-13.44 a 25.19,25.19 0 0 0 2.75,-3.49 c 1.46,-2 3.52,-4.18 4.1,-6.81 0.91,-4.17 2.83,-3.59 3.52,-1.3 a 16.6,16.6 0 0 1 -0.07,9 c 0,0 7.09,5.57 10.57,3.7 l 0.94,-0.6 v 0 a 2,2 0 0 1 2.58,0.23 c 0.19,0.96 0.03,1.58 -2.02,4.84 z"
         style="fill:#b16668"
         id="path177" />
      <path
         d="m 229.39,216.44 c 8.72,4.11 13,10.68 13.9,20.62 0.9,9.94 2.11,27.21 2.11,27.21 0,0 -0.54,6.3 -8.88,9.23 a 16,16 0 0 1 -14.36,-1.66 l -3.46,-22.5 c 0,0 -4.89,-24.34 10.69,-32.9 z"
         style="fill:#455a64"
         id="path179" />
    </g>
  </g>
  <g
     id="freepik--Puff--inject-35"
     transform="translate(-16.733274,-28.115524)">
    <g
       id="freepik--puff--inject-35">
      <path
         d="m 166.06,289.21 c -14.27,-17.46 -27.54,-38.41 -38.52,-44.74 -19.76,-11.38 -59.9,13.63 -64.29,70.7 -4.39,57.07 37.75,89.05 78.48,97.83 20.85,4.48 48.25,-0.06 59,-3.78 32.77,-11.35 51.12,-27.23 59,-49.18 8.6,-24.06 2.09,-38.53 -9.11,-44.69 a 25.89,25.89 0 0 0 -16.49,-2.72 c -39.84,6.24 -57.02,-9.9 -68.07,-23.42 z"
         style="fill:#7a634d"
         id="path183" />
      <path
         d="m 215.85,403.15 1.8,-0.84 c 2.86,-14 1.25,-27.12 -4.85,-39.26 -6,-11.85 -16.19,-22.95 -31.28,-34 -22.25,-16.23 -31,-31.63 -39.42,-46.52 -3.09,-5.46 -6,-10.62 -9.54,-15.71 -7.87,-11.36 -15.72,-17.33 -24.69,-18.77 a 30,30 0 0 0 -11,0.38 q -1.85,1.2 -3.68,2.63 a 30.76,30.76 0 0 1 14.37,-1.42 c 8.51,1.37 16,7.12 23.63,18.1 3.48,5 6.39,10.16 9.46,15.58 8.52,15.05 17.34,30.6 39.87,47 19.48,14.26 43.39,36.84 35.33,72.83 z"
         style="opacity:0.2"
         id="path185" />
      <path
         d="m 141.73,413 c 20.85,4.48 48.25,-0.06 59,-3.78 32.77,-11.35 51.12,-27.23 59,-49.18 0.21,-0.59 0.39,-1.16 0.58,-1.74 l -0.48,-0.19 c -8.39,-2.73 -17.41,0.54 -25.72,3.49 -20.9,7.42 -44.52,12.91 -64.75,3.84 -13.32,-6 -27.05,-15.33 -34.13,-28.1 -7.08,-12.77 -10.35,-27.36 -15.49,-41 -2.32,-6.15 -4.48,-14.1 -9.7,-20.09 -4.89,-5.6 -11.34,-9.67 -18.77,-9.66 -6.1,0 -11.74,1.84 -17,8.06 -5.68,10.91 -9.77,24.47 -11,40.58 -4.41,57.02 37.73,88.99 78.46,97.77 z"
         style="opacity:0.1"
         id="path187" />
    </g>
  </g>
  <g
     id="freepik--Console--inject-35"
     transform="translate(-16.733274,-28.115524)">
    <g
       id="freepik--console--inject-35">
      <path
         d="m 433.45,365.54 28.4,-16.4 a 5.65,5.65 0 0 0 2.55,-4.42 v 0.33 a 5.64,5.64 0 0 0 -2.55,-4.42 l -57.11,-33 a 5.66,5.66 0 0 0 -5.1,0 l -28.4,16.4 a 5.62,5.62 0 0 0 -2.55,4.41 v -0.32 a 5.62,5.62 0 0 0 2.55,4.41 l 57.11,33 a 5.66,5.66 0 0 0 5.1,0.01 z"
         style="fill:#37474f"
         id="path191" />
      <path
         d="m 430.91,322.77 30.95,17.86 a 5.64,5.64 0 0 1 2.55,4.42 v -0.33 a 5.65,5.65 0 0 1 -2.55,4.42 l -28.4,16.4 a 5.31,5.31 0 0 1 -2.55,0.61 z"
         style="fill:#263238"
         id="path193" />
      <path
         d="M 461.86,343.58 433.46,360 a 5.59,5.59 0 0 1 -5.1,0 l -57.11,-33 c -1.41,-0.81 -1.41,-2.13 0,-2.94 l 28.4,-16.4 a 5.66,5.66 0 0 1 5.1,0 l 57.11,33 c 1.41,0.79 1.41,2.11 0,2.92 z"
         style="fill:#455a64"
         id="path195" />
      <path
         d="m 461.86,338.19 v 2.71 l -29.48,17 a 2.74,2.74 0 0 1 -1.06,0.37 2.9,2.9 0 0 1 -1.88,-0.37 l -58.19,-33.59 v -2.81 l 57.11,33.06 a 5.63,5.63 0 0 0 5.1,0 z"
         style="fill:#7a634d"
         id="path197" />
      <path
         d="m 461.86,338.19 v 2.71 l -29.48,17 a 2.74,2.74 0 0 1 -1.06,0.37 h -0.42 v -3.12 a 5.21,5.21 0 0 0 2.56,-0.61 z"
         style="opacity:0.2"
         id="path199" />
      <path
         d="m 433.46,354.58 28.4,-16.39 a 5.63,5.63 0 0 0 2.55,-4.42 v -5.25 a 5.63,5.63 0 0 0 -2.55,-4.42 l -57.11,-33 a 5.66,5.66 0 0 0 -5.1,0 l -28.4,16.39 a 5.66,5.66 0 0 0 -2.55,4.42 v 5.25 a 5.47,5.47 0 0 0 2.55,4.33 l 57.11,33.06 a 5.59,5.59 0 0 0 5.1,0.03 z"
         style="fill:#37474f"
         id="path201" />
      <path
         d="m 430.91,306.23 30.95,17.87 a 5.63,5.63 0 0 1 2.55,4.42 v 5.25 a 5.63,5.63 0 0 1 -2.55,4.42 l -28.4,16.39 a 5.17,5.17 0 0 1 -2.55,0.61 z"
         style="fill:#263238"
         id="path203" />
      <path
         d="m 461.86,327.05 -28.4,16.39 a 5.66,5.66 0 0 1 -5.1,0 l -57.11,-33 c -1.41,-0.81 -1.41,-2.13 0,-3 l 28.4,-16.39 a 5.66,5.66 0 0 1 5.1,0 l 57.11,33 c 1.41,0.86 1.41,2.18 0,3 z"
         style="fill:#455a64"
         id="path205" />
      <path
         d="m 422.25,314 c 3.15,1.81 3.15,4.74 0,6.55 a 12.69,12.69 0 0 1 -11.39,0 c -3.14,-1.81 -3.14,-4.74 0,-6.55 a 12.56,12.56 0 0 1 11.39,0 z"
         style="fill:#7a634d"
         id="path207" />
      <path
         d="m 375.88,315.93 a 2.2,2.2 0 0 1 1,1.74 c 0,0.64 -0.45,0.91 -1,0.6 a 2.2,2.2 0 0 1 -1,-1.73 c 0,-0.65 0.45,-0.92 1,-0.61 z"
         style="fill:#7a634d"
         id="path209" />
      <path
         d="m 375.88,319.78 a 2.21,2.21 0 0 1 1,1.74 c 0,0.64 -0.45,0.91 -1,0.6 a 2.2,2.2 0 0 1 -1,-1.73 c 0,-0.65 0.45,-0.92 1,-0.61 z"
         style="fill:#7a634d"
         id="path211" />
    </g>
  </g>
  <g
     id="g233"
     transform="translate(-16.733274,-28.115524)">
    <g
       id="g231">
      <path
         d="m 118.06,150.54 v -15 l 12.67,-1.11 a 0.91,0.91 0 0 1 0.52,0.11 c 0.49,0.27 10.7,6.14 10.86,6.23 a 0.92,0.92 0 0 1 0.2,1.43 l -13.43,14.56 z"
         style="fill:#7a634d"
         id="path215" />
      <path
         d="m 128.88,156.75 13.43,-14.56 a 0.92,0.92 0 0 0 -0.76,-1.55 l -12.67,1.1 z"
         style="fill:#7a634d"
         id="path217" />
      <path
         d="m 118.06,135.52 10.82,6.23 12.67,-1.11 a 1,1 0 0 1 0.44,0.06 c -1,-0.6 -10.27,-5.92 -10.73,-6.17 a 0.87,0.87 0 0 0 -0.54,-0.11 z"
         style="fill:#7a634d"
         id="path219" />
      <path
         d="m 118.06,135.52 10.82,6.23 12.67,-1.11 a 1,1 0 0 1 0.44,0.06 c -1,-0.6 -10.27,-5.92 -10.73,-6.17 a 0.87,0.87 0 0 0 -0.54,-0.11 z"
         style="opacity:0.5;fill:#ffffff"
         id="path221" />
      <g
         id="freepik--speach-bubble--inject-35">
        <path
           d="m 128.89,123.57 a 7,7 0 0 0 -3.15,-5.45 l -2.56,-1.47 a 6.91,6.91 0 0 0 -6.29,0 l -39.26,22.71 a 6.93,6.93 0 0 0 -3.14,5.44 V 188 a 6.93,6.93 0 0 0 3.14,5.45 l 2.56,1.48 a 7,7 0 0 0 6.29,0 l 39.26,-22.71 a 6.94,6.94 0 0 0 3.15,-5.45 z"
           style="fill:#7a634d"
           id="path223" />
        <path
           d="m 74.49,188 a 6.93,6.93 0 0 0 3.14,5.45 l 2.56,1.48 a 7.06,7.06 0 0 0 5.75,0.25 c -1.48,0.56 -2.6,-0.28 -2.6,-2.07 v -43.2 a 6.44,6.44 0 0 1 0.92,-3.1 l -8.85,-5.11 a 6.44,6.44 0 0 0 -0.92,3.1 z"
           style="opacity:0.2"
           id="path225" />
        <path
           d="m 128.78,122.68 c -0.36,-1.34 -1.58,-1.76 -3,-0.93 l -39.3,22.72 a 6.27,6.27 0 0 0 -2.22,2.34 l -8.84,-5.1 a 6.36,6.36 0 0 1 2.21,-2.35 l 39.26,-22.71 a 7,7 0 0 1 6.29,0 l 2.57,1.48 a 6.91,6.91 0 0 1 3.03,4.55 z"
           style="opacity:0.5;fill:#ffffff"
           id="path227" />
      </g>
      <polygon
         id="freepik--Heart--inject-35"
         points="101.21,148.29 104.77,146.24 104.77,151.83 108.32,149.77 108.32,144.18 111.88,142.13 111.88,139.51 115.44,137.45 115.44,140.08 118.99,138.02 118.99,143.61 122.55,141.56 122.55,149.77 118.99,151.83 118.99,155.93 115.44,157.99 115.44,162.09 111.88,164.15 111.88,168.25 108.32,170.31 108.33,174.41 104.77,176.46 104.77,172.36 101.21,174.41 101.21,170.31 97.66,172.36 97.66,168.25 94.1,170.31 94.1,166.2 90.54,168.25 90.54,160.04 94.1,157.99 94.1,152.4 97.66,150.34 97.66,147.72 101.21,145.67 "
         style="fill:#ffffff" />
    </g>
  </g>
</svg>
