<svg viewBox="0 0 100 100" preserveAspectRatio="xMidYMid slice" xml:space="preserve" xmlns="http://www.w3.org/2000/svg">
    <g style="display:inline">
        <path d="M50 0C22.383 0 0 22.383 0 50s22.383 50 50 50 50-22.383 50-50S77.617 0 50 0Zm31.21 81.191c-4.062 4.063-8.769 7.247-14.023 9.454-5.43 2.304-11.21 3.457-17.187 3.457a44.214 44.214 0 0 1-17.188-3.457A44.083 44.083 0 0 1 18.79 81.19c-4.062-4.062-7.246-8.77-9.453-14.023A43.716 43.716 0 0 1 5.859 50a44.214 44.214 0 0 1 3.457-17.187 44.083 44.083 0 0 1 9.454-14.024c4.082-4.062 8.789-7.246 14.042-9.473A44.214 44.214 0 0 1 50 5.86a44.214 44.214 0 0 1 17.187 3.457 44.083 44.083 0 0 1 14.024 9.454c4.062 4.062 7.246 8.77 9.453 14.023 2.305 5.43 3.457 11.21 3.457 17.187a44.214 44.214 0 0 1-3.457 17.188 44.083 44.083 0 0 1-9.453 14.023z"/>
        <path d="M71.777 40.273c.176-3.925-.351-7.734-1.68-11.445-.175-.469-.39-.644-.878-.508-1.094.332-2.227.586-3.301.977-2.969 1.074-5.684 2.637-8.32 4.336-.274.176-.684.293-1.016.234-4.316-.762-8.652-.722-12.988-.058-.43.058-.977-.04-1.328-.254-3.067-1.992-6.192-3.946-9.766-4.883-2.95-.781-2.344-.938-3.184 1.738a27.27 27.27 0 0 0-1.171 9.883c.02.234-.157.527-.313.742-1.289 1.543-2.285 3.242-2.89 5.156-1.172 3.711-.938 7.461-.196 11.192 1.465 7.324 6.406 12.46 13.711 13.73 3.77.664 7.656.723 11.191 1.016 3.946-.293 7.598-.313 11.153-.879 6.21-.996 10.898-4.297 13.242-10.293.82-2.09 1.27-4.375 1.543-6.602.605-4.921-.234-9.53-3.594-13.417a1.221 1.221 0 0 1-.215-.665zm-3.203 21.075c-.644 3.047-2.422 5.136-5.39 6.21-2.872 1.055-5.84 1.485-8.868 1.68-1.464.098-2.93.02-4.394.02-3.945.078-7.89-.078-11.7-1.211-4.785-1.426-6.933-4.277-7.07-9.277-.058-1.778.137-3.497.977-5.098 1.66-3.223 4.531-4.356 7.93-4.414 1.855-.02 3.73.137 5.605.312 3.926.352 7.813-.02 11.719-.234 1.719-.098 3.476-.137 5.156.156 3.613.625 6.348 4.219 6.406 8.262 0 1.191-.136 2.422-.37 3.594z"/>
        <path d="M38.887 54.648c-1.075 1.114-1.446 2.52-1.504 3.77 0 1.875.547 3.379 1.504 4.355 1.328 1.348 3.144 1.309 4.414-.058 1.914-2.07 1.894-5.957 0-8.008-1.27-1.387-3.125-1.406-4.414-.059zM56.875 54.492c-2.188 2.012-2.188 6.446 0 8.438 1.27 1.152 2.988 1.093 4.18-.137 1.093-1.133 1.484-2.559 1.523-4.102-.039-1.543-.43-2.949-1.543-4.082-1.191-1.23-2.91-1.27-4.16-.117z"/>
    </g>
</svg>
