<?xml version="1.0" encoding="UTF-8" standalone="no"?>
<svg
   viewBox="0 0 481.39001 449.17554"
   version="1.1"
   id="svg275"
   sodipodi:docname="Mobile UI-UX-amico.svg"
   width="481.39001"
   height="449.17554"
   inkscape:version="1.2.2 (732a01da63, 2022-12-09)"
   xmlns:inkscape="http://www.inkscape.org/namespaces/inkscape"
   xmlns:sodipodi="http://sodipodi.sourceforge.net/DTD/sodipodi-0.dtd"
   xmlns="http://www.w3.org/2000/svg"
   xmlns:svg="http://www.w3.org/2000/svg">
  <defs
     id="defs279" />
  <sodipodi:namedview
     id="namedview277"
     pagecolor="#ffffff"
     bordercolor="#000000"
     borderopacity="0.25"
     inkscape:showpageshadow="2"
     inkscape:pageopacity="0.0"
     inkscape:pagecheckerboard="0"
     inkscape:deskcolor="#d1d1d1"
     showgrid="false"
     inkscape:zoom="1.674"
     inkscape:cx="202.50896"
     inkscape:cy="-23.894863"
     inkscape:window-width="1920"
     inkscape:window-height="1017"
     inkscape:window-x="1912"
     inkscape:window-y="699"
     inkscape:window-maximized="1"
     inkscape:current-layer="svg275" />
  <g
     id="freepik--Floor--inject-2"
     transform="translate(-9.3,-34.406962)">
    <path
       id="freepik--floor--inject-2"
       d="m 79.8,246.36 c -94,54.26 -94,142.25 0,196.52 94,54.27 246.39,54.27 340.39,0 94,-54.27 94,-142.26 0,-196.52 -94,-54.26 -246.39,-54.27 -340.39,0 z"
       style="fill:#fafafa" />
  </g>
  <g
     id="freepik--frames-2--inject-2"
     transform="translate(-9.3,-34.406962)">
    <g
       id="freepik--Frame--inject-2">
      <path
         d="m 337,95.86 h -1 v -1.48 a 1.77,1.77 0 0 0 0,-0.23 V 94 93.94 93.85 a 0.52,0.52 0 0 0 -0.06,-0.13 l -0.19,-0.23 a 0.68,0.68 0 0 0 -0.53,-0.09 l -0.16,-1 a 1.65,1.65 0 0 1 1,0.12 1.28,1.28 0 0 1 0.27,0.16 1.21,1.21 0 0 1 0.2,0.19 l 0.1,0.13 a 0.51,0.51 0 0 1 0.12,0.18 1.28,1.28 0 0 1 0.16,0.36 0.56,0.56 0 0 1 0,0.18 l 0.08,0.15 v 0.08 c 0,0 0,0.07 0,0.11 0,0.04 0,0.21 0,0.31 z"
         style="fill:#7a634d"
         id="path4" />
      <path
         d="m 286.07,202.13 a 1.81,1.81 0 0 1 -0.38,0 1.16,1.16 0 0 1 -0.28,-0.1 1.64,1.64 0 0 1 -0.22,-0.12 2.26,2.26 0 0 1 -0.75,-0.91 3,3 0 0 1 -0.28,-1.29 v -1.11 h 1 v 1.06 a 2.1,2.1 0 0 0 0.17,0.85 1.34,1.34 0 0 0 0.37,0.51 0.88,0.88 0 0 0 0.12,0.07 h 0.11 a 0.53,0.53 0 0 0 0.16,0 l 0.11,1 z m 3.71,-1.86 -0.49,-0.85 3.33,-1.92 0.48,0.84 z m 6.65,-3.85 -0.49,-0.84 3.33,-1.92 0.49,0.84 z m -11.29,-1.66 h -1 v -3.84 h 1 z m 17.94,-2.18 -0.48,-0.84 3.32,-1.92 0.49,0.84 z m 6.65,-3.84 -0.48,-0.85 3.32,-1.92 0.49,0.84 z m -24.59,-1.66 h -1 v -3.85 h 1 z m 31.25,-2.19 -0.49,-0.84 3.33,-1.92 0.48,0.84 z m 6.65,-3.84 -0.49,-0.84 3.33,-1.92 0.48,0.84 z m -37.9,-1.66 h -1 v -3.84 h 1 z m 44.55,-2.18 -0.49,-0.85 3.33,-1.92 0.49,0.84 z m 6.5,-4.39 -0.81,-0.53 a 4,4 0 0 0 0.68,-2.06 v -1.36 h 1 v 1.36 a 4.94,4.94 0 0 1 -0.87,2.59 z m -51.05,-1.11 h -1 v -3.84 h 1 z M 337,165 h -1 v -3.84 h 1 z m -51.9,-1 h -1 v -3.84 h 1 z m 51.9,-6.69 h -1 v -3.81 h 1 z m -51.9,-1 h -1 v -3.81 h 1 z m 51.9,-6.69 h -1 v -3.84 h 1 z m -51.9,-1 h -1 v -3.84 h 1 z M 337,142 h -1 v -3.84 h 1 z m -51.9,-1 h -1 v -3.84 h 1 z m 51.9,-6.7 h -1 v -3.84 h 1 z m -51.9,-1 h -1 v -3.84 h 1 z m 51.9,-6.69 h -1 v -3.84 h 1 z m -51.9,-1 h -1 v -1.28 a 5,5 0 0 1 0.89,-2.66 l 0.81,0.54 a 4.08,4.08 0 0 0 -0.72,2.12 z m 3.59,-5.53 -0.48,-0.84 3.33,-1.92 0.48,0.84 z M 337,118.93 h -1 v -3.84 h 1 z m -41.65,-2.69 -0.49,-0.84 3.33,-1.92 0.49,0.84 z m 6.65,-3.84 -0.48,-0.84 3.32,-1.92 0.49,0.84 z m 35,-1.15 h -1 v -3.84 h 1 z m -28.34,-2.69 -0.49,-0.84 3.33,-1.92 0.48,0.84 z m 6.65,-3.84 -0.48,-0.84 3.32,-1.92 0.49,0.84 z M 337,103.57 h -1 v -3.85 h 1 z m -15,-2.69 -0.49,-0.84 3.33,-1.92 0.48,0.84 z m 6.66,-3.88 -0.49,-0.84 3.33,-1.92 0.49,0.84 z"
         style="fill:#7a634d"
         id="path6" />
    </g>
    <g
       id="freepik--frame--inject-2">
      <path
         d="m 89.75,288.11 h -1 v -1.48 a 1.55,1.55 0 0 0 0,-0.22 l -0.06,-0.19 v -0.05 -0.1 l -0.07,-0.14 -0.21,-0.25 a 0.84,0.84 0 0 0 -0.5,-0.07 l -0.16,-0.95 a 1.58,1.58 0 0 1 1,0.12 l 0.27,0.15 0.2,0.19 0.11,0.14 a 1,1 0 0 1 0.11,0.18 1.22,1.22 0 0 1 0.16,0.37 0.59,0.59 0 0 1 0,0.15 l 0.08,0.15 v 0.1 c 0,0 0,0.07 0,0.11 0,0.04 0,0.21 0,0.31 z"
         style="fill:#7a634d"
         id="path9" />
      <path
         d="m 38.76,394.37 a 1.65,1.65 0 0 1 -0.36,0 1.45,1.45 0 0 1 -0.29,-0.11 0.86,0.86 0 0 1 -0.21,-0.11 2.33,2.33 0 0 1 -0.75,-0.91 3,3 0 0 1 -0.28,-1.29 v -1.06 h 1 v 1.06 a 2.14,2.14 0 0 0 0.17,0.85 1.61,1.61 0 0 0 0.36,0.51 l 0.13,0.07 h 0.11 0.16 l 0.11,1 h -0.13 z m 3.73,-1.86 -0.49,-0.84 3.33,-1.92 0.48,0.84 z m 6.65,-3.84 -0.49,-0.84 3.35,-1.92 0.48,0.84 z M 37.85,387 h -1 v -3.85 h 1 z m 17.94,-2.18 -0.49,-0.82 3.33,-1.92 0.49,0.84 z m 6.65,-3.82 -0.48,-0.84 3.32,-1.92 0.49,0.84 z m -24.59,-1.66 h -1 v -3.84 h 1 z m 31.24,-2.18 -0.48,-0.84 3.32,-1.92 0.49,0.84 z m 6.66,-3.84 -0.49,-0.85 3.33,-1.92 0.48,0.84 z m -37.9,-1.66 h -1 v -3.86 h 1 z m 44.55,-2.19 -0.49,-0.84 3.33,-1.92 0.49,0.84 z m 6.5,-4.38 -0.82,-0.53 a 4,4 0 0 0 0.69,-2.07 v -1.35 h 1 v 1.35 a 5,5 0 0 1 -0.87,2.58 z M 37.85,364 h -1 v -3.84 h 1 z m 51.9,-6.69 h -1 v -3.84 h 1 z m -51.9,-1 h -1 v -3.84 h 1 z m 51.9,-6.68 h -1 v -3.84 h 1 z m -51.9,-1 h -1 v -3.84 h 1 z m 51.9,-6.68 h -1 v -3.84 h 1 z m -51.9,-1 h -1 v -3.84 h 1 z m 51.9,-6.68 h -1 v -3.84 h 1 z m -51.9,-1 h -1 v -3.84 h 1 z m 51.9,-6.69 h -1 v -3.88 h 1 z m -51.9,-1 h -1 v -3.88 h 1 z m 51.9,-6.68 h -1 V 315 h 1 z m -51.9,-1 h -1 v -1.28 a 5,5 0 0 1 0.89,-2.66 l 0.81,0.54 a 4.08,4.08 0 0 0 -0.72,2.12 z m 3.59,-5.53 -0.48,-0.85 3.32,-1.92 0.49,0.85 z m 48.31,-1.15 h -1 v -3.84 h 1 z m -41.65,-2.73 -0.49,-0.85 3.33,-1.92 0.48,0.85 z m 6.65,-3.84 -0.48,-0.85 3.32,-1.92 0.49,0.85 z m 35,-1.15 h -1 v -3.85 h 1 z m -28.34,-2.69 -0.49,-0.85 3.33,-1.96 0.48,0.85 z m 6.65,-3.81 -0.49,-0.85 3.33,-1.92 0.49,0.85 z m 21.69,-1.16 h -1 V 292 h 1 z m -15,-2.68 -0.48,-0.85 3.33,-1.92 0.48,0.85 z m 6.66,-3.84 -0.49,-0.85 3.33,-1.92 0.49,0.85 z"
         style="fill:#7a634d"
         id="path11" />
    </g>
  </g>
  <g
     id="g52"
     transform="translate(-9.3,-34.406962)">
    <g
       id="freepik--magnifying-glass--inject-2">
      <path
         d="m 78.33,398.94 a 0.66,0.66 0 0 0 0,-0.14 l 3.09,-81.61 v 0 a 3.82,3.82 0 0 1 2.29,-3.19 12.21,12.21 0 0 1 11.07,0.15 4,4 0 0 1 2.29,3.24 v 0 l 3.11,81.69 a 0.57,0.57 0 0 1 0,0.13 c 0,0.07 0,0.14 0,0.22 A 10.77,10.77 0 0 1 89.25,410.24 11.13,11.13 0 0 1 78.31,399.13 c 0.01,-0.05 0.02,-0.13 0.02,-0.19 z"
         style="fill:#37474f"
         id="path15" />
      <path
         d="m 94.78,314.17 c 3.06,1.81 3.06,4.68 0,6.41 a 12.21,12.21 0 0 1 -11.07,-0.15 c -3.06,-1.82 -3.06,-4.68 0,-6.41 a 12.21,12.21 0 0 1 11.07,0.15 z"
         style="fill:#263238"
         id="path17" />
      <path
         d="m 93.29,396.19 -1.76,-74.53 a 10,10 0 0 0 3.25,-1.08 3.84,3.84 0 0 0 2.3,-3.15 l 3.1,81.67 a 0.57,0.57 0 0 1 0,0.13 c 0,0.07 0,0.14 0,0.22 a 10.77,10.77 0 0 1 -10.93,10.81 c 3.41,-0.83 4.24,-6.74 4.04,-14.07 z"
         style="fill:#455a64"
         id="path19" />
      <path
         d="m 85.9,293.7 a 7.34,7.34 0 0 1 6.69,0.09 2.39,2.39 0 0 1 1.39,2 v 0 21.61 0 a 2.31,2.31 0 0 1 -1.39,1.92 7.37,7.37 0 0 1 -6.69,-0.09 2.4,2.4 0 0 1 -1.39,-2 v -21.61 0 a 2.3,2.3 0 0 1 1.39,-1.92 z"
         style="fill:#e0e0e0"
         id="path21" />
      <path
         d="m 94,307.63 v -8 q -4.77,1.06 -9.47,1.7 v 7.9 c 3.14,-0.42 6.3,-0.95 9.47,-1.6 z"
         style="opacity:0.25"
         id="path23" />
      <path
         d="m 138.83,179.58 -16,-9.24 c -9,-5.17 -21.34,-4.42 -35,3.47 C 60.46,189.6 38.29,228 38.29,259.6 c 0,15.79 5.54,26.88 14.51,32.06 l 16,9.22 a 25.44,25.44 0 0 0 12.9,3.29 c 6.66,0 14.17,-2.17 22.12,-6.76 27.35,-15.79 49.53,-54.2 49.53,-85.78 -0.03,-15.78 -5.57,-26.87 -14.52,-32.05 z M 116,247.29 c -8.67,15 -20.09,27.13 -32.14,34.09 -6.3,3.62 -12.43,5.62 -17.76,5.7 -2.59,-4.58 -4,-10.77 -4,-18.26 0,-13.92 4.78,-29.86 13.45,-44.88 8.67,-15.02 20.09,-27.13 32.14,-34.09 6.32,-3.65 12.46,-5.62 17.8,-5.71 2.57,4.6 4,10.78 4,18.27 -0.02,13.91 -4.79,29.85 -13.49,44.88 z"
         style="fill:#7a634d"
         id="path25" />
      <path
         d="M 51.23,213.57 74,226.73 q 0.77,-1.41 1.56,-2.79 a 113.71,113.71 0 0 1 9,-13.28 L 61.71,197.48 a 120.38,120.38 0 0 0 -10.48,16.09 z m 22.55,-29.31 q -3.45,3.17 -6.68,6.76 L 90,204.26 a 91.14,91.14 0 0 1 6.88,-6.65 z"
         style="opacity:0.1;fill:#ffffff"
         id="path27" />
      <path
         d="M 68.71,300.84 52.8,291.66 c -9,-5.18 -14.51,-16.27 -14.51,-32.06 0,-0.61 0,-1.22 0,-1.83 l 16,9.22 q 0,0.92 0,1.83 c -0.03,15.74 5.5,26.83 14.42,32.02 z"
         style="opacity:0.25"
         id="path29" />
      <path
         d="m 125.91,184.13 h -0.39 c 2.57,4.6 4,10.78 4,18.27 0,13.91 -4.77,29.85 -13.45,44.88 -8.68,15.03 -20.09,27.13 -32.14,34.09 -6.37,3.63 -12.5,5.63 -17.83,5.71 a 17,17 0 0 0 15.57,9.23 c 5.43,0 11.71,-2 18.19,-5.71 12,-7 23.46,-19.06 32.14,-34.09 8.68,-15.03 13.45,-31 13.45,-44.88 0,-17.21 -7.3,-27.5 -19.54,-27.5 z"
         style="fill:#7a634d"
         id="path31" />
      <path
         d="m 125.91,184.13 h -0.39 c 2.57,4.6 4,10.78 4,18.27 0,13.91 -4.77,29.85 -13.45,44.88 -8.68,15.03 -20.09,27.13 -32.14,34.09 -6.37,3.63 -12.5,5.63 -17.83,5.71 a 17,17 0 0 0 15.57,9.23 c 5.43,0 11.71,-2 18.19,-5.71 12,-7 23.46,-19.06 32.14,-34.09 8.68,-15.03 13.45,-31 13.45,-44.88 0,-17.21 -7.3,-27.5 -19.54,-27.5 z"
         style="opacity:0.25"
         id="path33" />
      <path
         d="m 138,207.36 c 0,13.91 -4.78,29.86 -13.45,44.88 -8.67,15.02 -20.1,27.13 -32.15,34.09 C 86,290.06 79.66,292 74.24,292 a 19.19,19.19 0 0 1 -4.88,-0.61 v 0 a 19.83,19.83 0 0 1 -3.25,-4.35 c -2.59,-4.58 -4,-10.77 -4,-18.26 0,-13.92 4.78,-29.86 13.45,-44.88 8.67,-15.02 20.09,-27.13 32.14,-34.09 6.32,-3.65 12.46,-5.62 17.8,-5.71 h 0.39 a 18.42,18.42 0 0 1 4.9,0.63 c 4.66,4.66 7.21,12.42 7.21,22.63 z"
         style="opacity:0.3;fill:#ffffff"
         id="path35" />
      <path
         d="m 103.79,183 c -27.35,15.8 -49.53,54.2 -49.53,85.79 0,31.59 22.18,44.39 49.53,28.59 27.35,-15.8 49.53,-54.2 49.53,-85.78 0,-31.58 -22.18,-44.36 -49.53,-28.6 z m -3.93,107.6 c -6.48,3.73 -12.76,5.71 -18.19,5.71 A 17,17 0 0 1 66.1,287.08 c -2.59,-4.58 -4,-10.77 -4,-18.26 0,-13.92 4.78,-29.86 13.45,-44.88 8.67,-15.02 20.09,-27.13 32.14,-34.09 6.32,-3.65 12.46,-5.62 17.8,-5.71 h 0.39 c 12.24,0 19.54,10.29 19.54,27.5 0,13.91 -4.77,29.86 -13.45,44.88 -8.68,15.02 -20.06,27.12 -32.11,34.08 z"
         style="fill:#7a634d"
         id="path37" />
      <g
         style="opacity:0.3"
         id="g41">
        <path
           d="m 103.79,183 c -27.35,15.8 -49.53,54.2 -49.53,85.79 0,31.59 22.18,44.39 49.53,28.59 27.35,-15.8 49.53,-54.2 49.53,-85.78 0,-31.58 -22.18,-44.36 -49.53,-28.6 z m -3.93,107.6 c -6.48,3.73 -12.76,5.71 -18.19,5.71 A 17,17 0 0 1 66.1,287.08 c -2.59,-4.58 -4,-10.77 -4,-18.26 0,-13.92 4.78,-29.86 13.45,-44.88 8.67,-15.02 20.09,-27.13 32.14,-34.09 6.32,-3.65 12.46,-5.62 17.8,-5.71 h 0.39 c 12.24,0 19.54,10.29 19.54,27.5 0,13.91 -4.77,29.86 -13.45,44.88 -8.68,15.02 -20.06,27.12 -32.11,34.08 z"
           style="fill:#ffffff"
           id="path39" />
      </g>
      <g
         style="opacity:0.3"
         id="g45">
        <path
           d="m 66.28,224.54 a 114.61,114.61 0 0 0 -10.06,28.14 79.78,79.78 0 0 0 -1.69,14.85 55.3,55.3 0 0 0 1.63,14.79 32.87,32.87 0 0 0 6.57,13.21 23.75,23.75 0 0 0 12.44,7.67 31,31 0 0 0 14.77,-0.2 53.39,53.39 0 0 0 13.85,-5.57 53.45,53.45 0 0 1 -13.79,5.83 31.29,31.29 0 0 1 -14.93,0.32 24.21,24.21 0 0 1 -12.72,-7.73 33.33,33.33 0 0 1 -6.76,-13.38 56.23,56.23 0 0 1 -1.55,-15 81.41,81.41 0 0 1 1.79,-14.92 104.78,104.78 0 0 1 4.23,-14.41 120.63,120.63 0 0 1 6.22,-13.6 z"
           style="fill:#ffffff"
           id="path43" />
      </g>
      <g
         style="opacity:0.3"
         id="g49">
        <path
           d="m 125.91,184.13 a 18.9,18.9 0 0 1 7.27,1.34 16.85,16.85 0 0 1 6,4.3 22.51,22.51 0 0 1 3.9,6.36 34,34 0 0 1 2.06,7.19 57.56,57.56 0 0 1 0.42,14.89 82,82 0 0 1 -2.77,14.65 95.69,95.69 0 0 1 -5.11,14 115.24,115.24 0 0 1 -7,13.17 102.64,102.64 0 0 1 -19,22.92 72.16,72.16 0 0 1 -12.19,8.69 42.27,42.27 0 0 1 -14.12,5.1 23.21,23.21 0 0 1 -7.62,-0.09 17,17 0 0 1 -7,-3.09 16.24,16.24 0 0 1 -2.75,-2.62 19.42,19.42 0 0 1 -2.22,-3.12 27.22,27.22 0 0 1 -2.81,-7 49.53,49.53 0 0 1 -1.26,-14.89 76.88,76.88 0 0 1 2.29,-14.73 96.64,96.64 0 0 1 4.82,-14 109.45,109.45 0 0 1 6.75,-13.21 107.53,107.53 0 0 0 -10.82,27.45 76.35,76.35 0 0 0 -2.05,14.56 48.17,48.17 0 0 0 1.43,14.53 26.07,26.07 0 0 0 2.78,6.67 17.61,17.61 0 0 0 4.7,5.31 15.73,15.73 0 0 0 6.46,2.81 21.39,21.39 0 0 0 7.14,0 40.74,40.74 0 0 0 13.6,-5 71.13,71.13 0 0 0 11.88,-8.55 100.94,100.94 0 0 0 18.82,-22.5 110.61,110.61 0 0 0 12.16,-26.75 80.26,80.26 0 0 0 2.94,-14.41 57.17,57.17 0 0 0 -0.19,-14.67 32.52,32.52 0 0 0 -1.85,-7.08 21.88,21.88 0 0 0 -3.66,-6.31 16.62,16.62 0 0 0 -5.83,-4.37 18.91,18.91 0 0 0 -7.17,-1.55 z"
           style="fill:#ffffff"
           id="path47" />
      </g>
    </g>
  </g>
  <g
     id="freepik--Device--inject-2"
     transform="translate(-9.3,-34.406962)">
    <g
       id="freepik--Mobile--inject-2">
      <path
         d="M 275.42,347.68 V 59.75 c 0,-7.41 -3.68,-9.45 -6.95,-11.34 -3.27,-1.89 -8.65,-3 -13.29,-0.35 l -118.9,68.65 c -4.64,2.68 -8.41,9.2 -8.41,14.56 v 287.94 c 0,5.36 3.36,8.52 6.63,10.41 3.27,1.89 9,3.95 13.61,1.27 L 267,362.25 a 15.84,15.84 0 0 0 8.42,-14.57 z"
         style="fill:#37474f"
         id="path54" />
      <path
         d="M 267.86,350.41 145.59,421 V 131.82 L 130.33,123 a 17.16,17.16 0 0 0 -2.46,8.28 v 287.93 c 0,5.36 3.36,8.52 6.63,10.41 3.27,1.89 9,3.95 13.61,1.27 L 267,362.25 a 16.09,16.09 0 0 0 7.28,-8.13 l -0.47,-0.27 z"
         style="fill:#263238"
         id="path56" />
      <path
         d="m 266.79,57.26 -119.24,68.85 a 13.06,13.06 0 0 0 -5.9,10.21 v 285.6 c 0,5.75 4.09,8.11 9.07,5.22 l 116.07,-67 a 14.84,14.84 0 0 0 6.69,-11.59 V 61.12 c 0,-4.25 -3.01,-5.98 -6.69,-3.86 z"
         style="fill:#455a64"
         id="path58" />
      <path
         d="m 267.66,74.77 v 267 a 14.08,14.08 0 0 1 -6.35,11 l -107.5,62.06 c -3.5,2 -6.35,0.4 -6.35,-3.66 V 142.22 a 14.21,14.21 0 0 1 4.46,-9.57 c 0.2,-0.18 0.4,-0.37 0.6,-0.54 a 12.94,12.94 0 0 1 1.29,-0.89 l 30.24,-17.45 c 0,0 0.88,-0.52 2,-1.14 1.12,-0.62 2,-0.13 2,1.14 0,1.27 0.94,1.73 2.11,1 l 35.23,-20.34 a 4.51,4.51 0 0 0 2.05,-3.43 4.44,4.44 0 0 1 1.77,-3.3 l 0.2,-0.13 29.59,-17.07 0.63,-0.37 c 4.42,-2.55 8.03,-0.47 8.03,4.64 z"
         id="path60" />
      <path
         d="m 252.08,345.62 a 14.05,14.05 0 0 0 6.35,-11 V 70.82 l -29,16.75 -0.2,0.13 a 4.44,4.44 0 0 0 -1.77,3.3 4.51,4.51 0 0 1 -2.11,3.48 l -35.25,20.34 c -1.17,0.68 -2.11,0.2 -2.11,-1 0,-1.2 -0.88,-1.77 -2,-1.14 -1.12,0.63 -2,1.14 -2,1.14 l -30.24,17.45 a 12.94,12.94 0 0 0 -1.29,0.89 c -0.2,0.17 -0.4,0.36 -0.6,0.54 a 14.21,14.21 0 0 0 -4.46,9.57 V 406 Z"
         style="fill:#263238"
         id="path62" />
      <path
         d="m 195.45,104.08 16.15,-9.33 c 1,-0.55 1.75,-0.16 1.75,0.89 a 3.74,3.74 0 0 1 -1.75,2.89 l -16.15,9.33 c -1,0.56 -1.75,0.16 -1.75,-0.88 a 3.73,3.73 0 0 1 1.75,-2.9 z"
         style="fill:#263238"
         id="path64" />
      <path
         d="m 219.89,89.2 c 1.08,-0.63 2,-0.12 2,1.14 a 4.36,4.36 0 0 1 -2,3.4 c -1.09,0.63 -2,0.12 -2,-1.13 a 4.34,4.34 0 0 1 2,-3.41 z"
         style="fill:#263238"
         id="path66" />
      <path
         d="m 138.9,165.82 a 7.08,7.08 0 0 0 -3.11,-5.62 2.07,2.07 0 0 0 -2.13,-0.18 c -0.39,0.24 -1.92,1.09 -2.33,1.33 a 2.44,2.44 0 0 0 -1,2.21 V 187 a 7.13,7.13 0 0 0 3.11,5.62 2.1,2.1 0 0 0 2.06,0.22 l 2.4,-1.37 a 2.44,2.44 0 0 0 1,-2.21 z"
         style="fill:#455a64"
         id="path68" />
      <path
         d="m 136.59,167.15 v 23.46 c 0,2.11 -1.39,3 -3.11,2 a 7.13,7.13 0 0 1 -3.11,-5.62 v -23.43 c 0,-2.11 1.4,-3 3.11,-2 a 7.1,7.1 0 0 1 3.11,5.59 z"
         style="fill:#37474f"
         id="path70" />
      <path
         d="m 138.9,206.88 a 7.1,7.1 0 0 0 -3.11,-5.62 2.07,2.07 0 0 0 -2.13,-0.18 c -0.39,0.24 -1.92,1.09 -2.33,1.34 a 2.43,2.43 0 0 0 -1,2.2 v 23.46 a 7.11,7.11 0 0 0 3.11,5.62 2.1,2.1 0 0 0 2.06,0.22 c 0.42,-0.22 2,-1.13 2.4,-1.37 a 2.43,2.43 0 0 0 1,-2.21 z"
         style="fill:#455a64"
         id="path72" />
      <path
         d="m 136.59,208.21 v 23.46 c 0,2.12 -1.39,3 -3.11,2 a 7.11,7.11 0 0 1 -3.11,-5.62 v -23.43 c 0,-2.11 1.4,-3 3.11,-2 a 7.1,7.1 0 0 1 3.11,5.59 z"
         style="fill:#37474f"
         id="path74" />
    </g>
  </g>
  <g
     id="freepik--Screen--inject-2"
     transform="translate(-9.3,-34.406962)">
    <g
       id="freepik--Window--inject-2">
      <g
         id="freepik--window--inject-2">
        <path
           d="m 285.46,81.12 c -1.48,-0.85 -3.51,-0.73 -5.75,0.56 l -0.64,0.38 -30.07,17.33 -0.2,0.12 a 4.53,4.53 0 0 0 -1.8,3.36 4.56,4.56 0 0 1 -2.14,3.53 l -35.77,20.65 a 0.2,0.2 0 0 1 -0.08,0 1.34,1.34 0 0 0 -0.58,-1.22 l -2.06,-1.19 a 1.42,1.42 0 0 0 -1.42,0.15 L 203,126 172.3,143.7 a 10.91,10.91 0 0 0 -1.31,0.9 c -0.21,0.17 -0.4,0.36 -0.61,0.55 a 14.42,14.42 0 0 0 -4.53,9.72 v 273 c 0,2.06 0.72,3.49 1.88,4.17 l 2.09,1.2 c 1.16,0.67 2.77,0.57 4.55,-0.46 l 109.12,-63 a 14.27,14.27 0 0 0 6.44,-11.18 v -271 c 0,-2.59 -0.91,-4.41 -2.38,-5.26 z"
           style="fill:#7a634d"
           id="path78" />
        <path
           d="m 175,431.88 v 0.54 l -0.62,0.35 c -1.77,1 -3.38,1.13 -4.54,0.46 l -2.08,-1.2 c -1.17,-0.68 -1.88,-2.12 -1.88,-4.17 v -273 a 13.47,13.47 0 0 1 2.22,-6.89 l 2.46,1.42 a 13,13 0 0 0 -2.16,6.66 v 273 a 5,5 0 0 0 0.89,3.11 2.73,2.73 0 0 0 2.21,1 5.49,5.49 0 0 0 2.66,-0.83 z"
           style="opacity:0.3"
           id="path80" />
        <path
           d="m 250.32,102 a 3.79,3.79 0 0 0 -0.75,2.09 4.58,4.58 0 0 1 -0.8,2.39 L 246.29,105 a 4,4 0 0 0 0.76,-2.16 4.33,4.33 0 0 1 0.8,-2.32 z"
           style="opacity:0.3"
           id="path82" />
        <path
           d="m 171.48,433.2 a 2.74,2.74 0 0 1 -2.21,-1 5,5 0 0 1 -0.89,-3.12 v -273 a 14,14 0 0 1 4.38,-9.38 l 0.19,-0.18 0.4,-0.36 a 10.62,10.62 0 0 1 1.25,-0.85 l 30.69,-17.72 2,-1.15 a 1.29,1.29 0 0 1 0.67,-0.22 c 0.58,0 0.64,0.68 0.64,1 a 1.65,1.65 0 0 0 1.59,1.85 2.44,2.44 0 0 0 1.24,-0.38 L 247.2,108 a 5,5 0 0 0 2.37,-3.93 4,4 0 0 1 1.6,-3 l 0.17,-0.1 30,-17.33 0.65,-0.38 a 7,7 0 0 1 3.39,-1 c 2.52,0 4.08,2 4.08,5.36 v 271 a 13.75,13.75 0 0 1 -6.22,10.78 l -109.12,63 a 5.35,5.35 0 0 1 -2.64,0.8 z"
           style="fill:#fafafa"
           id="path84" />
        <path
           d="m 285.4,82.23 a 7,7 0 0 0 -3.39,1 l -0.65,0.38 -30,17.33 -0.17,0.1 a 4,4 0 0 0 -1.6,3 5,5 0 0 1 -2.39,3.96 l -35.77,20.65 a 2.44,2.44 0 0 1 -1.24,0.38 1.64,1.64 0 0 1 -1.59,-1.85 c 0,-0.29 -0.06,-1 -0.64,-1 a 1.39,1.39 0 0 0 -0.67,0.22 l -2,1.15 -30.69,17.74 a 9.76,9.76 0 0 0 -1.24,0.85 c -0.14,0.11 -0.27,0.24 -0.41,0.36 l -0.19,0.18 a 14,14 0 0 0 -4.38,9.38 v 28.83 L 289.48,115 V 87.59 c 0,-3.31 -1.56,-5.36 -4.08,-5.36 z"
           style="fill:#7a634d"
           id="path86" />
        <g
           style="opacity:0.3"
           id="g90">
          <path
             d="m 285.4,82.23 a 7,7 0 0 0 -3.39,1 l -0.65,0.38 -30,17.33 -0.17,0.1 a 4,4 0 0 0 -1.6,3 5,5 0 0 1 -2.39,3.96 l -35.77,20.65 a 2.44,2.44 0 0 1 -1.24,0.38 1.64,1.64 0 0 1 -1.59,-1.85 c 0,-0.29 -0.06,-1 -0.64,-1 a 1.39,1.39 0 0 0 -0.67,0.22 l -2,1.15 -30.69,17.74 a 9.76,9.76 0 0 0 -1.24,0.85 c -0.14,0.11 -0.27,0.24 -0.41,0.36 l -0.19,0.18 a 14,14 0 0 0 -4.38,9.38 v 28.83 L 289.48,115 V 87.59 c 0,-3.31 -1.56,-5.36 -4.08,-5.36 z"
             style="fill:#ffffff"
             id="path88" />
        </g>
        <path
           d="m 177.11,156.15 a 0.39,0.39 0 0 1 0,0.18 c 0,0.06 -0.07,0.11 -0.12,0.13 l -0.24,0.14 q -0.08,0 -0.12,0 a 0.14,0.14 0 0 1 -0.05,-0.12 v -4.4 l -1,1.54 a 0.2,0.2 0 0 1 -0.12,0.12 c 0,0 -0.08,0 -0.1,0 l -0.15,-0.16 a 0.16,0.16 0 0 1 0,-0.14 0.35,0.35 0 0 1 0.06,-0.18 l 1.28,-2.05 0.1,-0.12 0.1,-0.06 0.24,-0.14 a 0.09,0.09 0 0 1 0.12,0 c 0,0 0,0.06 0,0.12 z"
           style="fill:#fafafa"
           id="path92" />
        <path
           d="m 179.64,154.7 a 0.41,0.41 0 0 1 0,0.18 0.23,0.23 0 0 1 -0.12,0.12 l -0.24,0.15 a 0.13,0.13 0 0 1 -0.12,0 c 0,0 0,-0.07 0,-0.13 v -4.4 l -1,1.55 a 0.24,0.24 0 0 1 -0.12,0.11 0.1,0.1 0 0 1 -0.11,0 l -0.15,-0.17 a 0.2,0.2 0 0 1 0,-0.14 0.64,0.64 0 0 1 0.06,-0.18 l 1.29,-2.05 a 0.35,0.35 0 0 1 0.09,-0.11 l 0.1,-0.06 0.24,-0.15 a 0.13,0.13 0 0 1 0.12,0 0.17,0.17 0 0 1 0,0.13 z"
           style="fill:#fafafa"
           id="path94" />
        <path
           d="m 181.05,150.33 a 0.11,0.11 0 0 1 0.11,0 c 0,0 0.05,0.07 0.05,0.13 V 151 a 0.31,0.31 0 0 1 -0.05,0.18 0.36,0.36 0 0 1 -0.11,0.13 l -0.4,0.23 a 0.09,0.09 0 0 1 -0.12,0 c 0,0 0,-0.06 0,-0.12 v -0.54 a 0.39,0.39 0 0 1 0,-0.18 0.28,0.28 0 0 1 0.12,-0.12 z m 0,2.8 a 0.08,0.08 0 0 1 0.11,0 c 0,0 0.05,0.06 0.05,0.12 v 0.54 a 0.33,0.33 0 0 1 -0.05,0.18 0.36,0.36 0 0 1 -0.11,0.13 l -0.4,0.23 a 0.13,0.13 0 0 1 -0.12,0 0.17,0.17 0 0 1 0,-0.13 v -0.53 a 0.39,0.39 0 0 1 0,-0.18 0.38,0.38 0 0 1 0.12,-0.13 z"
           style="fill:#fafafa"
           id="path96" />
        <path
           d="m 182.44,151.84 a 0.49,0.49 0 0 0 0.34,0.4 0.82,0.82 0 0 0 0.61,-0.14 1.64,1.64 0 0 0 0.37,-0.28 2.31,2.31 0 0 0 0.31,-0.39 2.55,2.55 0 0 0 0.2,-0.48 2,2 0 0 0 0.08,-0.55 1.21,1.21 0 0 0 -0.08,-0.47 0.45,0.45 0 0 0 -0.2,-0.24 0.52,0.52 0 0 0 -0.31,-0.05 1.11,1.11 0 0 0 -0.37,0.15 1.53,1.53 0 0 0 -0.36,0.27 2.42,2.42 0 0 0 -0.22,0.28 l -0.16,0.23 a 0.41,0.41 0 0 1 -0.16,0.16 l -0.3,0.18 c 0,0 -0.07,0 -0.09,0 a 0.12,0.12 0 0 1 0,-0.1 l 0.18,-2.78 a 0.38,0.38 0 0 1 0,-0.17 c 0,-0.07 0.07,-0.11 0.12,-0.13 l 2.11,-1.23 a 0.13,0.13 0 0 1 0.12,0 0.17,0.17 0 0 1 0,0.13 v 0.28 a 0.39,0.39 0 0 1 0,0.18 0.26,0.26 0 0 1 -0.12,0.13 l -1.74,1 -0.1,1.44 a 2.44,2.44 0 0 1 0.28,-0.29 2.61,2.61 0 0 1 0.44,-0.31 1.56,1.56 0 0 1 0.59,-0.21 0.67,0.67 0 0 1 0.49,0.09 0.84,0.84 0 0 1 0.33,0.4 2.06,2.06 0 0 1 0.11,0.72 3.41,3.41 0 0 1 -0.11,0.85 3.89,3.89 0 0 1 -0.33,0.78 3.53,3.53 0 0 1 -0.49,0.66 2.55,2.55 0 0 1 -0.59,0.46 1.63,1.63 0 0 1 -0.57,0.22 0.85,0.85 0 0 1 -0.48,0 0.62,0.62 0 0 1 -0.33,-0.29 1,1 0 0 1 -0.13,-0.55 0.27,0.27 0 0 1 0,-0.14 0.2,0.2 0 0 1 0.09,-0.11 l 0.27,-0.16 a 0.12,0.12 0 0 1 0.1,0 0.14,0.14 0 0 1 0.1,0.06 z"
           style="fill:#fafafa"
           id="path98" />
        <path
           d="m 186,149.89 a 0.66,0.66 0 0 0 0.08,0.21 0.31,0.31 0 0 0 0.16,0.14 0.7,0.7 0 0 0 0.29,0 2.11,2.11 0 0 0 0.47,-0.24 1.67,1.67 0 0 0 0.35,-0.26 1.48,1.48 0 0 0 0.29,-0.36 1.54,1.54 0 0 0 0.2,-0.43 1.57,1.57 0 0 0 0.08,-0.49 1.06,1.06 0 0 0 -0.07,-0.4 0.33,0.33 0 0 0 -0.2,-0.17 0.48,0.48 0 0 0 -0.29,0 1.82,1.82 0 0 0 -0.36,0.16 l -0.5,0.29 a 0.09,0.09 0 0 1 -0.12,0 c 0,0 0,-0.06 0,-0.12 V 148 a 0.4,0.4 0 0 1 0,-0.15 l 0.06,-0.14 1.08,-2.18 -1.72,1 a 0.13,0.13 0 0 1 -0.12,0 0.14,0.14 0 0 1 -0.05,-0.12 v -0.29 a 0.41,0.41 0 0 1 0.05,-0.18 0.3,0.3 0 0 1 0.12,-0.13 l 2.36,-1.36 a 0.08,0.08 0 0 1 0.11,0 0.14,0.14 0 0 1 0,0.12 v 0.29 a 0.4,0.4 0 0 1 0,0.15 1.42,1.42 0 0 1 -0.08,0.18 l -1.06,2.14 a 1.51,1.51 0 0 1 0.55,-0.19 0.64,0.64 0 0 1 0.42,0.08 0.72,0.72 0 0 1 0.28,0.35 1.79,1.79 0 0 1 0.1,0.62 2.72,2.72 0 0 1 -0.12,0.8 3.67,3.67 0 0 1 -0.32,0.73 3.59,3.59 0 0 1 -0.48,0.61 2.35,2.35 0 0 1 -0.57,0.45 2,2 0 0 1 -0.7,0.28 0.82,0.82 0 0 1 -0.48,-0.05 0.61,0.61 0 0 1 -0.28,-0.29 1.35,1.35 0 0 1 -0.1,-0.46 0.42,0.42 0 0 1 0,-0.15 0.24,0.24 0 0 1 0.1,-0.1 l 0.27,-0.16 c 0,0 0.08,0 0.11,0 a 0.22,0.22 0 0 1 0.09,0.04 z"
           style="fill:#fafafa"
           id="path100" />
        <path
           d="m 195.34,140.48 v 0 m 0,0 -1.85,6.3 V 144 l -2.06,1.19 3.91,-4.75 m 0,-0.46 v 0 a 0.48,0.48 0 0 0 -0.23,0.07 l -0.09,0.08 v 0 l -3.9,4.74 a 0.47,0.47 0 0 0 0,0.6 0.46,0.46 0 0 0 0.35,0.17 0.53,0.53 0 0 0 0.24,-0.06 l 1.35,-0.79 v 1.93 a 0.47,0.47 0 0 0 0.4,0.47 h 0.07 a 0.46,0.46 0 0 0 0.45,-0.33 l 1.84,-6.26 a 0.52,0.52 0 0 0 0,-0.18 0.47,0.47 0 0 0 -0.47,-0.46 z m 0,0.93 z"
           style="fill:#fafafa"
           id="path102" />
        <polygon
           points="258.4,107.41 259.4,106.83 259.4,108.8 258.4,109.38 "
           style="fill:#fafafa"
           id="polygon104" />
        <polygon
           points="259.99,105.65 260.99,105.07 260.99,107.88 259.99,108.46 "
           style="fill:#fafafa"
           id="polygon106" />
        <polygon
           points="261.58,103.67 262.58,103.09 262.58,106.96 261.58,107.54 "
           style="fill:#fafafa"
           id="polygon108" />
        <polygon
           points="263.17,101.72 264.18,101.15 264.18,106.04 263.17,106.62 "
           style="fill:#7a634d"
           id="polygon110" />
        <path
           d="m 271.16,97 a 7.51,7.51 0 0 0 -2.65,3 l 0.66,0.53 a 5.54,5.54 0 0 1 2,-2.23 1.79,1.79 0 0 1 2,-0.08 l 0.67,-1.29 A 2.39,2.39 0 0 0 271.16,97 Z m -1.73,3.7 0.61,0.49 a 3.16,3.16 0 0 1 1.12,-1.26 1,1 0 0 1 1.14,0 l 0.61,-1.19 a 1.54,1.54 0 0 0 -1.75,0.06 4.86,4.86 0 0 0 -1.73,1.88 z m 0.9,0.72 0.83,0.67 0.85,-1.66 a 0.76,0.76 0 0 0 -0.85,0 2.23,2.23 0 0 0 -0.83,0.97 z"
           style="fill:#fafafa"
           id="path112" />
        <path
           d="m 283.27,90.12 c 0.36,-0.21 0.65,0 0.65,0.49 v 3.16 a 1.57,1.57 0 0 1 -0.65,1.25 l -5.64,3.25 c -0.36,0.21 -0.65,0 -0.65,-0.49 v -3.16 a 1.55,1.55 0 0 1 0.65,-1.24 l 5.64,-3.26 m 0,-0.27 -5.64,3.26 a 2,2 0 0 0 -0.85,1.63 v 3.16 c 0,0.63 0.38,0.92 0.85,0.64 l 5.64,-3.25 a 2.05,2.05 0 0 0 0.85,-1.63 V 90.5 c 0,-0.63 -0.38,-0.92 -0.85,-0.65 z"
           style="fill:#7a634d"
           id="path114" />
        <path
           d="m 281,95.55 -3.18,1.83 c -0.15,0.09 -0.26,0 -0.26,-0.2 v -2.62 a 0.61,0.61 0 0 1 0.26,-0.5 L 281,92.23 c 0.14,-0.09 0.26,0 0.26,0.2 v 2.62 a 0.64,0.64 0 0 1 -0.26,0.5 z"
           style="fill:#fafafa"
           id="path116" />
        <path
           d="m 284.73,92.58 -0.23,0.13 V 91 l 0.23,-0.13 c 0.12,-0.07 0.23,0.25 0.23,0.73 a 1.55,1.55 0 0 1 -0.23,0.98 z"
           style="fill:#7a634d"
           id="path118" />
        <path
           d="m 274.68,110.23 a 2.57,2.57 0 0 0 -1.07,2 c 0,0.79 0.48,1.15 1.07,0.81 a 2.57,2.57 0 0 0 1.07,-2 c 0,-0.79 -0.48,-1.15 -1.07,-0.81 z m 8.17,-4.72 a 2.58,2.58 0 0 0 -1.08,2 c 0,0.79 0.49,1.16 1.08,0.81 a 2.57,2.57 0 0 0 1.07,-2.05 c 0,-0.74 -0.48,-1.1 -1.07,-0.76 z m -4.09,2.36 a 2.57,2.57 0 0 0 -1.07,2 c 0,0.79 0.48,1.15 1.07,0.81 a 2.55,2.55 0 0 0 1.08,-2 c 0,-0.79 -0.48,-1.15 -1.08,-0.81 z"
           style="fill:#fafafa"
           id="path120" />
        <path
           d="m 285.4,82.69 v 0 c 2.27,0 3.62,1.83 3.62,4.9 v 271 A 13.42,13.42 0 0 1 283,369 l -109.09,63 a 5,5 0 0 1 -2.43,0.76 c -1.65,0 -2.64,-1.38 -2.64,-3.69 v -273 a 13.55,13.55 0 0 1 4.22,-9 l 0.21,-0.19 0.36,-0.32 a 9.48,9.48 0 0 1 1.2,-0.82 l 30.69,-17.74 2,-1.15 a 0.9,0.9 0 0 1 0.44,-0.15 c 0.18,0 0.18,0.46 0.18,0.51 a 2.1,2.1 0 0 0 2.05,2.31 2.9,2.9 0 0 0 1.47,-0.44 l 35.77,-20.65 a 5.53,5.53 0 0 0 2.6,-4.33 3.62,3.62 0 0 1 1.41,-2.61 l 0.13,-0.08 30.03,-17.41 0.63,-0.37 a 6.57,6.57 0 0 1 3.17,-1 m 0,-0.92 a 7.32,7.32 0 0 0 -3.63,1.11 l -0.64,0.37 -30,17.33 -0.21,0.13 a 4.53,4.53 0 0 0 -1.79,3.35 4.61,4.61 0 0 1 -2.13,3.6 l -35.8,20.64 a 2,2 0 0 1 -1,0.32 c -0.67,0 -1.13,-0.51 -1.13,-1.39 0,-0.88 -0.45,-1.43 -1.1,-1.43 a 1.8,1.8 0 0 0 -0.9,0.28 l -2,1.15 -30.69,17.72 a 10.17,10.17 0 0 0 -1.31,0.9 l -0.62,0.55 a 14.43,14.43 0 0 0 -4.52,9.72 v 273 c 0,2.92 1.45,4.61 3.56,4.61 a 5.88,5.88 0 0 0 2.89,-0.89 l 109.12,-63 a 14.27,14.27 0 0 0 6.44,-11.18 v -271 c 0,-3.69 -1.84,-5.82 -4.53,-5.82 z"
           style="fill:#7a634d"
           id="path122" />
      </g>
    </g>
  </g>
  <g
     id="freepik--frames-1--inject-2"
     transform="translate(-9.3,-34.406962)">
    <g
       id="g131">
      <path
         d="m 236.09,174.65 h -1 v -1.48 a 1.69,1.69 0 0 0 0,-0.23 l -0.06,-0.19 v -0.06 -0.08 l -0.06,-0.13 -0.2,-0.24 h -0.06 a 0.79,0.79 0 0 0 -0.46,0 l -0.16,-1 a 1.65,1.65 0 0 1 1,0.12 1.35,1.35 0 0 1 0.26,0.15 l 0.07,0.06 a 0.62,0.62 0 0 1 0.14,0.14 l 0.11,0.13 a 0.5,0.5 0 0 1 0.11,0.18 1.17,1.17 0 0 1 0.16,0.36 0.56,0.56 0 0 1 0,0.18 l 0.08,0.15 v 0.07 c 0,0 0,0.08 0,0.12 a 3,3 0 0 1 0,0.31 z"
         style="fill:#7a634d"
         id="path127" />
      <path
         d="m 185.12,280.92 a 2,2 0 0 1 -0.38,-0.05 1.45,1.45 0 0 1 -0.29,-0.11 0.86,0.86 0 0 1 -0.21,-0.11 2.26,2.26 0 0 1 -0.75,-0.91 3.06,3.06 0 0 1 -0.28,-1.29 v -1.06 h 1 v 1.06 a 2.14,2.14 0 0 0 0.17,0.85 1.44,1.44 0 0 0 0.37,0.51 l 0.12,0.07 v 0.51 l 0.11,-0.47 a 0.53,0.53 0 0 0 0.16,0 l 0.11,1 z m 3.71,-1.86 -0.49,-0.85 3.33,-1.92 0.48,0.84 z m 6.65,-3.85 -0.49,-0.84 3.33,-1.92 0.49,0.84 z m -11.29,-1.66 h -1 v -3.84 h 1 z m 17.94,-2.18 -0.48,-0.84 3.35,-1.93 0.49,0.85 z m 6.65,-3.85 -0.48,-0.84 3.32,-1.92 0.49,0.84 z m -24.59,-1.66 h -1 V 262 h 1 z m 31.25,-2.18 -0.49,-0.84 3.33,-1.92 0.48,0.84 z m 6.65,-3.84 -0.49,-0.85 3.33,-1.92 0.49,0.84 z m -37.9,-1.66 h -1 v -3.84 h 1 z m 44.55,-2.18 -0.48,-0.84 3.32,-1.92 0.49,0.84 z m 6.5,-4.38 -0.81,-0.53 a 4,4 0 0 0 0.68,-2.07 v -1.35 h 1 V 249 a 5,5 0 0 1 -0.87,2.61 z m -51.05,-1.11 h -1 v -3.84 h 1 z m 51.9,-6.68 h -1 V 240 h 1 z m -51.9,-1 h -1 V 239 h 1 z m 51.9,-6.69 h -1 v -3.84 h 1 z m -51.9,-1 h -1 v -3.84 h 1 z m 51.9,-6.68 h -1 v -3.84 h 1 z m -51.9,-1 h -1 v -3.84 h 1 z m 51.9,-6.68 h -1 v -3.84 h 1 z m -51.9,-1 h -1 v -3.84 h 1 z m 51.9,-6.69 h -1 v -3.84 h 1 z m -51.9,-1 h -1 v -3.85 h 1 z m 51.9,-6.69 h -1 v -3.84 h 1 z m -51.9,-1 h -1 v -1.28 a 5,5 0 0 1 0.89,-2.66 l 0.81,0.54 a 4.08,4.08 0 0 0 -0.72,2.12 z m 3.59,-5.53 -0.48,-0.85 3.33,-1.92 0.48,0.85 z m 48.31,-1.15 h -1 v -3.84 h 1 z m -41.65,-2.72 -0.49,-0.85 3.33,-1.92 0.49,0.85 z m 6.65,-3.84 -0.48,-0.85 3.32,-1.92 0.49,0.85 z m 35,-1.15 h -1 v -3.85 h 1 z m -28.34,-2.69 -0.49,-0.85 3.33,-1.91 0.48,0.84 z m 6.65,-3.84 -0.48,-0.84 3.32,-1.92 0.49,0.84 z m 21.69,-1.16 h -1 v -3.84 h 1 z m -15,-2.68 -0.49,-0.85 3.33,-1.92 0.48,0.85 z m 6.65,-3.84 -0.49,-0.85 3.33,-1.91 0.49,0.84 z"
         style="fill:#7a634d"
         id="path129" />
    </g>
    <g
       id="g137">
      <path
         d="m 236.09,285.56 h -1 v -1.48 a 1.69,1.69 0 0 0 0,-0.23 l -0.06,-0.19 v -0.06 -0.08 l -0.06,-0.13 -0.19,-0.24 h -0.07 a 0.72,0.72 0 0 0 -0.46,-0.05 l -0.16,-1 a 1.73,1.73 0 0 1 1,0.13 l 0.27,0.15 0.07,0.08 a 0.37,0.37 0 0 1 0.13,0.11 v 0 l 0.1,0.13 a 0.7,0.7 0 0 1 0.11,0.18 1.17,1.17 0 0 1 0.16,0.36 0.93,0.93 0 0 1 0.06,0.18 l 0.07,0.15 v 0.07 c 0,0 0,0.08 0,0.11 0,0.03 0,0.21 0,0.32 z"
         style="fill:#7a634d"
         id="path133" />
      <path
         d="m 185.11,391.82 a 1.3,1.3 0 0 1 -0.37,-0.05 1,1 0 0 1 -0.29,-0.1 l -0.21,-0.11 a 2.33,2.33 0 0 1 -0.75,-0.91 3.06,3.06 0 0 1 -0.28,-1.29 v -1.06 h 1 v 1.06 a 2.14,2.14 0 0 0 0.17,0.85 1.44,1.44 0 0 0 0.37,0.51 l 0.24,0.11 h 0.15 l 0.11,1 z m 3.72,-1.86 -0.49,-0.84 3.33,-1.92 0.48,0.84 z m 6.65,-3.84 -0.49,-0.84 3.33,-1.92 0.49,0.84 z m -11.29,-1.66 h -1 v -3.84 h 1 z m 17.94,-2.18 -0.48,-0.84 3.32,-1.93 0.49,0.84 z m 6.65,-3.85 -0.48,-0.84 3.32,-1.92 0.49,0.84 z m -24.59,-1.66 h -1 v -3.84 h 1 z m 31.25,-2.18 -0.49,-0.84 3.33,-1.92 0.48,0.84 z m 6.65,-3.84 -0.49,-0.85 3.33,-1.92 0.49,0.84 z m -37.9,-1.66 h -1 v -3.84 h 1 z m 44.55,-2.19 -0.48,-0.84 3.32,-1.92 0.49,0.84 z m 6.5,-4.38 -0.81,-0.53 a 4,4 0 0 0 0.68,-2.07 v -1.35 h 1 v 1.35 a 5,5 0 0 1 -0.87,2.6 z m -51.05,-1.11 h -1 v -3.84 h 1 z m 51.9,-6.69 h -1 v -3.84 h 1 z m -51.9,-1 h -1 v -3.85 h 1 z m 51.9,-6.69 h -1 v -3.83 h 1 z m -51.9,-1 h -1 v -3.83 h 1 z m 51.9,-6.68 h -1 v -3.84 h 1 z m -51.9,-1 h -1 v -3.84 h 1 z m 51.9,-6.68 h -1 v -3.85 h 1 z m -51.9,-1 h -1 v -3.84 h 1 z m 51.9,-6.69 h -1 v -3.84 h 1 z m -51.9,-1 h -1 v -3.84 h 1 z m 51.9,-6.68 h -1 v -3.84 h 1 z m -51.9,-1 h -1 V 314 a 5,5 0 0 1 0.89,-2.66 l 0.81,0.54 a 4.08,4.08 0 0 0 -0.72,2.12 z m 3.59,-5.53 -0.48,-0.85 3.33,-1.92 0.48,0.85 z m 48.31,-1.15 h -1 v -3.84 h 1 z m -41.65,-2.69 -0.49,-0.85 3.33,-1.92 0.49,0.85 z m 6.65,-3.84 -0.48,-0.85 3.32,-1.92 0.49,0.85 z m 35,-1.16 h -1 v -3.83 h 1 z m -28.34,-2.68 -0.49,-0.85 3.33,-1.92 0.48,0.85 z m 6.65,-3.84 -0.48,-0.85 3.32,-1.92 0.49,0.85 z m 21.69,-1.16 h -1 v -3.84 h 1 z m -15,-2.68 -0.49,-0.85 3.33,-1.92 0.48,0.85 z m 6.65,-3.84 -0.49,-0.85 3.33,-1.92 0.49,0.85 z"
         style="fill:#7a634d"
         id="path135" />
    </g>
  </g>
  <g
     id="freepik--Code--inject-2"
     transform="translate(-9.3,-34.406962)">
    <g
       id="freepik--code-icon--inject-2">
      <g
         id="freepik--speech-bubble--inject-2">
        <path
           d="M 372.88,36.08 324.53,64 a 3.94,3.94 0 0 0 -1.79,3.09 v 44.82 a 3.89,3.89 0 0 0 1.8,3.07 l 3.4,1.93 a 4,4 0 0 0 3.58,0 L 379.87,89 a 3.94,3.94 0 0 0 1.79,-3.09 V 41.06 a 3.89,3.89 0 0 0 -1.8,-3.07 l -3.4,-1.93 a 4,4 0 0 0 -3.58,0.02 z"
           style="fill:#7a634d"
           id="path140" />
        <path
           d="m 331.52,116.86 a 4.09,4.09 0 0 1 -3.58,0 l -3.4,-1.94 a 3.88,3.88 0 0 1 -1.8,-3.07 V 67.06 a 3.6,3.6 0 0 1 0.57,-1.82 l 6.95,4 a 3.52,3.52 0 0 0 -0.53,1.75 v 44.82 c 0,1.06 0.74,1.66 1.79,1.05 z"
           style="opacity:0.2"
           id="path142" />
        <g
           style="opacity:0.2"
           id="g146">
          <path
             d="m 381.63,40.74 c -0.14,-0.9 -0.87,-1.22 -1.76,-0.71 l -48.35,27.89 a 3.71,3.71 0 0 0 -1.26,1.34 l -7,-4 A 3.49,3.49 0 0 1 324.53,64 l 48.35,-27.9 a 4,4 0 0 1 3.58,0 l 3.4,1.92 a 3.94,3.94 0 0 1 1.77,2.72 z"
             style="fill:#ffffff"
             id="path144" />
        </g>
        <path
           d="M 379.87,40 331.52,67.92 A 4,4 0 0 0 329.73,71 v 44.82 c 0,1.14 0.8,1.6 1.79,1 L 379.87,89 a 3.94,3.94 0 0 0 1.79,-3.09 V 41.06 c 0,-1.14 -0.8,-1.6 -1.79,-1.06 z"
           style="fill:#7a634d"
           id="path148" />
      </g>
      <g
         id="freepik----inject-2">
        <path
           d="m 334.52,90.25 a 2.61,2.61 0 0 1 0.2,-1.1 7.86,7.86 0 0 1 0.56,-1 l 10.54,-17 a 0.93,0.93 0 0 1 0.18,-0.2 0.47,0.47 0 0 1 0.12,-0.09 0.3,0.3 0 0 1 0.39,0 0.69,0.69 0 0 1 0.16,0.52 v 6.57 a 2.79,2.79 0 0 1 -0.31,1.38 9.64,9.64 0 0 1 -0.54,0.9 l -4.61,7.08 4.61,1.8 a 2.18,2.18 0 0 1 0.54,0.26 c 0.21,0.13 0.31,0.46 0.31,1 v 6.57 a 1.53,1.53 0 0 1 -0.16,0.7 1.14,1.14 0 0 1 -0.39,0.48 H 346 a 0.36,0.36 0 0 1 -0.18,0 l -10.54,-4.87 a 1.49,1.49 0 0 1 -0.56,-0.38 1.35,1.35 0 0 1 -0.2,-0.88 z"
           style="fill:#ffffff"
           id="path151" />
        <path
           d="m 357.5,61.36 a 6.24,6.24 0 0 1 0.39,-1.06 2,2 0 0 1 0.77,-0.82 l 3.53,-2 a 0.32,0.32 0 0 1 0.41,0 0.72,0.72 0 0 1 0.17,0.53 2.18,2.18 0 0 1 0,0.39 l -8.91,38 a 5,5 0 0 1 -0.37,1 1.94,1.94 0 0 1 -0.79,0.86 l -3.45,2 a 0.31,0.31 0 0 1 -0.41,0 0.68,0.68 0 0 1 -0.17,-0.53 2.18,2.18 0 0 1 0.05,-0.39 z"
           style="fill:#ffffff"
           id="path153" />
        <path
           d="m 376.87,67.51 a 2.61,2.61 0 0 1 -0.2,1.1 7.28,7.28 0 0 1 -0.56,1 l -10.55,17 a 0.74,0.74 0 0 1 -0.17,0.2 0.47,0.47 0 0 1 -0.12,0.09 0.29,0.29 0 0 1 -0.39,0 0.69,0.69 0 0 1 -0.16,-0.52 v -6.5 a 2.75,2.75 0 0 1 0.3,-1.35 c 0.21,-0.36 0.39,-0.66 0.54,-0.88 l 4.62,-7.13 -4.62,-1.76 a 2,2 0 0 1 -0.54,-0.28 q -0.3,-0.21 -0.3,-1 v -6.59 a 1.53,1.53 0 0 1 0.16,-0.7 1,1 0 0 1 0.39,-0.47 h 0.12 a 0.48,0.48 0 0 1 0.17,0 l 10.55,4.87 a 1.49,1.49 0 0 1 0.56,0.38 1.37,1.37 0 0 1 0.2,0.88 z"
           style="fill:#ffffff"
           id="path155" />
      </g>
    </g>
  </g>
  <g
     id="freepik--Image--inject-2"
     transform="translate(-9.3,-34.406962)">
    <g
       id="freepik--image--inject-2">
      <path
         id="freepik--shadow--inject-2"
         d="m 307.68,129.35 a 1.88,1.88 0 0 0 -0.94,0.29 l -47.64,27.49 a 4.73,4.73 0 0 0 -2.13,3.69 v 75.32 a 2.69,2.69 0 0 0 0.22,1.08 1.84,1.84 0 0 0 0.56,0.71 l 0.19,0.1 a 0.55,0.55 0 0 0 0.18,0.06 1.26,1.26 0 0 0 0.27,0 v 0 a 1.37,1.37 0 0 0 0.68,-0.21 l 47.64,-27.52 a 4.73,4.73 0 0 0 2.13,-3.69 v -75.8 c 0,-0.09 0,-0.19 0,-0.27 a 1.06,1.06 0 0 0 0,-0.19 c 0,0 0,0 0,0 a 0.35,0.35 0 0 0 -0.05,-0.18 1,1 0 0 0 -0.12,-0.28 l -0.07,-0.11 -0.06,-0.08 -0.14,-0.14 v 0 a 0.64,0.64 0 0 0 -0.18,-0.1 1.14,1.14 0 0 0 -0.49,-0.11 z"
         style="opacity:0.15" />
      <g
         id="g173">
        <path
           d="m 318.36,133.69 a 1.88,1.88 0 0 0 -0.94,0.29 l -47.65,27.49 a 4.72,4.72 0 0 0 -2.13,3.68 v 75.33 a 2.53,2.53 0 0 0 0.23,1.08 1.82,1.82 0 0 0 0.56,0.71 1.26,1.26 0 0 0 0.18,0.1 1.06,1.06 0 0 0 0.19,0.06 h 0.27 v 0 a 1.29,1.29 0 0 0 0.67,-0.2 l 47.65,-27.53 a 4.68,4.68 0 0 0 2.12,-3.68 V 135.2 a 2.17,2.17 0 0 0 0,-0.26 1.38,1.38 0 0 0 0,-0.2 1.05,1.05 0 0 0 -0.05,-0.19 1,1 0 0 0 -0.13,-0.27 0.26,0.26 0 0 0 -0.07,-0.11 0.24,0.24 0 0 0 -0.06,-0.08 l -0.14,-0.14 v 0 l -0.18,-0.11 a 1.3,1.3 0 0 0 -0.49,-0.1 z"
           style="fill:#455a64"
           id="path161" />
        <path
           d="m 318.85,133.79 a 1.55,1.55 0 0 0 -1.44,0.19 l -47.63,27.48 a 4.29,4.29 0 0 0 -1.49,1.58 v 0 l -5.45,-3.11 a 4.17,4.17 0 0 1 1.48,-1.55 L 312,130.89 a 1.46,1.46 0 0 1 1.54,-0.13 c 0.35,0.24 4.85,2.8 5.31,3.03 z"
           style="fill:#37474f"
           id="path163" />
        <path
           d="m 307.48,142.65 a 3.21,3.21 0 0 0 -1.2,2.55 c 0,1 0.54,1.54 1.2,1.15 a 3.17,3.17 0 0 0 1.2,-2.54 c 0,-1.02 -0.54,-1.54 -1.2,-1.16 z"
           style="fill:#fafafa"
           id="path165" />
        <path
           d="m 311.8,140.15 a 3.19,3.19 0 0 0 -1.2,2.55 c 0,1 0.54,1.54 1.2,1.15 a 3.14,3.14 0 0 0 1.2,-2.54 c 0,-1.02 -0.53,-1.54 -1.2,-1.16 z"
           style="fill:#fafafa"
           id="path167" />
        <path
           d="m 316.13,137.65 a 3.16,3.16 0 0 0 -1.2,2.55 c 0,1 0.53,1.53 1.2,1.15 a 3.17,3.17 0 0 0 1.2,-2.54 c 0,-1.02 -0.54,-1.54 -1.2,-1.16 z"
           style="fill:#fafafa"
           id="path169" />
        <path
           d="m 267.87,241.56 a 3.08,3.08 0 0 1 -0.23,-1.08 v -68.38 0 -7 a 4.36,4.36 0 0 1 0.63,-2.11 l -5.45,-3.11 a 4.43,4.43 0 0 0 -0.65,2.13 v 6.99 0 68.37 a 2.68,2.68 0 0 0 0.24,1.13 1.74,1.74 0 0 0 0.65,0.72 c 0,0 4.89,2.81 5.08,2.93 l 0.27,0.15 a 1.93,1.93 0 0 1 -0.54,-0.74 z"
           style="fill:#263238"
           id="path171" />
      </g>
      <path
         d="M 311.4,204.4 275.79,225 c -1.56,0.9 -2.83,-0.06 -2.83,-2.14 v -45.7 a 6.77,6.77 0 0 1 2.83,-5.4 L 311.4,151.2 c 1.56,-0.91 2.83,0.05 2.83,2.13 V 199 a 6.79,6.79 0 0 1 -2.83,5.4 z"
         style="fill:#7a634d"
         id="path175" />
      <polygon
         points="301.7,183.35 297.65,194.17 288.61,174.43 277.39,213.96 309.8,195.24 "
         style="fill:#fafafa"
         id="polygon177" />
      <ellipse
         cx="302.32999"
         cy="171.07001"
         rx="5.25"
         ry="2.97"
         transform="rotate(-66.95,302.32499,171.0722)"
         style="fill:#fafafa"
         id="ellipse179" />
    </g>
  </g>
  <g
     id="freepik--Typography--inject-2"
     transform="translate(-9.3,-34.406962)">
    <g
       id="freepik--Type--inject-2">
      <path
         id="path183"
         d="m 307.68,240.38 a 1.88,1.88 0 0 0 -0.94,0.29 l -47.64,27.49 a 4.72,4.72 0 0 0 -2.13,3.68 v 75.33 a 2.69,2.69 0 0 0 0.22,1.08 1.92,1.92 0 0 0 0.56,0.71 l 0.19,0.1 0.18,0.06 h 0.27 v 0 a 1.46,1.46 0 0 0 0.68,-0.2 l 47.64,-27.53 a 4.69,4.69 0 0 0 2.13,-3.68 v -75.82 c 0,-0.09 0,-0.18 0,-0.26 a 1.42,1.42 0 0 0 0,-0.2 c 0,0 0,0 0,0 a 0.41,0.41 0 0 0 -0.05,-0.19 0.93,0.93 0 0 0 -0.12,-0.27 0.41,0.41 0 0 0 -0.07,-0.11 l -0.06,-0.08 -0.14,-0.14 v 0 l -0.18,-0.11 a 1.13,1.13 0 0 0 -0.49,-0.1 z"
         style="opacity:0.15" />
      <g
         id="g197">
        <path
           d="m 318.36,244.72 a 2,2 0 0 0 -0.94,0.28 l -47.65,27.5 a 4.71,4.71 0 0 0 -2.13,3.68 v 75.33 a 2.53,2.53 0 0 0 0.23,1.08 1.82,1.82 0 0 0 0.56,0.71 l 0.18,0.09 0.19,0.07 a 1.24,1.24 0 0 0 0.27,0 v 0 a 1.39,1.39 0 0 0 0.67,-0.2 l 47.65,-27.53 a 4.7,4.7 0 0 0 2.12,-3.68 v -75.82 a 2.17,2.17 0 0 0 0,-0.26 1.2,1.2 0 0 0 0,-0.2 1.05,1.05 0 0 0 -0.05,-0.19 0.84,0.84 0 0 0 -0.13,-0.27 0.26,0.26 0 0 0 -0.07,-0.11 0.24,0.24 0 0 0 -0.06,-0.08 0.62,0.62 0 0 0 -0.14,-0.14 v 0 l -0.18,-0.11 a 1.13,1.13 0 0 0 -0.49,-0.1 z"
           style="fill:#455a64"
           id="path185" />
        <path
           d="m 318.85,244.82 a 1.55,1.55 0 0 0 -1.44,0.19 l -47.63,27.48 a 4.29,4.29 0 0 0 -1.49,1.58 v 0 L 262.83,271 a 4.17,4.17 0 0 1 1.48,-1.55 L 312,241.92 a 1.49,1.49 0 0 1 1.54,-0.14 c 0.35,0.22 4.85,2.8 5.31,3.04 z"
           style="fill:#37474f"
           id="path187" />
        <path
           d="m 307.48,253.68 a 3.19,3.19 0 0 0 -1.2,2.55 c 0,1 0.54,1.53 1.2,1.15 a 3.17,3.17 0 0 0 1.2,-2.54 c 0,-1.02 -0.54,-1.54 -1.2,-1.16 z"
           style="fill:#fafafa"
           id="path189" />
        <path
           d="m 311.8,251.18 a 3.17,3.17 0 0 0 -1.2,2.54 c 0,1 0.54,1.54 1.2,1.16 a 3.14,3.14 0 0 0 1.2,-2.54 c 0,-1.02 -0.53,-1.54 -1.2,-1.16 z"
           style="fill:#fafafa"
           id="path191" />
        <path
           d="m 316.13,248.68 a 3.14,3.14 0 0 0 -1.2,2.54 c 0,1 0.53,1.54 1.2,1.16 a 3.17,3.17 0 0 0 1.2,-2.54 c 0,-1.03 -0.54,-1.54 -1.2,-1.16 z"
           style="fill:#fafafa"
           id="path193" />
        <path
           d="m 267.87,352.59 a 3.08,3.08 0 0 1 -0.23,-1.08 v -68.38 0 -6.95 a 4.33,4.33 0 0 1 0.63,-2.11 L 262.83,271 a 4.43,4.43 0 0 0 -0.65,2.12 v 6.88 0 68.37 a 2.75,2.75 0 0 0 0.24,1.13 1.87,1.87 0 0 0 0.65,0.72 c 0,0 4.89,2.8 5.08,2.92 l 0.27,0.16 a 2,2 0 0 1 -0.55,-0.71 z"
           style="fill:#263238"
           id="path195" />
      </g>
      <path
         d="M 311.4,315.42 275.79,336 c -1.56,0.9 -2.83,-0.06 -2.83,-2.14 v -45.67 a 6.77,6.77 0 0 1 2.83,-5.4 l 35.61,-20.57 c 1.56,-0.9 2.83,0.06 2.83,2.14 V 310 a 6.77,6.77 0 0 1 -2.83,5.42 z"
         style="fill:#7a634d"
         id="path199" />
      <path
         d="m 309.23,297.46 v -7.23 c 0,-3.87 -1.13,-7.25 -5.78,-4.57 a 16.89,16.89 0 0 0 -5,4.6 l 0.63,1.95 a 13.74,13.74 0 0 1 4,-3.72 c 3.11,-1.79 3.46,0.88 3.46,2.48 v 0.4 c -5.87,3.35 -9.14,7.79 -9.14,12.46 0,2.79 1.57,4.64 4.65,2.87 a 11.92,11.92 0 0 0 4.64,-5.56 l 0.1,-0.05 0.22,2.3 2.51,-1.45 a 30.94,30.94 0 0 1 -0.29,-4.48 z m -2.67,-0.34 a 5.37,5.37 0 0 1 -0.16,1.21 8.64,8.64 0 0 1 -3.67,5.36 c -1.41,0.81 -2.61,0.42 -2.61,-1.85 0,-3.76 3.43,-6.41 6.44,-8.07 z m -21.66,-7.89 -7.19,31.06 2.83,-1.64 2.19,-9.73 7.5,-4.33 2.26,7.16 2.92,-1.68 -7.22,-22.75 z m -1.6,16.65 2.07,-9 c 0.41,-1.87 0.75,-3.71 1.07,-5.49 h 0.06 c 0.31,1.37 0.63,2.79 1.1,4.27 l 2.07,6.55 z"
         style="fill:#fafafa"
         id="path201" />
    </g>
  </g>
  <g
     id="freepik--Tool--inject-2"
     transform="translate(-9.3,-34.406962)">
    <g
       id="freepik--Design--inject-2">
      <path
         id="path205"
         d="m 203.78,337.9 a 1.88,1.88 0 0 0 -0.94,0.29 l -47.64,27.49 a 4.7,4.7 0 0 0 -2.13,3.69 v 75.32 a 2.66,2.66 0 0 0 0.22,1.08 1.84,1.84 0 0 0 0.56,0.71 l 0.19,0.1 a 0.55,0.55 0 0 0 0.18,0.06 1.26,1.26 0 0 0 0.27,0 v 0 a 1.37,1.37 0 0 0 0.68,-0.21 L 202.84,419 a 4.73,4.73 0 0 0 2.13,-3.69 v -75.89 a 2.45,2.45 0 0 0 0,-0.27 0.58,0.58 0 0 0 0,-0.19 c 0,0 0,0 0,0 a 0.78,0.78 0 0 0 0,-0.18 1,1 0 0 0 -0.12,-0.28 l -0.07,-0.11 -0.07,-0.07 a 0.58,0.58 0 0 0 -0.13,-0.14 v 0 a 1,1 0 0 0 -0.18,-0.1 1.14,1.14 0 0 0 -0.49,-0.11 z"
         style="opacity:0.15" />
      <g
         id="g219">
        <path
           d="m 214.46,342.24 a 1.85,1.85 0 0 0 -0.94,0.29 L 165.87,370 a 4.72,4.72 0 0 0 -2.13,3.68 V 449 a 2.53,2.53 0 0 0 0.23,1.08 1.9,1.9 0 0 0 0.55,0.71 l 0.19,0.1 0.18,0.06 a 1.33,1.33 0 0 0 0.28,0 v 0 a 1.33,1.33 0 0 0 0.67,-0.21 l 47.65,-27.53 a 4.68,4.68 0 0 0 2.12,-3.68 v -75.77 a 2.26,2.26 0 0 0 0,-0.27 0.71,0.71 0 0 0 0,-0.2 c 0,0 0,0 0,0 a 1.05,1.05 0 0 0 -0.05,-0.19 1.11,1.11 0 0 0 -0.13,-0.27 0.34,0.34 0 0 0 -0.07,-0.11 0.24,0.24 0 0 0 -0.06,-0.08 l -0.14,-0.14 v 0 a 0.81,0.81 0 0 0 -0.18,-0.1 1.14,1.14 0 0 0 -0.49,-0.11 z"
           style="fill:#455a64"
           id="path207" />
        <path
           d="m 214.94,342.34 a 1.54,1.54 0 0 0 -1.43,0.19 L 165.87,370 a 4.24,4.24 0 0 0 -1.48,1.57 v 0 l -5.45,-3.11 a 4.1,4.1 0 0 1 1.48,-1.55 l 47.64,-27.49 a 1.48,1.48 0 0 1 1.55,-0.13 c 0.39,0.25 4.88,2.82 5.33,3.05 z"
           style="fill:#37474f"
           id="path209" />
        <path
           d="m 203.58,351.21 a 3.14,3.14 0 0 0 -1.2,2.54 c 0,1 0.53,1.54 1.2,1.15 a 3.17,3.17 0 0 0 1.2,-2.54 c 0,-1.02 -0.54,-1.54 -1.2,-1.15 z"
           style="fill:#fafafa"
           id="path211" />
        <path
           d="m 207.9,348.7 a 3.21,3.21 0 0 0 -1.2,2.55 c 0,1 0.54,1.54 1.2,1.15 a 3.17,3.17 0 0 0 1.2,-2.54 c 0,-1.02 -0.54,-1.54 -1.2,-1.16 z"
           style="fill:#fafafa"
           id="path213" />
        <path
           d="m 212.22,346.2 a 3.19,3.19 0 0 0 -1.2,2.55 c 0,1 0.54,1.53 1.2,1.15 a 3.15,3.15 0 0 0 1.21,-2.54 c 0,-1.02 -0.54,-1.54 -1.21,-1.16 z"
           style="fill:#fafafa"
           id="path215" />
        <path
           d="m 164,450.11 a 2.65,2.65 0 0 1 -0.23,-1.08 v -68.37 0 -7 a 4.36,4.36 0 0 1 0.63,-2.12 l -5.45,-3.11 a 4.46,4.46 0 0 0 -0.65,2.13 v 6.91 0 68.43 a 2.67,2.67 0 0 0 0.25,1.12 1.74,1.74 0 0 0 0.65,0.72 l 5.08,2.93 0.26,0.15 A 1.85,1.85 0 0 1 164,450.11 Z"
           style="fill:#263238"
           id="path217" />
      </g>
      <path
         d="m 207.5,413 -35.61,20.56 c -1.57,0.9 -2.83,-0.06 -2.83,-2.14 v -45.71 a 6.75,6.75 0 0 1 2.83,-5.4 l 35.61,-20.56 c 1.56,-0.91 2.83,0.05 2.83,2.13 v 45.67 A 6.77,6.77 0 0 1 207.5,413 Z"
         style="fill:#7a634d"
         id="path221" />
      <path
         d="m 184.43,385.24 h 0.12 0.07 l 10.14,-5.85 a 0.93,0.93 0 0 0 0.42,-0.73 v -4.55 c 0,-0.21 -0.2,-0.27 -0.41,-0.16 l -10.14,5.86 a 0.89,0.89 0 0 0 -0.3,0.31 0.92,0.92 0 0 0 -0.12,0.41 V 385 c -0.01,0.13 0.09,0.24 0.22,0.24 z m 0.11,0.83 z m 4.91,29.4 v -18.81 c -0.63,0.22 -1.11,-0.24 -1.11,-1.12 a 3.23,3.23 0 0 1 1.35,-2.59 c 0.75,-0.43 1.35,0 1.35,1 a 3.37,3.37 0 0 1 -1.11,2.42 v 18.83 l 6.92,-22.52 a 1,1 0 0 0 -0.17,-0.82 16.57,16.57 0 0 1 -3.32,-9 0.29,0.29 0 0 0 -0.47,-0.24 l -6.4,3.7 a 1,1 0 0 0 -0.46,0.72 44,44 0 0 1 -3.45,13.15 1.21,1.21 0 0 0 0,0.88 z m 13,-6.34 a 1,1 0 0 0 -0.95,0.95 0.8,0.8 0 0 0 0,0.27 l -8.92,5.15 c 5.45,-4.59 9.58,-12.44 9.92,-19.26 a 1,1 0 1 0 -0.35,0 c -0.4,7.86 -5.91,17.11 -12.62,21 -3.34,1.93 -6.47,2.25 -8.82,0.89 -2.16,-1.24 -3.42,-3.77 -3.61,-7.17 a 0.94,0.94 0 0 0 0.73,-0.92 0.95,0.95 0 0 0 -1.9,0 0.94,0.94 0 0 0 0.81,0.94 c 0.2,3.52 1.53,6.15 3.79,7.46 a 6.72,6.72 0 0 0 3.41,0.88 9.49,9.49 0 0 0 2.88,-0.48 l -9.25,5.35 a 0.8,0.8 0 0 0 -0.13,-0.13 v 0 a 0.9,0.9 0 0 0 -0.56,-0.19 0.95,0.95 0 1 0 1,0.95 0.93,0.93 0 0 0 -0.05,-0.29 l 23.92,-13.81 0.18,0.18 v 0 a 1,1 0 0 0 0.54,0.16 0.95,0.95 0 1 0 0,-1.9 z"
         style="fill:#ffffff"
         id="path223" />
    </g>
  </g>
  <g
     id="g251"
     transform="translate(-9.3,-34.406962)">
    <g
       id="g249">
      <g
         id="g237">
        <path
           d="m 68.69,143 -4.21,-7.92 3.39,-9.78 v -6 l -10.37,6 v 6 L 62,139 a 0.65,0.65 0 0 0 0.3,0.27 v 0 z"
           style="fill:#7a634d"
           id="path227" />
        <path
           d="m 68.69,143 -4.21,-7.92 3.39,-9.78 v -6 l -10.37,6 v 6 L 62,139 a 0.65,0.65 0 0 0 0.3,0.27 v 0 z"
           style="opacity:0.2"
           id="path229" />
        <path
           d="m 145.75,42 a 6.86,6.86 0 0 0 -3.11,-5.39 l -2.53,-1.46 a 6.88,6.88 0 0 0 -6.22,0 l -93.42,54.3 a 6.86,6.86 0 0 0 -3.11,5.38 v 41.94 a 6.86,6.86 0 0 0 3.11,5.38 l 2.53,1.46 a 6.82,6.82 0 0 0 6.22,0 l 14.78,-8.54 4.45,7.7 a 0.66,0.66 0 0 0 1.2,-0.11 l 4.7,-13.57 68.28,-39.74 A 6.86,6.86 0 0 0 145.75,84 Z"
           style="fill:#7a634d"
           id="path231" />
        <path
           d="m 37.36,136.77 a 6.86,6.86 0 0 0 3.11,5.38 l 2.53,1.46 a 6.92,6.92 0 0 0 5.69,0.25 c -1.47,0.56 -2.58,-0.27 -2.58,-2 V 99.88 A 6.36,6.36 0 0 1 47,96.82 l -8.75,-5 a 6.36,6.36 0 0 0 -0.91,3.06 z"
           style="opacity:0.2"
           id="path233" />
        <path
           d="m 145.65,41.14 c -0.37,-1.32 -1.57,-1.74 -3,-0.91 L 49.21,94.5 A 6.22,6.22 0 0 0 47,96.82 l -8.74,-5 a 6.29,6.29 0 0 1 2.19,-2.32 l 93.41,-54.27 a 7,7 0 0 1 6.23,0 l 2.53,1.47 a 6.85,6.85 0 0 1 3.03,4.44 z"
           style="opacity:0.3;fill:#ffffff"
           id="path235" />
      </g>
      <path
         d="m 70.52,93.62 a 0.45,0.45 0 0 1 0.55,0 0.7,0.7 0 0 1 0.24,0.6 v 15.93 a 20.42,20.42 0 0 1 -0.53,4.66 17.9,17.9 0 0 1 -1.57,4.25 16.59,16.59 0 0 1 -2.62,3.67 16.1,16.1 0 0 1 -3.65,2.86 9.21,9.21 0 0 1 -3.65,1.35 3.6,3.6 0 0 1 -2.61,-0.65 4.67,4.67 0 0 1 -1.56,-2.44 13.9,13.9 0 0 1 -0.51,-4.06 v -15.94 a 1.83,1.83 0 0 1 0.23,-0.87 1.51,1.51 0 0 1 0.55,-0.63 L 57.76,101 a 0.45,0.45 0 0 1 0.55,0 0.73,0.73 0 0 1 0.23,0.6 v 15.74 a 8.16,8.16 0 0 0 0.32,2.53 2.52,2.52 0 0 0 0.91,1.33 1.89,1.89 0 0 0 1.39,0.24 5.37,5.37 0 0 0 1.78,-0.7 8.91,8.91 0 0 0 1.79,-1.36 7.76,7.76 0 0 0 1.42,-1.87 10.08,10.08 0 0 0 0.92,-2.37 12,12 0 0 0 0.33,-2.92 V 96.47 a 2,2 0 0 1 0.23,-0.88 1.59,1.59 0 0 1 0.56,-0.63 z"
         style="fill:#ffffff"
         id="path239" />
      <path
         d="m 76.49,117.37 a 0.46,0.46 0 0 1 -0.55,0 0.71,0.71 0 0 1 -0.23,-0.61 V 91.67 a 1.83,1.83 0 0 1 0.23,-0.87 1.51,1.51 0 0 1 0.55,-0.63 l 2.36,-1.36 a 0.46,0.46 0 0 1 0.56,0 0.73,0.73 0 0 1 0.23,0.6 v 25.1 a 1.89,1.89 0 0 1 -0.23,0.87 1.55,1.55 0 0 1 -0.56,0.64 z"
         style="fill:#ffffff"
         id="path241" />
      <path
         d="m 92.46,78.77 a 5.75,5.75 0 0 1 0.44,-1 2.17,2.17 0 0 1 0.85,-0.85 l 2.15,-1.25 a 0.39,0.39 0 0 1 0.45,0 0.58,0.58 0 0 1 0.19,0.5 2.09,2.09 0 0 1 -0.05,0.38 l -9.85,37.12 a 5,5 0 0 1 -0.41,1 2.3,2.3 0 0 1 -0.88,0.9 l -2.07,1.19 a 0.38,0.38 0 0 1 -0.45,0 0.6,0.6 0 0 1 -0.19,-0.49 1.61,1.61 0 0 1 0.06,-0.39 z"
         style="fill:#ffffff"
         id="path243" />
      <path
         d="m 115.28,67.77 a 0.48,0.48 0 0 1 0.56,0 0.7,0.7 0 0 1 0.23,0.6 V 84.3 a 20.42,20.42 0 0 1 -0.53,4.66 18.06,18.06 0 0 1 -1.54,4.25 16.5,16.5 0 0 1 -2.62,3.67 16.1,16.1 0 0 1 -3.65,2.86 9.11,9.11 0 0 1 -3.65,1.35 3.6,3.6 0 0 1 -2.61,-0.65 A 4.67,4.67 0 0 1 99.88,98 13.9,13.9 0 0 1 99.37,93.94 V 78 a 2,2 0 0 1 0.23,-0.87 1.46,1.46 0 0 1 0.56,-0.63 l 2.36,-1.37 a 0.46,0.46 0 0 1 0.55,0 0.67,0.67 0 0 1 0.23,0.6 v 15.75 a 8.2,8.2 0 0 0 0.32,2.53 2.52,2.52 0 0 0 0.91,1.33 1.92,1.92 0 0 0 1.4,0.24 5.64,5.64 0 0 0 1.77,-0.7 9,9 0 0 0 1.8,-1.36 8.2,8.2 0 0 0 1.41,-1.87 10,10 0 0 0 0.92,-2.38 12,12 0 0 0 0.33,-2.91 V 70.62 a 1.85,1.85 0 0 1 0.24,-0.87 1.45,1.45 0 0 1 0.55,-0.63 z"
         style="fill:#ffffff"
         id="path245" />
      <path
         d="m 133.67,84.36 c -0.39,0.22 -0.67,0.26 -0.85,0.1 a 4.18,4.18 0 0 1 -0.37,-0.37 l -4.64,-5.91 -4.6,11.25 -0.38,0.8 a 2,2 0 0 1 -0.85,0.87 l -2.44,1.42 a 0.48,0.48 0 0 1 -0.56,0 0.74,0.74 0 0 1 -0.23,-0.61 1.54,1.54 0 0 1 0.09,-0.47 L 125.51,75.19 119.13,67 a 0.85,0.85 0 0 1 -0.09,-0.38 2,2 0 0 1 0.23,-0.87 1.46,1.46 0 0 1 0.56,-0.63 l 2.45,-1.41 c 0.38,-0.23 0.67,-0.26 0.84,-0.1 l 0.38,0.36 4.4,5.66 4.37,-10.72 c 0.08,-0.18 0.2,-0.44 0.38,-0.8 a 2,2 0 0 1 0.84,-0.88 l 2.45,-1.41 a 0.46,0.46 0 0 1 0.56,0 0.73,0.73 0 0 1 0.23,0.6 1.65,1.65 0 0 1 -0.09,0.48 l -6.44,15.74 6.62,8.42 a 1,1 0 0 1 0.08,0.38 1.77,1.77 0 0 1 -0.23,0.87 1.45,1.45 0 0 1 -0.55,0.63 z"
         style="fill:#ffffff"
         id="path247" />
    </g>
  </g>
  <g
     id="freepik--Colors--inject-2"
     transform="translate(-9.3,-34.406962)">
    <g
       id="freepik--colors--inject-2">
      <path
         d="m 353.15,246.15 c 1.43,0.82 3.41,0.71 5.6,-0.56 a 17.49,17.49 0 0 0 7.91,-13.71 c 0,-2.52 -0.89,-4.29 -2.32,-5.12 l -5,-2.91 c -1.44,-0.83 -3.42,-0.71 -5.6,0.55 a 17.5,17.5 0 0 0 -7.92,13.71 c 0,2.52 0.89,4.3 2.32,5.12 z"
         style="fill:#7a634d"
         id="path253" />
      <path
         d="m 353.15,246.15 c 1.43,0.82 3.41,0.71 5.6,-0.56 a 17.49,17.49 0 0 0 7.91,-13.71 c 0,-2.52 -0.89,-4.29 -2.32,-5.12 l -5,-2.91 c -1.44,-0.83 -3.42,-0.71 -5.6,0.55 a 17.5,17.5 0 0 0 -7.92,13.71 c 0,2.52 0.89,4.3 2.32,5.12 z"
         style="opacity:0.3"
         id="path255" />
      <path
         d="m 366.66,231.88 c 0,-2.52 -0.89,-4.29 -2.32,-5.12 -1.43,-0.83 -3.41,-0.71 -5.59,0.55 A 17.5,17.5 0 0 0 350.83,241 c 0,2.53 0.89,4.3 2.32,5.13 1.43,0.83 3.41,0.71 5.6,-0.56 a 17.49,17.49 0 0 0 7.91,-13.69 z"
         style="fill:#7a634d"
         id="path257" />
      <path
         d="m 353.15,276.35 c 1.43,0.83 3.41,0.71 5.6,-0.55 a 17.5,17.5 0 0 0 7.91,-13.71 c 0,-2.52 -0.89,-4.3 -2.32,-5.13 l -5,-2.91 c -1.44,-0.83 -3.42,-0.71 -5.6,0.56 a 17.5,17.5 0 0 0 -7.92,13.71 c 0,2.52 0.89,4.29 2.32,5.12 z"
         style="fill:#e0e0e0"
         id="path259" />
      <path
         d="m 366.66,262.09 c 0,-2.52 -0.89,-4.3 -2.32,-5.13 -1.43,-0.83 -3.41,-0.7 -5.59,0.56 a 17.47,17.47 0 0 0 -7.92,13.71 c 0,2.52 0.89,4.3 2.32,5.12 1.43,0.82 3.41,0.71 5.6,-0.55 a 17.5,17.5 0 0 0 7.91,-13.71 z"
         style="fill:#f5f5f5"
         id="path261" />
      <path
         d="m 353.15,306.56 c 1.43,0.82 3.41,0.71 5.6,-0.56 a 17.49,17.49 0 0 0 7.91,-13.71 c 0,-2.52 -0.89,-4.29 -2.32,-5.12 l -5,-2.91 c -1.44,-0.83 -3.42,-0.71 -5.6,0.55 a 17.5,17.5 0 0 0 -7.92,13.71 c 0,2.52 0.89,4.3 2.32,5.12 z"
         style="fill:#263238"
         id="path263" />
      <path
         d="m 366.66,292.29 c 0,-2.52 -0.89,-4.29 -2.32,-5.12 -1.43,-0.83 -3.41,-0.71 -5.59,0.55 a 17.5,17.5 0 0 0 -7.92,13.71 c 0,2.53 0.89,4.3 2.32,5.13 1.43,0.83 3.41,0.71 5.6,-0.56 a 17.49,17.49 0 0 0 7.91,-13.71 z"
         style="fill:#455a64"
         id="path265" />
      <path
         d="m 353.15,215.94 c 1.43,0.83 3.41,0.71 5.6,-0.55 a 17.5,17.5 0 0 0 7.91,-13.71 c 0,-2.53 -0.89,-4.3 -2.32,-5.13 l -5,-2.91 c -1.44,-0.83 -3.42,-0.71 -5.6,0.56 a 17.49,17.49 0 0 0 -7.92,13.7 c 0,2.53 0.89,4.3 2.32,5.13 z"
         style="fill:#7a634d"
         id="path267" />
      <path
         d="m 366.66,201.68 c 0,-2.53 -0.89,-4.3 -2.32,-5.13 -1.43,-0.83 -3.41,-0.7 -5.59,0.56 a 17.47,17.47 0 0 0 -7.92,13.71 c 0,2.52 0.89,4.3 2.32,5.12 1.43,0.82 3.41,0.71 5.6,-0.55 a 17.5,17.5 0 0 0 7.91,-13.71 z"
         style="fill:#7a634d"
         id="path269" />
      <path
         d="m 366.66,201.68 c 0,-2.53 -0.89,-4.3 -2.32,-5.13 -1.43,-0.83 -3.41,-0.7 -5.59,0.56 a 17.47,17.47 0 0 0 -7.92,13.71 c 0,2.52 0.89,4.3 2.32,5.12 1.43,0.82 3.41,0.71 5.6,-0.55 a 17.5,17.5 0 0 0 7.91,-13.71 z"
         style="opacity:0.3;fill:#ffffff"
         id="path271" />
    </g>
  </g>
</svg>
