<?xml version="1.0" encoding="UTF-8" standalone="no"?>
<svg
   viewBox="0 0 171.983 182.236"
   version="1.1"
   id="svg18"
   sodipodi:docname="PDlogo-white.svg"
   inkscape:version="1.2.2 (732a01da63, 2022-12-09)"
   xmlns:inkscape="http://www.inkscape.org/namespaces/inkscape"
   xmlns:sodipodi="http://sodipodi.sourceforge.net/DTD/sodipodi-0.dtd"
   xmlns="http://www.w3.org/2000/svg"
   xmlns:svg="http://www.w3.org/2000/svg">
  <defs
     id="defs22" />
  <sodipodi:namedview
     id="namedview20"
     pagecolor="#ffffff"
     bordercolor="#000000"
     borderopacity="0.25"
     inkscape:showpageshadow="2"
     inkscape:pageopacity="0.0"
     inkscape:pagecheckerboard="0"
     inkscape:deskcolor="#d1d1d1"
     showgrid="false"
     inkscape:zoom="4.5929456"
     inkscape:cx="66.515049"
     inkscape:cy="91.226859"
     inkscape:window-width="1920"
     inkscape:window-height="1017"
     inkscape:window-x="1912"
     inkscape:window-y="699"
     inkscape:window-maximized="1"
     inkscape:current-layer="svg18" />
  <g
     style="display:block"
     id="g16">
    <path
       style="fill:#ffffff;fill-opacity:1"
       d="M37.75 188.881c-3.644-1.874-3.75-2.084-3.75-7.418v-5.49l3.699 1.546c2.034.85 3.858 1.705 4.053 1.9.195.195.218 2.838.051 5.873l-.303 5.518Zm25.959-1.505c-.39-.39-.709-40.684-.709-89.543V9h14.333c20.3 0 24.887 1.093 31.222 7.437 7.927 7.939 7.945 8.07 7.945 57.563v42.5l-2.373 4.777c-2.847 5.732-8.683 10.974-13.985 12.562-2.13.639-10.002 1.161-17.491 1.161H69.033l-.266 26.25c-.26 25.564-.32 26.258-2.308 26.542-1.123.16-2.36-.027-2.75-.416zm33.768-58.491c5.098-1.416 10.992-7.31 12.408-12.408.72-2.595 1.106-17.898 1.11-44.049.005-43.612-.254-45.993-5.658-51.82C100.944 15.87 97.407 15 82.532 15H69v115l12.25-.006c6.737-.003 14.04-.502 16.227-1.11zm31.028 55.98c-.287-.75-.405-40.515-.263-88.365l.258-87h17.027c16.298 0 17.24.11 21.991 2.555 6.214 3.198 10.967 9.318 12.39 15.951.726 3.387 1.092 26.955 1.092 70.362 0 71.636.005 71.568-5.97 78.792-1.665 2.013-5.166 4.7-7.779 5.972-4.254 2.07-6.503 2.353-21.488 2.705-13.493.317-16.838.129-17.258-.972zm36.074-6.761c5.1-2.317 8-5.948 9.923-12.423 1.26-4.245 1.498-14.913 1.498-67.313 0-40.635-.374-64.011-1.075-67.282-1.457-6.794-4.57-11.146-9.895-13.836-3.953-1.997-5.948-2.25-17.742-2.25H134v165l13.25-.022c10.73-.018 14.026-.374 17.329-1.874zM25.75 182.882c-3.574-1.84-3.75-2.163-3.75-6.92v-4.989l3.699 1.546c2.034.85 3.86 1.706 4.056 1.902.196.197.22 2.615.051 5.374l-.306 5.017Zm-12.5-5.627c-2.995-1.491-3.25-1.997-3.25-6.45v-4.832l3.622 1.514c1.992.832 3.792 1.513 4 1.513.208 0 .378 2.25.378 5 0 5.512-.09 5.574-4.75 3.255zm23.5-3.554c-2.556-1.01-2.75-1.494-2.75-6.842v-5.754l3.75 1.294c3.679 1.269 3.756 1.4 4.05 6.947.324 6.103.025 6.36-5.05 4.355zm-11-4.54c-3.683-1.407-3.75-1.527-3.75-6.745v-5.312l3.25 1.085c4.64 1.548 4.899 1.973 4.557 7.465l-.307 4.94ZM14 164.511c-3.27-1.102-3.52-1.49-3.809-5.937l-.308-4.759 3.308.698c4.557.961 4.974 1.565 4.62 6.692l-.311 4.485Zm23.25-5.758c-3.144-1.008-3.25-1.22-3.25-6.523v-5.48l3.125.625c1.719.344 3.519.625 4 .625.481 0 .875 2.7.875 6s-.338 5.954-.75 5.898c-.412-.056-2.212-.571-4-1.145zm-12.5-3.915c-2.504-.915-2.75-1.456-2.75-6.046v-5.042l3.125.625c1.719.344 3.519.625 4 .625.481 0 .875 2.475.875 5.5 0 5.875-.32 6.139-5.25 4.338zm-12.5-3.544c-1.979-.38-2.25-1.041-2.25-5.48 0-4.746.134-5.011 2.25-4.444 1.238.331 3.038.609 4 .616 1.432.012 1.75.924 1.75 5.014 0 5.304-.104 5.382-5.75 4.294zm23.5-7.983c-1.625-.425-1.75-2.963-1.75-35.416 0-27.094.281-35.044 1.25-35.343.688-.212 2.487-.656 4-.988l2.75-.602V144l-2.25-.116c-1.238-.064-3.038-.322-4-.573zm-10.25-2.185c-2.83-.601-3.017-.941-3.307-6.018l-.307-5.38 3.182.636c1.75.35 3.576.636 4.057.636.481 0 .875 2.475.875 5.5s-.338 5.447-.75 5.382c-.412-.065-2.1-.405-3.75-.756zm-13.25-2.832c-1.979-.38-2.25-1.041-2.25-5.48 0-4.746.134-5.011 2.25-4.444 1.238.331 3.038.609 4 .616 1.432.012 1.75.924 1.75 5.014 0 5.304-.104 5.382-5.75 4.294zM22 121.5c0-5.867.488-6.28 5.75-4.87 1.944.521 2.25 1.268 2.25 5.487V127h-8zm-9.75 3.794c-1.953-.376-2.25-1.054-2.25-5.14v-4.707l4 .382 4 .381v4.895c0 5.188-.118 5.274-5.75 4.19zm0-13c-1.93-.371-2.25-1.064-2.25-4.864V103h8v5c0 5.304-.104 5.382-5.75 4.294zM22 107.5V102h8v11h-8ZM10 95.117c0-4.201.313-5.12 1.75-5.13.963-.008 2.763-.286 4-.617 2.119-.568 2.25-.305 2.25 4.513 0 4.201-.313 5.12-1.75 5.13-.963.008-2.763.286-4 .617-2.119.568-2.25.305-2.25-4.513Zm12-1.01c0-5.19.838-6.107 5.582-6.107 2.264 0 2.418.35 2.418 5.5V99h-8Zm-12-11.99c0-4.201.313-5.12 1.75-5.13.963-.008 2.763-.286 4-.617 2.119-.568 2.25-.305 2.25 4.513 0 4.201-.313 5.12-1.75 5.13-.963.008-2.763.286-4 .617-2.119.568-2.25.305-2.25-4.513Zm12-1.94c0-4.282.301-5.025 2.25-5.547 5.365-1.438 5.877-1.012 5.552 4.62L29.5 84.5l-3.75.31-3.75.31ZM10 69.141c0-4.878.016-4.902 4-5.913l4-1.015v4.925c0 5.066-.082 5.165-5.25 6.298-2.708.593-2.75.527-2.75-4.295Zm12-3.074c0-4.076.347-5.03 2-5.5l4-1.134c1.825-.518 2-.09 2 4.875 0 5.295-.084 5.459-3.125 6.067-4.834.967-4.875.93-4.875-4.308ZM34 63.1v-5.687l4-1.067 4-1.068v11.479l-4 1.015-4 1.015zM10 56.45c0-4.248.231-4.648 3.468-6 1.907-.797 3.707-1.449 4-1.449.293 0 .532 2.206.532 4.902 0 4.6-.194 4.97-3.15 6C10.187 61.528 10 61.396 10 56.45Zm12-3.8c0-5.035.134-5.296 3.321-6.448 4.783-1.73 4.813-1.703 4.481 3.953-.291 4.967-.438 5.201-4.052 6.448L22 57.895Zm12-4.188c0-5.3.09-5.471 3.622-6.948 1.992-.832 3.815-1.513 4.05-1.513.235 0 .293 2.544.128 5.654-.294 5.547-.371 5.678-4.05 6.947L34 53.895Zm-24-4.948c0-4.21.222-4.58 3.622-6 1.992-.832 3.792-1.513 4-1.513.208 0 .378 2.16.378 4.8 0 4.527-.188 4.866-3.321 6C10 48.49 10 48.49 10 43.512Zm11.627-.22c-.345-.344-.627-3.251-.627-6.46 0-3.208-.24-5.833-.533-5.833-.294 0-2.778 1.137-5.521 2.527-5.573 2.825-6.35 2.34-5.766-3.607.293-2.991 1.09-3.692 9.32-8.188 4.95-2.704 9.563-5.148 10.25-5.431.961-.396 1.25 2.398 1.25 12.092C30 35.327 29.83 41 29.622 41s-1.95.657-3.873 1.46c-1.922.804-3.777 1.179-4.122.834zM33 33.986c0-4.584.279-5.184 3.25-6.996 5.039-3.072 5.75-2.66 5.75 3.326 0 5.099-.143 5.383-3.534 7-1.944.927-3.969 1.685-4.5 1.685-.531 0-.966-2.257-.966-5.015Zm.198-15.22c.29-5.017.48-5.335 4.552-7.576L42 8.85v5.89c0 5.757-.08 5.927-3.534 7.575-5.235 2.496-5.603 2.249-5.268-3.55z"
       transform="translate(-9.017 -8.72)"
       id="path2" />
    <path
       style="fill:#ffffff;fill-opacity:1"
       d="M37.75 188.881c-3.644-1.874-3.75-2.084-3.75-7.418v-5.49l3.699 1.546c2.034.85 3.858 1.705 4.053 1.9.195.195.218 2.838.051 5.873l-.303 5.518Zm25.959-1.505c-.39-.39-.709-40.729-.709-89.642V8.802l17.25.408c20.031.473 23.533 1.465 29.634 8.395 6.423 7.298 6.616 8.898 6.616 54.895 0 47.319-.122 48.23-7.449 55.524-6 5.973-9.795 6.976-26.4 6.976H69.033l-.266 26.25c-.26 25.564-.32 26.258-2.308 26.542-1.123.16-2.36-.027-2.75-.416zM99.5 128.11c4.841-2.234 7.888-5.4 9.952-10.342 1.315-3.145 1.545-10 1.526-45.486-.02-38.586-.164-42.088-1.88-45.782-4.512-9.717-8.632-11.5-26.566-11.5H69v115l13.25-.022c10.738-.018 14.008-.372 17.25-1.868zM129 97.5V8.77l16.75.435c17.846.465 21.007 1.178 26.77 6.04 1.662 1.4 4.137 4.731 5.5 7.401l2.48 4.854v140l-2.363 4.756c-1.3 2.616-3.775 5.947-5.5 7.402-5.89 4.967-8.969 5.67-26.887 6.137l-16.75.436Zm38.59 78.947c2.073-1.68 4.7-4.83 5.84-7 2.034-3.88 2.07-5.114 2.07-71.947v-68l-2.24-4.192c-1.233-2.306-3.896-5.456-5.919-7-3.592-2.743-4.022-2.815-18.51-3.13L134 14.856v165.288l14.91-.322 14.912-.322Zm-141.84 6.435c-3.574-1.84-3.75-2.163-3.75-6.92v-4.989l3.699 1.546c2.034.85 3.86 1.706 4.056 1.902.196.197.22 2.615.051 5.374l-.306 5.017Zm-12.5-5.627c-2.995-1.491-3.25-1.997-3.25-6.45v-4.832l3.622 1.514c1.992.832 3.792 1.513 4 1.513.208 0 .378 2.25.378 5 0 5.512-.09 5.574-4.75 3.255zm23.5-3.827C34.272 172.084 34 171.4 34 166.52v-5.415l3.75 1.294c3.679 1.269 3.756 1.4 4.05 6.947.33 6.212-.254 6.684-5.05 4.082zm-12-4.727c-2.513-.994-2.75-1.54-2.75-6.342v-5.254l3.75 1.293c3.614 1.247 3.761 1.48 4.052 6.448.327 5.567-.03 5.84-5.052 3.855zm-11-4.413c-3.55-1.422-3.75-1.74-3.75-5.974v-4.473l3.25.685c4.498.948 4.914 1.561 4.56 6.73l-.31 4.533Zm23.5-5.535c-3.144-1.008-3.25-1.22-3.25-6.523v-5.48l3.125.625c1.719.344 3.519.625 4 .625.481 0 .875 2.7.875 6s-.338 5.954-.75 5.898c-.412-.056-2.212-.571-4-1.145zm-12-3.872c-3.119-.9-3.25-1.144-3.25-6.035v-5.096l3.125.625c1.719.344 3.519.625 4 .625.481 0 .875 2.475.875 5.5s-.338 5.46-.75 5.41c-.412-.05-2.212-.513-4-1.029zm-13-3.912c-1.877-.755-2.25-1.668-2.25-5.516v-4.612l3.25.697c4.653.998 4.75 1.12 4.75 6.021 0 4.766-.96 5.335-5.75 3.41zm23.5-7.658c-1.624-.425-1.75-2.959-1.75-35.317 0-34.003.05-34.873 2-35.427l4-1.134c1.974-.56 2-.09 2 36V144l-2.25-.116c-1.238-.064-3.038-.322-4-.573zm-10.5-2.43c-3.119-.9-3.25-1.144-3.25-6.035v-5.096l3.125.625c1.719.344 3.519.625 4 .625.481 0 .875 2.475.875 5.5s-.338 5.46-.75 5.41c-.412-.05-2.212-.513-4-1.029zm-13-2.587c-1.979-.38-2.25-1.041-2.25-5.48 0-4.746.134-5.011 2.25-4.444 1.238.331 3.038.609 4 .616 1.432.012 1.75.924 1.75 5.014 0 5.304-.104 5.382-5.75 4.294zm10.417-11.96c-.367-.367-.667-2.899-.667-5.626v-4.958l3.125.625c1.719.344 3.519.625 4 .625.481 0 .875 2.25.875 5v5h-3.333c-1.834 0-3.634-.3-4-.667zm-9.917-1.05c-2.552-.387-2.75-.756-2.75-5.127v-4.71l4 .382 4 .381v4.895c0 3.33-.4 4.847-1.25 4.745-.688-.082-2.487-.337-4-.566zm.5-13.073c-3.128-.325-3.25-.505-3.25-4.774V103h8v4.441c0 5.008-.23 5.239-4.75 4.77zm8.75-4.104c0-5.19.838-6.107 5.582-6.107 2.264 0 2.418.35 2.418 5.5v5.5h-8Zm-12-13c0-4.735.176-5.107 2.418-5.107 1.33 0 3.13-.273 4-.607 1.315-.505 1.582.254 1.582 4.5C18 98.628 17.824 99 15.582 99c-1.33 0-3.13.273-4 .607-1.315.505-1.582-.254-1.582-4.5Zm12-.99c0-4.22.306-4.966 2.25-5.487 5.262-1.41 5.75-.997 5.75 4.87V99h-8zm-12-12c0-4.201.313-5.12 1.75-5.13.963-.008 2.763-.286 4-.617 2.119-.568 2.25-.305 2.25 4.513 0 4.201-.313 5.12-1.75 5.13-.963.008-2.763.286-4 .617-2.119.568-2.25.305-2.25-4.513Zm12-1.932c0-4.727.132-4.961 3.125-5.56 4.923-.985 4.996-.913 4.677 4.625L29.5 84.5l-3.75.31-3.75.31Zm-12-11.04c0-4.682.136-4.922 3.125-5.52C17.94 62.662 18 62.71 18 67.531c0 4.643-.123 4.781-5.25 5.905-2.707.593-2.75.526-2.75-4.292Zm12-3.078c0-4.076.347-5.03 2-5.5l4-1.134c1.825-.518 2-.09 2 4.875 0 5.295-.084 5.459-3.125 6.067-4.834.967-4.875.93-4.875-4.308Zm12-2.698c0-4.896.247-5.512 2.565-6.394 4.866-1.85 5.435-1.39 5.435 4.403v5.379l-4 1.015-4 1.015zM10 56.58c0-4.289.211-4.642 3.622-6.068 1.992-.832 3.792-1.513 4-1.513.208 0 .378 2.22.378 4.933 0 4.257-.308 5.02-2.25 5.579-6.1 1.753-5.75 1.931-5.75-2.931Zm12-3.932c0-5.035.134-5.296 3.321-6.448 4.783-1.73 4.813-1.703 4.481 3.953-.291 4.967-.438 5.201-4.052 6.448L22 57.895Zm12-4.188c0-5.3.09-5.471 3.622-6.948 1.992-.832 3.815-1.513 4.05-1.513.235 0 .293 2.544.128 5.654-.294 5.547-.371 5.678-4.05 6.947L34 53.895Zm-24-4.948c0-4.21.222-4.58 3.622-6 1.992-.832 3.792-1.513 4-1.513.208 0 .378 2.16.378 4.8 0 4.527-.188 4.866-3.321 6C10 48.49 10 48.49 10 43.512Zm12-6C22 33.698 21.572 31 20.967 31c-.569 0-3.269 1.133-6 2.517L10 36.034v-9.832l9.25-4.85c5.088-2.669 9.588-5.002 10-5.185.412-.184.75 5.329.75 12.25C30 35.337 29.83 41 29.622 41s-2.008.681-4 1.513L22 44.027Zm12-3.974c0-5.065.227-5.605 2.95-7.013C41.518 24.164 42 24.543 42 30.5c0 3.025-.17 5.5-.378 5.5s-2.008.681-4 1.513L34 39.027Zm0-15.019c0-5.386.068-5.514 4-7.52l4-2.04v5.834c0 5.695-.085 5.876-3.534 7.52-1.944.928-3.744 1.686-4 1.686-.256 0-.466-2.466-.466-5.48Z"
       transform="translate(-9.017 -8.72)"
       id="path4" />
    <path
       style="fill:#ffffff;fill-opacity:1"
       d="M37.75 188.932c-3.626-1.914-3.75-2.158-3.75-7.382v-5.401l3.99 1.675 3.99 1.676.01 5.75c.005 3.162-.103 5.73-.24 5.706-.138-.025-1.938-.935-4-2.024zm25.737-2.112c-.277-.726-.387-40.92-.245-89.32l.258-88H80c19.102 0 23.645 1.15 29.31 7.422 6.94 7.68 7.19 9.617 7.19 55.578 0 44.976-.25 47.315-5.78 54.023-1.693 2.054-5.36 4.798-8.15 6.096-4.577 2.132-6.454 2.362-19.303 2.371l-14.234.01-.266 26.25-.267 26.25-2.254.32c-1.24.176-2.482-.274-2.759-1zm34.614-57.973c5.447-1.848 8.516-4.5 10.782-9.32 2.052-4.367 2.117-5.808 2.117-46.82V30.393l-2.597-5.211c-1.9-3.813-3.798-5.915-7.075-7.836-4.097-2.401-5.663-2.667-18.403-3.125L69 13.721V130h12.85c7.072 0 14.38-.518 16.25-1.153zM129 97.63V9l13.25.02c22.91.037 30.523 3.002 35.62 13.873l2.63 5.607.277 66.9c.237 57.106.058 67.655-1.223 72.062-2.235 7.688-5.354 11.615-11.873 14.95-5.541 2.833-6.4 2.964-22.222 3.397l-16.459.45Zm35.352 80.873c4.864-2.308 9.202-7.676 10.56-13.067 1.468-5.831 1.507-128.386.042-135.215-1.262-5.884-5.943-11.897-10.88-13.973-2.282-.96-8.36-1.69-16.824-2.018L134 13.716v167.568l13.317-.509c9.822-.374 14.293-.97 17.035-2.272zM25.75 182.932c-3.553-1.876-3.75-2.237-3.75-6.875v-4.896l4 1.571c3.972 1.56 4 1.609 4 6.92 0 2.941-.113 5.328-.25 5.304-.138-.025-1.938-.935-4-2.024zm-12-5.665c-3.596-1.475-3.75-1.734-3.75-6.322v-4.784l4 1.571c3.9 1.532 4 1.692 4 6.42 0 2.666-.113 4.804-.25 4.75-.138-.053-1.938-.789-4-1.635zm23.5-3.758c-3.05-1.326-3.25-1.722-3.25-6.46 0-5.465.153-5.589 4.85-3.951 3.009 1.048 3.15 1.34 3.15 6.5 0 2.971-.338 5.384-.75 5.363-.412-.022-2.212-.675-4-1.452zm-12-5c-2.983-1.297-3.25-1.786-3.25-5.96 0-4.945.186-5.077 4.85-3.451 2.956 1.03 3.15 1.4 3.15 6 0 5.39-.074 5.444-4.75 3.411zm-11.5-4.242c-3.525-1.446-3.75-1.8-3.75-5.903 0-4.753.2-4.888 4.85-3.266 2.956 1.03 3.15 1.4 3.15 6 0 2.696-.113 4.858-.25 4.805-.138-.054-1.938-.79-4-1.636zm24-5.693-3.75-.927v-10.806l3.25.685c4.53.954 4.905 1.538 4.557 7.081L41.5 159.5Zm-12.5-3.82c-3.087-.991-3.25-1.291-3.25-5.978v-4.935l3.25.697c4.685 1.005 4.75 1.095 4.75 6.521 0 2.718-.338 4.895-.75 4.839-.412-.056-2.212-.571-4-1.145zM13 151.11c-2.16-.597-2.542-1.343-2.809-5.493l-.308-4.802 3.308.71c4.72 1.013 4.809 1.125 4.809 6.034 0 4.641-.295 4.85-5 3.551zm23.25-7.816-2.25-.433v-34.824C34 70.121 33.709 72 39.582 72H42v36c0 39.586.503 36.499-5.75 35.294zm-7.75-1.868c-.55-.138-2.237-.524-3.75-.858-2.555-.563-2.75-.963-2.75-5.632v-5.027l3.75.678c2.063.373 3.888.794 4.056.935.81.68-.435 10.123-1.306 9.904zm-15.75-3.142c-2.581-.391-2.75-.726-2.75-5.457 0-4.186.268-4.938 1.582-4.434.87.334 2.67.607 4 .607 2.235 0 2.418.378 2.418 5 0 3.413-.397 4.952-1.25 4.85-.688-.082-2.487-.337-4-.566zm9.917-11.95c-.367-.367-.667-2.895-.667-5.617 0-4.646.138-4.913 2.25-4.347 1.238.331 3.038.609 4 .616 1.432.012 1.75.924 1.75 5.014v5h-3.333c-1.834 0-3.634-.3-4-.667zm-9.917-1.05c-2.524-.383-2.75-.781-2.75-4.85V116h8v5c0 3.413-.397 4.952-1.25 4.85-.688-.082-2.487-.337-4-.566zM22 108v-5h8v10h-8Zm-12-.5V103h8v9h-8zm0-13V90h8v9h-8Zm12-.5c0-4.09.318-5.002 1.75-5.014.963-.007 2.763-.285 4-.616 2.138-.573 2.25-.323 2.25 5.013V99h-8ZM10 82.107c0-4.735.176-5.107 2.418-5.107 1.33 0 3.13-.273 4-.607 1.315-.505 1.582.254 1.582 4.5C18 85.628 17.824 86 15.582 86c-1.33 0-3.13.273-4 .607-1.315.505-1.582-.254-1.582-4.5Zm12-1.982c0-4.66.138-4.903 3.125-5.5 4.832-.966 4.875-.929 4.875 4.268 0 5.19-.838 6.107-5.582 6.107C22.191 85 22 84.614 22 80.125ZM10 69.192c0-4.735.13-4.968 3.125-5.567 4.81-.962 4.875-.911 4.875 3.808 0 4.633.227 4.407-6.25 6.214-1.496.417-1.75-.228-1.75-4.455Zm12-3.004c0-4.417.268-5.038 2.407-5.575 1.324-.333 3.124-.88 4-1.216 1.328-.51 1.593.23 1.593 4.437 0 5.539-.06 5.622-4.75 6.628l-3.25.697Zm12-3.213c0-4.473.281-5.131 2.565-6 4.867-1.85 5.435-1.39 5.435 4.408 0 4.738-.27 5.456-2.25 5.987-5.181 1.388-5.75.954-5.75-4.395Zm-23.808-6.544c.291-4.485.51-4.81 4.058-6.033L18 49.105v4.88c0 5.146.3 4.83-6.308 6.68-1.59.446-1.771-.066-1.5-4.234zM22 52.281c0-4.618.178-4.943 3.321-6.08C30.024 44.5 30 44.48 30 49.94c0 5.426-.065 5.516-4.75 6.52L22 57.16Zm12-3.82c0-5.3.09-5.471 3.622-6.948 1.992-.832 3.815-1.513 4.05-1.513.235 0 .293 2.544.128 5.654-.294 5.547-.371 5.678-4.05 6.947L34 53.895Zm-24-4.948c0-4.21.222-4.58 3.622-6 1.992-.832 3.792-1.513 4-1.513.208 0 .378 2.048.378 4.551 0 4.248-.231 4.648-3.468 6-1.907.797-3.707 1.449-4 1.449-.293 0-.532-2.019-.532-4.487Zm12-6.093c0-6.85-.409-7.28-4.8-5.047-1.485.756-3.712 1.686-4.95 2.068-2.097.647-2.25.395-2.25-3.696v-4.39l9.236-4.928c5.08-2.71 9.58-5.077 10-5.26.42-.184.764 5.26.764 12.098v12.432l-4 1.57-4 1.572zm12-3.958c0-5.404.1-5.606 3.468-7.013 1.907-.797 3.707-1.449 4-1.449.293 0 .532 2.475.532 5.5s-.17 5.5-.378 5.5-2.008.681-4 1.513L34 39.027Zm0-14.726c0-4.795.28-5.47 2.904-7.02C41.35 9.09 42 9.507 42 14.98c0 4.803-.142 5.052-4 7.02l-4 2.04z"
       transform="translate(-9.017 -8.72)"
       id="path6" />
    <path
       style="fill:#ffffff;fill-opacity:1"
       d="M37.75 188.932c-3.626-1.914-3.75-2.158-3.75-7.382v-5.401l3.99 1.675 3.99 1.676.01 5.75c.005 3.162-.103 5.73-.24 5.706-.138-.025-1.938-.935-4-2.024zm25.737-2.112c-.277-.726-.387-40.92-.245-89.32l.258-88 17 .097c18.725.107 21.362.709 27.773 6.338 2.261 1.985 4.415 5.289 5.717 8.767 2.019 5.397 2.078 7.034 1.799 49.69-.282 42.963-.345 44.212-2.442 48.108-2.502 4.65-5.45 7.53-10.347 10.11-2.802 1.475-6.592 1.947-19 2.366l-15.5.524-.105 26c-.105 25.798-.122 26.002-2.255 26.32-1.182.176-2.376-.274-2.653-1zm39.22-60.004c2.54-1.684 4.934-4.479 6.422-7.5l2.371-4.816v-83l-3-6c-2.37-4.741-3.944-6.518-7.5-8.467-4.168-2.286-5.532-2.47-18.5-2.5l-14-.033-.258 57.82-.258 57.821 15.336-.32c14.704-.308 15.502-.431 19.387-3.005zM129 97.5V8.74l16.25.468c13.994.402 16.965.779 21.402 2.71 6.208 2.704 8.522 5.027 11.55 11.594L180.5 28.5l.318 66c.22 45.79-.022 67.568-.793 71.122-1.762 8.124-5.872 13.667-12.557 16.938-5.407 2.645-6.66 2.83-22.1 3.252L129 186.26Zm34.139 81.672c1.451-.57 4.259-2.46 6.24-4.2 6.645-5.834 6.621-5.556 6.621-77.472 0-72.302.072-71.492-6.89-77.781C164.266 15.342 158.48 14 144.45 14H134v167.284l13.25-.537c7.287-.295 14.438-1.003 15.889-1.575zm-137.389 3.76c-3.553-1.876-3.75-2.237-3.75-6.875v-4.896l4 1.571c3.972 1.56 4 1.609 4 6.92 0 2.941-.113 5.328-.25 5.304-.138-.025-1.938-.935-4-2.024zm-12-5.665c-3.596-1.475-3.75-1.734-3.75-6.322v-4.784l4 1.571c3.9 1.532 4 1.692 4 6.42 0 2.666-.113 4.804-.25 4.75-.138-.053-1.938-.789-4-1.635zm23.5-3.851c-3.043-1.331-3.25-1.74-3.25-6.419 0-5.41.156-5.536 4.85-3.9 3.009 1.05 3.15 1.34 3.15 6.5 0 5.886-.008 5.892-4.75 3.819zm-12-4.907c-2.983-1.297-3.25-1.786-3.25-5.96 0-4.945.186-5.077 4.85-3.451 2.956 1.03 3.15 1.4 3.15 6 0 5.39-.074 5.444-4.75 3.411zm-11.5-4.242c-3.525-1.446-3.75-1.8-3.75-5.903 0-4.753.2-4.888 4.85-3.266 2.956 1.03 3.15 1.4 3.15 6 0 2.696-.113 4.858-.25 4.805-.138-.054-1.938-.79-4-1.636zM38 158.51c-3.342-1.126-3.514-1.416-3.805-6.436l-.306-5.257 3.306.697c4.598.97 4.96 1.534 4.612 7.188l-.307 4.987Zm-12.75-3.757c-3.087-.99-3.25-1.29-3.25-5.977v-4.935l3.25.697c4.685 1.005 4.75 1.095 4.75 6.521 0 2.718-.338 4.895-.75 4.839-.412-.056-2.212-.571-4-1.145zm-12.5-3.915c-2.436-.89-2.75-1.512-2.75-5.44 0-4.319.073-4.42 2.75-3.834 5.127 1.124 5.25 1.262 5.25 5.905 0 4.839-.444 5.124-5.25 3.369zm23.5-7.544-2.25-.433v-34.824C34 70.121 33.709 72 39.582 72H42v36c0 39.586.503 36.499-5.75 35.294zm-12.5-2.983c-1.374-.36-1.75-1.538-1.75-5.491 0-4.18.269-4.93 1.582-4.427.87.334 2.67.607 4 .607 2.235 0 2.418.378 2.418 5 0 5.276-.702 5.76-6.25 4.31zM13 138.11c-2.127-.588-2.544-1.361-2.796-5.182l-.296-4.49 4.046.385 4.046.386v4.895c0 5.126-.242 5.32-5 4.005zm10.25-11.773c-.75-.303-1.25-2.379-1.25-5.198v-4.693l4 .382 4 .381v4.895c0 4.692-.114 4.892-2.75 4.816-1.512-.043-3.313-.306-4-.583zm-10-1.061c-3.118-.387-3.25-.584-3.25-4.84V116h8v5c0 2.75-.338 4.928-.75 4.84-.412-.088-2.212-.342-4-.563zM22 108v-5h8v10h-8Zm-12-.5V103h8v9h-8zm0-13V90h8v9h-8zm12-.44c0-4.147.316-5.062 1.75-5.074.963-.007 2.788-.291 4.057-.631 2.225-.596 2.296-.427 2 4.764L29.5 98.5l-3.75.31-3.75.31ZM10 82.576c0-4.758.111-4.885 5.25-6.012 2.715-.594 2.75-.538 2.75 4.417C18 85.623 17.818 86 15.582 86c-1.33 0-3.13.273-4 .607-1.302.5-1.582-.213-1.582-4.031Zm12-2.451c0-4.66.138-4.903 3.125-5.5 4.831-.966 4.875-.928 4.875 4.258 0 4.22-.306 4.966-2.25 5.487-5.153 1.38-5.75.94-5.75-4.245ZM10 69.444c0-3.903.337-4.622 2.565-5.469C17.276 62.184 18 62.651 18 67.481c0 4.076-.249 4.535-2.75 5.083-1.512.332-3.313.776-4 .988-.872.269-1.25-.975-1.25-4.108ZM22 66.2c0-4.948.008-4.96 4-5.973l4-1.015v4.834c0 5.315-.072 5.411-4.75 6.415l-3.25.697Zm12-3.142c0-5.426.065-5.516 4.75-6.52L42 55.84v5.455c0 5.309-.083 5.47-3.125 6.079-4.834.967-4.875.93-4.875-4.316Zm-23.81-6.584c.294-4.536.505-4.851 4.06-6.077L18 49.105v4.839c0 4.278-.28 4.91-2.407 5.443-1.324.333-3.151.89-4.06 1.239-1.42.544-1.61-.043-1.343-4.15zM22 52.108c0-4.333.275-4.96 2.407-5.495 1.324-.333 3.124-.88 4-1.216 1.327-.509 1.593.227 1.593 4.398 0 4.72-.182 5.073-3.15 6.107C22.163 57.537 22 57.41 22 52.108Zm12.201-3.797c.294-5.52.366-5.641 4.098-6.93l3.799-1.31-.3 5.618c-.293 5.52-.365 5.641-4.097 6.93l-3.799 1.31zM10 43.685c0-3.954.295-4.455 3.534-6 1.944-.927 3.744-1.685 4-1.685.256 0 .466 2.048.466 4.551 0 4.248-.231 4.648-3.468 6-1.907.797-3.707 1.449-4 1.449-.293 0-.532-1.942-.532-4.315ZM22 37c0-3.3-.413-6-.917-6s-3.017.9-5.583 2c-2.566 1.1-4.854 2-5.083 2-.23 0-.417-1.925-.417-4.278v-4.279l10-5.295 10-5.295v24.951l-3.15 1.098C22.104 43.557 22 43.453 22 37Zm12-3.395c0-5.007.153-5.308 3.534-6.92 1.944-.927 3.744-1.685 4-1.685.256 0 .466 2.407.466 5.348 0 5.311-.028 5.36-4 6.92l-4 1.571zm0-14.87c0-4.794.28-5.469 2.904-7.02C41.35 9.09 42 9.508 42 14.98c0 4.803-.142 5.052-4 7.02l-4 2.04z"
       transform="translate(-9.017 -8.72)"
       id="path8" />
    <path
       style="fill:#ffffff;fill-opacity:1"
       d="M37.25 188.255c-2.993-1.49-3.25-1.999-3.25-6.436 0-5.241.567-5.611 5.05-3.293 2.667 1.379 2.95 2.003 2.95 6.5 0 5.484-.092 5.547-4.75 3.229zm27.25-1.006c-.657-.492-.907-31.227-.729-89.638l.271-88.89 16.23.57c8.991.317 18.012 1.154 20.228 1.877 2.2.719 5.883 3.183 8.184 5.477C115.797 23.735 116 25.283 116 72.5c0 45.295-.271 47.77-5.99 54.685-5.013 6.06-11.326 7.815-28.117 7.815H67.861l.225 26.25c.188 21.895-.007 26.291-1.18 26.499-.773.137-1.856-.088-2.406-.5zm36-59.13c4.76-2.186 6.812-4.336 9.212-9.656 1.597-3.54 1.821-8.038 2.102-42.142.343-41.683-.147-47.444-4.566-53.732-4.812-6.849-8.602-8.087-24.748-8.088l-14-.001-.258 57.75-.258 57.75 14.258-.022c11.685-.018 14.98-.353 18.258-1.859ZM129 96.86V8.72l16.452.5c15.412.467 16.808.673 22.1 3.262 6.64 3.249 10.755 8.863 12.437 16.968.727 3.501.987 26.74.795 71.125-.315 73.217-.006 69.837-7.085 77.298-5.94 6.26-9.169 7.081-27.949 7.106L129 185Zm31.067 83.033c3.45-.74 6.43-2.25 8.971-4.545 7.104-6.419 6.963-4.834 6.956-77.775-.004-42.322-.372-66.393-1.054-68.85-.577-2.077-2.441-5.362-4.143-7.3-5.26-5.99-7.763-6.776-23.047-7.236L134 13.773V181h10.45c5.749 0 12.776-.499 15.617-1.108zM25.25 182.255c-2.983-1.485-3.25-2.008-3.25-6.362v-4.744l3.99 1.675c3.855 1.62 3.99 1.836 4 6.426.011 5.249-.095 5.316-4.74 3.005zm-11.5-5.323c-3.373-1.78-3.75-2.38-3.75-5.956 0-4.435.034-4.455 4.679-2.775 3.133 1.133 3.321 1.472 3.321 6 0 2.64-.113 4.78-.25 4.755-.138-.025-1.938-.935-4-2.024zm23.5-3.677c-2.993-1.49-3.25-1.999-3.25-6.436 0-5.226.167-5.354 4.85-3.721 3.009 1.048 3.15 1.34 3.15 6.5 0 2.971-.338 5.373-.75 5.338-.412-.035-2.212-.792-4-1.681zm-12-4.84c-2.974-1.3-3.25-1.802-3.25-5.918 0-4.891.19-5.024 4.85-3.4 2.956 1.03 3.15 1.401 3.15 6 0 5.359-.032 5.382-4.75 3.319zm-12.5-4.714c-2.415-.955-2.75-1.62-2.75-5.461 0-3.897.218-4.313 2-3.807l4 1.134c1.614.458 2 1.424 2 5 0 4.744-.468 5.023-5.25 3.134zM38 158.589c-3.319-1.193-3.516-1.526-3.802-6.423-.325-5.556-.123-5.733 4.653-4.068 3.008 1.048 3.149 1.34 3.149 6.5 0 2.971-.113 5.368-.25 5.326-.138-.042-1.825-.642-3.75-1.335zm-12.25-3.895c-3.699-.88-3.75-.96-3.75-5.768v-4.876l3.25.607c4.493.84 4.915 1.44 4.56 6.497l-.31 4.432Zm-13-3.856c-2.442-.892-2.75-1.507-2.75-5.489 0-4.006.213-4.423 2-3.916l4 1.134c1.614.458 2 1.424 2 5 0 4.734-.46 5.02-5.25 3.27zm23.5-7.544-2.25-.433V73.233l2.25-.603C42.408 70.98 42 68.47 42 108c0 39.586.503 36.499-5.75 35.294zm-12.5-2.983c-1.374-.36-1.75-1.538-1.75-5.491 0-4.18.269-4.93 1.582-4.427.87.334 2.67.607 4 .607 2.235 0 2.418.378 2.418 5 0 5.276-.702 5.76-6.25 4.31zm-10.25-2.184c-2.703-.574-3.03-1.063-3.31-4.946l-.311-4.309 3.81.314c3.786.312 3.813.345 4.116 5.064.167 2.612-.058 4.697-.5 4.632-.443-.065-2.155-.405-3.805-.755Zm10.25-11.816c-1.334-.349-1.75-1.51-1.75-4.884V117h8v5c0 5.276-.702 5.76-6.25 4.31zm-10-1.04c-3.711-.388-3.75-.438-3.75-4.831V116h8v5c0 2.75-.113 4.924-.25 4.832-.138-.093-1.938-.345-4-.56zm8.917-12.938c-.367-.366-.667-2.616-.667-5V103h8v10h-3.333c-1.834 0-3.634-.3-4-.667zM10 107.5V103h8v9h-8zm0-13V90h8v9h-8zm12-.39c0-4.853.027-4.894 3.53-5.303 1.942-.227 3.742-.201 4 .057.259.258.47 2.371.47 4.696 0 4.474-.991 5.44-5.582 5.44C22.19 99 22 98.615 22 94.11ZM10 82.334c0-4.698.237-4.986 4.5-5.484 2.918-.341 3.008-.224 3.3 4.29l.3 4.64-4.05.386-4.05.386ZM22 80c0-4.09.318-5.002 1.75-5.014.963-.007 2.763-.285 4-.616 2.113-.567 2.25-.3 2.25 4.388 0 4.791-.126 5.017-3.125 5.617C22.039 85.342 22 85.308 22 80ZM10 69.453c0-4.789.104-4.918 4.75-5.915l3.25-.697V67.3c0 4.365-.083 4.479-4 5.473l-4 1.015zm12-3.257c0-4.301.3-5.043 2.25-5.566 5.064-1.357 5.75-.902 5.75 3.811 0 4.9-.097 5.023-4.75 6.02L22 71.16Zm12-3.098c0-4.6.194-4.97 3.15-6C41.845 55.46 42 55.585 42 61.025c0 4.473-.281 5.131-2.565 6-4.79 1.82-5.435 1.354-5.435-3.927ZM10 56.66c0-3.68.387-4.516 2.547-5.5C17.031 49.118 18 49.63 18 54.05c0 3.677-.32 4.185-3.468 5.5-1.907.797-3.707 1.449-4 1.449-.293 0-.532-1.953-.532-4.34Zm12-4.212c0-4.248.231-4.648 3.468-6 1.907-.797 3.707-1.449 4-1.449.293 0 .532 2.206.532 4.902 0 4.6-.194 4.97-3.15 6C22.187 57.528 22 57.396 22 52.45Zm12-4.288c0-4.216.328-4.99 2.547-6C41.212 40.035 42 40.575 42 45.902c0 4.6-.194 4.97-3.15 6-4.684 1.633-4.85 1.505-4.85-3.741Zm-24-4.5c0-3.68.387-4.516 2.547-5.5C17.031 36.118 18 36.63 18 41.05c0 3.677-.32 4.185-3.468 5.5-1.907.797-3.707 1.449-4 1.449-.293 0-.532-1.953-.532-4.34Zm12-7.106V30.11l-5.529 2.445c-3.04 1.345-5.74 2.445-6 2.445-.259 0-.463-1.913-.453-4.25l.018-4.25 8.928-4.75c4.91-2.613 9.403-4.75 9.982-4.75C29.623 17 30 21.101 30 28.474V39.95l-2.95 1.525c-4.662 2.41-5.05 2.033-5.05-4.919Zm12-2.891c0-5.075.146-5.363 3.534-6.979 1.944-.927 3.744-1.685 4-1.685.256 0 .466 2.195.466 4.878 0 5.055-.565 5.905-5.25 7.905L34 38.957Zm.006-14.894c.006-4.855.253-5.41 3.136-7.051 1.72-.98 3.291-1.62 3.49-1.421.197.198.642 2.424.988 4.947.627 4.577.62 4.592-3.496 6.692L34 24.04Z"
       transform="translate(-9.017 -8.72)"
       id="path10" />
    <path
       style="fill:#ffffff;fill-opacity:1"
       d="M37.25 188.255c-2.993-1.49-3.25-1.999-3.25-6.436 0-2.65.24-4.819.532-4.819.293 0 2.093.652 4 1.449 3.308 1.382 3.468 1.681 3.468 6.5 0 2.778-.338 5.022-.75 4.987-.412-.035-2.212-.792-4-1.681zm27.25-1.02c-.657-.483-.907-30.993-.729-88.985L64.042 10h16.113c19.03 0 22.748.865 28.529 6.637C115.797 23.74 116 25.287 116 72.5c0 46.824-.242 48.742-7 55.5-5.552 5.552-11.292 7-27.74 7H67.884l.12 25.25c.066 13.887.092 25.813.058 26.5-.068 1.375-1.994 1.637-3.562.485zm36.53-59.485c5.326-2.69 8.438-7.042 9.895-13.836 1.382-6.446 1.439-74.695.068-82.028-1.255-6.713-5.274-12.571-10.493-15.297-3.39-1.77-6.17-2.141-18.25-2.433L68 13.812V130h14.288c12.831 0 14.742-.23 18.742-2.25zM129 97.419V9.838l17.75.331c17.265.322 17.877.406 22.413 3.072 5.555 3.266 8.248 7.299 10.35 15.5 1.348 5.264 1.513 14.827 1.238 71.418-.35 71.837-.144 69.435-6.62 77.002-5.923 6.919-9.093 7.792-28.381 7.817L129 185Zm37.346 80.224c3.016-1.767 5.45-4.212 6.906-6.936l2.248-4.207.277-66.792c.188-45.125-.07-68.08-.792-70.763-.588-2.184-2.467-5.563-4.176-7.51-5.272-6.004-7.768-6.789-23.059-7.249L134 13.773v167.483l13.844-.441c12.86-.41 14.175-.636 18.502-3.172zM25.25 182.255c-2.915-1.451-3.25-2.063-3.25-5.936 0-4.8.01-4.806 4.679-3.118 3.133 1.133 3.321 1.472 3.321 6 0 5.3-.103 5.366-4.75 3.054zm-11.5-5.323c-3.373-1.78-3.75-2.38-3.75-5.956 0-4.527-.11-4.466 4.532-2.527 3.237 1.352 3.468 1.752 3.468 6 0 2.503-.113 4.531-.25 4.507-.138-.025-1.938-.935-4-2.024zm23.5-3.677c-3.008-1.497-3.25-1.985-3.25-6.543 0-4.096.269-4.823 1.593-4.315.876.336 2.676.883 4 1.216 2.17.544 2.407 1.134 2.407 5.995 0 2.966-.338 5.363-.75 5.328-.412-.035-2.212-.792-4-1.681zm-12-4.84c-2.99-1.307-3.25-1.789-3.25-6.025 0-3.8.278-4.497 1.593-3.993.876.336 2.676.883 4 1.216 2.132.535 2.407 1.162 2.407 5.495 0 5.347-.033 5.37-4.75 3.308zm-12.5-4.714c-2.42-.957-2.75-1.616-2.75-5.501 0-3.627.284-4.305 1.593-3.803.876.336 2.676.883 4 1.216 2.086.523 2.407 1.19 2.407 4.995 0 4.7-.475 4.98-5.25 3.093zm23.5-5.732c-1.921-.772-2.25-1.65-2.25-6.004 0-4.622.187-5.047 2-4.532l4 1.134c1.653.47 2 1.424 2 5.5 0 5.297-.848 5.872-5.75 3.902zm-10.5-3.172c-3.696-.981-3.75-1.067-3.75-5.964 0-4.49.192-4.913 2-4.4l4 1.134c1.653.47 2 1.424 2 5.5 0 2.713-.113 4.886-.25 4.83-.138-.057-1.938-.552-4-1.1zm-13-3.96c-2.42-.883-2.75-1.522-2.75-5.314v-4.31l4 1.015c3.903.99 4 1.121 4 5.394 0 4.676-.468 4.962-5.25 3.216zm24-7.553-2.75-.417V73.233l2.25-.603C42.408 70.98 42 68.47 42 108c0 28.213-.27 35.968-1.25 35.85-.688-.082-2.487-.337-4-.566zm-13-2.973c-1.358-.355-1.75-1.526-1.75-5.227v-4.77l3.75.606c3.664.59 3.757.714 4.055 5.342.283 4.396.138 4.73-2 4.622-1.268-.064-3.093-.322-4.055-.573Zm-10.25-2.184c-2.694-.572-3.031-1.07-3.307-4.882-.285-3.933-.126-4.245 2.168-4.245 4.693 0 5.639.94 5.639 5.607 0 2.416-.338 4.34-.75 4.275-.412-.065-2.1-.405-3.75-.755zm10.25-11.816c-1.334-.349-1.75-1.51-1.75-4.884V117h8v5c0 5.276-.702 5.76-6.25 4.31zM10 120.5V116h8v9h-8zm13.25-8.162c-.735-.297-1.25-2.324-1.25-4.921V103h8v5c0 4.807-.106 4.997-2.75 4.921-1.512-.043-3.313-.306-4-.583zM10 107.5V103h8v9h-8zm0-13V90h8v9h-8zm12-.39c0-4.853.027-4.894 3.53-5.303 1.942-.227 3.742-.201 4 .057.259.258.47 2.363.47 4.678 0 3.913-.22 4.252-3.125 4.833-4.832.966-4.875.929-4.875-4.266ZM10.19 81.813c.303-4.212.4-4.321 4.12-4.628l3.811-.314-.31 4.314c-.304 4.212-.4 4.321-4.122 4.628l-3.81.314zM22 80c0-4.09.318-5.002 1.75-5.014.963-.007 2.763-.285 4-.616 2.113-.567 2.25-.3 2.25 4.388 0 4.791-.126 5.017-3.125 5.617C22.039 85.342 22 85.308 22 80ZM10 69.059c0-4.374.135-4.531 4.75-5.52L18 62.84v4.463c0 3.783-.343 4.555-2.25 5.066-4.942 1.324-5.75.86-5.75-3.311Zm12-2.923c0-4.239.305-4.984 2.25-5.506 5.083-1.362 5.75-.91 5.75 3.901 0 4.643-.123 4.781-5.25 5.905-2.708.593-2.75.527-2.75-4.3Zm12-2.959c0-4.688.185-5.046 3.15-6.08C41.84 55.463 42 55.59 42 60.942c0 5.426-.065 5.516-4.75 6.52L34 68.16Zm-24-6.586c0-3.605.397-4.45 2.547-5.43C17.003 49.13 18 49.638 18 53.94c0 4.22-.44 4.751-5.033 6.068-2.959.85-2.967.84-2.967-3.418Zm12-4.142c0-4.248.231-4.648 3.468-6 1.907-.797 3.707-1.449 4-1.449.293 0 .532 2.206.532 4.902 0 4.6-.194 4.97-3.15 6C22.187 57.528 22 57.396 22 52.45Zm12-4.288c0-4.216.328-4.99 2.547-6C41.212 40.035 42 40.575 42 45.902c0 4.6-.194 4.97-3.15 6-4.684 1.633-4.85 1.505-4.85-3.741Zm-24-4.5c0-3.68.387-4.516 2.547-5.5C16.522 36.349 17 36.697 17 41.402c0 4.039-.26 4.493-3.15 5.5-1.731.604-3.306 1.098-3.5 1.098-.192 0-.35-1.953-.35-4.34Zm12-7.148v-6.488l-5.624 2.488c-3.094 1.368-5.794 2.487-6 2.487-.207 0-.37-1.913-.364-4.25l.012-4.25 8.595-4.5c4.727-2.475 8.997-4.65 9.488-4.833.493-.184.893 5.012.893 11.59 0 11.805-.025 11.933-2.547 13.082C22.332 43.717 22 43.32 22 36.513Zm12-2.876c0-5.049.147-5.337 3.55-6.96l3.55-1.692-.3 5.597c-.282 5.258-.497 5.68-3.55 6.96L34 38.903Zm0-14.968c0-5.07.15-5.37 3.5-6.968l3.5-1.669v5.299c0 5.07-.15 5.37-3.5 6.968L34 23.968Z"
       transform="translate(-9.017 -8.72)"
       id="path12" />
    <path
       style="fill:#ffffff;fill-opacity:1"
       d="M37.25 188.255c-2.993-1.49-3.25-1.999-3.25-6.436 0-2.65.24-4.819.532-4.819.293 0 2.093.652 4 1.449 3.308 1.382 3.468 1.681 3.468 6.5 0 2.778-.338 5.022-.75 4.987-.412-.035-2.212-.792-4-1.681zm27.122-1.505c-.485-.696-.754-40.202-.606-89.063l.266-87.813 17.734.313c15.67.277 18.2.556 21.734 2.401 5.351 2.794 10.067 9.167 11.408 15.418 1.744 8.133 1.47 84.417-.324 90.38-1.939 6.443-5.408 10.662-11.198 13.619-4.46 2.278-6.218 2.525-20.18 2.836l-15.295.34.14 25.351c.076 13.943-.155 25.828-.515 26.41-.872 1.41-2.097 1.337-3.164-.192zm35.374-58.288c4.772-1.994 6.98-4.052 9.61-8.962 2.095-3.91 2.144-4.962 2.144-46.5 0-41.264-.062-42.634-2.131-47.108-2.293-4.96-6.825-8.931-12.268-10.754C95.23 14.512 87.919 14 80.85 14H68v116h14.032c10.366 0 14.994-.402 17.714-1.538zM129 97.5V10h15.822c19.175 0 23.32 1.082 29.042 7.583 6.737 7.654 6.636 6.433 6.636 79.917 0 75.046.198 72.911-7.449 80.524-6.147 6.12-9.633 6.976-28.417 6.976H129Zm37.262 80.192c3.097-1.815 5.521-4.237 6.99-6.985l2.248-4.207v-138l-2.793-4.752c-4.616-7.853-8.364-9.226-25.207-9.238l-14-.01-.258 82c-.142 45.1-.024 82.613.262 83.363.414 1.086 3.32 1.286 14.268.986 12.882-.354 14.047-.553 18.49-3.157zM25.25 182.255c-2.915-1.451-3.25-2.063-3.25-5.936 0-4.724.636-5.076 5.05-2.793 2.6 1.344 2.95 2.056 2.95 6 0 4.958-.125 5.03-4.75 2.729zm-11.5-5.323c-3.373-1.78-3.75-2.38-3.75-5.956 0-4.527-.11-4.466 4.532-2.527 3.237 1.352 3.468 1.752 3.468 6 0 2.503-.113 4.531-.25 4.507-.138-.025-1.938-.935-4-2.024zm24-3.59c-3.626-1.504-3.75-1.721-3.75-6.556 0-4.163.267-4.898 1.593-4.389.876.336 2.676.883 4 1.216 2.17.544 2.407 1.134 2.407 5.995 0 2.966-.113 5.369-.25 5.34-.138-.028-1.938-.751-4-1.606zm-12.5-4.926c-2.99-1.308-3.25-1.79-3.25-6.026 0-3.8.278-4.497 1.593-3.993.876.336 2.676.883 4 1.216 2.132.535 2.407 1.162 2.407 5.495 0 5.347-.033 5.37-4.75 3.308zm-12.5-4.715c-2.42-.957-2.75-1.616-2.75-5.501 0-3.627.284-4.305 1.593-3.803.876.336 2.676.883 4 1.216 2.086.523 2.407 1.19 2.407 4.995 0 4.7-.475 4.98-5.25 3.093zm23.5-5.732c-1.921-.772-2.25-1.65-2.25-6.004 0-4.622.187-5.047 2-4.532l4 1.134c1.653.47 2 1.424 2 5.5 0 5.297-.848 5.872-5.75 3.902zM26 154.589c-3.256-1.17-3.521-1.588-3.808-6.009-.285-4.384-.15-4.706 1.75-4.166L28 145.567c1.653.47 2 1.424 2 5.5 0 2.713-.113 4.899-.25 4.857-.138-.042-1.825-.642-3.75-1.334zm-12.75-3.708c-3.027-.874-3.25-1.238-3.25-5.303v-4.365l4 1.015c3.903.99 4 1.121 4 5.394 0 2.408-.338 4.337-.75 4.288-.412-.05-2.212-.513-4-1.029zM37 143.106l-2.5-.696-.263-34.585-.263-34.585 2.263-.606C42.41 70.98 42 68.46 42 108c0 28.186-.271 35.978-1.25 35.9-.688-.054-2.375-.412-3.75-.795zm-12.75-2.812c-1.959-.377-2.25-1.051-2.25-5.206v-4.773l3.75.605c3.664.59 3.757.714 4.055 5.342.325 5.058.208 5.142-5.555 4.032zm-7.75-1.867a190.05 190.05 0 0 0-3.75-.859c-2.438-.537-2.75-1.058-2.75-4.587 0-3.68.208-3.98 2.75-3.966 4.327.024 5.415 1.243 5.065 5.674-.173 2.195-.765 3.877-1.315 3.738Zm7.75-12.133c-1.93-.371-2.25-1.064-2.25-4.864V117h8v5c0 5.304-.104 5.382-5.75 4.294zM10 120.5V116h8v9h-8zm14.75-8.216c-2.524-.383-2.75-.781-2.75-4.85V103h8v5c0 3.413-.397 4.952-1.25 4.85-.688-.082-2.487-.337-4-.566zM10 107.5V103h8v9h-8zm0-13V90h8v9h-8Zm12-.383V89h8v4.5c0 3.614-.345 4.503-1.75 4.514-.963.007-2.763.285-4 .616-2.119.568-2.25.305-2.25-4.513Zm-12-11.95C10 77.972 11.061 77 15.64 77c2.293 0 2.452.312 2.167 4.25-.298 4.125-.417 4.26-4.057 4.56l-3.75.31Zm12-2.05c0-4.201.313-5.12 1.75-5.13.963-.008 2.763-.286 4-.617 2.119-.568 2.25-.305 2.25 4.513 0 4.201-.313 5.12-1.75 5.13-.963.008-2.763.286-4 .617-2.119.568-2.25.305-2.25-4.513ZM10 69.059c0-4.268.15-4.46 4.25-5.44 2.684-.641 2.75-.55 2.75 3.755C17 71.92 16.024 73 11.918 73 10.352 73 10 72.277 10 69.059Zm12-3.04c0-3.341.418-5.024 1.25-5.033.688-.007 2.263-.285 3.5-.616 2.092-.561 2.25-.284 2.25 3.954 0 4.91-.111 5.068-4.25 6.057-2.722.65-2.75.606-2.75-4.362Zm12-2.805c0-4.73.181-5.081 3.15-6.116C38.88 56.494 40.455 56 40.65 56c.192 0 .35 2.475.35 5.5 0 3.726-.403 5.504-1.25 5.514-.688.007-2.263.285-3.5.616-2.115.567-2.25.301-2.25-4.416Zm-24-6.647c0-3.58.4-4.428 2.547-5.406C16.516 49.352 17 49.697 17 54.332c0 4.08-.204 4.395-3.5 5.407L10 60.813Zm12.195-4.25c.276-4.228.62-4.81 3.555-6.002l3.25-1.32v4.904c0 4.603-.194 4.973-3.15 6.003C24.12 56.506 22.52 57 22.297 57c-.223 0-.268-2.107-.1-4.682ZM34 48.162c0-4.216.328-4.99 2.547-6C40.577 40.325 41 40.692 41 46.025c0 4.473-.281 5.131-2.565 6C34.349 53.578 34 53.274 34 48.16Zm-24-4.594c0-3.58.4-4.428 2.547-5.406C16.516 36.352 17 36.697 17 41.332c0 4.08-.204 4.395-3.5 5.407L10 47.813ZM22 36.5c0-3.575-.24-6.5-.533-6.5-.294 0-2.754 1.125-5.467 2.5-2.713 1.375-5.173 2.5-5.467 2.5-.293 0-.528-1.913-.521-4.25l.012-4.25 8.595-4.5c4.727-2.475 8.997-4.65 9.488-4.833.493-.184.893 5.038.893 11.652v11.985l-3.15 1.098C24.12 42.506 22.545 43 22.35 43c-.192 0-.35-2.925-.35-6.5Zm12-3.315c0-4.518.216-4.917 3.5-6.484l3.5-1.669v5.324c0 4.734-.282 5.451-2.547 6.483C34.44 38.668 34 38.306 34 33.185Zm0-14.408c0-5.21.13-5.468 3.553-7.1l3.552-1.695-.302 5.209c-.272 4.683-.631 5.4-3.553 7.1L34 24.185Z"
       transform="translate(-9.017 -8.72)"
       id="path14" />
  </g>
</svg>
