<?xml version="1.0" encoding="UTF-8" standalone="no"?>
<!-- Created with Inkscape (http://www.inkscape.org/) -->

<svg
   version="1.1"
   id="svg9"
   width="171.98312"
   height="182.23611"
   viewBox="0 0 171.98312 182.23611"
   sodipodi:docname="PDlogo-light.svg"
   inkscape:version="1.2.2 (732a01da63, 2022-12-09)"
   xmlns:inkscape="http://www.inkscape.org/namespaces/inkscape"
   xmlns:sodipodi="http://sodipodi.sourceforge.net/DTD/sodipodi-0.dtd"
   xmlns="http://www.w3.org/2000/svg"
   xmlns:svg="http://www.w3.org/2000/svg">
  <defs
     id="defs13" />
  <sodipodi:namedview
     id="namedview11"
     pagecolor="#ffffff"
     bordercolor="#000000"
     borderopacity="0.25"
     inkscape:showpageshadow="2"
     inkscape:pageopacity="0.0"
     inkscape:pagecheckerboard="0"
     inkscape:deskcolor="#d1d1d1"
     showgrid="false"
     inkscape:zoom="4.07"
     inkscape:cx="50.2457"
     inkscape:cy="88.452088"
     inkscape:window-width="1920"
     inkscape:window-height="1017"
     inkscape:window-x="-8"
     inkscape:window-y="1072"
     inkscape:window-maximized="1"
     inkscape:current-layer="g15" />
  <g
     inkscape:groupmode="layer"
     inkscape:label="Image"
     id="g15"
     style="display:inline"
     transform="translate(-9.016882,-8.7198537)">
    <g
       id="g185"
       style="display:inline">
      <path
         style="fill:#d8c4ac;fill-opacity:1"
         d="M 37.75,188.88131 C 34.106354,187.00693 34,186.79653 34,181.46269 v -5.48953 l 3.698635,1.54539 c 2.034249,0.84996 3.858228,1.70498 4.053287,1.90004 0.195058,0.19506 0.218173,2.83801 0.05136,5.87323 L 41.5,190.81039 Z m 25.958849,-1.50579 C 63.318982,186.98565 63,146.69167 63,97.833333 V 9 H 77.333219 C 97.633696,9 102.2203,10.092522 108.55536,16.43707 116.48193,24.375509 116.5,24.506461 116.5,74 v 42.5 l -2.37298,4.77734 c -2.84694,5.73154 -8.68268,10.97335 -13.98546,12.5621 C 98.011079,134.47775 90.140141,135 82.650584,135 H 69.033207 l -0.266604,26.25 c -0.259631,25.56351 -0.319983,26.25764 -2.307754,26.54218 -1.122633,0.1607 -2.360133,-0.0268 -2.75,-0.41666 z m 33.768605,-58.4909 c 5.097496,-1.41518 10.991986,-7.30967 12.407166,-12.40717 0.72062,-2.59571 1.10616,-17.898156 1.1098,-44.049311 0.006,-43.61226 -0.25383,-45.99297 -5.65717,-51.820232 C 100.94373,15.869695 97.407027,15 82.532119,15 H 69 V 72.5 130 l 12.25,-0.006 c 6.7375,-0.003 14.039854,-0.50248 16.227454,-1.1098 z M 128.50466,184.8651 C 128.21816,184.11429 128.09991,144.35 128.24188,96.5 L 128.5,9.5 h 17.02731 c 16.29756,0 17.24004,0.1094855 21.99077,2.554602 6.21354,3.197995 10.96724,9.318275 12.38984,15.951628 C 180.63419,31.392749 181,54.961112 181,98.36772 c 0,71.63674 0.005,71.56854 -5.97007,78.79249 -1.66513,2.01311 -5.16555,4.70046 -7.77872,5.97187 -4.25384,2.06968 -6.5033,2.35284 -21.48843,2.7049 -13.4925,0.31699 -16.8382,0.12858 -17.25812,-0.97188 z m 36.07394,-6.76143 c 5.1001,-2.31635 8.00048,-5.94718 9.9235,-12.4227 C 175.76259,161.43643 176,150.76778 176,98.36772 176,57.732965 175.6265,34.356867 174.92498,31.085775 173.46807,24.292472 170.35559,19.940385 165.03004,17.25 161.07702,15.252998 159.08206,15 147.28811,15 H 134 V 97.5 180 l 13.25,-0.022 c 10.73036,-0.0178 14.02559,-0.37422 17.3286,-1.87437 z M 25.75,182.88187 C 22.175542,181.04255 22,180.71865 22,175.96269 v -4.98953 l 3.698635,1.54539 c 2.034249,0.84996 3.859492,1.70624 4.056094,1.90285 0.196603,0.1966 0.219717,2.6148 0.05137,5.37378 L 29.5,184.81151 Z m -12.5,-5.62725 C 10.254895,175.764 10,175.25818 10,170.80515 v -4.83199 l 3.622124,1.51342 c 1.992168,0.83238 3.792168,1.51342 4,1.51342 C 17.829956,169 18,171.25 18,174 c 0,5.51177 -0.09033,5.57366 -4.75,3.25462 z m 23.5,-3.55404 C 34.194474,172.69076 34,172.20696 34,166.85931 v -5.75461 l 3.75,1.2939 c 3.679037,1.26942 3.755675,1.40089 4.049904,6.94765 0.323706,6.10247 0.02529,6.35979 -5.049904,4.35433 z m -11,-4.53932 C 22.067065,167.75423 22,167.6336 22,162.41632 v -5.31228 l 3.25,1.08446 c 4.639383,1.54807 4.898807,1.97306 4.557212,7.46567 L 29.5,170.59391 Z M 14,164.51097 c -3.270711,-1.1018 -3.520214,-1.49076 -3.808562,-5.93732 l -0.308561,-4.75829 3.308561,0.69768 c 4.556976,0.96092 4.974041,1.56519 4.619051,6.69245 L 17.5,165.69 Z m 23.25,-5.75772 C 34.105512,157.74453 34,157.53276 34,152.23034 V 146.75 l 3.125,0.625 c 1.71875,0.34375 3.51875,0.625 4,0.625 0.48125,0 0.875,2.7 0.875,6 0,3.3 -0.3375,5.95406 -0.75,5.89791 -0.4125,-0.0562 -2.2125,-0.57124 -4,-1.14466 z m -12.5,-3.91553 C 22.246448,153.92334 22,153.38151 22,148.79167 V 143.75 l 3.125,0.625 c 1.71875,0.34375 3.51875,0.625 4,0.625 0.48125,0 0.875,2.475 0.875,5.5 0,5.8747 -0.31934,6.13855 -5.25,4.33772 z m -12.5,-3.54345 C 10.271112,150.91312 10,150.25275 10,145.81382 c 0,-4.746 0.134221,-5.01111 2.25,-4.44411 1.2375,0.33164 3.0375,0.60913 4,0.61664 1.431513,0.0112 1.75,0.92361 1.75,5.01365 0,5.3036 -0.104498,5.38164 -5.75,4.29427 z m 23.5,-7.9836 C 34.125428,142.88613 34,140.3478 34,107.89529 c 0,-27.094398 0.281182,-35.044684 1.25,-35.343152 0.6875,-0.211801 2.4875,-0.656251 4,-0.987667 L 42,70.961896 V 107.48095 144 l -2.25,-0.116 c -1.2375,-0.0638 -3.0375,-0.3218 -4,-0.57333 z M 25.5,141.12616 c -2.830492,-0.60121 -3.017346,-0.94125 -3.30699,-6.01808 l -0.30699,-5.38088 3.18199,0.6364 C 26.818105,130.71362 28.64375,131 29.125,131 c 0.48125,0 0.875,2.475 0.875,5.5 0,3.025 -0.3375,5.44676 -0.75,5.38169 -0.4125,-0.0651 -2.1,-0.40506 -3.75,-0.75553 z M 12.25,138.29427 C 10.271112,137.91312 10,137.25275 10,132.81382 c 0,-4.746 0.134221,-5.01111 2.25,-4.44411 1.2375,0.33164 3.0375,0.60913 4,0.61664 1.431513,0.0112 1.75,0.92361 1.75,5.01365 0,5.3036 -0.104498,5.38164 -5.75,4.29427 z M 22,121.5 c 0,-5.8668 0.487807,-6.27993 5.75,-4.86971 1.943851,0.52093 2.25,1.26743 2.25,5.48634 V 127 h -4 -4 z m -9.75,3.79427 C 10.29673,124.91805 10,124.24015 10,120.15402 v -4.70687 l 4,0.38146 4,0.38146 v 4.89497 c 0,5.18792 -0.118122,5.27397 -5.75,4.18923 z m 0,-13 C 10.320443,111.92262 10,111.22992 10,107.43045 V 103 h 4 4 v 5 c 0,5.3036 -0.104498,5.38164 -5.75,4.29427 z M 22,107.5 V 102 h 4 4 v 5.5 5.5 H 26 22 Z M 10,95.116631 c 0,-4.201113 0.313127,-5.119074 1.75,-5.130286 0.9625,-0.0075 2.7625,-0.284994 4,-0.616631 2.118736,-0.567799 2.25,-0.304475 2.25,4.513655 0,4.201113 -0.313127,5.119074 -1.75,5.130286 -0.9625,0.0075 -2.7625,0.284994 -4,0.616631 C 10.131264,100.19809 10,99.934761 10,95.116631 Z M 22,94.106989 C 22,88.916684 22.837849,88 27.581787,88 29.846288,88 30,88.349605 30,93.5 V 99 H 26 22 Z M 10,82.116631 c 0,-4.201113 0.313127,-5.119074 1.75,-5.130286 0.9625,-0.0075 2.7625,-0.284994 4,-0.616631 2.118736,-0.567799 2.25,-0.304475 2.25,4.513655 0,4.201113 -0.313127,5.119074 -1.75,5.130286 -0.9625,0.0075 -2.7625,0.284994 -4,0.616631 C 10.131264,87.198085 10,86.934761 10,82.116631 Z m 12,-1.939634 c 0,-4.281509 0.301393,-5.024504 2.25,-5.546711 5.365199,-1.437818 5.876517,-1.012379 5.55226,4.619714 L 29.5,84.5 25.75,84.810365 22,85.120731 Z M 10,69.14069 c 0,-4.877764 0.01605,-4.901487 4,-5.912721 l 4,-1.015309 v 4.925055 c 0,5.066713 -0.08234,5.165486 -5.25,6.297814 C 10.042321,74.028831 10,73.962736 10,69.14069 Z m 12,-3.073302 c 0,-4.076817 0.346995,-5.031053 2,-5.5 1.1,-0.312064 2.9,-0.822712 4,-1.134776 1.824512,-0.517602 2,-0.08985 2,4.875 0,5.295475 -0.08436,5.459259 -3.125,6.067388 C 22.041446,71.341711 22,71.305088 22,66.067388 Z m 12,-2.967126 v -5.687079 l 4,-1.067661 4,-1.067661 v 5.739431 5.739431 l -4,1.015308 -4,1.015309 z M 10,56.448973 c 0,-4.247927 0.230962,-4.647528 3.467881,-6 C 15.375216,49.652038 17.175216,49 17.467881,49 17.760547,49 18,51.205979 18,53.902175 c 0,4.599412 -0.194499,4.969977 -3.149223,6 C 10.185693,61.528432 10,61.396239 10,56.448973 Z m 12,-3.800432 c 0,-5.034698 0.134229,-5.295302 3.320998,-6.447653 4.782978,-1.729547 4.812972,-1.703087 4.481262,3.953273 -0.291286,4.967024 -0.438414,5.201124 -4.05226,6.447652 L 22,57.895304 Z M 34,48.461072 C 34,43.16084 34.089316,42.989521 37.622124,41.51342 39.614292,40.681039 41.436749,40 41.672028,40 c 0.235279,0 0.292823,2.544187 0.127876,5.65375 -0.294229,5.546761 -0.370867,5.678235 -4.049904,6.947652 L 34,53.895304 Z M 10,43.51342 c 0,-4.211116 0.222389,-4.5795 3.622124,-6 C 15.614292,36.681039 17.414292,36 17.622124,36 17.829956,36 18,38.1596 18,40.799112 c 0,4.527691 -0.187823,4.867029 -3.320998,6 C 10.000434,48.490904 10,48.490599 10,43.51342 Z M 21.627016,43.293683 C 21.282157,42.948824 21,40.041667 21,36.833333 21,33.625 20.76004,31 20.466756,31 20.173472,31 17.689084,32.137338 14.945893,33.527418 9.3725618,36.351639 8.5969048,35.866336 9.1795415,29.919607 9.4725731,26.928756 10.270279,26.228043 18.5,21.732416 23.45,19.028394 28.0625,16.584265 28.75,16.301017 29.711132,15.905035 30,18.699423 30,28.393011 30,35.326855 29.829956,41 29.622124,41 c -0.207832,0 -1.950675,0.657157 -3.872984,1.460349 -1.922309,0.803192 -3.777265,1.178192 -4.122124,0.833334 z M 33,33.985302 c 0,-4.584468 0.278831,-5.184705 3.25,-6.996262 5.038634,-3.072115 5.75,-2.660668 5.75,3.325748 0,5.099184 -0.14336,5.383151 -3.533927,7 C 36.522413,38.241654 34.497413,39 33.966073,39 33.434733,39 33,36.743386 33,33.985302 Z M 33.19774,18.764057 C 33.487334,13.747523 33.678094,13.4301 37.75,11.189133 L 42,8.850151 v 5.889712 c 0,5.757292 -0.07945,5.927602 -3.533927,7.574925 -5.235529,2.49665 -5.603132,2.248894 -5.268333,-3.550731 z"
         id="path199" />
      <path
         style="fill:#d8c4ac;fill-opacity:1"
         d="M 37.75,188.88131 C 34.106354,187.00693 34,186.79653 34,181.46269 v -5.48953 l 3.698635,1.54539 c 2.034249,0.84996 3.858228,1.70498 4.053287,1.90004 0.195058,0.19506 0.218173,2.83801 0.05136,5.87323 L 41.5,190.81039 Z m 25.958849,-1.50579 C 63.318982,186.98565 63,146.64714 63,97.734382 V 8.8020977 L 80.25,9.2095382 C 100.28133,9.6826729 103.78333,10.67483 109.88357,17.60507 116.30705,24.90253 116.5,26.503369 116.5,72.5 c 0,47.31855 -0.12223,48.22963 -7.44901,55.52431 C 103.05185,133.99716 99.256473,135 82.650584,135 H 69.033207 l -0.266604,26.25 c -0.259631,25.56351 -0.319983,26.25764 -2.307754,26.54218 -1.122633,0.1607 -2.360133,-0.0268 -2.75,-0.41666 z M 99.5,128.10996 c 4.84098,-2.23426 7.8876,-5.40003 9.95227,-10.34149 1.31447,-3.14595 1.54442,-10.00137 1.52577,-45.486351 C 110.95776,33.695863 110.81398,30.194045 109.09833,26.5 104.58552,16.783233 100.46607,15 82.532119,15 H 69 V 72.5 130 l 13.25,-0.022 c 10.737902,-0.0178 14.008369,-0.37197 17.25,-1.86808 z M 129,97.5 V 8.7692149 l 16.75,0.4362572 c 17.84564,0.4647932 21.00665,1.1778659 26.77084,6.0390559 1.66146,1.401183 4.13646,4.731875 5.5,7.401538 L 180.5,27.5 v 70 70 l -2.36306,4.75624 c -1.29968,2.61593 -3.77468,5.94662 -5.5,7.40154 -5.89077,4.96753 -8.9688,5.67007 -26.88694,6.13675 L 129,186.23079 Z m 38.59038,78.94671 c 2.07286,-1.6793 4.70052,-4.8293 5.83923,-7 C 175.46447,165.56773 175.5,164.33307 175.5,97.5 v -68 l -2.24077,-4.192068 c -1.23242,-2.305637 -3.89564,-5.455637 -5.91825,-7 -3.59217,-2.742787 -4.02158,-2.815404 -18.50923,-3.129977 L 134,14.85591 V 97.5 180.14409 L 148.91076,179.82205 163.82152,179.5 Z M 25.75,182.88187 C 22.175542,181.04255 22,180.71865 22,175.96269 v -4.98953 l 3.698635,1.54539 c 2.034249,0.84996 3.859492,1.70624 4.056094,1.90285 0.196603,0.1966 0.219717,2.6148 0.05137,5.37378 L 29.5,184.81151 Z m -12.5,-5.62725 C 10.254895,175.764 10,175.25818 10,170.80515 v -4.83199 l 3.622124,1.51342 c 1.992168,0.83238 3.792168,1.51342 4,1.51342 C 17.829956,169 18,171.25 18,174 c 0,5.51177 -0.09033,5.57366 -4.75,3.25462 z m 23.5,-3.82659 C 34.272172,172.08378 34,171.40012 34,166.52041 v -5.41571 l 3.75,1.2939 c 3.679037,1.26942 3.755675,1.40089 4.049904,6.94765 0.329496,6.21162 -0.254251,6.68346 -5.049904,4.08178 z m -12,-4.72745 C 22.236768,167.70748 22,167.16151 22,162.35931 v -5.25461 l 3.75,1.29349 c 3.613846,1.24653 3.760974,1.48062 4.05226,6.44765 0.326487,5.5673 -0.02999,5.83928 -5.05226,3.85474 z m -11,-4.41287 C 10.199468,162.86597 10,162.54819 10,158.31359 v -4.4725 l 3.25,0.68481 c 4.498492,0.94788 4.914363,1.56152 4.560489,6.72926 L 17.5,165.78934 Z m 23.5,-5.53446 C 34.105512,157.74453 34,157.53276 34,152.23034 V 146.75 l 3.125,0.625 c 1.71875,0.34375 3.51875,0.625 4,0.625 0.48125,0 0.875,2.7 0.875,6 0,3.3 -0.3375,5.95406 -0.75,5.89791 -0.4125,-0.0562 -2.2125,-0.57124 -4,-1.14466 z m -12,-3.87203 C 22.131223,153.98071 22,153.73704 22,148.84641 V 143.75 l 3.125,0.625 c 1.71875,0.34375 3.51875,0.625 4,0.625 0.48125,0 0.875,2.475 0.875,5.5 0,3.025 -0.3375,5.45942 -0.75,5.40981 -0.4125,-0.0496 -2.2125,-0.51247 -4,-1.02859 z m -13,-3.91238 C 10.372667,150.21424 10,149.30062 10,145.45277 v -4.61168 l 3.25,0.69705 c 4.653303,0.99803 4.75,1.1206 4.75,6.02088 0,4.76573 -0.960145,5.3351 -5.75,3.40982 z m 23.5,-7.65817 C 34.125547,142.88616 34,140.3525 34,107.99406 c 0,-34.003489 0.0491,-34.873214 2,-35.426672 1.1,-0.312064 2.9,-0.822712 4,-1.134776 1.973882,-0.559978 2,-0.08985 2,35.999998 V 144 l -2.25,-0.116 c -1.2375,-0.0638 -3.0375,-0.3218 -4,-0.57333 z m -10.5,-2.42945 C 22.131223,139.98071 22,139.73704 22,134.84641 V 129.75 l 3.125,0.625 c 1.71875,0.34375 3.51875,0.625 4,0.625 0.48125,0 0.875,2.475 0.875,5.5 0,3.025 -0.3375,5.45942 -0.75,5.40981 -0.4125,-0.0496 -2.2125,-0.51247 -4,-1.02859 z m -13,-2.58695 C 10.271112,137.91312 10,137.25275 10,132.81382 c 0,-4.746 0.134221,-5.01111 2.25,-4.44411 1.2375,0.33164 3.0375,0.60913 4,0.61664 1.431513,0.0112 1.75,0.92361 1.75,5.01365 0,5.3036 -0.104498,5.38164 -5.75,4.29427 z M 22.666667,126.33333 C 22.3,125.96667 22,123.43542 22,120.70833 V 115.75 l 3.125,0.625 c 1.71875,0.34375 3.51875,0.625 4,0.625 0.48125,0 0.875,2.25 0.875,5 v 5 h -3.333333 c -1.833334,0 -3.633334,-0.3 -4,-0.66667 z M 12.75,125.28375 C 10.198208,124.89718 10,124.52768 10,120.15715 v -4.71 l 4,0.38146 4,0.38146 v 4.89497 c 0,3.32921 -0.399837,4.84703 -1.25,4.74513 -0.6875,-0.0824 -2.4875,-0.3373 -4,-0.56642 z m 0.5,-13.07311 C 10.122383,111.88599 10,111.70622 10,107.43664 V 103 h 4 4 v 4.44098 c 0,5.00827 -0.229661,5.23888 -4.75,4.76966 z M 22,108.10699 C 22,102.91668 22.837849,102 27.581787,102 29.846288,102 30,102.3496 30,107.5 V 113 H 26 22 Z M 10,95.106989 C 10,90.372261 10.176269,90 12.418213,90 c 1.330016,0 3.130016,-0.273145 4,-0.606989 C 17.733346,88.888347 18,89.646948 18,93.893011 18,98.627739 17.823731,99 15.581787,99 c -1.330016,0 -3.130016,0.273145 -4,0.606989 C 10.266654,100.11165 10,99.353052 10,95.106989 Z m 12,-0.990358 c 0,-4.218907 0.306149,-4.965413 2.25,-5.486345 C 29.512193,87.220073 30,87.6332 30,93.5 V 99 h -4 -4 z m -12,-12 c 0,-4.201113 0.313127,-5.119074 1.75,-5.130286 0.9625,-0.0075 2.7625,-0.284994 4,-0.616631 2.118736,-0.567799 2.25,-0.304475 2.25,4.513655 0,4.201113 -0.313127,5.119074 -1.75,5.130286 -0.9625,0.0075 -2.7625,0.284994 -4,0.616631 C 10.131264,87.198085 10,86.934761 10,82.116631 Z m 12,-1.931266 c 0,-4.727609 0.131548,-4.961675 3.125,-5.560365 4.92332,-0.984664 4.996084,-0.912714 4.67726,4.625 L 29.5,84.5 25.75,84.810365 22,85.120731 Z M 10,69.144052 C 10,64.462714 10.135824,64.222835 13.125,63.625 17.940173,62.661965 18,62.709905 18,67.531385 18,72.174126 17.877376,72.312028 12.75,73.435529 10.042522,74.028787 10,73.96243 10,69.144052 Z m 12,-3.076664 c 0,-4.076817 0.346995,-5.031053 2,-5.5 1.1,-0.312064 2.9,-0.822712 4,-1.134776 1.824512,-0.517602 2,-0.08985 2,4.875 0,5.295475 -0.08436,5.459259 -3.125,6.067388 C 22.041446,71.341711 22,71.305088 22,66.067388 Z m 12,-2.698469 c 0,-4.896186 0.247228,-5.512416 2.5651,-6.39367 C 41.431462,55.125061 42,55.585665 42,61.378362 v 5.378361 l -4,1.015308 -4,1.015309 z M 10,56.580808 c 0,-4.288563 0.211097,-4.64217 3.622124,-6.067388 C 15.614292,49.681039 17.414292,49 17.622124,49 17.829956,49 18,51.219676 18,53.932612 c 0,4.25701 -0.308175,5.021194 -2.25,5.579347 C 9.6509449,61.265057 10,61.442993 10,56.580808 Z m 12,-3.932267 c 0,-5.034698 0.134229,-5.295302 3.320998,-6.447653 4.782978,-1.729547 4.812972,-1.703087 4.481262,3.953273 -0.291286,4.967024 -0.438414,5.201124 -4.05226,6.447652 L 22,57.895304 Z M 34,48.461072 C 34,43.16084 34.089316,42.989521 37.622124,41.51342 39.614292,40.681039 41.436749,40 41.672028,40 c 0.235279,0 0.292823,2.544187 0.127876,5.65375 -0.294229,5.546761 -0.370867,5.678235 -4.049904,6.947652 L 34,53.895304 Z M 10,43.51342 c 0,-4.211116 0.222389,-4.5795 3.622124,-6 C 15.614292,36.681039 17.414292,36 17.622124,36 17.829956,36 18,38.1596 18,40.799112 c 0,4.527691 -0.187823,4.867029 -3.320998,6 C 10.000434,48.490904 10,48.490599 10,43.51342 Z m 12,-6 C 22,33.698098 21.571993,31 20.966756,31 c -0.568284,0 -3.268284,1.132581 -6,2.516846 L 10,36.033692 v -4.915607 -4.915607 l 9.25,-4.851239 c 5.0875,-2.668181 9.5875,-5.001239 10,-5.184572 0.4125,-0.183334 0.75,5.329166 0.75,12.25 C 30,35.3375 29.829956,41 29.622124,41 c -0.207832,0 -2.007832,0.681039 -4,1.51342 L 22,44.02684 Z M 34,33.5391 c 0,-5.065549 0.22698,-5.605116 2.95034,-7.01342 C 41.517921,24.163692 42,24.543111 42,30.5 c 0,3.025 -0.170044,5.5 -0.377876,5.5 -0.207832,0 -2.007832,0.681039 -4,1.51342 L 34,39.02684 Z M 34,18.520324 C 34,13.134143 34.068249,13.00583 38,11 l 4,-2.0406477 v 5.8351117 c 0,5.694791 -0.08498,5.875637 -3.533927,7.520324 C 36.522413,23.241654 34.722413,24 34.466073,24 34.209733,24 34,21.534146 34,18.520324 Z"
         id="path197" />
      <path
         style="fill:#d8c4ac;fill-opacity:1"
         d="M 37.75,188.93191 C 34.123794,187.01757 34,186.7739 34,181.55037 v -5.40185 l 3.989829,1.67574 3.989829,1.67574 0.01017,5.75 c 0.0056,3.1625 -0.102329,5.73011 -0.239829,5.7058 -0.1375,-0.0243 -1.9375,-0.93505 -3.999999,-2.02389 z m 25.737437,-2.11177 C 63.210446,186.09406 63.099957,145.9 63.241908,97.5 L 63.5,9.5 H 80 c 19.101501,0 23.64458,1.150433 29.31085,7.422308 C 116.2495,24.602567 116.5,26.539144 116.5,72.5 c 0,44.97612 -0.25021,47.31492 -5.77934,54.02272 -1.69341,2.0544 -5.36082,4.79783 -8.1498,6.09651 -4.577671,2.13158 -6.45519,2.36218 -19.304257,2.371 L 69.033207,135 68.766603,161.25 68.5,187.5 l -2.254471,0.32014 c -1.239959,0.17607 -2.4811,-0.27393 -2.758092,-1 z m 34.61334,-57.97309 c 5.447423,-1.84766 8.516033,-4.50041 10.781803,-9.32064 C 110.93481,115.16048 111,113.71904 111,72.707243 V 30.392689 l -2.59667,-5.210845 c -1.89992,-3.812645 -3.79838,-5.91509 -7.07521,-7.835439 -4.097608,-2.401359 -5.662894,-2.667186 -18.403324,-3.125366 L 69,13.720266 V 71.860133 130 h 12.850777 c 7.071535,0 14.379473,-0.5185 16.25,-1.15295 z M 129,97.629869 V 9 l 13.25,0.02084 c 22.90962,0.036033 30.52316,3.001055 35.62081,13.872196 L 180.5,28.5 l 0.27745,66.899664 c 0.23684,57.106776 0.0577,67.655456 -1.22352,72.062826 -2.23485,7.6876 -5.35403,11.61486 -11.87283,14.9487 -5.54124,2.83389 -6.39964,2.96515 -22.22249,3.39815 L 129,186.25974 Z m 35.35191,80.873381 c 4.86427,-2.30825 9.20244,-7.67635 10.55977,-13.06676 1.46848,-5.83187 1.50688,-128.386388 0.0424,-135.215179 -1.262,-5.884504 -5.94342,-11.897334 -10.87925,-13.973319 -2.2833,-0.960347 -8.36171,-1.689253 -16.82479,-2.017581 L 134,13.716372 V 97.5 181.28363 l 13.31723,-0.50817 c 9.82183,-0.37478 14.29295,-0.97117 17.03468,-2.27221 z M 25.75,182.93191 C 22.196907,181.05617 22,180.69516 22,176.05656 v -4.89567 l 4,1.57125 c 3.972211,1.56032 4,1.6084 4,6.91955 0,2.94157 -0.1125,5.32842 -0.25,5.30411 -0.1375,-0.0243 -1.9375,-0.93505 -4,-2.02389 z m -12,-5.66479 C 10.153661,175.79165 10,175.53258 10,170.94475 v -4.78386 l 4,1.57125 c 3.900593,1.53219 4,1.69173 4,6.41955 0,2.66657 -0.1125,4.80458 -0.25,4.75113 -0.1375,-0.0534 -1.9375,-0.78951 -4,-1.6357 z m 23.5,-3.75799 c -3.050934,-1.32606 -3.25,-1.7218 -3.25,-6.46086 0,-5.4638 0.152739,-5.58819 4.850777,-3.95044 3.008182,1.04865 3.149223,1.33976 3.149223,6.5 0,2.97119 -0.3375,5.38456 -0.75,5.36303 -0.4125,-0.0215 -2.2125,-0.67481 -4,-1.45173 z m -12,-5 c -2.983245,-1.29664 -3.25,-1.7859 -3.25,-5.96086 0,-4.9444 0.185893,-5.07663 4.850777,-3.45044 2.954724,1.03002 3.149223,1.40058 3.149223,6 0,5.39063 -0.07392,5.44372 -4.75,3.4113 z m -11.5,-4.24201 c -3.525489,-1.4464 -3.75,-1.7998 -3.75,-5.90282 0,-4.75336 0.19971,-4.88785 4.850777,-3.26647 2.954724,1.03002 3.149223,1.40058 3.149223,6 0,2.69619 -0.1125,4.85844 -0.25,4.80499 -0.1375,-0.0534 -1.9375,-0.78951 -4,-1.6357 z m 24,-5.69349 -3.75,-0.92636 v -5.40309 -5.40309 l 3.25,0.68481 c 4.529659,0.95444 4.905263,1.53808 4.557212,7.08131 L 41.5,159.5 Z m -12.5,-3.82038 C 22.163239,153.76304 22,153.46282 22,148.77588 v -4.93479 l 3.25,0.69705 c 4.684657,1.00476 4.75,1.09446 4.75,6.52088 0,2.71754 -0.3375,4.89504 -0.75,4.83889 -0.4125,-0.0562 -2.2125,-0.57124 -4,-1.14466 z M 13,151.11008 c -2.160062,-0.59667 -2.541957,-1.34353 -2.808562,-5.49264 l -0.308561,-4.80208 3.308561,0.70992 C 17.910628,142.53787 18,142.65001 18,147.55902 c 0,4.64135 -0.294831,4.85074 -5,3.55106 z M 36.25,143.29427 34,142.8609 V 108.03744 C 34,70.120989 33.708963,72 39.581787,72 H 42 v 36 c 0,39.58612 0.502999,36.49865 -5.75,35.29427 z m -7.75,-1.86829 c -0.55,-0.13807 -2.2375,-0.52397 -3.75,-0.85756 C 22.195198,140.00495 22,139.60513 22,134.93563 v -5.02626 l 3.75,0.67798 c 2.0625,0.37288 3.887742,0.79352 4.056094,0.93474 0.810022,0.67949 -0.435292,10.12249 -1.306094,9.90389 z M 12.75,138.28375 C 10.168814,137.89273 10,137.55773 10,132.82659 c 0,-4.1855 0.268331,-4.9376 1.581787,-4.43358 0.869984,0.33385 2.669984,0.60699 4,0.60699 C 17.816976,129 18,129.37843 18,134 c 0,3.41324 -0.396689,4.95245 -1.25,4.85017 -0.6875,-0.0824 -2.4875,-0.3373 -4,-0.56642 z m 9.916667,-11.95042 C 22.3,125.96667 22,123.43918 22,120.7167 c 0,-4.64529 0.13849,-4.91285 2.25,-4.34699 1.2375,0.33164 3.0375,0.60913 4,0.61664 1.431513,0.0112 1.75,0.92361 1.75,5.01365 v 5 h -3.333333 c -1.833334,0 -3.633334,-0.3 -4,-0.66667 z M 12.75,125.28375 C 10.226153,124.90141 10,124.50255 10,120.43358 V 116 h 4 4 v 5 c 0,3.41324 -0.396689,4.95245 -1.25,4.85017 -0.6875,-0.0824 -2.4875,-0.3373 -4,-0.56642 z M 22,108 v -5 h 4 4 v 5 5 H 26 22 Z M 10,107.5 V 103 h 4 4 v 4.5 4.5 h -4 -4 z m 0,-13 V 90 h 4 4 V 94.5 99 H 14 10 Z M 22,94 c 0,-4.090036 0.318487,-5.002485 1.75,-5.013655 0.9625,-0.0075 2.7625,-0.284994 4,-0.616631 C 29.88784,87.796795 30,88.046721 30,93.383369 V 99 H 26 22 Z M 10,82.106989 C 10,77.372261 10.176269,77 12.418213,77 c 1.330016,0 3.130016,-0.273145 4,-0.606989 C 17.733346,75.888347 18,76.646948 18,80.893011 18,85.627739 17.823731,86 15.581787,86 c -1.330016,0 -3.130016,0.273145 -4,0.606989 C 10.266654,87.111653 10,86.353052 10,82.106989 Z M 22,80.125 c 0,-4.66 0.137821,-4.902564 3.125,-5.5 C 29.956862,73.658628 30,73.696395 30,78.893011 30,84.083316 29.162151,85 24.418213,85 22.191292,85 22,84.614365 22,80.125 Z M 10,69.192388 C 10,64.456913 10.130828,64.223834 13.125,63.625 17.935187,62.662963 18,62.713585 18,67.432612 c 0,4.633781 0.227377,4.407709 -6.25,6.214123 C 10.253556,74.064064 10,73.418677 10,69.192388 Z m 12,-3.004525 c 0,-4.417299 0.268138,-5.038345 2.407099,-5.57519 1.323905,-0.332279 3.123905,-0.879208 4,-1.215397 C 29.734658,58.887844 30,59.626903 30,63.833994 c 0,5.539026 -0.05934,5.621822 -4.75,6.627864 L 22,71.158911 Z m 12,-3.212614 c 0,-4.473607 0.281355,-5.131722 2.5651,-6 C 41.432215,55.124775 42,55.585292 42,61.383369 42,66.120795 41.730026,66.839088 39.75,67.369714 34.568744,68.758237 34,68.323571 34,62.975249 Z M 10.191701,56.431285 C 10.48341,51.945882 10.701795,51.621206 14.25,50.397741 L 18,49.104696 v 4.880264 c 0,5.146517 0.299587,4.829264 -6.308299,6.680278 -1.589724,0.445316 -1.771034,-0.06646 -1.5,-4.233953 z M 22,52.280344 c 0,-4.617682 0.177593,-4.942786 3.320998,-6.079456 C 30.024122,44.500217 30,44.480935 30,49.940983 30,55.3674 29.93466,55.457104 25.25,56.461858 L 22,57.158911 Z M 34,48.461072 C 34,43.16084 34.089316,42.989521 37.622124,41.51342 39.614292,40.681039 41.436749,40 41.672028,40 c 0.235279,0 0.292823,2.544187 0.127876,5.65375 -0.294229,5.546761 -0.370867,5.678235 -4.049904,6.947652 L 34,53.895304 Z M 10,43.51342 c 0,-4.211116 0.222389,-4.5795 3.622124,-6 C 15.614292,36.681039 17.414292,36 17.622124,36 17.829956,36 18,38.047962 18,40.551027 c 0,4.247927 -0.230962,4.647528 -3.467881,6 C 12.624784,47.347962 10.824784,48 10.532119,48 10.239453,48 10,45.981039 10,43.51342 Z M 22,37.419555 C 22,30.570207 21.591101,30.140301 17.20034,32.373315 15.715153,33.128638 13.4875,34.058962 12.25,34.440702 10.15294,35.087597 10,34.836359 10,30.744587 v -4.390189 l 9.236331,-4.927199 c 5.079982,-2.709959 9.579982,-5.077199 10,-5.260532 C 29.656349,15.983333 30,21.427573 30,28.264977 V 40.69662 l -4,1.571245 -4,1.571245 z m 12,-3.957162 c 0,-5.404333 0.09979,-5.60614 3.467881,-7.01342 C 39.375216,25.652038 41.175216,25 41.467881,25 41.760547,25 42,27.475 42,30.5 c 0,3.025 -0.170044,5.5 -0.377876,5.5 -0.207832,0 -2.007832,0.681039 -4,1.51342 L 34,39.02684 Z m 0,-14.726462 c 0,-4.794806 0.279172,-5.469627 2.904292,-7.020323 C 41.348892,9.0901178 42,9.5071867 42,14.979676 42,19.782524 41.85796,20.031816 38,22 l -4,2.040648 z"
         id="path195" />
      <path
         style="fill:#d8c4ac;fill-opacity:1"
         d="M 37.75,188.93191 C 34.123794,187.01757 34,186.7739 34,181.55037 v -5.40185 l 3.989829,1.67574 3.989829,1.67574 0.01017,5.75 c 0.0056,3.1625 -0.102329,5.73011 -0.239829,5.7058 -0.1375,-0.0243 -1.9375,-0.93505 -3.999999,-2.02389 z m 25.737437,-2.11177 C 63.210446,186.09406 63.099957,145.9 63.241908,97.5 L 63.5,9.5 l 17,0.097124 c 18.72546,0.1069821 21.36182,0.708619 27.77345,6.338105 2.26104,1.98522 4.41477,5.288283 5.71617,8.766568 2.0194,5.397345 2.07866,7.033759 1.79928,49.689675 -0.2814,42.963578 -0.34478,44.212358 -2.44158,48.108528 -2.50265,4.65029 -5.45084,7.53064 -10.34732,10.10922 -2.80188,1.47552 -6.59166,1.94764 -19,2.36697 L 68.5,135.5 l -0.105223,26 c -0.104405,25.79788 -0.121932,26.00249 -2.254471,26.32014 -1.182086,0.17607 -2.375877,-0.27393 -2.652869,-1 z m 39.219093,-60.00416 c 2.54133,-1.6837 4.93488,-4.47889 6.42232,-7.5 L 111.5,114.5 V 73 31.5 l -3,-6 c -2.37056,-4.741119 -3.94416,-6.517653 -7.5,-8.467204 -4.168246,-2.285314 -5.532123,-2.469621 -18.5,-2.5 L 68.5,14.5 68.241847,72.320512 67.983693,130.14102 83.319521,129.82051 c 14.704913,-0.30732 15.502493,-0.43093 19.387009,-3.00453 z M 129,97.5 V 8.7402616 l 16.25,0.4675045 c 13.9936,0.4025891 16.96533,0.7789822 21.40161,2.7106869 6.20808,2.703205 8.52247,5.0265 11.54954,11.594004 L 180.5,28.5 l 0.31804,66 c 0.22065,45.79008 -0.0222,67.56848 -0.79312,71.12221 -1.76225,8.12362 -5.87171,13.66648 -12.55741,16.93749 -5.40659,2.64519 -6.65975,2.82961 -22.09955,3.25212 L 129,186.25974 Z m 34.13891,81.67244 c 1.4514,-0.57115 4.25904,-2.46096 6.23921,-4.19957 C 176.02374,169.13794 176,169.41566 176,97.5 176,25.198441 176.07169,26.00781 169.11077,19.719043 164.26537,15.34151 158.4809,14 144.45078,14 H 134 v 83.641814 83.641816 l 13.25,-0.53636 c 7.2875,-0.295 14.43751,-1.00367 15.88891,-1.57483 z M 25.75,182.93191 C 22.196907,181.05617 22,180.69516 22,176.05656 v -4.89567 l 4,1.57125 c 3.972211,1.56032 4,1.6084 4,6.91955 0,2.94157 -0.1125,5.32842 -0.25,5.30411 -0.1375,-0.0243 -1.9375,-0.93505 -4,-2.02389 z m -12,-5.66479 C 10.153661,175.79165 10,175.53258 10,170.94475 v -4.78386 l 4,1.57125 c 3.900593,1.53219 4,1.69173 4,6.41955 0,2.66657 -0.1125,4.80458 -0.25,4.75113 -0.1375,-0.0534 -1.9375,-0.78951 -4,-1.6357 z m 23.5,-3.85156 C 34.20653,172.08458 34,171.67671 34,166.99713 c 0,-5.41067 0.155867,-5.53596 4.850777,-3.8993 3.008182,1.04865 3.149223,1.33976 3.149223,6.5 0,5.88472 -0.0083,5.89138 -4.75,3.81773 z m -12,-4.90643 c -2.983245,-1.29664 -3.25,-1.7859 -3.25,-5.96086 0,-4.9444 0.185893,-5.07663 4.850777,-3.45044 2.954724,1.03002 3.149223,1.40058 3.149223,6 0,5.39063 -0.07392,5.44372 -4.75,3.4113 z m -11.5,-4.24201 c -3.525489,-1.4464 -3.75,-1.7998 -3.75,-5.90282 0,-4.75336 0.19971,-4.88785 4.850777,-3.26647 2.954724,1.03002 3.149223,1.40058 3.149223,6 0,2.69619 -0.1125,4.85844 -0.25,4.80499 -0.1375,-0.0534 -1.9375,-0.78951 -4,-1.6357 z M 38,158.50993 c -3.342012,-1.12566 -3.513787,-1.41618 -3.805437,-6.43603 l -0.305438,-5.25716 3.305438,0.69698 c 4.598339,0.96961 4.960894,1.53458 4.612649,7.18789 L 41.5,159.68879 Z M 25.25,154.75325 C 22.163239,153.76304 22,153.46282 22,148.77588 v -4.93479 l 3.25,0.69705 c 4.684657,1.00476 4.75,1.09446 4.75,6.52088 0,2.71754 -0.3375,4.89504 -0.75,4.83889 -0.4125,-0.0562 -2.2125,-0.57124 -4,-1.14466 z m -12.5,-3.91553 C 10.314266,149.94811 10,149.32643 10,145.39761 c 0,-4.31837 0.07275,-4.41977 2.75,-3.83314 5.127376,1.1235 5.25,1.2614 5.25,5.90415 0,4.83936 -0.444112,5.12436 -5.25,3.3691 z M 36.25,143.29427 34,142.8609 V 108.03744 C 34,70.120989 33.708963,72 39.581787,72 H 42 v 36 c 0,39.58612 0.502999,36.49865 -5.75,35.29427 z m -12.5,-2.9836 c -1.374325,-0.35914 -1.75,-1.5379 -1.75,-5.49098 0,-4.1792 0.268508,-4.93063 1.581787,-4.42668 0.869984,0.33385 2.669984,0.60699 4,0.60699 C 29.816976,131 30,131.37843 30,136 c 0,5.27633 -0.702015,5.76051 -6.25,4.31067 z M 13,138.11008 c -2.127125,-0.58757 -2.544124,-1.36034 -2.795839,-5.18112 L 9.9083225,128.43841 13.954161,128.82424 18,129.21007 v 4.89497 c 0,5.12581 -0.241687,5.3194 -5,4.00504 z M 23.25,126.33772 C 22.499215,126.03477 22,123.95904 22,121.14024 v -4.69309 l 4,0.38146 4,0.38146 v 4.89497 c 0,4.69243 -0.113782,4.89169 -2.75,4.81601 -1.5125,-0.0434 -3.3125,-0.30592 -4,-0.58333 z m -10,-1.06112 C 10.132295,124.8897 10,124.69268 10,120.43664 V 116 h 4 4 v 5 c 0,2.75 -0.3375,4.92798 -0.75,4.83996 -0.4125,-0.088 -2.2125,-0.34153 -4,-0.56336 z M 22,108 v -5 h 4 4 v 5 5 H 26 22 Z M 10,107.5 V 103 h 4 4 v 4.5 4.5 h -4 -4 z m 0,-13 V 90 h 4 4 v 4.5 4.5 h -4 -4 z m 12,-0.439635 c 0,-4.147527 0.315682,-5.062828 1.75,-5.07402 0.9625,-0.0075 2.788069,-0.29168 4.05682,-0.63149 2.224875,-0.595888 2.29592,-0.42667 2,4.763655 L 29.5,98.5 25.75,98.810365 22,99.120731 Z M 10,82.575604 c 0,-4.757963 0.111032,-4.885092 5.25,-6.011133 C 17.964764,75.969617 18,76.026206 18,80.980948 18,85.62267 17.8182,86 15.581787,86 c -1.330016,0 -3.130016,0.273145 -4,0.606989 C 10.279511,87.106719 10,86.394351 10,82.575604 Z M 22,80.125 c 0,-4.66 0.137821,-4.902564 3.125,-5.5 C 29.956446,73.658711 30,73.696756 30,78.883369 30,83.102276 29.693851,83.848782 27.75,84.369714 22.596801,85.750718 22,85.310152 22,80.125 Z M 10,69.443864 c 0,-3.9032 0.336904,-4.621456 2.5651,-5.468615 C 17.27637,62.184027 18,62.650794 18,67.480948 c 0,4.075561 -0.24879,4.535462 -2.75,5.083523 -1.5125,0.331416 -3.3125,0.775866 -4,0.987667 C 10.378324,73.820679 10,72.577273 10,69.443864 Z m 12,-3.24277 c 0,-4.948236 0.0077,-4.95978 4,-5.973125 l 4,-1.015309 v 4.834653 c 0,5.314509 -0.07154,5.41112 -4.75,6.414545 L 22,71.158911 Z m 12,-3.142077 c 0,-5.426417 0.06534,-5.516121 4.75,-6.520875 L 42,55.841089 v 5.454456 C 42,66.604535 41.91666,66.766668 38.875,67.375 34.041092,68.341782 34,68.305402 34,63.059017 Z M 10.189897,56.475446 C 10.483889,51.939376 10.694832,51.623607 14.25,50.397741 L 18,49.104696 v 4.839244 c 0,4.278066 -0.279137,4.909303 -2.407099,5.443387 -1.323905,0.332279 -3.150951,0.889586 -4.060103,1.238461 -1.419086,0.544554 -1.6091206,-0.04276 -1.342901,-4.150342 z M 22,52.108408 c 0,-4.333365 0.274697,-4.960537 2.407099,-5.495735 1.323905,-0.332279 3.123905,-0.879208 4,-1.215397 C 29.733653,44.888229 30,45.623597 30,49.795186 30,54.514601 29.817837,54.867852 26.850777,55.902175 22.1625,57.536517 22,57.409426 22,52.108408 Z m 12.201153,-3.797595 c 0.293606,-5.519785 0.365467,-5.6413 4.097694,-6.929126 l 3.798846,-1.310814 -0.298846,5.618314 c -0.293606,5.519785 -0.365467,5.6413 -4.097694,6.929126 l -3.798846,1.310814 z M 10,43.685212 c 0,-3.954498 0.295087,-4.455504 3.533927,-6 C 15.477587,36.758346 17.277587,36 17.533927,36 17.790267,36 18,38.047962 18,40.551027 c 0,4.247927 -0.230962,4.647528 -3.467881,6 C 12.624784,47.347962 10.824784,48 10.532119,48 10.239453,48 10,46.058346 10,43.685212 Z M 22,37 C 22,33.7 21.587307,31 21.082905,31 20.578503,31 18.066196,31.9 15.5,33 12.933804,34.1 10.646497,35 10.417095,35 10.187693,35 10,33.074783 10,30.721739 v -4.27826 L 20,21.148021 30,15.852562 V 28.328456 40.80435 l -3.149223,1.097825 C 22.103118,43.557218 22,43.453007 22,37 Z m 12,-3.395233 c 0,-5.007099 0.153421,-5.307504 3.533927,-6.919555 C 39.477587,25.758346 41.277587,25 41.533927,25 41.790267,25 42,27.40674 42,30.34831 c 0,5.311154 -0.02779,5.359226 -4,6.919555 l -4,1.571245 z m 0,-14.868836 c 0,-4.794806 0.279172,-5.469627 2.904292,-7.020323 C 41.348892,9.0901178 42,9.5071867 42,14.979676 42,19.782524 41.85796,20.031816 38,22 l -4,2.040648 z"
         id="path193" />
      <path
         style="fill:#d8c4ac;fill-opacity:1"
         d="M 37.25,188.25462 C 34.256765,186.76493 34,186.25646 34,181.81857 c 0,-5.24077 0.567389,-5.61076 5.04966,-3.29289 2.667236,1.37928 2.95034,2.003 2.95034,6.5 0,5.48475 -0.09188,5.54721 -4.75,3.22894 z M 64.5,187.24875 C 63.84287,186.75672 63.592983,156.02246 63.771191,97.61057 L 64.042383,8.7211393 80.271191,9.2917689 C 89.263129,9.6079392 98.28371,10.444755 100.5,11.168344 c 2.2,0.718269 5.8827,3.182588 8.18378,5.476264 C 115.7972,23.735142 116,25.283422 116,72.5 c 0,45.29528 -0.27114,47.77023 -5.99091,54.6855 C 104.99687,133.24532 98.68365,135 81.892992,135 H 67.861008 l 0.225396,26.25 c 0.187998,21.89462 -0.0079,26.29127 -1.180505,26.49875 -0.773244,0.13681 -1.855899,-0.0882 -2.405899,-0.5 z m 36,-59.12948 c 4.76084,-2.18619 6.81168,-4.33588 9.21186,-9.65587 1.59727,-3.54033 1.82164,-8.03873 2.102,-42.142087 C 112.15654,34.63786 111.66704,28.876815 107.24838,22.589059 102.43561,15.740491 98.645766,14.501908 82.5,14.500886 L 68.5,14.5 68.241877,72.25 67.983754,130 82.241877,129.978 C 93.926735,129.96 97.221908,129.62453 100.5,128.11923 Z M 129,96.859927 V 8.7198537 l 16.45154,0.4990148 c 15.41227,0.4674911 16.80834,0.673579 22.09956,3.2623315 6.64038,3.248836 10.75574,8.862891 12.43837,16.968076 0.72675,3.500757 0.98649,26.738795 0.79498,71.125144 -0.31591,73.21669 -0.006,69.83628 -7.08513,77.29769 -5.93944,6.26023 -9.16893,7.0813 -27.94932,7.10593 L 129,185 Z m 31.06727,83.032223 c 3.45044,-0.73998 6.42916,-2.24929 8.9707,-4.54542 7.10442,-6.41841 6.9627,-4.83404 6.95645,-77.774869 -0.004,-42.32204 -0.37231,-66.392458 -1.05455,-68.849195 -0.57693,-2.077534 -2.44122,-5.363022 -4.14287,-7.301083 -5.25914,-5.989841 -7.76276,-6.775809 -23.047,-7.235237 L 134,13.773036 V 97.386518 181 h 10.45078 c 5.74793,0 12.77535,-0.49853 15.61649,-1.10785 z M 25.25,182.25462 C 22.267306,180.77018 22,180.24694 22,175.89284 v -4.74432 l 3.989829,1.67574 c 3.855194,1.61919 3.990173,1.83603 4,6.42574 0.01124,5.24856 -0.09532,5.31611 -4.739829,3.00462 z m -11.5,-5.32271 c -3.372647,-1.78048 -3.75,-2.3798 -3.75,-5.9558 0,-4.43493 0.03377,-4.45496 4.679002,-2.77522 3.133175,1.13297 3.320998,1.47231 3.320998,6 0,2.63951 -0.1125,4.77922 -0.25,4.75491 -0.1375,-0.0243 -1.9375,-0.93505 -4,-2.02389 z m 23.5,-3.67729 C 34.256765,171.76493 34,171.25646 34,166.81857 c 0,-5.22516 0.167236,-5.35344 4.850777,-3.72074 3.008182,1.04865 3.149223,1.33976 3.149223,6.5 0,2.97119 -0.3375,5.37339 -0.75,5.33822 -0.4125,-0.0352 -2.2125,-0.79182 -4,-1.68143 z m -12,-4.83906 C 22.275818,167.11489 22,166.61261 22,162.49713 c 0,-4.89129 0.189637,-5.02419 4.850777,-3.3993 2.954724,1.03002 3.149223,1.40058 3.149223,6 0,5.35818 -0.03242,5.38083 -4.75,3.31773 z m -12.5,-4.71498 c -2.415279,-0.9544 -2.75,-1.6191 -2.75,-5.46101 0,-3.89681 0.218335,-4.3124 2,-3.80696 1.1,0.31207 2.9,0.82271 4,1.13478 1.613864,0.45784 2,1.42318 2,5 0,4.74315 -0.468344,5.02266 -5.25,3.13319 z M 38,158.58945 c -3.318505,-1.19314 -3.515674,-1.52625 -3.80226,-6.42392 -0.325108,-5.55601 -0.123044,-5.73266 4.653037,-4.0677 3.008182,1.04865 3.149223,1.33976 3.149223,6.5 0,2.97119 -0.1125,5.36793 -0.25,5.32609 -0.1375,-0.0418 -1.825,-0.64235 -3.75,-1.33447 z m -12.25,-3.8957 C 22.051443,153.81356 22,153.73444 22,148.92566 V 144.05 l 3.25,0.60724 c 4.493461,0.83956 4.914696,1.43961 4.560489,6.49634 L 29.5,155.58618 Z m -13,-3.85603 c -2.441817,-0.89183 -2.75,-1.5069 -2.75,-5.48844 0,-4.00652 0.212994,-4.42363 2,-3.91667 1.1,0.31207 2.9,0.82271 4,1.13478 1.613864,0.45784 2,1.42318 2,5 0,4.73393 -0.459306,5.02004 -5.25,3.27033 z M 36.25,143.29427 34,142.8609 V 108.04708 73.233263 l 2.25,-0.602977 C 42.408147,70.979966 42,68.469348 42,108 c 0,39.58612 0.502999,36.49865 -5.75,35.29427 z m -12.5,-2.9836 c -1.374325,-0.35914 -1.75,-1.5379 -1.75,-5.49098 0,-4.1792 0.268508,-4.93063 1.581787,-4.42668 0.869984,0.33385 2.669984,0.60699 4,0.60699 C 29.816976,131 30,131.37843 30,136 c 0,5.27633 -0.702015,5.76051 -6.25,4.31067 z M 13.5,138.12689 c -2.702845,-0.57344 -3.030768,-1.06331 -3.310624,-4.94567 l -0.3106241,-4.30918 3.8106241,0.31398 c 3.785648,0.31192 3.812622,0.34511 4.115415,5.06398 0.167635,2.6125 -0.05737,4.69676 -0.5,4.63169 C 16.862156,138.81661 15.15,138.47695 13.5,138.12689 Z M 23.75,126.31067 C 22.415761,125.962 22,124.80167 22,121.42668 V 117 h 4 4 v 5 c 0,5.27633 -0.702015,5.76051 -6.25,4.31067 z m -10,-1.03914 C 10.038679,124.88332 10,124.83348 10,120.43963 V 116 h 4 4 v 5 c 0,2.75 -0.1125,4.92435 -0.25,4.8319 -0.1375,-0.0925 -1.9375,-0.34462 -4,-0.56037 z m 8.916667,-12.9382 C 22.3,111.96667 22,109.71667 22,107.33333 V 103 h 4 4 v 5 5 h -3.333333 c -1.833334,0 -3.633334,-0.3 -4,-0.66667 z M 10,107.5 V 103 h 4 4 v 4.5 4.5 h -4 -4 z m 0,-13 V 90 h 4 4 v 4.5 4.5 h -4 -4 z m 12,-0.390594 c 0,-4.852819 0.02727,-4.893778 3.530566,-5.302768 1.941811,-0.226695 3.741811,-0.200928 4,0.05726 C 29.788755,89.122088 30,91.235188 30,93.559678 30,98.034129 29.009014,99 24.418213,99 22.190237,99 22,98.615264 22,94.109406 Z M 10,82.335443 c 0,-4.698264 0.236595,-4.98664 4.5,-5.484862 2.917723,-0.340966 3.008236,-0.223321 3.300306,4.289586 l 0.300305,4.640167 -4.050305,0.386259 L 10,86.552852 Z M 22,80 c 0,-4.090036 0.318487,-5.002485 1.75,-5.013655 0.9625,-0.0075 2.7625,-0.284994 4,-0.616631 C 29.863362,73.803355 30,74.069869 30,78.758369 30,83.548996 29.874162,83.775168 26.875,84.375 22.038624,85.342275 22,85.307613 22,80 Z M 10,69.452687 c 0,-4.788419 0.104161,-4.918117 4.75,-5.914545 L 18,62.841089 v 4.457817 c 0,4.364902 -0.08337,4.47898 -4,5.473125 l -4,1.015309 z m 12,-3.2566 c 0,-4.301306 0.299913,-5.043198 2.25,-5.565801 5.063692,-1.357017 5.75,-0.90218 5.75,3.810697 0,4.900277 -0.0967,5.022846 -4.75,6.020875 L 22,71.158911 Z m 12,-3.098262 c 0,-4.599412 0.194499,-4.969977 3.149223,-6 C 41.845829,55.460579 42,55.585388 42,61.024751 c 0,4.473607 -0.281355,5.131722 -2.5651,6 C 34.645463,68.845692 34,68.37932 34,63.097825 Z m -24,-6.43731 c 0,-3.679741 0.387235,-4.515921 2.547053,-5.5 C 17.030569,49.117689 18,49.631567 18,54.051027 c 0,3.67738 -0.31986,4.184672 -3.467881,5.5 C 12.624784,60.347962 10.824784,61 10.532119,61 10.239453,61 10,59.047232 10,56.660515 Z m 12,-4.211542 c 0,-4.247927 0.230962,-4.647528 3.467881,-6 C 27.375216,45.652038 29.175216,45 29.467881,45 29.760547,45 30,47.205979 30,49.902175 c 0,4.599412 -0.194499,4.969977 -3.149223,6 C 22.185693,57.528432 22,57.396239 22,52.448973 Z m 12,-4.288458 c 0,-4.215538 0.328388,-4.989108 2.547053,-6 C 41.212441,40.034822 42,40.575224 42,45.902175 c 0,4.599412 -0.194499,4.969977 -3.149223,6 C 34.165867,53.535343 34,53.407401 34,48.160515 Z m -24,-4.5 c 0,-3.679741 0.387235,-4.515921 2.547053,-5.5 C 17.030569,36.117689 18,36.631567 18,41.051027 c 0,3.67738 -0.31986,4.184672 -3.467881,5.5 C 12.624784,47.347962 10.824784,48 10.532119,48 10.239453,48 10,46.047232 10,43.660515 Z m 12,-7.105486 v -6.444971 l -5.528513,2.444971 C 13.430804,33.899763 10.730804,35 10.471487,35 10.212169,35 10.008169,33.0875 10.018153,30.75 l 0.01815,-4.25 8.928104,-4.75 C 23.874867,19.1375 28.366698,17 28.946257,17 29.623358,17 30,21.101296 30,28.47432 v 11.47432 l -2.95034,1.52568 C 22.388065,43.884924 22,43.506878 22,36.555029 Z M 34,33.663774 C 34,28.58913 34.146011,28.300797 37.533927,26.685212 39.477587,25.758346 41.277587,25 41.533927,25 41.790267,25 42,27.1949 42,29.877555 42,34.93264 41.435403,35.782821 36.75,37.7831 L 34,38.957122 Z m 0.0063,-14.89345 c 0.0058,-4.855253 0.25276,-5.410607 3.135443,-7.051547 1.721016,-0.979673 3.291234,-1.61911 3.489374,-1.420971 0.198139,0.198139 0.643186,2.424477 0.988993,4.947417 0.627379,4.577225 0.619806,4.591722 -3.495696,6.691294 L 34,24.040648 Z"
         id="path191" />
      <path
         style="fill:#d8c4ac;fill-opacity:1"
         d="M 37.25,188.25462 C 34.256765,186.76493 34,186.25646 34,181.81857 34,179.16836 34.239453,177 34.532119,177 c 0.292665,0 2.092665,0.65204 4,1.44897 3.308217,1.38226 3.467881,1.68153 3.467881,6.5 0,2.77807 -0.3375,5.02225 -0.75,4.98708 -0.4125,-0.0352 -2.2125,-0.79182 -4,-1.68143 z M 64.5,187.23469 C 63.842862,186.7519 63.592985,156.24241 63.771202,98.25 L 64.042404,10 h 16.112778 c 19.029879,0 22.747778,0.864986 28.528598,6.6373 C 115.79741,23.740471 116,25.287327 116,72.5 c 0,46.82365 -0.24195,48.74195 -7,55.5 -5.55153,5.55153 -11.291528,7 -27.739581,7 H 67.883841 l 0.12005,25.25 c 0.06603,13.8875 0.09216,25.8125 0.05808,26.5 -0.06815,1.3747 -1.993886,1.63674 -3.56197,0.48469 z M 101.03004,127.75 c 5.32555,-2.69039 8.43803,-7.04247 9.89494,-13.83578 1.38236,-6.44572 1.43889,-74.695053 0.0679,-82.02773 C 109.73779,25.173306 105.7194,19.314968 100.5,16.589059 97.109124,14.818124 94.329995,14.447651 82.25,14.156235 L 68,13.812471 V 71.906235 130 h 14.28811 c 12.830983,0 14.742319,-0.22946 18.74193,-2.25 z M 129,97.419017 V 9.8380345 l 17.75,0.3309825 c 17.26547,0.321948 17.87729,0.40581 22.41297,3.072135 5.55552,3.265841 8.24809,7.29846 10.34918,15.499796 1.34846,5.26356 1.51431,14.827126 1.23857,71.418212 -0.35003,71.83715 -0.14349,69.43489 -6.62036,77.00164 -5.9223,6.91888 -9.09196,7.79195 -28.38036,7.81724 L 129,185 Z m 37.34583,80.224203 c 3.01611,-1.76756 5.4499,-4.21211 6.90586,-6.93636 L 175.5,166.5 175.77732,99.708301 c 0.18735,-45.125077 -0.0696,-68.079994 -0.79208,-70.763129 -0.58817,-2.184287 -2.46726,-5.56351 -4.17576,-7.509385 C 165.53685,15.430593 163.0411,14.64598 147.75,14.186346 L 134,13.773036 v 83.741669 83.741665 l 13.84414,-0.44182 c 12.86046,-0.41043 14.17508,-0.63577 18.50169,-3.17133 z M 25.25,182.25462 C 22.334735,180.80374 22,180.19235 22,176.31857 c 0,-4.79868 0.01065,-4.80578 4.679002,-3.11768 3.133175,1.13297 3.320998,1.47231 3.320998,6 0,5.30042 -0.102845,5.36654 -4.75,3.05373 z m -11.5,-5.32271 c -3.372647,-1.78048 -3.75,-2.3798 -3.75,-5.9558 0,-4.52755 -0.1094604,-4.46651 4.532119,-2.52714 3.236919,1.35247 3.467881,1.75208 3.467881,6 0,2.50307 -0.1125,4.53114 -0.25,4.50683 -0.1375,-0.0243 -1.9375,-0.93505 -4,-2.02389 z m 23.5,-3.67729 C 34.242138,171.75765 34,171.27017 34,166.71158 c 0,-4.0951 0.268564,-4.8225 1.592901,-4.3143 0.876095,0.33619 2.676095,0.88311 4,1.21539 C 41.763362,164.15742 42,164.74686 42,169.60841 c 0,2.96537 -0.3375,5.36281 -0.75,5.32764 -0.4125,-0.0352 -2.2125,-0.79182 -4,-1.68143 z m -12,-4.83906 C 22.259727,167.10785 22,166.62632 22,162.39014 c 0,-3.80105 0.27784,-4.4975 1.592901,-3.99286 0.876095,0.33619 2.676095,0.88311 4,1.21539 2.132402,0.5352 2.407099,1.16237 2.407099,5.49574 0,5.34704 -0.03298,5.37 -4.75,3.30715 z m -12.5,-4.71498 c -2.420525,-0.95647 -2.75,-1.6155 -2.75,-5.50061 0,-3.62708 0.283964,-4.30498 1.592901,-3.80269 0.876095,0.33619 2.676095,0.88311 4,1.21539 C 17.678577,156.13614 18,156.80323 18,160.60841 c 0,4.69939 -0.474848,4.97907 -5.25,3.09217 z m 23.5,-5.73174 c -1.920963,-0.77214 -2.25,-1.65015 -2.25,-6.004 0,-4.62208 0.187284,-5.04648 2,-4.53223 1.1,0.31207 2.9,0.82271 4,1.13478 1.653005,0.46895 2,1.42318 2,5.5 0,5.29629 -0.848127,5.87176 -5.75,3.90145 z m -10.5,-3.17153 C 22.053535,153.81554 22,153.7304 22,148.83327 c 0,-4.49051 0.192243,-4.91351 2,-4.40066 1.1,0.31207 2.9,0.82271 4,1.13478 1.653005,0.46895 2,1.42318 2,5.5 0,2.71293 -0.1125,4.8861 -0.25,4.82926 -0.1375,-0.0568 -1.9375,-0.55155 -4,-1.09934 z m -13,-3.95959 C 10.330679,149.95411 10,149.31503 10,145.523 v -4.31034 l 4,1.01531 c 3.903016,0.99069 4,1.12146 4,5.39367 0,4.67604 -0.467886,4.96266 -5.25,3.21608 z m 24,-7.55397 L 34,142.86716 V 108.05021 73.233263 l 2.25,-0.602977 C 42.408147,70.979966 42,68.469348 42,108 c 0,28.21324 -0.270373,35.96759 -1.25,35.85017 -0.6875,-0.0824 -2.4875,-0.3373 -4,-0.56642 z m -13,-2.97308 C 22.391882,139.95576 22,138.78536 22,135.08409 v -4.76925 l 3.75,0.60488 c 3.663779,0.59098 3.757008,0.71382 4.054791,5.34259 0.282768,4.39536 0.138254,4.72931 -2,4.62169 C 26.537156,140.8202 24.7125,140.5622 23.75,140.31067 Z M 13.5,138.12689 C 10.806101,137.55535 10.468625,137.05725 10.192502,133.2452 9.9076006,129.31196 10.06693,129 12.360715,129 17.054124,129 18,129.94046 18,134.60699 c 0,2.41615 -0.3375,4.33977 -0.75,4.2747 -0.4125,-0.0651 -2.1,-0.40474 -3.75,-0.7548 z M 23.75,126.31067 C 22.415761,125.962 22,124.80167 22,121.42668 V 117 h 4 4 v 5 c 0,5.27633 -0.702015,5.76051 -6.25,4.31067 z M 10,120.5 V 116 h 4 4 v 4.5 4.5 h -4 -4 z m 13.25,-8.16228 C 22.514813,112.04106 22,110.01433 22,107.41667 V 103 h 4 4 v 5 c 0,4.80702 -0.10614,4.99695 -2.75,4.92105 -1.5125,-0.0434 -3.3125,-0.30592 -4,-0.58333 z M 10,107.5 V 103 h 4 4 v 4.5 4.5 h -4 -4 z m 0,-13 V 90 h 4 4 v 4.5 4.5 h -4 -4 z m 12,-0.390594 c 0,-4.852819 0.02727,-4.893778 3.530566,-5.302768 1.941811,-0.226695 3.741811,-0.200928 4,0.05726 C 29.788755,89.122088 30,91.227083 30,93.541667 30,97.455 29.780941,97.793812 26.875,98.375 22.043242,99.341352 22,99.303515 22,94.109406 Z M 10.189376,81.813979 c 0.303293,-4.212168 0.400556,-4.321389 4.121248,-4.627958 l 3.810624,-0.31398 -0.310624,4.31398 c -0.303293,4.212168 -0.400556,4.321389 -4.121248,4.627958 l -3.8106241,0.31398 z M 22,80 c 0,-4.090036 0.318487,-5.002485 1.75,-5.013655 0.9625,-0.0075 2.7625,-0.284994 4,-0.616631 C 29.863362,73.803355 30,74.069869 30,78.758369 30,83.548996 29.874162,83.775168 26.875,84.375 22.038624,85.342275 22,85.307613 22,80 Z M 10,69.059017 c 0,-4.374396 0.134742,-4.531006 4.75,-5.520875 L 18,62.841089 v 4.462824 c 0,3.782788 -0.342851,4.554705 -2.25,5.065801 C 10.807661,73.69421 10,73.22918 10,69.059017 Z m 12,-2.923334 c 0,-4.238665 0.304635,-4.984059 2.25,-5.505397 5.083425,-1.362305 5.75,-0.910066 5.75,3.901099 0,4.642741 -0.122624,4.780643 -5.25,5.904144 C 22.042022,71.028896 22,70.963191 22,66.135683 Z M 34,63.17728 c 0,-4.688532 0.185287,-5.046221 3.149223,-6.079455 C 41.840634,55.46239 42,55.588652 42,60.940983 42,66.3674 41.93466,66.457104 37.25,67.461858 L 34,68.158911 Z M 10,56.590709 c 0,-3.604938 0.396548,-4.450358 2.547053,-5.430194 C 17.003144,49.130184 18,49.638483 18,53.940983 18,58.161421 17.559751,58.692281 12.967429,60.009341 10.007975,60.858102 10,60.848914 10,56.590709 Z m 12,-4.141736 c 0,-4.247927 0.230962,-4.647528 3.467881,-6 C 27.375216,45.652038 29.175216,45 29.467881,45 29.760547,45 30,47.205979 30,49.902175 c 0,4.599412 -0.194499,4.969977 -3.149223,6 C 22.185693,57.528432 22,57.396239 22,52.448973 Z m 12,-4.288458 c 0,-4.215538 0.328388,-4.989108 2.547053,-6 C 41.212441,40.034822 42,40.575224 42,45.902175 c 0,4.599412 -0.194499,4.969977 -3.149223,6 C 34.165867,53.535343 34,53.407401 34,48.160515 Z m -24,-4.5 c 0,-3.679741 0.387235,-4.515921 2.547053,-5.5 C 16.522357,36.349246 17,36.696961 17,41.402175 c 0,4.038591 -0.2601,4.492846 -3.149223,5.5 C 12.118704,47.505979 10.543704,48 10.350777,48 10.15785,48 10,46.047232 10,43.660515 Z M 22,36.51261 v -6.48739 l -5.62443,2.48739 C 13.282133,33.880674 10.582133,35 10.37557,35 10.169006,35 10.005333,33.0875 10.011851,30.75 L 10.023702,26.5 18.618978,22 C 23.34638,19.525 27.616047,17.35 28.107127,17.166667 28.599671,16.982787 29,22.179056 29,28.756152 29,40.562139 28.975042,40.690342 26.452947,41.839485 22.331788,43.717211 22,43.320307 22,36.51261 Z m 12,-2.875672 c 0,-5.048461 0.146988,-5.336607 3.550134,-6.959455 l 3.550135,-1.692941 -0.300135,5.597603 C 40.518203,35.840252 40.302887,36.262344 37.25,37.5416 L 34,38.903452 Z m 0,-14.967904 c 0,-5.070976 0.150364,-5.370313 3.5,-6.967643 L 41,10.032357 v 5.298609 c 0,5.070976 -0.150364,5.370313 -3.5,6.967643 L 34,23.967643 Z"
         id="path189" />
      <path
         style="fill:#d8c4ac;fill-opacity:1"
         d="M 37.25,188.25462 C 34.256765,186.76493 34,186.25646 34,181.81857 34,179.16836 34.239453,177 34.532119,177 c 0.292665,0 2.092665,0.65204 4,1.44897 3.308217,1.38226 3.467881,1.68153 3.467881,6.5 0,2.77807 -0.3375,5.02225 -0.75,4.98708 -0.4125,-0.0352 -2.2125,-0.79182 -4,-1.68143 z M 64.372445,186.75 c -0.485444,-0.69552 -0.754383,-40.20227 -0.60629,-89.062944 L 64.03231,9.8741127 81.766155,10.187056 c 15.669875,0.276522 18.199389,0.555965 21.733845,2.40101 5.35146,2.793549 10.06732,9.167189 11.40792,15.418164 1.7441,8.132499 1.47096,84.41699 -0.32362,90.37993 -1.93898,6.44273 -5.40816,10.66176 -11.19812,13.61857 -4.460764,2.27802 -6.217783,2.52492 -20.180525,2.83586 l -15.294345,0.34059 0.139432,25.35105 c 0.07669,13.94307 -0.154915,25.82731 -0.514672,26.40941 -0.872115,1.41111 -2.096753,1.33693 -3.163625,-0.19164 z M 99.74552,128.46186 c 4.7726,-1.99412 6.9799,-4.05235 9.61089,-8.96186 2.09508,-3.90949 2.14359,-4.96172 2.14359,-46.5 0,-41.263611 -0.062,-42.634067 -2.13116,-47.108467 -2.29325,-4.958951 -6.82466,-8.930908 -12.268063,-10.75343 C 95.231204,14.512146 87.918704,14 80.850777,14 H 68 v 58 58 h 14.032119 c 10.365404,0 14.994069,-0.40193 17.713401,-1.53814 z M 129,97.5 V 10 h 15.82186 c 19.17558,0 23.31995,1.082088 29.04216,7.58286 C 180.6014,25.236931 180.5,24.015726 180.5,97.5 c 0,75.04636 0.19751,72.9113 -7.44901,80.52431 C 166.90396,184.1444 163.41847,185 144.63398,185 H 129 Z m 37.26182,80.19245 c 3.09737,-1.81518 5.52117,-4.2375 6.98987,-6.98559 L 175.5,166.5 v -69 -69 l -2.79314,-4.751685 C 168.09066,15.895249 164.34265,14.521573 147.5,14.509793 l -14,-0.0098 -0.2583,82 c -0.14207,45.099997 -0.0242,82.613417 0.26204,83.363147 0.41435,1.08552 3.32042,1.28626 14.26843,0.98559 12.88223,-0.35378 14.04672,-0.55256 18.48965,-3.15629 z M 25.25,182.25462 C 22.334735,180.80374 22,180.19235 22,176.31857 c 0,-4.7234 0.636116,-5.07522 5.04966,-2.79289 2.6002,1.34462 2.95034,2.05668 2.95034,6 0,4.95882 -0.12509,5.03068 -4.75,2.72894 z m -11.5,-5.32271 c -3.372647,-1.78048 -3.75,-2.3798 -3.75,-5.9558 0,-4.52755 -0.1094604,-4.46651 4.532119,-2.52714 3.236919,1.35247 3.467881,1.75208 3.467881,6 0,2.50307 -0.1125,4.53114 -0.25,4.50683 -0.1375,-0.0243 -1.9375,-0.93505 -4,-2.02389 z m 24,-3.59039 C 34.124052,171.83755 34,171.62069 34,166.78606 c 0,-4.16324 0.266585,-4.89774 1.592901,-4.38878 0.876095,0.33619 2.676095,0.88311 4,1.21539 C 41.763362,164.15742 42,164.74686 42,169.60841 c 0,2.96537 -0.1125,5.3684 -0.25,5.34006 -0.1375,-0.0283 -1.9375,-0.75147 -4,-1.60695 z m -12.5,-4.92596 C 22.259727,167.10785 22,166.62632 22,162.39014 c 0,-3.80105 0.27784,-4.4975 1.592901,-3.99286 0.876095,0.33619 2.676095,0.88311 4,1.21539 2.132402,0.5352 2.407099,1.16237 2.407099,5.49574 0,5.34704 -0.03298,5.37 -4.75,3.30715 z m -12.5,-4.71498 c -2.420525,-0.95647 -2.75,-1.6155 -2.75,-5.50061 0,-3.62708 0.283964,-4.30498 1.592901,-3.80269 0.876095,0.33619 2.676095,0.88311 4,1.21539 C 17.678577,156.13614 18,156.80323 18,160.60841 c 0,4.69939 -0.474848,4.97907 -5.25,3.09217 z m 23.5,-5.73174 c -1.920963,-0.77214 -2.25,-1.65015 -2.25,-6.004 0,-4.62208 0.187284,-5.04648 2,-4.53223 1.1,0.31207 2.9,0.82271 4,1.13478 1.653005,0.46895 2,1.42318 2,5.5 0,5.29629 -0.848127,5.87176 -5.75,3.90145 z M 26,154.58989 c -3.256337,-1.17038 -3.521463,-1.58877 -3.808299,-6.00982 -0.284408,-4.38362 -0.148796,-4.70645 1.75,-4.16596 1.132064,0.32224 2.958299,0.84121 4.058299,1.15328 1.653005,0.46895 2,1.42318 2,5.5 0,2.71293 -0.1125,4.89837 -0.25,4.85653 -0.1375,-0.0418 -1.825,-0.64216 -3.75,-1.33403 z M 13.25,150.88122 C 10.223017,150.00721 10,149.64328 10,145.57774 v -4.36508 l 4,1.01531 c 3.903016,0.99069 4,1.12146 4,5.39367 0,2.4081 -0.3375,4.33778 -0.75,4.28817 -0.4125,-0.0496 -2.2125,-0.51247 -4,-1.02859 z M 37,143.1055 34.5,142.41037 34.237179,107.82517 33.974358,73.239968 36.237179,72.633639 C 42.410313,70.97953 42,68.461441 42,108 c 0,28.1865 -0.271302,35.97837 -1.25,35.90032 -0.6875,-0.0548 -2.375,-0.41249 -3.75,-0.79482 z M 24.25,140.29427 C 22.291463,139.91704 22,139.2426 22,135.08787 v -4.77303 l 3.75,0.60488 c 3.663779,0.59098 3.757008,0.71382 4.054791,5.34259 0.325355,5.05734 0.208655,5.14205 -5.554791,4.03196 z M 16.5,138.4273 c -0.55,-0.1388 -2.2375,-0.52529 -3.75,-0.85888 -2.437902,-0.53769 -2.75,-1.05832 -2.75,-4.58747 0,-3.6799 0.207962,-3.97979 2.75,-3.96564 4.327054,0.0241 5.414509,1.24225 5.064871,5.67363 C 17.641692,136.88383 17.05,138.56609 16.5,138.4273 Z m 7.75,-12.13303 C 22.320443,125.92262 22,125.22992 22,121.43045 V 117 h 4 4 v 5 c 0,5.3036 -0.104498,5.38164 -5.75,4.29427 z M 10,120.5 V 116 h 4 4 v 4.5 4.5 h -4 -4 z m 14.75,-8.21625 C 22.226153,111.90141 22,111.50255 22,107.43358 V 103 h 4 4 v 5 c 0,3.41324 -0.396689,4.95245 -1.25,4.85017 -0.6875,-0.0824 -2.4875,-0.3373 -4,-0.56642 z M 10,107.5 V 103 h 4 4 v 4.5 4.5 h -4 -4 z m 0,-13 V 90 h 4 4 V 94.5 99 H 14 10 Z M 22,94.116631 V 89 h 4 4 v 4.5 c 0,3.613846 -0.344616,4.502689 -1.75,4.513655 -0.9625,0.0075 -2.7625,0.284994 -4,0.616631 C 22.131264,99.198085 22,98.934761 22,94.116631 Z M 10,82.167354 C 10,77.972258 11.061054,77 15.639285,77 c 2.294169,0 2.453162,0.311649 2.168213,4.25 -0.298481,4.125373 -0.417463,4.259101 -4.057498,4.560365 L 10,86.120731 Z m 12,-2.050723 c 0,-4.201113 0.313127,-5.119074 1.75,-5.130286 0.9625,-0.0075 2.7625,-0.284994 4,-0.616631 2.118736,-0.567799 2.25,-0.304475 2.25,4.513655 0,4.201113 -0.313127,5.119074 -1.75,5.130286 -0.9625,0.0075 -2.7625,0.284994 -4,0.616631 C 22.131264,85.198085 22,84.934761 22,80.116631 Z M 10,69.059017 c 0,-4.268451 0.149401,-4.459678 4.25,-5.439811 C 16.933793,62.977721 17,63.068118 17,67.373959 17,71.919633 16.024146,73 11.918213,73 10.351752,73 10,72.277322 10,69.059017 Z m 12,-3.039965 c 0,-3.341292 0.417848,-5.023616 1.25,-5.032707 0.6875,-0.0075 2.2625,-0.284994 3.5,-0.616631 2.092414,-0.560745 2.25,-0.28377 2.25,3.954638 0,4.908724 -0.111191,5.067175 -4.25,6.056442 C 22.027966,71.03142 22,70.987063 22,66.019052 Z m 12,-2.804595 c 0,-4.730231 0.181077,-5.08193 3.149223,-6.116632 C 38.881296,56.494021 40.456296,56 40.649223,56 40.84215,56 41,58.475 41,61.5 c 0,3.726051 -0.40317,5.504404 -1.25,5.513655 -0.6875,0.0075 -2.2625,0.284994 -3.5,0.616631 C 34.135447,68.196964 34,67.931138 34,63.214457 Z M 10,56.566914 c 0,-3.579439 0.399792,-4.428041 2.547053,-5.406399 C 16.515543,49.35235 17,49.697415 17,54.332219 c 0,4.079835 -0.203901,4.394798 -3.5,5.406399 L 10,60.812799 Z M 22.195209,52.317869 C 22.470504,48.088846 22.814515,47.507924 25.75,46.315001 L 29,44.994264 v 4.905043 c 0,4.602629 -0.194161,4.972728 -3.149223,6.002868 C 24.118704,56.505979 22.519048,57 22.295986,57 22.072923,57 22.027574,54.893041 22.195209,52.317869 Z M 34,48.160515 c 0,-4.215538 0.328388,-4.989108 2.547053,-6 C 40.576203,40.324712 41,40.69248 41,46.024751 c 0,4.473607 -0.281355,5.131722 -2.5651,6 C 34.349378,53.578064 34,53.273642 34,48.160515 Z M 10,43.566914 c 0,-3.579439 0.399792,-4.428041 2.547053,-5.406399 C 16.515543,36.35235 17,36.697415 17,41.332219 c 0,4.079835 -0.203901,4.394798 -3.5,5.406399 L 10,47.812799 Z M 22,36.5 C 22,32.925 21.76004,30 21.466756,30 21.173472,30 18.713432,31.125 16,32.5 13.286568,33.875 10.826528,35 10.533244,35 10.23996,35 10.005333,33.0875 10.011851,30.75 L 10.023702,26.5 18.618978,22 C 23.34638,19.525 27.616047,17.35 28.107127,17.166667 28.599835,16.982726 29,22.204967 29,28.818842 V 40.80435 l -3.149223,1.097825 C 24.118704,42.505979 22.543704,43 22.350777,43 22.15785,43 22,40.075 22,36.5 Z m 12,-3.314788 c 0,-4.518036 0.215716,-4.917655 3.5,-6.483821 L 41,25.032357 v 5.323307 c 0,4.733997 -0.281968,5.451779 -2.547053,6.483821 C 34.440702,38.667586 34,38.305928 34,33.185212 Z m 0,-14.407948 c 0,-5.209906 0.129395,-5.468544 3.552568,-7.100941 l 3.552568,-1.6941015 -0.302568,5.2085025 c -0.272031,4.682827 -0.630579,5.3995 -3.552568,7.100941 L 34,24.184103 Z"
         id="path187" />
    </g>
  </g>
</svg>
