<?xml version="1.0" encoding="UTF-8" standalone="no"?>
<svg
   viewBox="0 0 183.32461 193.99316"
   version="1.1"
   id="svg18"
   sodipodi:docname="PDLogoBackground.svg"
   inkscape:version="1.2.2 (732a01da63, 2022-12-09)"
   width="183.32462"
   height="193.99315"
   xmlns:inkscape="http://www.inkscape.org/namespaces/inkscape"
   xmlns:sodipodi="http://sodipodi.sourceforge.net/DTD/sodipodi-0.dtd"
   xmlns="http://www.w3.org/2000/svg"
   xmlns:svg="http://www.w3.org/2000/svg">
  <defs
     id="defs22" />
  <sodipodi:namedview
     id="namedview20"
     pagecolor="#ffffff"
     bordercolor="#000000"
     borderopacity="0.25"
     inkscape:showpageshadow="2"
     inkscape:pageopacity="0.0"
     inkscape:pagecheckerboard="0"
     inkscape:deskcolor="#d1d1d1"
     showgrid="false"
     inkscape:zoom="4.5929456"
     inkscape:cx="57.152865"
     inkscape:cy="81.429225"
     inkscape:window-width="1920"
     inkscape:window-height="1017"
     inkscape:window-x="1912"
     inkscape:window-y="699"
     inkscape:window-maximized="1"
     inkscape:current-layer="svg18" />
  <rect
     style="opacity:1;fill:#7a634d;fill-opacity:1;stroke:none;stroke-opacity:0"
     id="rect292"
     width="183.32462"
     height="193.99315"
     x="0"
     y="0"
     ry="0" />
  <g
     style="display:block"
     id="g16"
     transform="translate(5.2254043,5.6608553)">
    <path
       style="fill:#ffffff;fill-opacity:1"
       d="M 37.75,188.881 C 34.106,187.007 34,186.797 34,181.463 v -5.49 l 3.699,1.546 c 2.034,0.85 3.858,1.705 4.053,1.9 0.195,0.195 0.218,2.838 0.051,5.873 L 41.5,190.81 Z m 25.959,-1.505 C 63.319,186.986 63,146.692 63,97.833 V 9 h 14.333 c 20.3,0 24.887,1.093 31.222,7.437 7.927,7.939 7.945,8.07 7.945,57.563 v 42.5 l -2.373,4.777 c -2.847,5.732 -8.683,10.974 -13.985,12.562 C 98.012,134.478 90.14,135 82.651,135 H 69.033 l -0.266,26.25 c -0.26,25.564 -0.32,26.258 -2.308,26.542 -1.123,0.16 -2.36,-0.027 -2.75,-0.416 z m 33.768,-58.491 c 5.098,-1.416 10.992,-7.31 12.408,-12.408 0.72,-2.595 1.106,-17.898 1.11,-44.049 C 111,28.816 110.741,26.435 105.337,20.608 100.944,15.87 97.407,15 82.532,15 H 69 v 115 l 12.25,-0.006 c 6.737,-0.003 14.04,-0.502 16.227,-1.11 z m 31.028,55.98 C 128.218,184.115 128.1,144.35 128.242,96.5 l 0.258,-87 h 17.027 c 16.298,0 17.24,0.11 21.991,2.555 6.214,3.198 10.967,9.318 12.39,15.951 0.726,3.387 1.092,26.955 1.092,70.362 0,71.636 0.005,71.568 -5.97,78.792 -1.665,2.013 -5.166,4.7 -7.779,5.972 -4.254,2.07 -6.503,2.353 -21.488,2.705 -13.493,0.317 -16.838,0.129 -17.258,-0.972 z m 36.074,-6.761 c 5.1,-2.317 8,-5.948 9.923,-12.423 C 175.762,161.436 176,150.768 176,98.368 176,57.733 175.626,34.357 174.925,31.086 173.468,24.292 170.355,19.94 165.03,17.25 161.077,15.253 159.082,15 147.288,15 H 134 v 165 l 13.25,-0.022 c 10.73,-0.018 14.026,-0.374 17.329,-1.874 z M 25.75,182.882 C 22.176,181.042 22,180.719 22,175.962 v -4.989 l 3.699,1.546 c 2.034,0.85 3.86,1.706 4.056,1.902 0.196,0.197 0.22,2.615 0.051,5.374 l -0.306,5.017 z m -12.5,-5.627 C 10.255,175.764 10,175.258 10,170.805 v -4.832 l 3.622,1.514 c 1.992,0.832 3.792,1.513 4,1.513 0.208,0 0.378,2.25 0.378,5 0,5.512 -0.09,5.574 -4.75,3.255 z m 23.5,-3.554 C 34.194,172.691 34,172.207 34,166.859 v -5.754 l 3.75,1.294 c 3.679,1.269 3.756,1.4 4.05,6.947 0.324,6.103 0.025,6.36 -5.05,4.355 z m -11,-4.54 C 22.067,167.754 22,167.634 22,162.416 v -5.312 l 3.25,1.085 c 4.64,1.548 4.899,1.973 4.557,7.465 l -0.307,4.94 z M 14,164.511 c -3.27,-1.102 -3.52,-1.49 -3.809,-5.937 l -0.308,-4.759 3.308,0.698 c 4.557,0.961 4.974,1.565 4.62,6.692 L 17.5,165.69 Z m 23.25,-5.758 C 34.106,157.745 34,157.533 34,152.23 v -5.48 l 3.125,0.625 c 1.719,0.344 3.519,0.625 4,0.625 0.481,0 0.875,2.7 0.875,6 0,3.3 -0.338,5.954 -0.75,5.898 -0.412,-0.056 -2.212,-0.571 -4,-1.145 z m -12.5,-3.915 C 22.246,153.923 22,153.382 22,148.792 v -5.042 l 3.125,0.625 c 1.719,0.344 3.519,0.625 4,0.625 0.481,0 0.875,2.475 0.875,5.5 0,5.875 -0.32,6.139 -5.25,4.338 z m -12.5,-3.544 c -1.979,-0.38 -2.25,-1.041 -2.25,-5.48 0,-4.746 0.134,-5.011 2.25,-4.444 1.238,0.331 3.038,0.609 4,0.616 1.432,0.012 1.75,0.924 1.75,5.014 0,5.304 -0.104,5.382 -5.75,4.294 z m 23.5,-7.983 C 34.125,142.886 34,140.348 34,107.895 c 0,-27.094 0.281,-35.044 1.25,-35.343 0.688,-0.212 2.487,-0.656 4,-0.988 L 42,70.962 V 144 l -2.25,-0.116 c -1.238,-0.064 -3.038,-0.322 -4,-0.573 z M 25.5,141.126 c -2.83,-0.601 -3.017,-0.941 -3.307,-6.018 l -0.307,-5.38 3.182,0.636 c 1.75,0.35 3.576,0.636 4.057,0.636 0.481,0 0.875,2.475 0.875,5.5 0,3.025 -0.338,5.447 -0.75,5.382 -0.412,-0.065 -2.1,-0.405 -3.75,-0.756 z m -13.25,-2.832 c -1.979,-0.38 -2.25,-1.041 -2.25,-5.48 0,-4.746 0.134,-5.011 2.25,-4.444 1.238,0.331 3.038,0.609 4,0.616 1.432,0.012 1.75,0.924 1.75,5.014 0,5.304 -0.104,5.382 -5.75,4.294 z M 22,121.5 c 0,-5.867 0.488,-6.28 5.75,-4.87 1.944,0.521 2.25,1.268 2.25,5.487 V 127 h -8 z m -9.75,3.794 C 10.297,124.918 10,124.24 10,120.154 v -4.707 l 4,0.382 4,0.381 v 4.895 c 0,5.188 -0.118,5.274 -5.75,4.19 z m 0,-13 C 10.32,111.923 10,111.23 10,107.43 V 103 h 8 v 5 c 0,5.304 -0.104,5.382 -5.75,4.294 z M 22,107.5 V 102 h 8 v 11 H 22 Z M 10,95.117 c 0,-4.201 0.313,-5.12 1.75,-5.13 0.963,-0.008 2.763,-0.286 4,-0.617 2.119,-0.568 2.25,-0.305 2.25,4.513 0,4.201 -0.313,5.12 -1.75,5.13 -0.963,0.008 -2.763,0.286 -4,0.617 C 10.131,100.198 10,99.935 10,95.117 Z m 12,-1.01 C 22,88.917 22.838,88 27.582,88 29.846,88 30,88.35 30,93.5 V 99 H 22 Z M 10,82.117 c 0,-4.201 0.313,-5.12 1.75,-5.13 0.963,-0.008 2.763,-0.286 4,-0.617 2.119,-0.568 2.25,-0.305 2.25,4.513 0,4.201 -0.313,5.12 -1.75,5.13 -0.963,0.008 -2.763,0.286 -4,0.617 C 10.131,87.198 10,86.935 10,82.117 Z m 12,-1.94 c 0,-4.282 0.301,-5.025 2.25,-5.547 5.365,-1.438 5.877,-1.012 5.552,4.62 L 29.5,84.5 25.75,84.81 22,85.12 Z M 10,69.141 c 0,-4.878 0.016,-4.902 4,-5.913 l 4,-1.015 v 4.925 c 0,5.066 -0.082,5.165 -5.25,6.298 C 10.042,74.029 10,73.963 10,69.141 Z m 12,-3.074 c 0,-4.076 0.347,-5.03 2,-5.5 l 4,-1.134 c 1.825,-0.518 2,-0.09 2,4.875 0,5.295 -0.084,5.459 -3.125,6.067 C 22.041,71.342 22,71.305 22,66.067 Z M 34,63.1 v -5.687 l 4,-1.067 4,-1.068 v 11.479 l -4,1.015 -4,1.015 z M 10,56.45 c 0,-4.248 0.231,-4.648 3.468,-6 1.907,-0.797 3.707,-1.449 4,-1.449 0.293,0 0.532,2.206 0.532,4.902 0,4.6 -0.194,4.97 -3.15,6 C 10.187,61.528 10,61.396 10,56.45 Z m 12,-3.8 c 0,-5.035 0.134,-5.296 3.321,-6.448 4.783,-1.73 4.813,-1.703 4.481,3.953 -0.291,4.967 -0.438,5.201 -4.052,6.448 L 22,57.895 Z m 12,-4.188 c 0,-5.3 0.09,-5.471 3.622,-6.948 1.992,-0.832 3.815,-1.513 4.05,-1.513 0.235,0 0.293,2.544 0.128,5.654 -0.294,5.547 -0.371,5.678 -4.05,6.947 L 34,53.895 Z M 10,43.514 c 0,-4.21 0.222,-4.58 3.622,-6 1.992,-0.832 3.792,-1.513 4,-1.513 0.208,0 0.378,2.16 0.378,4.8 0,4.527 -0.188,4.866 -3.321,6 C 10,48.49 10,48.49 10,43.512 Z m 11.627,-0.22 C 21.282,42.95 21,40.043 21,36.834 c 0,-3.208 -0.24,-5.833 -0.533,-5.833 -0.294,0 -2.778,1.137 -5.521,2.527 -5.573,2.825 -6.35,2.34 -5.766,-3.607 0.293,-2.991 1.09,-3.692 9.32,-8.188 4.95,-2.704 9.563,-5.148 10.25,-5.431 C 29.711,15.906 30,18.7 30,28.394 30,35.327 29.83,41 29.622,41 c -0.208,0 -1.95,0.657 -3.873,1.46 -1.922,0.804 -3.777,1.179 -4.122,0.834 z M 33,33.986 c 0,-4.584 0.279,-5.184 3.25,-6.996 5.039,-3.072 5.75,-2.66 5.75,3.326 0,5.099 -0.143,5.383 -3.534,7 -1.944,0.927 -3.969,1.685 -4.5,1.685 C 33.435,39.001 33,36.744 33,33.986 Z m 0.198,-15.22 c 0.29,-5.017 0.48,-5.335 4.552,-7.576 L 42,8.85 v 5.89 c 0,5.757 -0.08,5.927 -3.534,7.575 -5.235,2.496 -5.603,2.249 -5.268,-3.55 z"
       transform="translate(-9.017,-8.72)"
       id="path2" />
    <path
       style="fill:#ffffff;fill-opacity:1"
       d="M 37.75,188.881 C 34.106,187.007 34,186.797 34,181.463 v -5.49 l 3.699,1.546 c 2.034,0.85 3.858,1.705 4.053,1.9 0.195,0.195 0.218,2.838 0.051,5.873 L 41.5,190.81 Z m 25.959,-1.505 C 63.319,186.986 63,146.647 63,97.734 V 8.802 L 80.25,9.21 c 20.031,0.473 23.533,1.465 29.634,8.395 6.423,7.298 6.616,8.898 6.616,54.895 0,47.319 -0.122,48.23 -7.449,55.524 -6,5.973 -9.795,6.976 -26.4,6.976 H 69.033 l -0.266,26.25 c -0.26,25.564 -0.32,26.258 -2.308,26.542 -1.123,0.16 -2.36,-0.027 -2.75,-0.416 z M 99.5,128.11 c 4.841,-2.234 7.888,-5.4 9.952,-10.342 1.315,-3.145 1.545,-10 1.526,-45.486 C 110.958,33.696 110.814,30.194 109.098,26.5 104.586,16.783 100.466,15 82.532,15 H 69 v 115 l 13.25,-0.022 C 92.988,129.96 96.258,129.606 99.5,128.11 Z M 129,97.5 V 8.77 l 16.75,0.435 c 17.846,0.465 21.007,1.178 26.77,6.04 1.662,1.4 4.137,4.731 5.5,7.401 l 2.48,4.854 v 140 l -2.363,4.756 c -1.3,2.616 -3.775,5.947 -5.5,7.402 -5.89,4.967 -8.969,5.67 -26.887,6.137 L 129,186.231 Z m 38.59,78.947 c 2.073,-1.68 4.7,-4.83 5.84,-7 2.034,-3.88 2.07,-5.114 2.07,-71.947 v -68 l -2.24,-4.192 c -1.233,-2.306 -3.896,-5.456 -5.919,-7 -3.592,-2.743 -4.022,-2.815 -18.51,-3.13 L 134,14.856 v 165.288 l 14.91,-0.322 14.912,-0.322 z M 25.75,182.882 C 22.176,181.042 22,180.719 22,175.962 v -4.989 l 3.699,1.546 c 2.034,0.85 3.86,1.706 4.056,1.902 0.196,0.197 0.22,2.615 0.051,5.374 l -0.306,5.017 z m -12.5,-5.627 C 10.255,175.764 10,175.258 10,170.805 v -4.832 l 3.622,1.514 c 1.992,0.832 3.792,1.513 4,1.513 0.208,0 0.378,2.25 0.378,5 0,5.512 -0.09,5.574 -4.75,3.255 z m 23.5,-3.827 C 34.272,172.084 34,171.4 34,166.52 v -5.415 l 3.75,1.294 c 3.679,1.269 3.756,1.4 4.05,6.947 0.33,6.212 -0.254,6.684 -5.05,4.082 z m -12,-4.727 C 22.237,167.707 22,167.161 22,162.359 v -5.254 l 3.75,1.293 c 3.614,1.247 3.761,1.48 4.052,6.448 0.327,5.567 -0.03,5.84 -5.052,3.855 z m -11,-4.413 C 10.2,162.866 10,162.548 10,158.314 v -4.473 l 3.25,0.685 c 4.498,0.948 4.914,1.561 4.56,6.73 l -0.31,4.533 z m 23.5,-5.535 C 34.106,157.745 34,157.533 34,152.23 v -5.48 l 3.125,0.625 c 1.719,0.344 3.519,0.625 4,0.625 0.481,0 0.875,2.7 0.875,6 0,3.3 -0.338,5.954 -0.75,5.898 -0.412,-0.056 -2.212,-0.571 -4,-1.145 z m -12,-3.872 C 22.131,153.981 22,153.737 22,148.846 v -5.096 l 3.125,0.625 c 1.719,0.344 3.519,0.625 4,0.625 0.481,0 0.875,2.475 0.875,5.5 0,3.025 -0.338,5.46 -0.75,5.41 -0.412,-0.05 -2.212,-0.513 -4,-1.029 z m -13,-3.912 C 10.373,150.214 10,149.301 10,145.453 v -4.612 l 3.25,0.697 c 4.653,0.998 4.75,1.12 4.75,6.021 0,4.766 -0.96,5.335 -5.75,3.41 z m 23.5,-7.658 C 34.126,142.886 34,140.352 34,107.994 34,73.991 34.05,73.121 36,72.567 l 4,-1.134 c 1.974,-0.56 2,-0.09 2,36 V 144 l -2.25,-0.116 c -1.238,-0.064 -3.038,-0.322 -4,-0.573 z m -10.5,-2.43 C 22.131,139.981 22,139.737 22,134.846 v -5.096 l 3.125,0.625 c 1.719,0.344 3.519,0.625 4,0.625 0.481,0 0.875,2.475 0.875,5.5 0,3.025 -0.338,5.46 -0.75,5.41 -0.412,-0.05 -2.212,-0.513 -4,-1.029 z m -13,-2.587 c -1.979,-0.38 -2.25,-1.041 -2.25,-5.48 0,-4.746 0.134,-5.011 2.25,-4.444 1.238,0.331 3.038,0.609 4,0.616 1.432,0.012 1.75,0.924 1.75,5.014 0,5.304 -0.104,5.382 -5.75,4.294 z m 10.417,-11.96 C 22.3,125.967 22,123.435 22,120.708 v -4.958 l 3.125,0.625 c 1.719,0.344 3.519,0.625 4,0.625 0.481,0 0.875,2.25 0.875,5 v 5 h -3.333 c -1.834,0 -3.634,-0.3 -4,-0.667 z m -9.917,-1.05 C 10.198,124.897 10,124.528 10,120.157 v -4.71 l 4,0.382 4,0.381 v 4.895 c 0,3.33 -0.4,4.847 -1.25,4.745 -0.688,-0.082 -2.487,-0.337 -4,-0.566 z m 0.5,-13.073 C 10.122,111.886 10,111.706 10,107.437 V 103 h 8 v 4.441 c 0,5.008 -0.23,5.239 -4.75,4.77 z M 22,108.107 c 0,-5.19 0.838,-6.107 5.582,-6.107 2.264,0 2.418,0.35 2.418,5.5 v 5.5 h -8 z m -12,-13 C 10,90.372 10.176,90 12.418,90 c 1.33,0 3.13,-0.273 4,-0.607 C 17.733,88.888 18,89.647 18,93.893 18,98.628 17.824,99 15.582,99 c -1.33,0 -3.13,0.273 -4,0.607 C 10.267,100.112 10,99.353 10,95.107 Z m 12,-0.99 c 0,-4.22 0.306,-4.966 2.25,-5.487 C 29.512,87.22 30,87.633 30,93.5 V 99 h -8 z m -12,-12 c 0,-4.201 0.313,-5.12 1.75,-5.13 0.963,-0.008 2.763,-0.286 4,-0.617 2.119,-0.568 2.25,-0.305 2.25,4.513 0,4.201 -0.313,5.12 -1.75,5.13 -0.963,0.008 -2.763,0.286 -4,0.617 C 10.131,87.198 10,86.935 10,82.117 Z m 12,-1.932 c 0,-4.727 0.132,-4.961 3.125,-5.56 4.923,-0.985 4.996,-0.913 4.677,4.625 L 29.5,84.5 25.75,84.81 22,85.12 Z M 10,69.145 c 0,-4.682 0.136,-4.922 3.125,-5.52 C 17.94,62.662 18,62.71 18,67.531 18,72.174 17.877,72.312 12.75,73.436 10.043,74.029 10,73.962 10,69.144 Z m 12,-3.078 c 0,-4.076 0.347,-5.03 2,-5.5 l 4,-1.134 c 1.825,-0.518 2,-0.09 2,4.875 0,5.295 -0.084,5.459 -3.125,6.067 C 22.041,71.342 22,71.305 22,66.067 Z m 12,-2.698 c 0,-4.896 0.247,-5.512 2.565,-6.394 4.866,-1.85 5.435,-1.39 5.435,4.403 v 5.379 l -4,1.015 -4,1.015 z M 10,56.58 c 0,-4.289 0.211,-4.642 3.622,-6.068 1.992,-0.832 3.792,-1.513 4,-1.513 0.208,0 0.378,2.22 0.378,4.933 0,4.257 -0.308,5.02 -2.25,5.579 C 9.65,61.264 10,61.442 10,56.58 Z m 12,-3.932 c 0,-5.035 0.134,-5.296 3.321,-6.448 4.783,-1.73 4.813,-1.703 4.481,3.953 -0.291,4.967 -0.438,5.201 -4.052,6.448 L 22,57.895 Z M 34,48.46 c 0,-5.3 0.09,-5.471 3.622,-6.948 1.992,-0.832 3.815,-1.513 4.05,-1.513 0.235,0 0.293,2.544 0.128,5.654 -0.294,5.547 -0.371,5.678 -4.05,6.947 L 34,53.895 Z M 10,43.512 c 0,-4.21 0.222,-4.58 3.622,-6 1.992,-0.832 3.792,-1.513 4,-1.513 0.208,0 0.378,2.16 0.378,4.8 0,4.527 -0.188,4.866 -3.321,6 C 10,48.49 10,48.49 10,43.512 Z m 12,-6 C 22,33.698 21.572,31 20.967,31 c -0.569,0 -3.269,1.133 -6,2.517 L 10,36.034 v -9.832 l 9.25,-4.85 c 5.088,-2.669 9.588,-5.002 10,-5.185 C 29.662,15.983 30,21.496 30,28.417 30,35.337 29.83,41 29.622,41 c -0.208,0 -2.008,0.681 -4,1.513 L 22,44.027 Z m 12,-3.974 c 0,-5.065 0.227,-5.605 2.95,-7.013 4.568,-2.361 5.05,-1.982 5.05,3.975 0,3.025 -0.17,5.5 -0.378,5.5 -0.208,0 -2.008,0.681 -4,1.513 L 34,39.027 Z m 0,-15.019 c 0,-5.386 0.068,-5.514 4,-7.52 l 4,-2.04 v 5.834 c 0,5.695 -0.085,5.876 -3.534,7.52 -1.944,0.928 -3.744,1.686 -4,1.686 C 34.21,23.999 34,21.533 34,18.519 Z"
       transform="translate(-9.017,-8.72)"
       id="path4" />
    <path
       style="fill:#ffffff;fill-opacity:1"
       d="M 37.75,188.932 C 34.124,187.018 34,186.774 34,181.55 v -5.401 l 3.99,1.675 3.99,1.676 0.01,5.75 c 0.005,3.162 -0.103,5.73 -0.24,5.706 -0.138,-0.025 -1.938,-0.935 -4,-2.024 z M 63.487,186.82 C 63.21,186.094 63.1,145.9 63.242,97.5 L 63.5,9.5 H 80 c 19.102,0 23.645,1.15 29.31,7.422 6.94,7.68 7.19,9.617 7.19,55.578 0,44.976 -0.25,47.315 -5.78,54.023 -1.693,2.054 -5.36,4.798 -8.15,6.096 -4.577,2.132 -6.454,2.362 -19.303,2.371 L 69.033,135 68.767,161.25 68.5,187.5 l -2.254,0.32 c -1.24,0.176 -2.482,-0.274 -2.759,-1 z m 34.614,-57.973 c 5.447,-1.848 8.516,-4.5 10.782,-9.32 2.052,-4.367 2.117,-5.808 2.117,-46.82 V 30.393 l -2.597,-5.211 c -1.9,-3.813 -3.798,-5.915 -7.075,-7.836 -4.097,-2.401 -5.663,-2.667 -18.403,-3.125 L 69,13.721 V 130 h 12.85 c 7.072,0 14.38,-0.518 16.25,-1.153 z M 129,97.63 V 9 l 13.25,0.02 c 22.91,0.037 30.523,3.002 35.62,13.873 l 2.63,5.607 0.277,66.9 c 0.237,57.106 0.058,67.655 -1.223,72.062 -2.235,7.688 -5.354,11.615 -11.873,14.95 -5.541,2.833 -6.4,2.964 -22.222,3.397 L 129,186.259 Z m 35.352,80.873 c 4.864,-2.308 9.202,-7.676 10.56,-13.067 1.468,-5.831 1.507,-128.386 0.042,-135.215 -1.262,-5.884 -5.943,-11.897 -10.88,-13.973 -2.282,-0.96 -8.36,-1.69 -16.824,-2.018 L 134,13.716 v 167.568 l 13.317,-0.509 c 9.822,-0.374 14.293,-0.97 17.035,-2.272 z M 25.75,182.932 C 22.197,181.056 22,180.695 22,176.057 v -4.896 l 4,1.571 c 3.972,1.56 4,1.609 4,6.92 0,2.941 -0.113,5.328 -0.25,5.304 -0.138,-0.025 -1.938,-0.935 -4,-2.024 z m -12,-5.665 C 10.154,175.792 10,175.533 10,170.945 v -4.784 l 4,1.571 c 3.9,1.532 4,1.692 4,6.42 0,2.666 -0.113,4.804 -0.25,4.75 -0.138,-0.053 -1.938,-0.789 -4,-1.635 z m 23.5,-3.758 C 34.2,172.183 34,171.787 34,167.049 c 0,-5.465 0.153,-5.589 4.85,-3.951 3.009,1.048 3.15,1.34 3.15,6.5 0,2.971 -0.338,5.384 -0.75,5.363 -0.412,-0.022 -2.212,-0.675 -4,-1.452 z m -12,-5 c -2.983,-1.297 -3.25,-1.786 -3.25,-5.96 0,-4.945 0.186,-5.077 4.85,-3.451 2.956,1.03 3.15,1.4 3.15,6 0,5.39 -0.074,5.444 -4.75,3.411 z m -11.5,-4.242 c -3.525,-1.446 -3.75,-1.8 -3.75,-5.903 0,-4.753 0.2,-4.888 4.85,-3.266 2.956,1.03 3.15,1.4 3.15,6 0,2.696 -0.113,4.858 -0.25,4.805 -0.138,-0.054 -1.938,-0.79 -4,-1.636 z m 24,-5.693 -3.75,-0.927 v -10.806 l 3.25,0.685 c 4.53,0.954 4.905,1.538 4.557,7.081 L 41.5,159.5 Z m -12.5,-3.82 C 22.163,153.763 22,153.463 22,148.776 v -4.935 l 3.25,0.697 c 4.685,1.005 4.75,1.095 4.75,6.521 0,2.718 -0.338,4.895 -0.75,4.839 -0.412,-0.056 -2.212,-0.571 -4,-1.145 z M 13,151.11 c -2.16,-0.597 -2.542,-1.343 -2.809,-5.493 l -0.308,-4.802 3.308,0.71 c 4.72,1.013 4.809,1.125 4.809,6.034 0,4.641 -0.295,4.85 -5,3.551 z M 36.25,143.294 34,142.861 V 108.037 C 34,70.121 33.709,72 39.582,72 H 42 v 36 c 0,39.586 0.503,36.499 -5.75,35.294 z m -7.75,-1.868 c -0.55,-0.138 -2.237,-0.524 -3.75,-0.858 C 22.195,140.005 22,139.605 22,134.936 v -5.027 l 3.75,0.678 c 2.063,0.373 3.888,0.794 4.056,0.935 0.81,0.68 -0.435,10.123 -1.306,9.904 z M 12.75,138.284 C 10.169,137.893 10,137.558 10,132.827 c 0,-4.186 0.268,-4.938 1.582,-4.434 0.87,0.334 2.67,0.607 4,0.607 2.235,0 2.418,0.378 2.418,5 0,3.413 -0.397,4.952 -1.25,4.85 -0.688,-0.082 -2.487,-0.337 -4,-0.566 z m 9.917,-11.95 C 22.3,125.967 22,123.439 22,120.717 c 0,-4.646 0.138,-4.913 2.25,-4.347 1.238,0.331 3.038,0.609 4,0.616 1.432,0.012 1.75,0.924 1.75,5.014 v 5 h -3.333 c -1.834,0 -3.634,-0.3 -4,-0.667 z m -9.917,-1.05 C 10.226,124.901 10,124.503 10,120.434 V 116 h 8 v 5 c 0,3.413 -0.397,4.952 -1.25,4.85 -0.688,-0.082 -2.487,-0.337 -4,-0.566 z M 22,108 v -5 h 8 v 10 H 22 Z M 10,107.5 V 103 h 8 v 9 h -8 z m 0,-13 V 90 h 8 v 9 H 10 Z M 22,94 c 0,-4.09 0.318,-5.002 1.75,-5.014 0.963,-0.007 2.763,-0.285 4,-0.616 C 29.888,87.797 30,88.047 30,93.383 V 99 H 22 Z M 10,82.107 C 10,77.372 10.176,77 12.418,77 c 1.33,0 3.13,-0.273 4,-0.607 C 17.733,75.888 18,76.647 18,80.893 18,85.628 17.824,86 15.582,86 c -1.33,0 -3.13,0.273 -4,0.607 C 10.267,87.112 10,86.353 10,82.107 Z m 12,-1.982 c 0,-4.66 0.138,-4.903 3.125,-5.5 C 29.957,73.659 30,73.696 30,78.893 30,84.083 29.162,85 24.418,85 22.191,85 22,84.614 22,80.125 Z M 10,69.192 c 0,-4.735 0.13,-4.968 3.125,-5.567 4.81,-0.962 4.875,-0.911 4.875,3.808 0,4.633 0.227,4.407 -6.25,6.214 C 10.254,74.064 10,73.419 10,69.192 Z m 12,-3.004 c 0,-4.417 0.268,-5.038 2.407,-5.575 1.324,-0.333 3.124,-0.88 4,-1.216 1.328,-0.51 1.593,0.23 1.593,4.437 0,5.539 -0.06,5.622 -4.75,6.628 L 22,71.159 Z m 12,-3.213 c 0,-4.473 0.281,-5.131 2.565,-6 4.867,-1.85 5.435,-1.39 5.435,4.408 0,4.738 -0.27,5.456 -2.25,5.987 C 34.569,68.758 34,68.324 34,62.975 Z M 10.192,56.431 c 0.291,-4.485 0.51,-4.81 4.058,-6.033 L 18,49.105 v 4.88 c 0,5.146 0.3,4.83 -6.308,6.68 -1.59,0.446 -1.771,-0.066 -1.5,-4.234 z M 22,52.281 c 0,-4.618 0.178,-4.943 3.321,-6.08 C 30.024,44.5 30,44.48 30,49.94 c 0,5.426 -0.065,5.516 -4.75,6.52 L 22,57.16 Z m 12,-3.82 c 0,-5.3 0.09,-5.471 3.622,-6.948 1.992,-0.832 3.815,-1.513 4.05,-1.513 0.235,0 0.293,2.544 0.128,5.654 -0.294,5.547 -0.371,5.678 -4.05,6.947 L 34,53.895 Z M 10,43.513 c 0,-4.21 0.222,-4.58 3.622,-6 1.992,-0.832 3.792,-1.513 4,-1.513 0.208,0 0.378,2.048 0.378,4.551 0,4.248 -0.231,4.648 -3.468,6 C 12.625,47.348 10.825,48 10.532,48 10.239,48 10,45.981 10,43.513 Z M 22,37.42 c 0,-6.85 -0.409,-7.28 -4.8,-5.047 -1.485,0.756 -3.712,1.686 -4.95,2.068 C 10.153,35.088 10,34.836 10,30.745 v -4.39 l 9.236,-4.928 c 5.08,-2.71 9.58,-5.077 10,-5.26 0.42,-0.184 0.764,5.26 0.764,12.098 v 12.432 l -4,1.57 -4,1.572 z m 12,-3.958 c 0,-5.404 0.1,-5.606 3.468,-7.013 1.907,-0.797 3.707,-1.449 4,-1.449 0.293,0 0.532,2.475 0.532,5.5 0,3.025 -0.17,5.5 -0.378,5.5 -0.208,0 -2.008,0.681 -4,1.513 L 34,39.027 Z m 0,-14.726 c 0,-4.795 0.28,-5.47 2.904,-7.02 C 41.35,9.09 42,9.507 42,14.98 42,19.783 41.858,20.032 38,22 l -4,2.04 z"
       transform="translate(-9.017,-8.72)"
       id="path6" />
    <path
       style="fill:#ffffff;fill-opacity:1"
       d="M 37.75,188.932 C 34.124,187.018 34,186.774 34,181.55 v -5.401 l 3.99,1.675 3.99,1.676 0.01,5.75 c 0.005,3.162 -0.103,5.73 -0.24,5.706 -0.138,-0.025 -1.938,-0.935 -4,-2.024 z M 63.487,186.82 C 63.21,186.094 63.1,145.9 63.242,97.5 l 0.258,-88 17,0.097 c 18.725,0.107 21.362,0.709 27.773,6.338 2.261,1.985 4.415,5.289 5.717,8.767 2.019,5.397 2.078,7.034 1.799,49.69 -0.282,42.963 -0.345,44.212 -2.442,48.108 -2.502,4.65 -5.45,7.53 -10.347,10.11 -2.802,1.475 -6.592,1.947 -19,2.366 l -15.5,0.524 -0.105,26 c -0.105,25.798 -0.122,26.002 -2.255,26.32 -1.182,0.176 -2.376,-0.274 -2.653,-1 z m 39.22,-60.004 c 2.54,-1.684 4.934,-4.479 6.422,-7.5 L 111.5,114.5 v -83 l -3,-6 c -2.37,-4.741 -3.944,-6.518 -7.5,-8.467 -4.168,-2.286 -5.532,-2.47 -18.5,-2.5 l -14,-0.033 -0.258,57.82 -0.258,57.821 15.336,-0.32 c 14.704,-0.308 15.502,-0.431 19.387,-3.005 z M 129,97.5 V 8.74 l 16.25,0.468 c 13.994,0.402 16.965,0.779 21.402,2.71 6.208,2.704 8.522,5.027 11.55,11.594 l 2.298,4.988 0.318,66 c 0.22,45.79 -0.022,67.568 -0.793,71.122 -1.762,8.124 -5.872,13.667 -12.557,16.938 -5.407,2.645 -6.66,2.83 -22.1,3.252 L 129,186.26 Z m 34.139,81.672 c 1.451,-0.57 4.259,-2.46 6.24,-4.2 C 176.024,169.138 176,169.416 176,97.5 176,25.198 176.072,26.008 169.11,19.719 164.266,15.342 158.48,14 144.45,14 H 134 v 167.284 l 13.25,-0.537 c 7.287,-0.295 14.438,-1.003 15.889,-1.575 z M 25.75,182.932 C 22.197,181.056 22,180.695 22,176.057 v -4.896 l 4,1.571 c 3.972,1.56 4,1.609 4,6.92 0,2.941 -0.113,5.328 -0.25,5.304 -0.138,-0.025 -1.938,-0.935 -4,-2.024 z m -12,-5.665 C 10.154,175.792 10,175.533 10,170.945 v -4.784 l 4,1.571 c 3.9,1.532 4,1.692 4,6.42 0,2.666 -0.113,4.804 -0.25,4.75 -0.138,-0.053 -1.938,-0.789 -4,-1.635 z m 23.5,-3.851 c -3.043,-1.331 -3.25,-1.74 -3.25,-6.419 0,-5.41 0.156,-5.536 4.85,-3.9 3.009,1.05 3.15,1.34 3.15,6.5 0,5.886 -0.008,5.892 -4.75,3.819 z m -12,-4.907 c -2.983,-1.297 -3.25,-1.786 -3.25,-5.96 0,-4.945 0.186,-5.077 4.85,-3.451 2.956,1.03 3.15,1.4 3.15,6 0,5.39 -0.074,5.444 -4.75,3.411 z m -11.5,-4.242 c -3.525,-1.446 -3.75,-1.8 -3.75,-5.903 0,-4.753 0.2,-4.888 4.85,-3.266 2.956,1.03 3.15,1.4 3.15,6 0,2.696 -0.113,4.858 -0.25,4.805 -0.138,-0.054 -1.938,-0.79 -4,-1.636 z M 38,158.51 c -3.342,-1.126 -3.514,-1.416 -3.805,-6.436 l -0.306,-5.257 3.306,0.697 c 4.598,0.97 4.96,1.534 4.612,7.188 L 41.5,159.689 Z M 25.25,154.753 C 22.163,153.763 22,153.463 22,148.776 v -4.935 l 3.25,0.697 c 4.685,1.005 4.75,1.095 4.75,6.521 0,2.718 -0.338,4.895 -0.75,4.839 -0.412,-0.056 -2.212,-0.571 -4,-1.145 z m -12.5,-3.915 c -2.436,-0.89 -2.75,-1.512 -2.75,-5.44 0,-4.319 0.073,-4.42 2.75,-3.834 5.127,1.124 5.25,1.262 5.25,5.905 0,4.839 -0.444,5.124 -5.25,3.369 z M 36.25,143.294 34,142.861 V 108.037 C 34,70.121 33.709,72 39.582,72 H 42 v 36 c 0,39.586 0.503,36.499 -5.75,35.294 z m -12.5,-2.983 C 22.376,139.951 22,138.773 22,134.82 c 0,-4.18 0.269,-4.93 1.582,-4.427 0.87,0.334 2.67,0.607 4,0.607 2.235,0 2.418,0.378 2.418,5 0,5.276 -0.702,5.76 -6.25,4.31 z M 13,138.11 c -2.127,-0.588 -2.544,-1.361 -2.796,-5.182 l -0.296,-4.49 4.046,0.385 4.046,0.386 v 4.895 c 0,5.126 -0.242,5.32 -5,4.005 z M 23.25,126.337 C 22.5,126.034 22,123.958 22,121.139 v -4.693 l 4,0.382 4,0.381 v 4.895 c 0,4.692 -0.114,4.892 -2.75,4.816 -1.512,-0.043 -3.313,-0.306 -4,-0.583 z m -10,-1.061 C 10.132,124.889 10,124.692 10,120.436 V 116 h 8 v 5 c 0,2.75 -0.338,4.928 -0.75,4.84 -0.412,-0.088 -2.212,-0.342 -4,-0.563 z M 22,108 v -5 h 8 v 10 H 22 Z M 10,107.5 V 103 h 8 v 9 h -8 z m 0,-13 V 90 h 8 v 9 h -8 z m 12,-0.44 c 0,-4.147 0.316,-5.062 1.75,-5.074 0.963,-0.007 2.788,-0.291 4.057,-0.631 2.225,-0.596 2.296,-0.427 2,4.764 L 29.5,98.5 25.75,98.81 22,99.12 Z M 10,82.576 c 0,-4.758 0.111,-4.885 5.25,-6.012 C 17.965,75.97 18,76.026 18,80.981 18,85.623 17.818,86 15.582,86 c -1.33,0 -3.13,0.273 -4,0.607 C 10.28,87.107 10,86.394 10,82.576 Z m 12,-2.451 c 0,-4.66 0.138,-4.903 3.125,-5.5 C 29.956,73.659 30,73.697 30,78.883 30,83.103 29.694,83.849 27.75,84.37 22.597,85.75 22,85.31 22,80.125 Z M 10,69.444 c 0,-3.903 0.337,-4.622 2.565,-5.469 4.711,-1.791 5.435,-1.324 5.435,3.506 0,4.076 -0.249,4.535 -2.75,5.083 -1.512,0.332 -3.313,0.776 -4,0.988 C 10.378,73.821 10,72.577 10,69.444 Z M 22,66.2 c 0,-4.948 0.008,-4.96 4,-5.973 l 4,-1.015 v 4.834 c 0,5.315 -0.072,5.411 -4.75,6.415 L 22,71.158 Z m 12,-3.142 c 0,-5.426 0.065,-5.516 4.75,-6.52 L 42,55.84 v 5.455 c 0,5.309 -0.083,5.47 -3.125,6.079 C 34.041,68.341 34,68.304 34,63.058 Z M 10.19,56.474 c 0.294,-4.536 0.505,-4.851 4.06,-6.077 L 18,49.105 v 4.839 c 0,4.278 -0.28,4.91 -2.407,5.443 -1.324,0.333 -3.151,0.89 -4.06,1.239 -1.42,0.544 -1.61,-0.043 -1.343,-4.15 z M 22,52.108 c 0,-4.333 0.275,-4.96 2.407,-5.495 1.324,-0.333 3.124,-0.88 4,-1.216 1.327,-0.509 1.593,0.227 1.593,4.398 0,4.72 -0.182,5.073 -3.15,6.107 C 22.163,57.537 22,57.41 22,52.108 Z m 12.201,-3.797 c 0.294,-5.52 0.366,-5.641 4.098,-6.93 l 3.799,-1.31 -0.3,5.618 c -0.293,5.52 -0.365,5.641 -4.097,6.93 l -3.799,1.31 z M 10,43.685 c 0,-3.954 0.295,-4.455 3.534,-6 1.944,-0.927 3.744,-1.685 4,-1.685 0.256,0 0.466,2.048 0.466,4.551 0,4.248 -0.231,4.648 -3.468,6 C 12.625,47.348 10.825,48 10.532,48 10.239,48 10,46.058 10,43.685 Z M 22,37 c 0,-3.3 -0.413,-6 -0.917,-6 -0.504,0 -3.017,0.9 -5.583,2 -2.566,1.1 -4.854,2 -5.083,2 C 10.187,35 10,33.075 10,30.722 v -4.279 l 10,-5.295 10,-5.295 v 24.951 l -3.15,1.098 C 22.104,43.557 22,43.453 22,37 Z m 12,-3.395 c 0,-5.007 0.153,-5.308 3.534,-6.92 1.944,-0.927 3.744,-1.685 4,-1.685 0.256,0 0.466,2.407 0.466,5.348 0,5.311 -0.028,5.36 -4,6.92 l -4,1.571 z m 0,-14.87 c 0,-4.794 0.28,-5.469 2.904,-7.02 C 41.35,9.09 42,9.508 42,14.98 42,19.783 41.858,20.032 38,22 l -4,2.04 z"
       transform="translate(-9.017,-8.72)"
       id="path8" />
    <path
       style="fill:#ffffff;fill-opacity:1"
       d="m 37.25,188.255 c -2.993,-1.49 -3.25,-1.999 -3.25,-6.436 0,-5.241 0.567,-5.611 5.05,-3.293 2.667,1.379 2.95,2.003 2.95,6.5 0,5.484 -0.092,5.547 -4.75,3.229 z m 27.25,-1.006 c -0.657,-0.492 -0.907,-31.227 -0.729,-89.638 l 0.271,-88.89 16.23,0.57 c 8.991,0.317 18.012,1.154 20.228,1.877 2.2,0.719 5.883,3.183 8.184,5.477 7.113,7.09 7.316,8.638 7.316,55.855 0,45.295 -0.271,47.77 -5.99,54.685 C 104.997,133.245 98.684,135 81.893,135 H 67.861 l 0.225,26.25 c 0.188,21.895 -0.007,26.291 -1.18,26.499 -0.773,0.137 -1.856,-0.088 -2.406,-0.5 z m 36,-59.13 c 4.76,-2.186 6.812,-4.336 9.212,-9.656 1.597,-3.54 1.821,-8.038 2.102,-42.142 0.343,-41.683 -0.147,-47.444 -4.566,-53.732 C 102.436,15.74 98.646,14.502 82.5,14.501 L 68.5,14.5 68.242,72.25 67.984,130 82.242,129.978 c 11.685,-0.018 14.98,-0.353 18.258,-1.859 z M 129,96.86 V 8.72 l 16.452,0.5 c 15.412,0.467 16.808,0.673 22.1,3.262 6.64,3.249 10.755,8.863 12.437,16.968 0.727,3.501 0.987,26.74 0.795,71.125 -0.315,73.217 -0.006,69.837 -7.085,77.298 -5.94,6.26 -9.169,7.081 -27.949,7.106 L 129,185 Z m 31.067,83.033 c 3.45,-0.74 6.43,-2.25 8.971,-4.545 7.104,-6.419 6.963,-4.834 6.956,-77.775 -0.004,-42.322 -0.372,-66.393 -1.054,-68.85 -0.577,-2.077 -2.441,-5.362 -4.143,-7.3 -5.26,-5.99 -7.763,-6.776 -23.047,-7.236 L 134,13.773 V 181 h 10.45 c 5.749,0 12.776,-0.499 15.617,-1.108 z M 25.25,182.255 C 22.267,180.77 22,180.247 22,175.893 v -4.744 l 3.99,1.675 c 3.855,1.62 3.99,1.836 4,6.426 0.011,5.249 -0.095,5.316 -4.74,3.005 z m -11.5,-5.323 c -3.373,-1.78 -3.75,-2.38 -3.75,-5.956 0,-4.435 0.034,-4.455 4.679,-2.775 3.133,1.133 3.321,1.472 3.321,6 0,2.64 -0.113,4.78 -0.25,4.755 -0.138,-0.025 -1.938,-0.935 -4,-2.024 z m 23.5,-3.677 c -2.993,-1.49 -3.25,-1.999 -3.25,-6.436 0,-5.226 0.167,-5.354 4.85,-3.721 3.009,1.048 3.15,1.34 3.15,6.5 0,2.971 -0.338,5.373 -0.75,5.338 -0.412,-0.035 -2.212,-0.792 -4,-1.681 z m -12,-4.84 c -2.974,-1.3 -3.25,-1.802 -3.25,-5.918 0,-4.891 0.19,-5.024 4.85,-3.4 2.956,1.03 3.15,1.401 3.15,6 0,5.359 -0.032,5.382 -4.75,3.319 z m -12.5,-4.714 C 10.335,162.746 10,162.081 10,158.24 c 0,-3.897 0.218,-4.313 2,-3.807 l 4,1.134 c 1.614,0.458 2,1.424 2,5 0,4.744 -0.468,5.023 -5.25,3.134 z M 38,158.589 c -3.319,-1.193 -3.516,-1.526 -3.802,-6.423 -0.325,-5.556 -0.123,-5.733 4.653,-4.068 3.008,1.048 3.149,1.34 3.149,6.5 0,2.971 -0.113,5.368 -0.25,5.326 -0.138,-0.042 -1.825,-0.642 -3.75,-1.335 z M 25.75,154.694 C 22.051,153.814 22,153.734 22,148.926 v -4.876 l 3.25,0.607 c 4.493,0.84 4.915,1.44 4.56,6.497 l -0.31,4.432 z m -13,-3.856 C 10.308,149.946 10,149.331 10,145.349 c 0,-4.006 0.213,-4.423 2,-3.916 l 4,1.134 c 1.614,0.458 2,1.424 2,5 0,4.734 -0.46,5.02 -5.25,3.27 z M 36.25,143.294 34,142.861 V 73.233 L 36.25,72.63 C 42.408,70.98 42,68.47 42,108 c 0,39.586 0.503,36.499 -5.75,35.294 z m -12.5,-2.983 C 22.376,139.951 22,138.773 22,134.82 c 0,-4.18 0.269,-4.93 1.582,-4.427 0.87,0.334 2.67,0.607 4,0.607 2.235,0 2.418,0.378 2.418,5 0,5.276 -0.702,5.76 -6.25,4.31 z M 13.5,138.127 c -2.703,-0.574 -3.03,-1.063 -3.31,-4.946 l -0.311,-4.309 3.81,0.314 c 3.786,0.312 3.813,0.345 4.116,5.064 0.167,2.612 -0.058,4.697 -0.5,4.632 -0.443,-0.065 -2.155,-0.405 -3.805,-0.755 z M 23.75,126.311 C 22.416,125.962 22,124.801 22,121.427 V 117 h 8 v 5 c 0,5.276 -0.702,5.76 -6.25,4.31 z m -10,-1.04 C 10.039,124.883 10,124.833 10,120.44 V 116 h 8 v 5 c 0,2.75 -0.113,4.924 -0.25,4.832 -0.138,-0.093 -1.938,-0.345 -4,-0.56 z m 8.917,-12.938 C 22.3,111.967 22,109.717 22,107.333 V 103 h 8 v 10 h -3.333 c -1.834,0 -3.634,-0.3 -4,-0.667 z M 10,107.5 V 103 h 8 v 9 h -8 z m 0,-13 V 90 h 8 v 9 h -8 z m 12,-0.39 c 0,-4.853 0.027,-4.894 3.53,-5.303 1.942,-0.227 3.742,-0.201 4,0.057 C 29.789,89.122 30,91.235 30,93.56 30,98.034 29.009,99 24.418,99 22.19,99 22,98.615 22,94.11 Z M 10,82.334 c 0,-4.698 0.237,-4.986 4.5,-5.484 2.918,-0.341 3.008,-0.224 3.3,4.29 l 0.3,4.64 -4.05,0.386 L 10,86.552 Z M 22,80 c 0,-4.09 0.318,-5.002 1.75,-5.014 0.963,-0.007 2.763,-0.285 4,-0.616 2.113,-0.567 2.25,-0.3 2.25,4.388 0,4.791 -0.126,5.017 -3.125,5.617 C 22.039,85.342 22,85.308 22,80 Z M 10,69.453 c 0,-4.789 0.104,-4.918 4.75,-5.915 L 18,62.841 V 67.3 c 0,4.365 -0.083,4.479 -4,5.473 l -4,1.015 z m 12,-3.257 c 0,-4.301 0.3,-5.043 2.25,-5.566 5.064,-1.357 5.75,-0.902 5.75,3.811 0,4.9 -0.097,5.023 -4.75,6.02 L 22,71.16 Z m 12,-3.098 c 0,-4.6 0.194,-4.97 3.15,-6 4.695,-1.638 4.85,-1.513 4.85,3.927 0,4.473 -0.281,5.131 -2.565,6 C 34.645,68.845 34,68.379 34,63.098 Z M 10,56.66 c 0,-3.68 0.387,-4.516 2.547,-5.5 4.484,-2.042 5.453,-1.53 5.453,2.89 0,3.677 -0.32,4.185 -3.468,5.5 -1.907,0.797 -3.707,1.449 -4,1.449 -0.293,0 -0.532,-1.953 -0.532,-4.34 z m 12,-4.212 c 0,-4.248 0.231,-4.648 3.468,-6 1.907,-0.797 3.707,-1.449 4,-1.449 0.293,0 0.532,2.206 0.532,4.902 0,4.6 -0.194,4.97 -3.15,6 C 22.187,57.528 22,57.396 22,52.45 Z M 34,48.16 c 0,-4.216 0.328,-4.99 2.547,-6 4.665,-2.125 5.453,-1.585 5.453,3.742 0,4.6 -0.194,4.97 -3.15,6 C 34.166,53.535 34,53.407 34,48.161 Z m -24,-4.5 c 0,-3.68 0.387,-4.516 2.547,-5.5 4.484,-2.042 5.453,-1.53 5.453,2.89 0,3.677 -0.32,4.185 -3.468,5.5 -1.907,0.797 -3.707,1.449 -4,1.449 C 10.239,47.999 10,46.046 10,43.659 Z M 22,36.554 V 30.11 l -5.529,2.445 c -3.04,1.345 -5.74,2.445 -6,2.445 -0.259,0 -0.463,-1.913 -0.453,-4.25 l 0.018,-4.25 8.928,-4.75 C 23.874,19.137 28.367,17 28.946,17 29.623,17 30,21.101 30,28.474 V 39.95 l -2.95,1.525 C 22.388,43.885 22,43.508 22,36.556 Z m 12,-2.891 c 0,-5.075 0.146,-5.363 3.534,-6.979 1.944,-0.927 3.744,-1.685 4,-1.685 0.256,0 0.466,2.195 0.466,4.878 0,5.055 -0.565,5.905 -5.25,7.905 L 34,38.957 Z m 0.006,-14.894 c 0.006,-4.855 0.253,-5.41 3.136,-7.051 1.72,-0.98 3.291,-1.62 3.49,-1.421 0.197,0.198 0.642,2.424 0.988,4.947 0.627,4.577 0.62,4.592 -3.496,6.692 L 34,24.04 Z"
       transform="translate(-9.017,-8.72)"
       id="path10" />
    <path
       style="fill:#ffffff;fill-opacity:1"
       d="M 37.25,188.255 C 34.257,186.765 34,186.256 34,181.819 34,179.169 34.24,177 34.532,177 c 0.293,0 2.093,0.652 4,1.449 3.308,1.382 3.468,1.681 3.468,6.5 0,2.778 -0.338,5.022 -0.75,4.987 -0.412,-0.035 -2.212,-0.792 -4,-1.681 z m 27.25,-1.02 C 63.843,186.752 63.593,156.242 63.771,98.25 L 64.042,10 h 16.113 c 19.03,0 22.748,0.865 28.529,6.637 7.113,7.103 7.316,8.65 7.316,55.863 0,46.824 -0.242,48.742 -7,55.5 -5.552,5.552 -11.292,7 -27.74,7 H 67.884 l 0.12,25.25 c 0.066,13.887 0.092,25.813 0.058,26.5 -0.068,1.375 -1.994,1.637 -3.562,0.485 z m 36.53,-59.485 c 5.326,-2.69 8.438,-7.042 9.895,-13.836 1.382,-6.446 1.439,-74.695 0.068,-82.028 C 109.738,25.173 105.719,19.315 100.5,16.589 97.11,14.819 94.33,14.448 82.25,14.156 L 68,13.812 V 130 h 14.288 c 12.831,0 14.742,-0.23 18.742,-2.25 z M 129,97.419 V 9.838 l 17.75,0.331 c 17.265,0.322 17.877,0.406 22.413,3.072 5.555,3.266 8.248,7.299 10.35,15.5 1.348,5.264 1.513,14.827 1.238,71.418 -0.35,71.837 -0.144,69.435 -6.62,77.002 -5.923,6.919 -9.093,7.792 -28.381,7.817 L 129,185 Z m 37.346,80.224 c 3.016,-1.767 5.45,-4.212 6.906,-6.936 l 2.248,-4.207 0.277,-66.792 c 0.188,-45.125 -0.07,-68.08 -0.792,-70.763 -0.588,-2.184 -2.467,-5.563 -4.176,-7.51 -5.272,-6.004 -7.768,-6.789 -23.059,-7.249 L 134,13.773 v 167.483 l 13.844,-0.441 c 12.86,-0.41 14.175,-0.636 18.502,-3.172 z M 25.25,182.255 C 22.335,180.804 22,180.192 22,176.319 c 0,-4.8 0.01,-4.806 4.679,-3.118 3.133,1.133 3.321,1.472 3.321,6 0,5.3 -0.103,5.366 -4.75,3.054 z m -11.5,-5.323 c -3.373,-1.78 -3.75,-2.38 -3.75,-5.956 0,-4.527 -0.11,-4.466 4.532,-2.527 3.237,1.352 3.468,1.752 3.468,6 0,2.503 -0.113,4.531 -0.25,4.507 -0.138,-0.025 -1.938,-0.935 -4,-2.024 z m 23.5,-3.677 C 34.242,171.758 34,171.27 34,166.712 c 0,-4.096 0.269,-4.823 1.593,-4.315 0.876,0.336 2.676,0.883 4,1.216 2.17,0.544 2.407,1.134 2.407,5.995 0,2.966 -0.338,5.363 -0.75,5.328 -0.412,-0.035 -2.212,-0.792 -4,-1.681 z m -12,-4.84 C 22.26,167.108 22,166.626 22,162.39 c 0,-3.8 0.278,-4.497 1.593,-3.993 0.876,0.336 2.676,0.883 4,1.216 2.132,0.535 2.407,1.162 2.407,5.495 0,5.347 -0.033,5.37 -4.75,3.308 z m -12.5,-4.714 C 10.33,162.744 10,162.085 10,158.2 c 0,-3.627 0.284,-4.305 1.593,-3.803 0.876,0.336 2.676,0.883 4,1.216 2.086,0.523 2.407,1.19 2.407,4.995 0,4.7 -0.475,4.98 -5.25,3.093 z m 23.5,-5.732 c -1.921,-0.772 -2.25,-1.65 -2.25,-6.004 0,-4.622 0.187,-5.047 2,-4.532 l 4,1.134 c 1.653,0.47 2,1.424 2,5.5 0,5.297 -0.848,5.872 -5.75,3.902 z m -10.5,-3.172 C 22.054,153.816 22,153.73 22,148.833 c 0,-4.49 0.192,-4.913 2,-4.4 l 4,1.134 c 1.653,0.47 2,1.424 2,5.5 0,2.713 -0.113,4.886 -0.25,4.83 -0.138,-0.057 -1.938,-0.552 -4,-1.1 z m -13,-3.96 C 10.33,149.954 10,149.315 10,145.523 v -4.31 l 4,1.015 c 3.903,0.99 4,1.121 4,5.394 0,4.676 -0.468,4.962 -5.25,3.216 z m 24,-7.553 L 34,142.867 V 73.233 L 36.25,72.63 C 42.408,70.98 42,68.47 42,108 c 0,28.213 -0.27,35.968 -1.25,35.85 -0.688,-0.082 -2.487,-0.337 -4,-0.566 z m -13,-2.973 C 22.392,139.956 22,138.785 22,135.084 v -4.77 l 3.75,0.606 c 3.664,0.59 3.757,0.714 4.055,5.342 0.283,4.396 0.138,4.73 -2,4.622 -1.268,-0.064 -3.093,-0.322 -4.055,-0.573 z M 13.5,138.127 c -2.694,-0.572 -3.031,-1.07 -3.307,-4.882 C 9.908,129.312 10.067,129 12.361,129 c 4.693,0 5.639,0.94 5.639,5.607 0,2.416 -0.338,4.34 -0.75,4.275 -0.412,-0.065 -2.1,-0.405 -3.75,-0.755 z M 23.75,126.311 C 22.416,125.962 22,124.801 22,121.427 V 117 h 8 v 5 c 0,5.276 -0.702,5.76 -6.25,4.31 z M 10,120.5 V 116 h 8 v 9 h -8 z m 13.25,-8.162 C 22.515,112.041 22,110.014 22,107.417 V 103 h 8 v 5 c 0,4.807 -0.106,4.997 -2.75,4.921 -1.512,-0.043 -3.313,-0.306 -4,-0.583 z M 10,107.5 V 103 h 8 v 9 h -8 z m 0,-13 V 90 h 8 v 9 h -8 z m 12,-0.39 c 0,-4.853 0.027,-4.894 3.53,-5.303 1.942,-0.227 3.742,-0.201 4,0.057 0.259,0.258 0.47,2.363 0.47,4.678 0,3.913 -0.22,4.252 -3.125,4.833 C 22.043,99.341 22,99.304 22,94.109 Z M 10.19,81.813 c 0.303,-4.212 0.4,-4.321 4.12,-4.628 l 3.811,-0.314 -0.31,4.314 c -0.304,4.212 -0.4,4.321 -4.122,4.628 l -3.81,0.314 z M 22,80 c 0,-4.09 0.318,-5.002 1.75,-5.014 0.963,-0.007 2.763,-0.285 4,-0.616 2.113,-0.567 2.25,-0.3 2.25,4.388 0,4.791 -0.126,5.017 -3.125,5.617 C 22.039,85.342 22,85.308 22,80 Z M 10,69.059 c 0,-4.374 0.135,-4.531 4.75,-5.52 L 18,62.84 v 4.463 c 0,3.783 -0.343,4.555 -2.25,5.066 C 10.808,73.693 10,73.229 10,69.058 Z m 12,-2.923 c 0,-4.239 0.305,-4.984 2.25,-5.506 5.083,-1.362 5.75,-0.91 5.75,3.901 0,4.643 -0.123,4.781 -5.25,5.905 -2.708,0.593 -2.75,0.527 -2.75,-4.3 z m 12,-2.959 c 0,-4.688 0.185,-5.046 3.15,-6.08 4.69,-1.634 4.85,-1.507 4.85,3.845 0,5.426 -0.065,5.516 -4.75,6.52 L 34,68.16 Z M 10,56.591 c 0,-3.605 0.397,-4.45 2.547,-5.43 C 17.003,49.13 18,49.638 18,53.94 18,58.16 17.56,58.691 12.967,60.008 10.008,60.858 10,60.848 10,56.59 Z m 12,-4.142 c 0,-4.248 0.231,-4.648 3.468,-6 1.907,-0.797 3.707,-1.449 4,-1.449 0.293,0 0.532,2.206 0.532,4.902 0,4.6 -0.194,4.97 -3.15,6 C 22.187,57.528 22,57.396 22,52.45 Z m 12,-4.288 c 0,-4.216 0.328,-4.99 2.547,-6 4.665,-2.126 5.453,-1.586 5.453,3.741 0,4.6 -0.194,4.97 -3.15,6 C 34.166,53.535 34,53.407 34,48.161 Z m -24,-4.5 c 0,-3.68 0.387,-4.516 2.547,-5.5 3.975,-1.812 4.453,-1.464 4.453,3.241 0,4.039 -0.26,4.493 -3.15,5.5 C 12.119,47.506 10.544,48 10.35,48 10.158,48 10,46.047 10,43.66 Z m 12,-7.148 v -6.488 l -5.624,2.488 c -3.094,1.368 -5.794,2.487 -6,2.487 -0.207,0 -0.37,-1.913 -0.364,-4.25 L 10.024,26.5 18.619,22 c 4.727,-2.475 8.997,-4.65 9.488,-4.833 C 28.6,16.983 29,22.179 29,28.757 29,40.562 28.975,40.69 26.453,41.839 22.332,43.717 22,43.32 22,36.513 Z m 12,-2.876 c 0,-5.049 0.147,-5.337 3.55,-6.96 l 3.55,-1.692 -0.3,5.597 c -0.282,5.258 -0.497,5.68 -3.55,6.96 L 34,38.903 Z m 0,-14.968 c 0,-5.07 0.15,-5.37 3.5,-6.968 L 41,10.032 v 5.299 c 0,5.07 -0.15,5.37 -3.5,6.968 L 34,23.968 Z"
       transform="translate(-9.017,-8.72)"
       id="path12" />
    <path
       style="fill:#ffffff;fill-opacity:1"
       d="M 37.25,188.255 C 34.257,186.765 34,186.256 34,181.819 34,179.169 34.24,177 34.532,177 c 0.293,0 2.093,0.652 4,1.449 3.308,1.382 3.468,1.681 3.468,6.5 0,2.778 -0.338,5.022 -0.75,4.987 -0.412,-0.035 -2.212,-0.792 -4,-1.681 z m 27.122,-1.505 c -0.485,-0.696 -0.754,-40.202 -0.606,-89.063 l 0.266,-87.813 17.734,0.313 c 15.67,0.277 18.2,0.556 21.734,2.401 5.351,2.794 10.067,9.167 11.408,15.418 1.744,8.133 1.47,84.417 -0.324,90.38 -1.939,6.443 -5.408,10.662 -11.198,13.619 -4.46,2.278 -6.218,2.525 -20.18,2.836 l -15.295,0.34 0.14,25.351 c 0.076,13.943 -0.155,25.828 -0.515,26.41 -0.872,1.41 -2.097,1.337 -3.164,-0.192 z m 35.374,-58.288 c 4.772,-1.994 6.98,-4.052 9.61,-8.962 2.095,-3.91 2.144,-4.962 2.144,-46.5 0,-41.264 -0.062,-42.634 -2.131,-47.108 -2.293,-4.96 -6.825,-8.931 -12.268,-10.754 C 95.23,14.512 87.919,14 80.85,14 H 68 v 116 h 14.032 c 10.366,0 14.994,-0.402 17.714,-1.538 z M 129,97.5 V 10 h 15.822 c 19.175,0 23.32,1.082 29.042,7.583 6.737,7.654 6.636,6.433 6.636,79.917 0,75.046 0.198,72.911 -7.449,80.524 -6.147,6.12 -9.633,6.976 -28.417,6.976 H 129 Z m 37.262,80.192 c 3.097,-1.815 5.521,-4.237 6.99,-6.985 L 175.5,166.5 v -138 l -2.793,-4.752 C 168.091,15.895 164.343,14.522 147.5,14.51 l -14,-0.01 -0.258,82 c -0.142,45.1 -0.024,82.613 0.262,83.363 0.414,1.086 3.32,1.286 14.268,0.986 12.882,-0.354 14.047,-0.553 18.49,-3.157 z M 25.25,182.255 C 22.335,180.804 22,180.192 22,176.319 c 0,-4.724 0.636,-5.076 5.05,-2.793 2.6,1.344 2.95,2.056 2.95,6 0,4.958 -0.125,5.03 -4.75,2.729 z m -11.5,-5.323 c -3.373,-1.78 -3.75,-2.38 -3.75,-5.956 0,-4.527 -0.11,-4.466 4.532,-2.527 3.237,1.352 3.468,1.752 3.468,6 0,2.503 -0.113,4.531 -0.25,4.507 -0.138,-0.025 -1.938,-0.935 -4,-2.024 z m 24,-3.59 C 34.124,171.838 34,171.621 34,166.786 c 0,-4.163 0.267,-4.898 1.593,-4.389 0.876,0.336 2.676,0.883 4,1.216 2.17,0.544 2.407,1.134 2.407,5.995 0,2.966 -0.113,5.369 -0.25,5.34 -0.138,-0.028 -1.938,-0.751 -4,-1.606 z m -12.5,-4.926 C 22.26,167.108 22,166.626 22,162.39 c 0,-3.8 0.278,-4.497 1.593,-3.993 0.876,0.336 2.676,0.883 4,1.216 2.132,0.535 2.407,1.162 2.407,5.495 0,5.347 -0.033,5.37 -4.75,3.308 z m -12.5,-4.715 C 10.33,162.744 10,162.085 10,158.2 c 0,-3.627 0.284,-4.305 1.593,-3.803 0.876,0.336 2.676,0.883 4,1.216 2.086,0.523 2.407,1.19 2.407,4.995 0,4.7 -0.475,4.98 -5.25,3.093 z m 23.5,-5.732 c -1.921,-0.772 -2.25,-1.65 -2.25,-6.004 0,-4.622 0.187,-5.047 2,-4.532 l 4,1.134 c 1.653,0.47 2,1.424 2,5.5 0,5.297 -0.848,5.872 -5.75,3.902 z M 26,154.589 c -3.256,-1.17 -3.521,-1.588 -3.808,-6.009 -0.285,-4.384 -0.15,-4.706 1.75,-4.166 L 28,145.567 c 1.653,0.47 2,1.424 2,5.5 0,2.713 -0.113,4.899 -0.25,4.857 -0.138,-0.042 -1.825,-0.642 -3.75,-1.334 z M 13.25,150.881 C 10.223,150.007 10,149.643 10,145.578 v -4.365 l 4,1.015 c 3.903,0.99 4,1.121 4,5.394 0,2.408 -0.338,4.337 -0.75,4.288 -0.412,-0.05 -2.212,-0.513 -4,-1.029 z M 37,143.106 34.5,142.41 34.237,107.825 33.974,73.24 36.237,72.634 C 42.41,70.98 42,68.46 42,108 c 0,28.186 -0.271,35.978 -1.25,35.9 -0.688,-0.054 -2.375,-0.412 -3.75,-0.795 z M 24.25,140.294 C 22.291,139.917 22,139.243 22,135.088 v -4.773 l 3.75,0.605 c 3.664,0.59 3.757,0.714 4.055,5.342 0.325,5.058 0.208,5.142 -5.555,4.032 z m -7.75,-1.867 a 190.05,190.05 0 0 0 -3.75,-0.859 C 10.312,137.031 10,136.51 10,132.981 c 0,-3.68 0.208,-3.98 2.75,-3.966 4.327,0.024 5.415,1.243 5.065,5.674 -0.173,2.195 -0.765,3.877 -1.315,3.738 z m 7.75,-12.133 C 22.32,125.923 22,125.23 22,121.43 V 117 h 8 v 5 c 0,5.304 -0.104,5.382 -5.75,4.294 z M 10,120.5 V 116 h 8 v 9 h -8 z m 14.75,-8.216 C 22.226,111.901 22,111.503 22,107.434 V 103 h 8 v 5 c 0,3.413 -0.397,4.952 -1.25,4.85 -0.688,-0.082 -2.487,-0.337 -4,-0.566 z M 10,107.5 V 103 h 8 v 9 h -8 z m 0,-13 V 90 h 8 v 9 H 10 Z M 22,94.117 V 89 h 8 v 4.5 c 0,3.614 -0.345,4.503 -1.75,4.514 -0.963,0.007 -2.763,0.285 -4,0.616 C 22.131,99.198 22,98.935 22,94.117 Z M 10,82.167 C 10,77.972 11.061,77 15.64,77 c 2.293,0 2.452,0.312 2.167,4.25 -0.298,4.125 -0.417,4.26 -4.057,4.56 L 10,86.12 Z m 12,-2.05 c 0,-4.201 0.313,-5.12 1.75,-5.13 0.963,-0.008 2.763,-0.286 4,-0.617 2.119,-0.568 2.25,-0.305 2.25,4.513 0,4.201 -0.313,5.12 -1.75,5.13 -0.963,0.008 -2.763,0.286 -4,0.617 C 22.131,85.198 22,84.935 22,80.117 Z M 10,69.059 c 0,-4.268 0.15,-4.46 4.25,-5.44 C 16.934,62.978 17,63.069 17,67.374 17,71.92 16.024,73 11.918,73 10.352,73 10,72.277 10,69.059 Z m 12,-3.04 c 0,-3.341 0.418,-5.024 1.25,-5.033 0.688,-0.007 2.263,-0.285 3.5,-0.616 2.092,-0.561 2.25,-0.284 2.25,3.954 0,4.91 -0.111,5.068 -4.25,6.057 C 22.028,71.031 22,70.987 22,66.019 Z m 12,-2.805 c 0,-4.73 0.181,-5.081 3.15,-6.116 1.73,-0.604 3.305,-1.098 3.5,-1.098 0.192,0 0.35,2.475 0.35,5.5 0,3.726 -0.403,5.504 -1.25,5.514 -0.688,0.007 -2.263,0.285 -3.5,0.616 C 34.135,68.197 34,67.931 34,63.214 Z M 10,56.567 c 0,-3.58 0.4,-4.428 2.547,-5.406 3.969,-1.809 4.453,-1.464 4.453,3.171 0,4.08 -0.204,4.395 -3.5,5.407 L 10,60.813 Z m 12.195,-4.25 c 0.276,-4.228 0.62,-4.81 3.555,-6.002 L 29,44.995 v 4.904 c 0,4.603 -0.194,4.973 -3.15,6.003 C 24.12,56.506 22.52,57 22.297,57 c -0.223,0 -0.268,-2.107 -0.1,-4.682 z M 34,48.162 c 0,-4.216 0.328,-4.99 2.547,-6 4.03,-1.837 4.453,-1.47 4.453,3.863 0,4.473 -0.281,5.131 -2.565,6 C 34.349,53.578 34,53.274 34,48.16 Z M 10,43.568 c 0,-3.58 0.4,-4.428 2.547,-5.406 3.969,-1.81 4.453,-1.465 4.453,3.17 0,4.08 -0.204,4.395 -3.5,5.407 L 10,47.813 Z M 22,36.5 C 22,32.925 21.76,30 21.467,30 21.173,30 18.713,31.125 16,32.5 13.287,33.875 10.827,35 10.533,35 10.24,35 10.005,33.087 10.012,30.75 L 10.024,26.5 18.619,22 c 4.727,-2.475 8.997,-4.65 9.488,-4.833 C 28.6,16.983 29,22.205 29,28.819 v 11.985 l -3.15,1.098 C 24.12,42.506 22.545,43 22.35,43 22.158,43 22,40.075 22,36.5 Z m 12,-3.315 c 0,-4.518 0.216,-4.917 3.5,-6.484 L 41,25.032 v 5.324 c 0,4.734 -0.282,5.451 -2.547,6.483 C 34.44,38.668 34,38.306 34,33.185 Z m 0,-14.408 c 0,-5.21 0.13,-5.468 3.553,-7.1 l 3.552,-1.695 -0.302,5.209 c -0.272,4.683 -0.631,5.4 -3.553,7.1 L 34,24.185 Z"
       transform="translate(-9.017,-8.72)"
       id="path14" />
  </g>
</svg>
