<svg width="623.495" height="831.663" xmlns="http://www.w3.org/2000/svg">
    <path style="display:inline;fill:#010101;stroke:none;stroke-width:1.01053" d="M360.758 16.168v1.01l48.505 22.233v1.01C328.675 7.537 231.387 14.183 160.543 65.58c-17.97 13.037-35.236 30.371-46.657 49.621-3.405 5.739-8.318 9.12-8.791 16.168 3.406-.145 8.743-1.908 11.517.754 3.056 2.935 1.62 10.565 1.62 14.404 0 12.81-1.308 25.648-.996 38.4.551 22.484 4.563 45.182 4.012 67.706-.826 33.795-5.256 67.341-.995 101.052h1.01c.008-11.577 3.162-22.83 3.951-34.358 1.2-17.503-1.166-36.997 5.603-53.558 4.478-10.959 15.44-17.397 20.434-28.294 3.788-8.266 4.164-17.794 8.311-26.274 10.412-21.287 28.23-40.734 48.606-52.636 27.419-16.015 68.341-28.786 100.058-30.936 7.065-.479 14.112 3.822 20.195 3.275 10.124-.912 16.337-7.713 28.295-6.432 20.348 2.177 43.778 9.097 61.627 19.43 11.273 6.525 20.986 14.93 33.362 19.804 1.659-36.297 13.78-71.39-9.18-104.124-5.472-7.801-13.763-24.274-25.178-23.202-1.906-5.624-9.007-7.83-14.147-9.903-13.65-5.504-27.407-12.852-42.442-10.308m60.631 131.369 1.011 1.01-1.01-1.01m34.357 27.284 3.032 1.01c-2.907 6.742 4.171 18.829 7.143 25.264 4.208 9.109 7.348 27.668 5.994 37.39 21.387 5.994 22.472 38.94 23.242 56.589-8.112-4.072-23.225-1.822-29.746-7.824-2.92-2.688-2.76-7.876-4.827-11.205-5.345-8.608-14.091-17.594-23.027-22.403l1.01-2.02c-20.844-12.76-44.49-21.596-67.705-29.11-4.568-1.478-19.33-7.524-23.487-4.196-3.595 2.878-.034 15.975.245 20.168 26.836 4.982 62.955 10.792 86.905 25.09 9.44 5.635 16.752 15.578 24.253 23.415-48.106-6.111-90.91 6.905-138.442 8.07-32.483.796-64.666-8.796-97.01-11.011-30.719-2.103-59.77 5.11-89.938 9.005 0 16.756 7.068 18.508 13.74 32.336 7.077 14.666 9.507 33.454 21.805 45.262 21.997 21.123 74.497 19.438 98.855 4.29 12.4-7.712 22.55-20.071 28.435-33.383 3.345-7.566 5.096-20.79 15.02-22.097 19.535-2.572 21.721 16.641 28.93 30.181 5.835 10.96 15.545 20.59 26.647 26.153 28.81 14.434 79.416 15.223 100.559-13.031 12.37-16.533 10.68-38.296 27.778-51.522 0 13.195.857 26.264 1.014 39.41.022 1.793.322 12.547 4.497 9.928 2.887-1.81 1.456-9.085 1.654-11.948.87-12.703 2.719-24.581 1.207-37.39-2.901-24.59-.753-50.46-6.018-74.779-4.172-19.273-16.058-43.127-15.49-62.652-3.795-3.924-3.547-10.93-7.73-14.272-8.601-6.873-17.73 8.88-18.545 15.282m-290.02 110.147c12.382-3.59 22.694-13.266 35.368-15.785 29.051-5.776 61.19 2.55 89.937 2.649l6.063-19.2c-33.025-.004-70.25-4.813-101.092 8.828-11.344 5.017-27.3 9.795-30.277 23.508m53.558 6.353c18.759-2.214 60.249-.524 71.209 17.94 5.792 9.757.505 22.361-4.518 31.286-13.053 23.193-30.37 33.966-56.586 37.102-33.967 4.062-60.487-10.002-68.133-44.175-1.912-8.545-4.144-21.839 1.862-29.25 11.541-14.24 39.974-10.994 56.166-12.903m174.821 0c18.8-2.22 59.905-2.378 73.552 12.89 6.647 7.437 4.516 19.308 2.58 28.252-6.288 29.032-21.889 41.72-50.869 45.186-30.41 3.637-61.84-9.312-74.916-38.112-4.251-9.364-10.169-21.762-3.246-31.286 10.574-14.547 36.816-15.033 52.9-16.93M288 356.716l1.01 1.01-1.01-1.01m-10.105 11.116 1.01 1.01-1.01-1.01m-230.4 280.926L0 658.863v171.79h190.99c3.35 0 10.743 1.365 13.108-1.62 2.6-3.281 1.039-11.589 1.039-15.56-.001-14.516 1.98-35.662-2.306-49.46-1.756-5.654-8.886-5.519-9.82-12.181-12.537 2.214-27.652-9.208-38.4-14.44-29.595-14.406-49.914-38.135-73.769-60.248-10.527-9.76-25.014-16.797-34.358-27.376l1.01-1.01c37.302 26.506 66.59 66.91 108.127 86.531 7.82 3.694 27.985 18.376 36.951 14.828 4.11-1.626 1.218-7.652.408-10.412-2.859-9.75-3.975-22.442-9.292-31.14-4.9-8.019-14.723-12.537-20.173-20.307-4.38-6.246-5.618-15.377-8.92-22.321-6.876-14.468-19.409-31.21-21.095-47.495-1.092-10.53-.871-27.616 3.49-37.3 4.31-9.568 14.428-8.84 10.547-21.31-18.397.84-26.452 11.576-41.433 18.878-8.571 4.179-18.944-2.551-27.153 1.189-21.503 9.797-38.146 46.844-31.456 68.859m61.642-69.726c-1.93 7.502-8.448 21.063-14.148 26.273-.913-7.752 6.92-23.115 14.148-26.273M403.2 830.652h220.295v-155.62l-37.39-8.085 1.01 4.042c-10.793 4.493-18.27 15.812-27.283 23.067-9.955 8.013-23.013 14.458-34.358 20.343-22.241 11.535-49.847 12.3-73.769 16.464-8.24 1.434-15.241 6.438-23.242 7.832 16.122-11.213 31.57-8.494 49.516-12.494 29.336-6.54 61.378-16.624 84.317-37.026 12.964-11.53 32.56-27.904 23.39-47.49-6.357-13.583-19.732-9.963-27.875-19.2-4 .352-12.414-.117-13.137-5.053l-21.221-3.032c2.704 8.442 7.612 22.197 0 29.305 1.517-11.764 2.119-20.184-5.053-30.316h3.032c-11.791-18.87-23.485-22.484-43.453-27.006-8.15-1.845-22.3-3.367-27.685 4.794-7.404 11.221 4.503 16.147 9.603 23.409 3.393 4.831 2.777 15.71.757 21.035-5.922 15.619-16.243 29.873-22.38 45.474-6.759 17.177-7.954 35.252-13.149 52.487-1.574 5.223-8.213 4.867-10.242 11.177-8.51 26.469-11.665 58.239-11.683 85.894m-143.495-14.148 8.084 4.042 2.022-9.094h1.01c-1.123 4.91-3.412 10.438-.26 15.098 4.87 7.2 17.65 6.564 21.481-.956 7.664-15.04-10.115-24.64-21.22-14.142l2.02-5.053-7.074-1.01c2.98-10.35 10.015-27.8 18.289-34.572 7.584-6.205 18.155-8.225 26.175-13.934 13.904 26.805 69.139 36.943 54.568 74.78 3.478 0 9.466 1.14 12.121-1.62 4.307-4.48 4.828-15.847-3.026-15.56-7.006-24.32-40.397-45.091-59.621-59.62v-1.011c2.399-1.842 16.652-23.67 9.222-22.312-3.392.62-10.295 15.165-13.264 18.27-.919-2.904-2.322-5.36-3.669-8.085-.814-1.646-1.487-3.345-2.167-5.047-7.534-18.85-1.685 18.093-.775 17.064-8.62 9.754-28.254 9.736-36.198 20.34-6.725 8.977-17.83 31.229-18.559 42.418-.588 9.023 8.678 6.213 10.841.004m56.59-78.82 1.01 1.01-1.01-1.01m15.158 92.968v1.01h4.042z"/>
</svg>
